<?xml version="1.0" encoding="UTF-8"?>
<svg id="Ebene_1" data-name="Ebene 1" xmlns="http://www.w3.org/2000/svg" version="1.1" viewBox="0 0 471.1 266.4">
  <defs>
    <style>
      .cls-1 {
        fill: #fff;
        stroke-width: 0px;
      }
    </style>
  </defs>
  <rect class="cls-1" x="109.7" y="130.3" width="1.9" height="1" transform="translate(-50 71.4) rotate(-29.5)"/>
  <rect class="cls-1" x="113" y="128.5" width="1.9" height="1" transform="translate(-48.7 72.7) rotate(-29.5)"/>
  <rect class="cls-1" x="116.3" y="126.6" width="1.9" height="1" transform="translate(-47.4 74.1) rotate(-29.5)"/>
  <rect class="cls-1" x="119.5" y="124.8" width="1.9" height="1" transform="translate(-46 75.5) rotate(-29.5)"/>
  <rect class="cls-1" x="122.8" y="122.9" width="1.9" height="1" transform="translate(-44.7 76.8) rotate(-29.5)"/>
  <rect class="cls-1" x="106.5" y="132.2" width="1.9" height="1" transform="translate(-51.4 70) rotate(-29.5)"/>
  <rect class="cls-1" x="126.1" y="121.3" width="1" height="1" transform="translate(-43.5 78.1) rotate(-29.5)"/>
  <rect class="cls-1" x="116.3" y="74.6" width="1.9" height="1" transform="translate(-21.8 67.4) rotate(-29.5)"/>
  <rect class="cls-1" x="122.8" y="70.9" width="1.9" height="1" transform="translate(-19.1 70.1) rotate(-29.5)"/>
  <rect class="cls-1" x="106.5" y="80.2" width="1.9" height="1" transform="translate(-25.8 63.3) rotate(-29.5)"/>
  <rect class="cls-1" x="109.7" y="78.3" width="1.9" height="1" transform="translate(-24.5 64.6) rotate(-29.5)"/>
  <rect class="cls-1" x="113" y="76.5" width="1.9" height="1" transform="translate(-23.1 66) rotate(-29.5)"/>
  <rect class="cls-1" x="119.5" y="72.8" width="1.9" height="1" transform="translate(-20.5 68.7) rotate(-29.5)"/>
  <rect class="cls-1" x="126.1" y="69.3" width="1" height="1" transform="translate(-18 71.3) rotate(-29.5)"/>
  <path class="cls-1" d="M105.3,234.5c-3.6,0-6.3,2.8-6.3,7.1s2.5,6.8,6.1,6.8,6.3-2.5,6.3-7.1-2.4-6.8-6.1-6.8ZM105.2,247c-2.7,0-4.3-2.6-4.3-5.5s1.4-5.6,4.3-5.6,4.3,2.8,4.3,5.5-1.6,5.6-4.3,5.6Z"/>
  <polygon class="cls-1" points="140.9 120.2 140.9 106.8 139.1 106.8 139.1 112.4 132.6 112.4 132.6 106.8 130.9 106.8 130.9 120.2 132.6 120.2 132.6 113.9 139.1 113.9 139.1 120.2 140.9 120.2"/>
  <path class="cls-1" d="M136.1,73.5c3.4,0,6.3-2.5,6.3-7.1s-2.4-6.8-6.1-6.8-6.3,2.8-6.3,7.1,2.5,6.8,6.1,6.8ZM136.2,61c2.9,0,4.3,2.8,4.3,5.5s-1.6,5.6-4.3,5.6-4.3-2.6-4.3-5.5,1.4-5.6,4.3-5.6Z"/>
  <polygon class="cls-1" points="146.4 66.9 152.9 66.9 152.9 73.2 154.7 73.2 154.7 59.8 152.9 59.8 152.9 65.4 146.4 65.4 146.4 59.8 144.6 59.8 144.6 73.2 146.4 73.2 146.4 66.9"/>
  <path class="cls-1" d="M189.1,97.5c3.4,0,6.3-2.5,6.3-7.1s-2.4-6.8-6.1-6.8-6.3,2.8-6.3,7.1,2.5,6.8,6.1,6.8ZM189.2,85c2.9,0,4.3,2.8,4.3,5.5s-1.6,5.6-4.3,5.6-4.3-2.6-4.3-5.5,1.4-5.6,4.3-5.6Z"/>
  <polygon class="cls-1" points="199.4 90.9 205.9 90.9 205.9 97.2 207.7 97.2 207.7 83.8 205.9 83.8 205.9 89.4 199.4 89.4 199.4 83.8 197.6 83.8 197.6 97.2 199.4 97.2 199.4 90.9"/>
  <polygon class="cls-1" points="18.9 172.8 18.9 186.2 20.6 186.2 20.6 179.9 27.1 179.9 27.1 186.2 28.9 186.2 28.9 172.8 27.1 172.8 27.1 178.4 20.6 178.4 20.6 172.8 18.9 172.8"/>
  <path class="cls-1" d="M462.9,237.4l-45-26s0,0,0,0c0,0,0,0-.1,0,0,0,0,0-.1,0,0,0,0,0-.1,0,0,0,0,0-.1,0,0,0,0,0,0,0l-44.6,25.8-44.6-25.8s0,0,0,0c0,0,0,0-.1,0,0,0,0,0-.1,0,0,0,0,0-.1,0,0,0,0,0-.1,0,0,0,0,0,0,0l-43.6,26.8-42.3-25.6v-51.9l-45.3-26.2h.1v-34h-2v34h.3l-44.7,25.8-44.4-25.6v-53l-45.7-26.4,6.4-48.8h-13.7l6.9,48.6h0c0,0-46.1,26.6-46.1,26.6v53.3l44.6,25.8-27.2,8.5,6.8,11.8,20.8-19.9v51.1H6.6c-.4,0-.8.3-.8.8s.3.8.8.8h51.4c0,0-25.6,43.4-25.6,43.4-.2.4,0,.8.3,1,.1,0,.3.1.4.1.3,0,.5-.1.6-.4l25.5-43.2,35.8,20.6,1.1-1.1-36.4-21c0-.1-.1-.2-.2-.3v-51.4l44.6-25.8,44.6,25.8v51.5l-36,20.8,1.1,1.1,35.8-20.7,45.5,26.3,45.8-26.5,42.2,25.5s0,0,0,0c0,0,0,0,0,0,.1,0,.2,0,.3,0s0,0,0,0,0,0,0,0c.1,0,.2,0,.3,0,0,0,0,0,0,0,0,0,0,0,0,0l43.6-26.8,44.6,25.8s0,0,0,0c0,0,.2,0,.3,0,0,0,0,0,0,0s0,0,0,0,0,0,0,0c0,0,0,0,0,0,.1,0,.2,0,.3,0,0,0,0,0,0,0l44.6-25.8,44.6,25.8c.1,0,.2.1.4.1.3,0,.5-.1.6-.4.2-.4,0-.8-.3-1ZM103.7,134.1l-44.6,25.8-44.6-25.8v-51.5l44.6-25.8,44.6,25.8v51.5ZM239.7,213.1l-44.6,25.8-44.6-25.8v-51.5l44.6-25.8,44.6,25.8v51.5Z"/>
  <rect class="cls-1" x="211.1" y="141.4" width="2" height="37.2" transform="translate(-33.8 260.7) rotate(-59.3)"/>
  <rect class="cls-1" x="162.1" y="169.5" width="2" height="37"/>
  <rect class="cls-1" x="193.5" y="215.1" width="38.1" height="2" transform="translate(-79.5 135) rotate(-29.9)"/>
</svg>