<?xml version="1.0" encoding="UTF-8"?>
<svg id="Ebene_2" data-name="Ebene 2" xmlns="http://www.w3.org/2000/svg" viewBox="0 0 1003.72 477.28">
  <defs>
    <style>
      .cls-1 {
        fill: #fff;
        stroke-width: 0px;
      }
    </style>
  </defs>
  <g id="Ebene_2-2" data-name="Ebene 2">
    <g id="Ebene_1-2" data-name="Ebene 1-2">
      <g>
        <path class="cls-1" d="M96.15,384.48v92.44c-2.63,1.04-2.8-.31-2.8-2.19.03-28.91.02-57.82.02-86.73v-3.46c-1.3.63-2.2,1-3.02,1.48-24.96,14.4-49.91,28.82-74.86,43.23-.44.25-.87.68-1.33.7-.7.03-1.4-.21-2.11-.34.25-.65.31-1.62.78-1.9,4.18-2.54,8.42-4.97,12.65-7.41,21.89-12.63,43.78-25.27,65.7-37.87,1.57-.9,2.23-1.95,2.23-3.81-.05-29.5-.05-59,0-88.5,0-2.16-.93-3.36-2.71-4.39-25.48-14.68-50.93-29.42-76.42-44.07-2.56-1.47-3.63-3.31-3.62-6.28.07-29.58.07-59.17,0-88.75,0-2.81.93-4.64,3.43-6.07,25.65-14.72,51.24-29.55,76.88-44.29,1.73-1,2.46-2.11,2.45-4.18-.07-29.42-.05-58.83-.05-88.25,0-.76-.18-1.59.07-2.26.23-.61.92-1.06,1.4-1.58.41.5,1.01.95,1.18,1.52.21.7.06,1.5.06,2.26,0,29.42.02,58.83-.04,88.25,0,2.02.59,3.17,2.38,4.2,25.72,14.77,51.38,29.64,77.09,44.43,2.28,1.31,3.25,3.09,3.24,5.66-.02,29.5,0,59-.06,88.5,0,2.31.71,3.61,2.74,4.77,25.43,14.59,50.82,29.26,76.18,43.98,1.79,1.04,3.12.98,4.85-.03,25.58-14.84,51.19-29.64,76.83-44.37,1.68-.97,2.02-2.14,2.02-3.89-.04-22-.03-44-.03-66,0-.67-.17-1.42.06-2,.22-.56.87-.95,1.33-1.42.42.5,1.01.95,1.22,1.53.21.6.06,1.33.06,2.01,0,21.91.03,43.83-.05,65.74,0,2.02.58,3.15,2.36,4.18,25.57,14.69,51.08,29.49,76.65,44.17,2.76,1.58,3.8,3.56,3.8,6.7-.08,29.25-.02,58.5-.09,87.74,0,2.27.59,3.62,2.67,4.81,25.51,14.62,50.97,29.34,76.41,44.09,1.7.99,2.94.87,4.59-.09,25.65-14.88,51.35-29.69,77.02-44.55,2.22-1.29,4.19-1.34,6.48-.02,25.81,14.96,51.66,29.83,77.46,44.8,1.58.91,2.68.72,4.13-.12,25.74-14.91,51.51-29.76,77.24-44.67,2.19-1.27,4.12-1.34,6.33-.06,25.81,14.95,51.66,29.83,77.46,44.8,1.69.98,2.85.72,4.36-.15,25.74-14.91,51.5-29.77,77.24-44.67,2.16-1.25,4.08-1.25,6.24,0,25.52,14.77,51.07,29.51,76.6,44.26.73.42,1.57.75,2.12,1.35.44.47.52,1.27.75,1.93-.7.12-1.58.56-2.08.29-3.12-1.67-6.15-3.49-9.22-5.26-23.06-13.31-46.13-26.61-69.16-39.97-1.61-.93-2.77-.9-4.35.02-25.73,14.92-51.5,29.77-77.24,44.68-2.19,1.27-4.16,1.3-6.35.03-25.67-14.85-51.38-29.65-77.02-44.54-1.87-1.09-3.19-1.01-5.03.05-25.5,14.81-51.06,29.52-76.58,44.3-2.41,1.4-4.51,1.45-6.97.02-25.65-14.88-51.36-29.67-77.02-44.55-1.61-.93-2.77-.88-4.35.04-25.58,14.84-51.21,29.59-76.79,44.43-2.54,1.47-4.68,1.49-7.25,0-25.58-14.84-51.22-29.58-76.8-44.43-1.73-1-2.92-.89-4.57.06-25.58,14.84-51.21,29.59-76.8,44.43-2.41,1.4-4.52,1.45-6.95.04-25.59-14.83-51.22-29.59-76.79-44.43-1.76-1.02-3.02-1.04-4.79,0-18.86,10.98-37.78,21.86-56.68,32.76-.51.29-1.02.78-1.55.8-.54.02-1.36-.27-1.57-.68-.2-.39.02-1.38.39-1.63,1.37-.96,2.88-1.74,4.34-2.58,17.95-10.36,35.9-20.73,53.88-31.03,1.62-.93,2.16-2,2.15-3.81-.05-29.67-.05-59.34,0-89.01,0-1.72-.51-2.72-2.05-3.61-25.64-14.74-51.25-29.53-76.83-44.37-1.66-.96-2.93-1.02-4.62-.04-25.51,14.8-51.04,29.54-76.61,44.23-1.75,1.01-2.44,2.08-2.44,4.14.07,29.42.07,58.83,0,88.25,0,2.13.67,3.32,2.52,4.38,18.72,10.72,37.38,21.53,56.07,32.31.58.34,1.32.56,1.7,1.05.37.48.36,1.24.51,1.88-.64.13-1.42.55-1.9.33-1.45-.65-2.79-1.55-4.18-2.35-17.44-10.07-34.88-20.13-52.32-30.19-.57-.33-1.18-.6-2.28-1.16v-.04ZM175.93,191.18c0-14.83-.02-29.66.02-44.49,0-1.64-.3-2.82-1.89-3.73-25.85-14.87-51.65-29.8-77.52-44.64-.88-.51-2.52-.62-3.36-.14-25.95,14.86-51.83,29.84-77.75,44.74-1.64.94-2.09,2.08-2.09,3.87.04,29.49.05,58.98,0,88.47,0,1.92.54,3.02,2.25,4,25.56,14.69,51.09,29.44,76.59,44.23,1.83,1.06,3.22,1.1,5.07.02,25.28-14.67,50.58-29.3,75.94-43.84,2.13-1.22,2.81-2.62,2.8-5.01-.11-14.49-.05-28.99-.05-43.48h-.01ZM423.9,334.34c0-14.74-.03-29.49.04-44.23,0-2-.58-3.19-2.38-4.22-25.49-14.65-50.93-29.36-76.35-44.12-1.83-1.06-3.21-1.12-5.07-.04-25.35,14.71-50.73,29.37-76.15,43.97-2.01,1.16-2.74,2.47-2.74,4.79.08,28.82.11,57.63-.03,86.45-.01,3.13.98,4.8,3.65,6.33,25.08,14.34,50.1,28.78,75.08,43.3,2.06,1.2,3.48,1.1,5.46-.05,25.35-14.72,50.73-29.37,76.15-43.97,1.79-1.03,2.4-2.2,2.39-4.22-.08-14.66-.04-29.32-.04-43.98h-.01Z"/>
        <path class="cls-1" d="M34.56,329.08c-2.34-4.04-4.47-7.73-6.81-11.79,21.34-9.81,42.45-19.53,63.56-29.24.12.2.24.39.36.59-18.95,13.42-37.91,26.85-57.1,40.44h-.01Z"/>
        <path class="cls-1" d="M176.86,446.7c-7.39.01-12.96-4.19-14.09-11.46-.58-3.72-.53-7.78.32-11.43,1.55-6.64,7.52-10.39,14.52-10.01,6.88.37,12,4.69,13.36,11.31.83,4.02.85,8.04-.53,11.96-2.22,6.32-6.92,9.62-13.57,9.64h-.01ZM187.14,430.43c-.39-2.11-.57-4.23-1.19-6.22-1.39-4.43-4.61-6.81-8.93-6.89-4.37-.08-7.68,2.13-9.27,6.45-1.6,4.34-1.59,8.77.06,13.1,1.58,4.16,4.87,6.36,9.12,6.31,4.18-.04,7.54-2.4,8.92-6.57.65-1.97.87-4.09,1.3-6.18h0Z"/>
        <path class="cls-1" d="M357.32,144.08c-.91,3.11-1.41,6.41-2.81,9.28-2.65,5.43-8.75,8.01-14.97,6.94-6.28-1.08-10.78-5.55-11.76-11.9-.65-4.2-.64-8.41,1.04-12.42,2.53-6.06,8.73-9.42,15.41-8.42,6.89,1.03,11.58,6.07,12.38,13.33.11,1,.11,2.02.16,3.02.18.06.37.12.55.17h0ZM352.5,144.5c-.42-2.47-.54-4.35-1.07-6.1-1.21-3.99-3.68-6.8-8.06-7.32-3.93-.47-7.28.8-9.26,4.28-3.18,5.6-3.15,11.43-.06,17.07,1.77,3.23,4.84,4.61,8.47,4.46,3.65-.15,6.56-1.85,7.99-5.23,1.03-2.43,1.45-5.12,2-7.17h0Z"/>
        <path class="cls-1" d="M320.74,143.72c0,4.63-.05,9.26.03,13.89.03,1.64-.52,2.21-2.17,2.22-1.66,0-2.21-.59-2.16-2.22.09-3.53-.03-7.07.06-10.61.04-1.71-.49-2.44-2.3-2.39-3.7.1-7.41.09-11.12,0-1.82-.04-2.34.74-2.31,2.42.07,3.54-.04,7.07.05,10.61.04,1.68-.62,2.18-2.23,2.19-1.68,0-2.17-.64-2.16-2.25.05-9.09.05-18.19,0-27.28,0-1.58.4-2.28,2.11-2.3,1.8-.02,2.35.66,2.28,2.39-.11,2.86.02,5.73-.05,8.59-.04,1.55.58,2.08,2.09,2.06,3.87-.06,7.75-.07,11.63,0,1.57.03,2.05-.61,2.01-2.11-.08-2.94.04-5.9-.05-8.84-.05-1.53.5-2.09,2.03-2.08,1.5,0,2.34.28,2.3,2.08-.1,4.54-.03,9.09-.03,13.64h0Z"/>
        <path class="cls-1" d="M.02,334.72c0-4.38.03-8.76-.02-13.14-.02-1.58.03-2.8,2.18-2.78,2.22.02,2.11,1.39,2.11,2.88-.02,2.69.05,5.39-.02,8.08-.04,1.64.64,2.24,2.26,2.21,3.79-.06,7.58-.06,11.37,0,1.5.02,2.13-.54,2.1-2.08-.07-2.95.04-5.9-.04-8.84-.04-1.61.53-2.26,2.2-2.25,1.71.01,2.13.8,2.13,2.34-.04,9.09-.04,18.19,0,27.28,0,1.51-.34,2.32-2.09,2.36-1.89.04-2.27-.82-2.24-2.45.07-3.54-.05-7.07.05-10.61.05-1.68-.58-2.22-2.2-2.18-3.79.08-7.58.08-11.37,0-1.66-.03-2.22.6-2.18,2.23.09,3.53-.03,7.07.05,10.61.04,1.7-.5,2.43-2.31,2.41-1.83-.02-2.01-.99-2-2.43.04-4.55.02-9.09.02-13.64h0Z"/>
        <path class="cls-1" d="M267.87,188.73c0-3.71.06-7.14-.03-10.57-.04-1.66.34-2.46,2.22-2.43,1.72.03,2.12.7,2.11,2.28-.05,9.68-.03,19.36-.03,29.29h-4.27c0-4.09-.11-8.11.04-12.12.08-2.15-.46-3.03-2.79-2.9-3.36.2-6.75.19-10.11,0-2.33-.13-2.89.79-2.8,2.93.15,3.45-.05,6.91.07,10.36.07,1.89-.95,1.97-2.36,2.01-1.55.04-2.03-.57-2.02-2.09.05-9.18.05-18.36,0-27.54,0-1.66.61-2.19,2.23-2.2,1.69,0,2.19.69,2.15,2.28-.09,2.95-.11,5.9.04,8.84.03.64.88,1.76,1.38,1.78,4.61.14,9.23.08,14.17.08h0Z"/>
        <path class="cls-1" d="M237.64,196.46c2.19,3.79,4.3,7.46,6.46,11.19-1.28,1.28-2.25,1.63-3.21-.1-1.55-2.78-3.11-5.55-4.77-8.26-.99-1.61-.26-2.25,1.53-2.83h0Z"/>
        <path class="cls-1" d="M236.64,211.09c-1.45,1.34-2.38,1.48-3.24-.14-1.22-2.3-2.61-4.51-3.89-6.78-1-1.78-.98-1.79,1.46-2.89,1.86,3.22,3.73,6.46,5.67,9.81Z"/>
        <path class="cls-1" d="M229.2,214.55c-1.56,1.42-2.48,1.35-3.29-.2-.96-1.85-2.03-3.65-3.15-5.42-.9-1.42-.57-2.32,1.36-3.04,1.65,2.82,3.35,5.71,5.08,8.66h0Z"/>
        <path class="cls-1" d="M221.7,217.97c-1.54,1.58-2.48,1.33-3.31-.29-.72-1.42-1.72-2.72-2.33-4.19-.26-.64.15-1.56.26-2.35.66.28,1.59.38,1.92.88,1.25,1.88,2.29,3.9,3.46,5.95Z"/>
        <path class="cls-1" d="M214.22,221.4c-1.45,1.4-2.41,1.42-3.21-.15-.57-1.12-1.41-2.13-1.82-3.29-.2-.57.31-1.39.49-2.1.59.23,1.44.29,1.74.73,1.02,1.51,1.85,3.14,2.8,4.81Z"/>
        <path class="cls-1" d="M203.9,219.6c1.03,2.18,1.81,3.82,2.5,5.49.02.04-1.51.87-1.59.77-.99-1.29-1.93-2.63-2.65-4.08-.13-.26.8-1.04,1.73-2.18h0Z"/>
        <path class="cls-1" d="M199.58,228.77c-1.22.19-2.29.66-2.62.35-.73-.69-1.28-1.73-1.48-2.71-.08-.37,1.01-.98,1.77-1.66.8,1.38,1.4,2.42,2.33,4.03h0Z"/>
        <path class="cls-1" d="M191.88,231.78c-1.12.78-2.12,1.93-2.89.16-.24-.56.57-1.58,1.14-3.01.89,1.44,1.3,2.11,1.75,2.85h0Z"/>
        <path class="cls-1" d="M95.7,110.38c.59.33,1.03.56,1.47.81,21.73,12.54,43.46,25.08,65.18,37.64.89.51,2.32,1.03,1.23,2.37-.34.41-1.79.38-2.43,0-21.76-12.49-43.49-25.03-65.19-37.62-.64-.37-1.07-1.27-1.33-2.02-.08-.24.69-.78,1.08-1.2h-.01Z"/>
        <path class="cls-1" d="M272.19,334.27v-36.89c0-.67-.13-1.4.09-2,.15-.42.8-.89,1.23-.89s1.12.43,1.28.84c.24.59.12,1.32.12,1.99v74.04c0,.34.13.75-.02,1-.37.6-.88,1.12-1.33,1.67-.46-.53-1.26-1.03-1.32-1.6-.18-1.58-.06-3.19-.06-4.79v-33.36h0Z"/>
        <path class="cls-1" d="M410.85,372.94c.5.84.86,1.46,1.38,2.34-22.95,13.25-45.73,26.4-68.75,39.69-.49-.69-.94-1.33-1.57-2.23,23.09-13.33,45.94-26.52,68.95-39.8h0Z"/>
        <path class="cls-1" d="M412.18,293.3c-.45.74-.79,1.29-1.22,1.98-.68-.29-1.31-.5-1.86-.82-11.6-6.69-23.2-13.4-34.8-20.1-10.14-5.86-20.3-11.68-30.41-17.6-.64-.38-1.42-1.61-1.23-2.13.56-1.63,1.67-.72,2.62-.18,21.82,12.6,43.64,25.19,65.45,37.79.43.25.81.58,1.46,1.05h0Z"/>
      </g>
    </g>
  </g>
</svg>