<?xml version="1.0" encoding="UTF-8"?>
<svg id="Ebene_2" data-name="Ebene 2" xmlns="http://www.w3.org/2000/svg" xmlns:xlink="http://www.w3.org/1999/xlink" viewBox="0 0 663.52 319.58">
  <defs>
    <style>
      .cls-1 {
        stroke: url(#Unbenannter_Verlauf_6-9);
      }

      .cls-1, .cls-2, .cls-3, .cls-4, .cls-5, .cls-6, .cls-7, .cls-8, .cls-9, .cls-10, .cls-11, .cls-12, .cls-13, .cls-14, .cls-15, .cls-16, .cls-17, .cls-18, .cls-19, .cls-20, .cls-21, .cls-22, .cls-23, .cls-24, .cls-25, .cls-26, .cls-27, .cls-28, .cls-29, .cls-30, .cls-31, .cls-32, .cls-33, .cls-34, .cls-35, .cls-36, .cls-37, .cls-38, .cls-39, .cls-40, .cls-41, .cls-42, .cls-43, .cls-44, .cls-45, .cls-46, .cls-47, .cls-48, .cls-49, .cls-50, .cls-51 {
        fill: none;
        stroke-miterlimit: 10;
      }

      .cls-2 {
        stroke: url(#Unbenannter_Verlauf_6-42);
      }

      .cls-3 {
        stroke: url(#Unbenannter_Verlauf_6-10);
      }

      .cls-4 {
        stroke: url(#Unbenannter_Verlauf_6-35);
      }

      .cls-5 {
        stroke: url(#Unbenannter_Verlauf_6-33);
      }

      .cls-6 {
        stroke: url(#Unbenannter_Verlauf_6);
      }

      .cls-7 {
        stroke: url(#Unbenannter_Verlauf_6-16);
      }

      .cls-8 {
        stroke: url(#Unbenannter_Verlauf_6-30);
      }

      .cls-9 {
        stroke: url(#Unbenannter_Verlauf_6-32);
      }

      .cls-10 {
        stroke: url(#Unbenannter_Verlauf_6-44);
      }

      .cls-11 {
        stroke: url(#Unbenannter_Verlauf_6-40);
      }

      .cls-12 {
        stroke: url(#Unbenannter_Verlauf_6-11);
      }

      .cls-13 {
        stroke: url(#Unbenannter_Verlauf_6-7);
      }

      .cls-14 {
        stroke: url(#Unbenannter_Verlauf_6-17);
      }

      .cls-15 {
        stroke: url(#Unbenannter_Verlauf_6-26);
      }

      .cls-16 {
        stroke: url(#Unbenannter_Verlauf_6-39);
      }

      .cls-17 {
        stroke: url(#Unbenannter_Verlauf_6-51);
      }

      .cls-18 {
        stroke: url(#Unbenannter_Verlauf_6-38);
      }

      .cls-19 {
        stroke: url(#Unbenannter_Verlauf_6-8);
      }

      .cls-20 {
        stroke: url(#Unbenannter_Verlauf_6-18);
      }

      .cls-21 {
        stroke: url(#Unbenannter_Verlauf_6-29);
      }

      .cls-22 {
        stroke: url(#Unbenannter_Verlauf_6-12);
      }

      .cls-23 {
        stroke: url(#Unbenannter_Verlauf_6-22);
      }

      .cls-24 {
        stroke: url(#Unbenannter_Verlauf_6-13);
      }

      .cls-25 {
        stroke: url(#Unbenannter_Verlauf_6-24);
      }

      .cls-26 {
        stroke: url(#Unbenannter_Verlauf_6-20);
      }

      .cls-27 {
        stroke: url(#Unbenannter_Verlauf_6-31);
      }

      .cls-28 {
        stroke: url(#Unbenannter_Verlauf_6-36);
      }

      .cls-29 {
        stroke: url(#Unbenannter_Verlauf_6-46);
      }

      .cls-30 {
        stroke: url(#Unbenannter_Verlauf_6-2);
      }

      .cls-31 {
        stroke: url(#Unbenannter_Verlauf_6-27);
      }

      .cls-32 {
        stroke: url(#Unbenannter_Verlauf_6-34);
      }

      .cls-33 {
        stroke: url(#Unbenannter_Verlauf_6-50);
      }

      .cls-34 {
        stroke: url(#Unbenannter_Verlauf_6-47);
      }

      .cls-35 {
        stroke: url(#Unbenannter_Verlauf_6-45);
      }

      .cls-36 {
        stroke: url(#Unbenannter_Verlauf_6-23);
      }

      .cls-37 {
        stroke: url(#Unbenannter_Verlauf_6-41);
      }

      .cls-38 {
        stroke: url(#Unbenannter_Verlauf_6-14);
      }

      .cls-39 {
        stroke: url(#Unbenannter_Verlauf_6-4);
      }

      .cls-40 {
        stroke: url(#Unbenannter_Verlauf_6-6);
      }

      .cls-41 {
        stroke: url(#Unbenannter_Verlauf_6-15);
      }

      .cls-42 {
        stroke: url(#Unbenannter_Verlauf_6-19);
      }

      .cls-43 {
        stroke: url(#Unbenannter_Verlauf_6-49);
      }

      .cls-44 {
        stroke: url(#Unbenannter_Verlauf_6-37);
      }

      .cls-45 {
        stroke: url(#Unbenannter_Verlauf_6-48);
      }

      .cls-46 {
        stroke: url(#Unbenannter_Verlauf_6-28);
      }

      .cls-47 {
        stroke: url(#Unbenannter_Verlauf_6-43);
      }

      .cls-48 {
        stroke: url(#Unbenannter_Verlauf_6-5);
      }

      .cls-49 {
        stroke: url(#Unbenannter_Verlauf_6-21);
      }

      .cls-50 {
        stroke: url(#Unbenannter_Verlauf_6-3);
      }

      .cls-51 {
        stroke: url(#Unbenannter_Verlauf_6-25);
      }
    </style>
    <linearGradient id="Unbenannter_Verlauf_6" data-name="Unbenannter Verlauf 6" x1=".25" y1="281.05" x2="663.52" y2="281.05" gradientUnits="userSpaceOnUse">
      <stop offset="0" stop-color="#fff" stop-opacity="0"/>
      <stop offset=".04" stop-color="#fdfefe" stop-opacity=".13"/>
      <stop offset=".1" stop-color="#fcfefe" stop-opacity=".35"/>
      <stop offset=".17" stop-color="#fafdfe" stop-opacity=".55"/>
      <stop offset=".24" stop-color="#f9fdfe" stop-opacity=".71"/>
      <stop offset=".3" stop-color="#f8fdfe" stop-opacity=".84"/>
      <stop offset=".36" stop-color="#f7fdfe" stop-opacity=".93"/>
      <stop offset=".42" stop-color="#f7fdfe" stop-opacity=".98"/>
      <stop offset=".47" stop-color="#f7fdfe"/>
      <stop offset=".59" stop-color="#f7fdfe" stop-opacity=".99"/>
      <stop offset=".66" stop-color="#f7fdfe" stop-opacity=".96"/>
      <stop offset=".72" stop-color="#f7fdfe" stop-opacity=".9"/>
      <stop offset=".77" stop-color="#f8fdfe" stop-opacity=".82"/>
      <stop offset=".82" stop-color="#f9fdfe" stop-opacity=".72"/>
      <stop offset=".87" stop-color="#fafdfe" stop-opacity=".59"/>
      <stop offset=".91" stop-color="#fbfefe" stop-opacity=".44"/>
      <stop offset=".95" stop-color="#fcfefe" stop-opacity=".26"/>
      <stop offset=".99" stop-color="#fefefe" stop-opacity=".06"/>
      <stop offset="1" stop-color="#fff" stop-opacity="0"/>
    </linearGradient>
    <linearGradient id="Unbenannter_Verlauf_6-2" data-name="Unbenannter Verlauf 6" x1=".24" y1="276.9" x2="663.52" y2="276.9" xlink:href="#Unbenannter_Verlauf_6"/>
    <linearGradient id="Unbenannter_Verlauf_6-3" data-name="Unbenannter Verlauf 6" x1=".19" y1="271.76" x2="663.51" y2="271.76" xlink:href="#Unbenannter_Verlauf_6"/>
    <linearGradient id="Unbenannter_Verlauf_6-4" data-name="Unbenannter Verlauf 6" x1=".12" y1="261.2" x2="663.48" y2="261.2" xlink:href="#Unbenannter_Verlauf_6"/>
    <linearGradient id="Unbenannter_Verlauf_6-5" data-name="Unbenannter Verlauf 6" x1=".06" y1="249.64" x2="663.46" y2="249.64" xlink:href="#Unbenannter_Verlauf_6"/>
    <linearGradient id="Unbenannter_Verlauf_6-6" data-name="Unbenannter Verlauf 6" x1=".01" y1="240.24" x2="663.45" y2="240.24" xlink:href="#Unbenannter_Verlauf_6"/>
    <linearGradient id="Unbenannter_Verlauf_6-7" data-name="Unbenannter Verlauf 6" x1="0" y1="234.46" x2="663.46" y2="234.46" xlink:href="#Unbenannter_Verlauf_6"/>
    <linearGradient id="Unbenannter_Verlauf_6-8" data-name="Unbenannter Verlauf 6" x1="0" y1="230.48" x2="663.45" y2="230.48" xlink:href="#Unbenannter_Verlauf_6"/>
    <linearGradient id="Unbenannter_Verlauf_6-9" data-name="Unbenannter Verlauf 6" x1=".02" y1="227.4" x2="663.45" y2="227.4" xlink:href="#Unbenannter_Verlauf_6"/>
    <linearGradient id="Unbenannter_Verlauf_6-10" data-name="Unbenannter Verlauf 6" x1=".05" y1="224.97" x2="663.44" y2="224.97" xlink:href="#Unbenannter_Verlauf_6"/>
    <linearGradient id="Unbenannter_Verlauf_6-11" data-name="Unbenannter Verlauf 6" x1=".09" y1="222.91" x2="663.44" y2="222.91" xlink:href="#Unbenannter_Verlauf_6"/>
    <linearGradient id="Unbenannter_Verlauf_6-12" data-name="Unbenannter Verlauf 6" x1=".13" y1="221.07" x2="663.44" y2="221.07" xlink:href="#Unbenannter_Verlauf_6"/>
    <linearGradient id="Unbenannter_Verlauf_6-13" data-name="Unbenannter Verlauf 6" x1=".17" y1="219.15" x2="663.44" y2="219.15" xlink:href="#Unbenannter_Verlauf_6"/>
    <linearGradient id="Unbenannter_Verlauf_6-14" data-name="Unbenannter Verlauf 6" x1=".21" y1="213.59" x2="663.44" y2="213.59" xlink:href="#Unbenannter_Verlauf_6"/>
    <linearGradient id="Unbenannter_Verlauf_6-15" data-name="Unbenannter Verlauf 6" x1=".24" y1="207.42" x2="663.44" y2="207.42" xlink:href="#Unbenannter_Verlauf_6"/>
    <linearGradient id="Unbenannter_Verlauf_6-16" data-name="Unbenannter Verlauf 6" x1=".26" y1="201.11" x2="663.45" y2="201.11" xlink:href="#Unbenannter_Verlauf_6"/>
    <linearGradient id="Unbenannter_Verlauf_6-17" data-name="Unbenannter Verlauf 6" x1=".26" y1="194.62" x2="663.45" y2="194.62" xlink:href="#Unbenannter_Verlauf_6"/>
    <linearGradient id="Unbenannter_Verlauf_6-18" data-name="Unbenannter Verlauf 6" x1=".24" y1="188.98" x2="663.45" y2="188.98" xlink:href="#Unbenannter_Verlauf_6"/>
    <linearGradient id="Unbenannter_Verlauf_6-19" data-name="Unbenannter Verlauf 6" x1=".23" y1="185.83" x2="663.45" y2="185.83" xlink:href="#Unbenannter_Verlauf_6"/>
    <linearGradient id="Unbenannter_Verlauf_6-20" data-name="Unbenannter Verlauf 6" x1=".23" y1="183.51" x2="663.45" y2="183.51" xlink:href="#Unbenannter_Verlauf_6"/>
    <linearGradient id="Unbenannter_Verlauf_6-21" data-name="Unbenannter Verlauf 6" x1=".23" y1="181.44" x2="663.45" y2="181.44" xlink:href="#Unbenannter_Verlauf_6"/>
    <linearGradient id="Unbenannter_Verlauf_6-22" data-name="Unbenannter Verlauf 6" x1=".23" y1="176.38" x2="663.45" y2="176.38" xlink:href="#Unbenannter_Verlauf_6"/>
    <linearGradient id="Unbenannter_Verlauf_6-23" data-name="Unbenannter Verlauf 6" x1=".23" y1="169.67" x2="663.45" y2="169.67" xlink:href="#Unbenannter_Verlauf_6"/>
    <linearGradient id="Unbenannter_Verlauf_6-24" data-name="Unbenannter Verlauf 6" x1=".22" y1="162.05" x2="663.45" y2="162.05" xlink:href="#Unbenannter_Verlauf_6"/>
    <linearGradient id="Unbenannter_Verlauf_6-25" data-name="Unbenannter Verlauf 6" x1=".22" y1="152.94" x2="663.45" y2="152.94" xlink:href="#Unbenannter_Verlauf_6"/>
    <linearGradient id="Unbenannter_Verlauf_6-26" data-name="Unbenannter Verlauf 6" x1=".2" y1="142.56" x2="663.44" y2="142.56" xlink:href="#Unbenannter_Verlauf_6"/>
    <linearGradient id="Unbenannter_Verlauf_6-27" data-name="Unbenannter Verlauf 6" x1=".17" y1="131.8" x2="663.44" y2="131.8" xlink:href="#Unbenannter_Verlauf_6"/>
    <linearGradient id="Unbenannter_Verlauf_6-28" data-name="Unbenannter Verlauf 6" x1=".14" y1="121.54" x2="663.44" y2="121.54" xlink:href="#Unbenannter_Verlauf_6"/>
    <linearGradient id="Unbenannter_Verlauf_6-29" data-name="Unbenannter Verlauf 6" x1=".12" y1="112.66" x2="663.44" y2="112.66" xlink:href="#Unbenannter_Verlauf_6"/>
    <linearGradient id="Unbenannter_Verlauf_6-30" data-name="Unbenannter Verlauf 6" x1=".12" y1="105.98" x2="663.45" y2="105.98" xlink:href="#Unbenannter_Verlauf_6"/>
    <linearGradient id="Unbenannter_Verlauf_6-31" data-name="Unbenannter Verlauf 6" x1=".13" y1="102.15" x2="663.45" y2="102.15" xlink:href="#Unbenannter_Verlauf_6"/>
    <linearGradient id="Unbenannter_Verlauf_6-32" data-name="Unbenannter Verlauf 6" x1=".13" y1="99.05" x2="663.46" y2="99.05" xlink:href="#Unbenannter_Verlauf_6"/>
    <linearGradient id="Unbenannter_Verlauf_6-33" data-name="Unbenannter Verlauf 6" x1=".13" y1="95.97" x2="663.47" y2="95.97" xlink:href="#Unbenannter_Verlauf_6"/>
    <linearGradient id="Unbenannter_Verlauf_6-34" data-name="Unbenannter Verlauf 6" x1=".13" y1="92.92" x2="663.47" y2="92.92" xlink:href="#Unbenannter_Verlauf_6"/>
    <linearGradient id="Unbenannter_Verlauf_6-35" data-name="Unbenannter Verlauf 6" x1=".13" y1="89.92" x2="663.48" y2="89.92" xlink:href="#Unbenannter_Verlauf_6"/>
    <linearGradient id="Unbenannter_Verlauf_6-36" data-name="Unbenannter Verlauf 6" x1=".12" y1="86.99" x2="663.49" y2="86.99" xlink:href="#Unbenannter_Verlauf_6"/>
    <linearGradient id="Unbenannter_Verlauf_6-37" data-name="Unbenannter Verlauf 6" x1=".12" y1="84.13" x2="663.49" y2="84.13" xlink:href="#Unbenannter_Verlauf_6"/>
    <linearGradient id="Unbenannter_Verlauf_6-38" data-name="Unbenannter Verlauf 6" x1=".12" y1="81.37" x2="663.49" y2="81.37" xlink:href="#Unbenannter_Verlauf_6"/>
    <linearGradient id="Unbenannter_Verlauf_6-39" data-name="Unbenannter Verlauf 6" x1=".12" y1="78.73" x2="663.49" y2="78.73" xlink:href="#Unbenannter_Verlauf_6"/>
    <linearGradient id="Unbenannter_Verlauf_6-40" data-name="Unbenannter Verlauf 6" x1=".11" y1="76.2" x2="663.49" y2="76.2" xlink:href="#Unbenannter_Verlauf_6"/>
    <linearGradient id="Unbenannter_Verlauf_6-41" data-name="Unbenannter Verlauf 6" x1=".11" y1="73.8" x2="663.48" y2="73.8" xlink:href="#Unbenannter_Verlauf_6"/>
    <linearGradient id="Unbenannter_Verlauf_6-42" data-name="Unbenannter Verlauf 6" x1=".11" y1="71.56" x2="663.48" y2="71.56" xlink:href="#Unbenannter_Verlauf_6"/>
    <linearGradient id="Unbenannter_Verlauf_6-43" data-name="Unbenannter Verlauf 6" x1=".11" y1="69.48" x2="663.48" y2="69.48" xlink:href="#Unbenannter_Verlauf_6"/>
    <linearGradient id="Unbenannter_Verlauf_6-44" data-name="Unbenannter Verlauf 6" x1=".1" y1="67.59" x2="663.47" y2="67.59" xlink:href="#Unbenannter_Verlauf_6"/>
    <linearGradient id="Unbenannter_Verlauf_6-45" data-name="Unbenannter Verlauf 6" x1=".1" y1="65.89" x2="663.46" y2="65.89" xlink:href="#Unbenannter_Verlauf_6"/>
    <linearGradient id="Unbenannter_Verlauf_6-46" data-name="Unbenannter Verlauf 6" x1=".1" y1="64.39" x2="663.46" y2="64.39" xlink:href="#Unbenannter_Verlauf_6"/>
    <linearGradient id="Unbenannter_Verlauf_6-47" data-name="Unbenannter Verlauf 6" x1=".1" y1="63.12" x2="663.46" y2="63.12" xlink:href="#Unbenannter_Verlauf_6"/>
    <linearGradient id="Unbenannter_Verlauf_6-48" data-name="Unbenannter Verlauf 6" x1=".1" y1="62.07" x2="663.45" y2="62.07" xlink:href="#Unbenannter_Verlauf_6"/>
    <linearGradient id="Unbenannter_Verlauf_6-49" data-name="Unbenannter Verlauf 6" x1=".1" y1="61.28" x2="663.45" y2="61.28" xlink:href="#Unbenannter_Verlauf_6"/>
    <linearGradient id="Unbenannter_Verlauf_6-50" data-name="Unbenannter Verlauf 6" x1=".1" y1="60.74" x2="663.45" y2="60.74" xlink:href="#Unbenannter_Verlauf_6"/>
    <linearGradient id="Unbenannter_Verlauf_6-51" data-name="Unbenannter Verlauf 6" x1=".1" y1="60.48" x2="663.45" y2="60.48" xlink:href="#Unbenannter_Verlauf_6"/>
  </defs>
  <g id="Ebene_5" data-name="Ebene 5">
    <g id="Lines">
      <g>
        <path class="cls-6" d="M.31,292.93c30.27-3.71,61.74-33.29,92.78-27.46,34.72,6.52,46.43,47.62,81.41,53.29,18.6,3.02,31.28-15.7,39.74-26.3,11.57-14.51,21.68-34.67,38.99-45.37,35.11-21.7,46.72,50.51,76.23,50.53,17.2.01,29.39-19.83,40.59-28.68,12.77-10.08,21.44-11.9,37.76-6.07,11.98,4.28,22.46,11.71,35.38,14.12,15.34,2.86,26.64-2.75,39.09-9.65,12.83-7.11,24.94-16.38,40.98-17.34,14.72-.89,29.41,4.3,42.37,9.45,32.7,12.99,60.6,32.2,97.87,35.19"/>
        <path class="cls-30" d="M.3,286.39c31.31-3.52,60.97-35.75,93.17-29.77,35.24,6.55,45.49,49.77,81.04,55.25,34.76,5.36,55.13-52.81,78.73-66.49,34.26-19.85,47.11,44.61,76.45,44.82,16.44.12,28.8-16.63,40.4-24.56,12.97-8.86,21.83-10.06,37.72-5.69,29.68,8.16,45.33,16.67,74.5,1.47,12.89-6.71,25.16-15.45,40.93-16.32,14.63-.81,29.35,4.24,42.37,9.16,32.74,12.37,61.07,30.39,97.86,33.59"/>
        <path class="cls-50" d="M.26,278.57c19.47-2.64,32.72-11.1,48.48-20.4,12.49-7.38,28.95-17.7,45.55-14.47,36.04,7.01,43.97,53.15,80.28,59.35,33.82,5.78,54.67-46.94,78.68-59.31,33.13-17.07,47.76,36.41,76.95,36.85,15.59.24,27.8-12.42,40.04-18.99,13-6.97,22.65-7.45,37.62-4.88,28.71,4.93,47.34,10.9,74.56-1.93,13.05-6.15,25.36-13.91,40.83-14.69,14.53-.73,29.16,3.7,42.37,8.19,32.81,11.15,61.67,27.45,97.86,30.17"/>
        <path class="cls-39" d="M.21,270.21c20.27-3.55,33.42-13.52,49.1-24.17,11.93-8.1,28.85-20.83,45.99-17.21,36.89,7.77,42.12,58.08,79.35,64.84,33.18,6.02,53.74-40.47,78.6-51.49,30.85-13.67,49.34,26.6,77.56,27.87,14.43.65,27.01-8.14,39.6-12.77,12.72-4.68,23.78-4.69,37.49-3.88,27.08,1.6,49.48,4.92,74.64-5.5,13.23-5.48,25.56-12.11,40.71-12.81,14.45-.66,28.92,2.97,42.36,6.92,32.87,9.66,62.31,24,97.85,25.96"/>
        <path class="cls-48" d="M.16,262.07c21.04-4.54,34.11-16.05,49.69-27.99,11.33-8.69,28.76-24.03,46.42-19.96,37.99,8.76,40.28,62.64,78.48,70.94,32.06,6.96,53.16-35.37,78.5-44.39,29.06-10.34,50.5,17.85,78.14,19.14,13.54.63,26.27-4.18,39.18-6.75,12.37-2.46,24.72-2.29,37.37-2.92,25.42-1.28,51.11-.55,74.71-9.03,29.83-10.72,51.21-13.23,82.96-5.28,32.9,8.24,62.91,20.68,97.84,22"/>
        <path class="cls-40" d="M.13,254.88c21.7-5.24,34.64-18.09,50.11-31.07,10.84-9.1,28.62-26.66,46.72-22.11,18.33,4.61,30.73,27.64,39.81,39.76,8.63,11.51,20.6,32.89,38.09,37.14,30.23,7.36,53.78-31.34,78.41-39.38,26.31-8.59,52.49,10.63,78.53,11.93,24.02,1.2,52.5-.58,76.17-4,24.59-3.56,51.56-4.95,74.76-12.3,29.61-9.39,51.76-11.5,82.87-4.65,32.87,7.24,63.38,18.18,97.83,19.33"/>
        <path class="cls-13" d="M.12,249.26c21.95-5.64,34.84-19.15,50.22-32.62,10.55-9.24,28.56-28.06,46.81-23.07,18.58,5.09,30.87,29.62,39.77,42.16,8.55,12.04,20.27,34.5,38.06,39.42,28.27,7.81,55.64-31.57,78.32-39.92,24.45-9,53.82,8.38,78.6,9.8,24.25,1.4,52.31,2.81,76.06-1.66,24.57-4.62,51.14-6.94,74.79-13.64,29.57-8.38,52.1-10.12,82.86-3.99,32.81,6.54,63.77,16.25,97.83,17.61"/>
        <path class="cls-19" d="M.13,244.3c21.73-5.95,34.78-19.24,50.23-32.61,10.5-9.09,28.78-28.15,46.81-22.92,18.54,5.38,30.94,30.35,39.87,43.01,8.58,12.15,20.4,35.04,38.15,40.25,28.33,8.31,56.33-35.62,78.14-44.77,24.51-10.27,53.81,10.33,78.57,12.09,24.12,1.71,52.28,3.1,75.96-1.29,12.12-2.25,23.69-6.06,36.06-7.43,13.36-1.48,25.73-2.1,38.83-5.21,29.21-6.93,52.81-8.31,82.86-3.39,32.76,5.37,64.22,13.36,97.83,14.49"/>
        <path class="cls-1" d="M.15,239.64c21.48-5.76,34.67-18.53,50.22-31.5,10.67-8.9,29-27.28,46.81-22.04,18.46,5.43,30.95,30.02,40.01,42.63,8.66,12.06,20.63,34.73,38.28,39.91,28.74,8.43,56.54-39.24,77.9-49.09,24.49-11.29,53.87,11.76,78.54,13.86,24.11,2.05,52.06,4.13,75.79-.34,12.17-2.3,23.79-6.19,36.22-7.58,13.13-1.47,25.81-1.84,38.84-4.34,28.77-5.51,53.52-6.58,82.86-2.85,32.71,4.16,64.6,10.38,97.83,11.25"/>
        <path class="cls-3" d="M.17,235.21c21.21-5.2,34.52-17.23,50.2-29.57,11.01-8.67,29.22-25.71,46.8-20.64,18.35,5.29,30.92,28.87,40.18,41.31,8.78,11.8,20.94,33.76,38.44,38.66,29.44,8.26,56.38-42.46,77.6-52.97,24.42-12.1,54.01,12.82,78.52,15.28,24.22,2.43,51.64,5.7,75.57,1.03,12.24-2.39,23.9-6.43,36.42-7.88,12.94-1.5,25.9-1.61,38.86-3.51,61.24-8.94,119.35,4.5,180.69,5.63"/>
        <path class="cls-12" d="M.19,230.98c20.9-4.43,34.33-15.55,50.17-27.12,11.47-8.37,29.44-23.66,46.79-18.89,18.21,5.01,30.85,27.17,40.37,39.32,8.66,11.06,21.49,32.86,38.61,36.79,31.3,7.17,55.16-44.92,77.26-56.5,24.31-12.74,54.2,13.66,78.5,16.48,24.43,2.84,51.03,7.63,75.32,2.67,12.31-2.52,24.04-6.73,36.65-8.26,12.81-1.56,25.98-1.4,38.89-2.7,60.53-6.09,120.05,2.2,180.69,2.81"/>
        <path class="cls-22" d="M.22,226.87c20.58-3.56,34.12-13.71,50.14-24.41,11.99-8,29.65-21.39,46.78-16.99,18.06,4.64,30.75,25.16,40.56,36.96,8.86,10.66,21.87,31.12,38.8,34.55,32.36,6.57,54.51-47.5,76.91-59.78,24.19-13.27,54.42,14.42,78.49,17.61,24.72,3.28,50.27,9.74,75.04,4.44,12.39-2.65,24.18-7.05,36.89-8.68,12.75-1.63,26.03-1.2,38.92-1.91,60.18-3.34,120.43-.12,180.69.01"/>
        <path class="cls-24" d="M.24,222.84c20.23-2.74,33.9-11.91,50.11-21.74,12.51-7.58,29.85-19.12,46.76-15.13,17.9,4.22,30.62,23.1,40.75,34.51,9.09,10.24,22.26,29.3,38.98,32.23,33.49,5.87,53.77-49.91,76.56-62.91,24.11-13.75,54.64,15.27,78.48,18.82,25.03,3.73,49.43,11.82,74.77,6.18,12.47-2.77,24.33-7.35,37.14-9.06,12.75-1.7,26.05-.99,38.96-1.13,60.23-.63,120.46-2.41,180.69-2.74"/>
        <path class="cls-38" d="M.27,218.84c32.53-3.37,63.53-40.08,96.83-32.89,36.16,7.8,43.29,56.82,80.07,62.33,34.59,5.18,53.04-52.24,76.23-65.96,24.09-14.25,54.86,16.36,78.48,20.26,25.29,4.18,48.62,13.66,74.51,7.74,12.55-2.87,24.47-7.57,37.38-9.34,12.81-1.76,26.05-.76,38.99-.32,60.68,2.07,120.14-4.66,180.69-5.39"/>
        <path class="cls-41" d="M.29,214.81c32.86-2.78,63.3-36.63,96.81-29.93,35.58,7.11,44.18,54.12,80.35,58.85,35.52,4.65,52.48-54.65,75.95-69.04,24.15-14.81,55.05,17.83,78.48,22.06,25.45,4.6,47.97,15.04,74.28,8.97,12.61-2.91,24.6-7.69,37.58-9.47,12.93-1.78,26.03-.51,39.01.51,61.47,4.82,119.51-6.81,180.69-7.9"/>
        <path class="cls-7" d="M.3,210.69c32.68-2.74,63.52-34.86,96.81-28.48,35.21,6.75,44.78,52.47,80.55,56.86,36.16,4.43,52.24-57.27,75.72-72.24,24.31-15.5,55.2,19.84,78.49,24.37,25.45,4.96,47.6,15.74,74.1,9.72,27.83-6.32,47.47-11.58,76.78-8,28.39,3.47,54.35,4.39,82.86.77,32.72-4.15,64.59-10.39,97.83-11.16"/>
        <path class="cls-14" d="M.31,206.43c31.87-3.41,64.31-35.35,96.83-29,35.12,6.86,44.99,52.28,80.65,56.9,19.13,2.48,30.52-16.59,38.55-27.82,10.84-15.15,19.94-36.45,37.02-47.83,24.58-16.37,55.31,22.55,78.52,27.35,25.23,5.22,47.61,15.55,73.99,9.84,28.02-6.07,47.59-11.56,76.89-6.7,28.88,4.79,53.75,5.93,82.86,1.08,32.77-5.47,64.19-13.58,97.83-14.72"/>
        <path class="cls-20" d="M.31,201.9c19.19-2.79,33.66-10.37,50.09-18.65,12.96-6.53,30.55-16.46,46.75-13.07,35.44,7.43,44.62,54.22,80.63,59.51,19.2,2.82,30.73-17.35,38.54-28.53,10.87-15.56,19.89-37.17,37.04-49.03,24.74-17.11,55.25,24.39,78.51,29.26,24.59,5.15,48.48,12.98,73.96,8.36,27.79-5.03,48.4-10.1,76.92-4.5,29.12,5.72,53.35,7.06,82.86,1.64,32.79-6.02,63.97-14.98,97.83-16.2"/>
        <path class="cls-42" d="M.31,196.4c19.34-3.13,33.57-11.2,49.83-20.01,12.64-6.84,30.3-17.65,46.57-13.95,17.49,3.98,30.74,21.81,41.22,32.69,9.35,9.71,23.14,27.91,39.41,30.56,18.83,3.06,30.83-17.15,38.68-28,11.07-15.28,20.34-36.09,37.32-47.8,24.88-17.16,54.6,23.17,78.42,27.45,23.63,4.25,50.05,6.78,74.05,4.35,26.91-2.72,50.15-6.22,76.92-.58,29.14,6.13,53.17,7.48,82.86,2.31,32.78-5.71,64.09-14.21,97.83-15.36"/>
        <path class="cls-26" d="M.31,190.17c19.41-3.26,33.32-11.67,49.37-20.84,12.36-7.07,29.94-18.44,46.23-14.41,17.71,4.38,30.91,23.32,41.24,34.59,9.2,10.04,22.95,29.37,39.43,32.36,18.44,3.34,30.92-16.37,38.96-26.88,11.28-14.77,20.9-34.66,37.76-45.92,25.33-16.92,53.62,21.41,78.33,24.62,23.44,3.04,50.43-.59,74.21-.71,26.02-.13,51.64-1.58,76.92,4.16,29.19,6.63,52.93,8,82.86,3.03,32.77-5.44,64.2-13.52,97.83-14.65"/>
        <path class="cls-49" d="M.31,183.65c19.44-3.28,32.99-11.93,48.81-21.39,12.12-7.25,29.51-18.97,45.8-14.67,37.59,9.92,42.71,61.24,80.73,70.09,31.93,7.43,56.86-55.78,77.55-68.83,25.94-16.36,52.57,19.56,78.23,21.39,12.59.9,24.97-3.41,37.11-5.47,12.66-2.16,24.47-2.07,37.28-.8,25.42,2.51,52.41,3.31,76.92,9.29,29.25,7.13,52.68,8.54,82.86,3.76,32.75-5.18,64.3-12.85,97.83-13.97"/>
        <path class="cls-23" d="M.31,177.3c19.48-3.27,32.68-12.16,48.27-21.88,11.92-7.43,29.06-19.41,45.39-14.97,18.09,4.92,31.16,25.4,41.3,37.27,9.42,11.03,22.35,30.69,39.49,34.87,31.55,7.69,57.17-51.76,78.38-64.13,26.55-15.49,51.72,17.97,78.13,18.41,13.52.22,25.08-6.59,37.24-10.54,13.07-4.24,23.79-4.03,37.33-1.29,12.74,2.58,24.88,6.82,37.9,8.47,13.45,1.7,25.88,2.5,39.02,5.9,29.28,7.59,52.45,9,82.86,4.45,32.74-4.9,64.4-12.13,97.83-13.23"/>
        <path class="cls-36" d="M.31,171.57c19.56-3.34,32.47-12.52,47.85-22.55,11.73-7.64,28.64-19.91,45.08-15.53,38.3,10.19,42.16,63.13,80.81,72.55,31.43,7.66,56.99-47.27,79.03-58.93,27.06-14.32,51.2,16.96,78.04,16.31,14.54-.36,25.23-9.57,37.34-15.12,13.2-6.05,23.29-6,37.37-1.69,12.79,3.91,24.52,9.95,37.9,12.49,13.15,2.5,25.96,2.97,39.02,6.5,29.27,7.92,52.31,9.31,82.86,5.05,32.72-4.57,64.5-11.32,97.83-12.33"/>
        <path class="cls-25" d="M.31,166.91c19.74-3.58,32.44-13.17,47.68-23.63,11.56-7.93,28.27-20.61,44.97-16.59,38.29,9.22,42.24,62.05,80.77,70.78,31.61,7.17,56.18-42.54,79.37-53.49,27.45-12.96,50.98,16.87,77.96,15.72,31.26-1.33,39.23-34.37,74.77-20.72,12.88,4.95,24.08,12.7,37.9,15.92,12.86,3,26.05,3.2,39.02,6.78,29.18,8.06,52.3,9.39,82.86,5.51,32.71-4.16,64.61-10.34,97.83-11.19"/>
        <path class="cls-51" d="M.31,163.21c20.59-3.76,32.78-14.77,47.74-26.4,11.26-8.74,27.51-22.65,45-18.82,38.47,8.42,42.07,61.98,80.77,69.89,31.48,6.43,55.07-37.34,79.25-47.36,27.24-11.29,51.28,15.82,78.02,15.12,14.95-.39,25.18-10.23,37.35-16.25,13.15-6.5,23.23-6.46,37.37-1.79,12.85,4.24,24.33,10.96,37.9,13.68,12.84,2.57,26.06,2.71,39.02,5.64,28.79,6.51,53.12,7.54,82.86,4.88,32.66-2.92,64.92-7.23,97.83-7.9"/>
        <path class="cls-15" d="M.31,159.87c21.55-4.88,33.33-18.08,47.87-31.36,10.51-9.61,26.68-26.55,45.09-22.54,39.31,8.55,41.49,64.5,80.91,73.02,30.95,6.69,53.75-32.12,78.92-40.3,27.32-8.88,51.28,13.28,78.13,12.75,29.13-.58,42.67-23.34,74.59-14.71,12.78,3.45,24.62,8.93,37.9,11.08,12.83,2.08,26.07,2.11,39.02,4.26,59.78,9.94,120.19.59,180.69-.17"/>
        <path class="cls-31" d="M.31,156.76c22.49-6.62,33.93-22.36,48.02-37.49,9.55-10.26,25.89-31.46,45.22-27.03,18.88,4.33,32.11,28.46,41.48,40.7,9.18,12,21.45,33.45,39.65,37.98,29.24,7.28,53.57-26.38,78.47-33.04,26.48-7.08,51.94,9.84,78.26,9.3,13.7-.28,24.66-6.23,37.14-10.17,12.93-4.08,23.94-3.83,37.29-1.13,12.75,2.58,24.85,6.99,37.9,8.53,12.87,1.52,26.06,1.44,39.02,2.76,59.63,6.09,120.67,2.94,180.69,2.74"/>
        <path class="cls-46" d="M.31,153.8c23.35-8.51,34.45-26.81,48.18-43.76,8.64-10.66,25.2-36.51,45.35-31.55,19.2,4.73,32.56,31.47,41.6,44.15,9.06,12.71,21.14,35.87,39.77,41.22,27.34,7.85,53.62-21.09,77.98-26.33,25.79-5.55,52.5,6.07,78.39,5.46,26.42-.61,46.86-11.86,74.24-7.92,26.2,3.76,50.27,6.32,76.92,7.27,60.07,2.15,120.57,5.27,180.69,5.68"/>
        <path class="cls-21" d="M.31,150.89c24.13-10.04,34.87-30.63,48.32-49.12,7.92-10.9,24.62-40.86,45.46-35.37,19.54,5.15,32.91,34.23,41.72,47.34,8.95,13.32,20.85,38.21,39.88,44.24,25.53,8.09,53.86-16.75,77.55-20.92,25.38-4.47,52.87,2.53,78.51,1.95,25.35-.57,48.39-6.91,74.08-4.7,26.06,2.24,50.64,4.13,76.92,3.31,61.09-1.89,119.9,7.57,180.69,8.59"/>
        <path class="cls-8" d="M.31,147.92c24.87-10.64,35.25-33.11,48.4-52.56,7.5-11.09,24.1-43.69,45.52-37.76,19.86,5.49,33.11,36.03,41.8,49.53,8.76,13.61,20.65,40.04,39.96,46.28,24.02,7.76,54.33-13.94,77.25-17.55,25.13-3.96,53.13-.21,78.6-.55,24.75-.34,49.19-2.49,73.98-1.74,25.88.78,51.1,1.97,76.92-.51,28.26-2.71,54.61-3.52,82.86.09,32.72,4.19,64.59,10.49,97.83,11.35"/>
        <path class="cls-27" d="M.31,144.82c25.32-10.27,35.47-33.68,48.42-53.29,7.42-11.24,23.78-44.32,45.53-38.23,20.07,5.62,33.13,36.38,41.82,50.08,8.62,13.58,20.56,40.71,39.97,46.77,23.61,7.37,54.53-13.44,77.18-17.02,25.03-3.95,53.24-.93,78.63-1.06,49.51-.25,102,4.21,150.88-2.58,28.66-3.98,54.09-5.03,82.85-.58,32.75,5.07,64.33,12.63,97.83,13.74"/>
        <path class="cls-9" d="M.31,141.75c25.38-10.22,35.51-33.77,48.42-53.4,7.41-11.26,23.74-44.41,45.53-38.33,20.13,5.62,33.15,36.53,41.82,50.26,8.63,13.68,20.48,40.8,39.97,46.94,24.21,7.63,54.2-14.27,77.19-17.98,25.22-4.07,53.09.17,78.62-.05,49.3-.42,102.42,5.53,150.88-1.88,28.82-4.41,53.86-5.48,82.85-.87,32.75,5.21,64.32,12.88,97.84,14.16"/>
        <path class="cls-5" d="M.31,138.77c25.45-10.22,35.54-33.94,48.43-53.62,7.38-11.27,23.69-44.59,45.53-38.5,20.19,5.63,33.18,36.78,41.81,50.56,8.62,13.76,20.4,41.01,39.96,47.21,24.82,7.88,53.96-15.6,77.2-19.58,25.46-4.35,52.92,1.77,78.6,1.57,24.71-.19,49.31-1.49,74.01-.19,26.34,1.38,50.76,3.36,76.88-1.01,28.98-4.84,53.62-5.94,82.85-1.19,32.75,5.33,64.32,13.09,97.85,14.53"/>
        <path class="cls-32" d="M.31,135.86c25.51-10.27,35.58-34.17,48.44-53.93,7.34-11.27,23.66-44.85,45.54-38.72,20.25,5.67,33.21,37.13,41.8,50.97,8.59,13.84,20.33,41.33,39.96,47.59,25.46,8.13,53.78-17.41,77.21-21.74,25.84-4.77,52.64,3.83,78.57,3.75,24.81-.08,49.25-2.33,74.05-.38,26.68,2.1,50.31,4.67,76.85-.14,29.12-5.28,53.38-6.42,82.84-1.54,32.74,5.42,64.33,13.26,97.87,14.84"/>
        <path class="cls-4" d="M.31,133.06c25.58-10.36,35.61-34.45,48.45-54.31,7.28-11.27,23.62-45.17,45.55-39,20.32,5.73,33.25,37.56,41.8,51.47,8.55,13.9,20.25,41.75,39.95,48.06,26.05,8.36,53.74-19.57,77.23-24.4,26.36-5.42,52.3,6.28,78.54,6.41,24.96.13,49.14-3.31,74.1-.66,27.06,2.87,49.78,6.07,76.81.79,29.26-5.71,53.14-6.89,82.83-1.9,32.74,5.5,64.34,13.38,97.89,15.08"/>
        <path class="cls-28" d="M.31,130.35c25.64-10.49,35.64-34.78,48.46-54.76,7.22-11.26,23.59-45.56,45.55-39.31,20.39,5.8,33.28,38.07,41.79,52.05,8.49,13.96,20.18,42.25,39.94,48.61,26.61,8.57,53.81-22.06,77.25-27.48,27.06-6.26,51.85,9.05,78.5,9.48,25.17.41,48.94-4.42,74.16-1.02,27.46,3.7,49.17,7.55,76.77,1.78,29.38-6.14,52.9-7.36,82.83-2.29,32.75,5.55,64.36,13.46,97.91,15.26"/>
        <path class="cls-44" d="M.31,127.76c25.7-10.64,35.67-35.15,48.47-55.27,7.15-11.25,23.57-45.99,45.56-39.66,20.46,5.88,33.32,38.63,41.77,52.7,8.41,14.01,20.12,42.83,39.93,49.22,27.14,8.76,53.98-24.85,77.27-30.91,27.92-7.26,51.33,12.09,78.46,12.89,25.42.75,48.68-5.64,74.23-1.45,27.85,4.56,48.51,9.08,76.71,2.81,29.31-6.52,52.78-7.94,82.82-3.16,32.76,5.22,64.43,12.77,97.93,14.26"/>
        <path class="cls-18" d="M.31,125.29c25.77-10.82,35.71-35.54,48.49-55.82,7.08-11.23,23.55-46.45,45.57-40.04,20.53,5.97,33.36,39.23,41.76,53.4,8.33,14.06,20.05,43.46,39.92,49.88,27.62,8.93,54.25-27.89,77.29-34.61,28.87-8.41,50.78,15.34,78.41,16.56,25.7,1.14,48.35-6.96,74.3-1.94,28.21,5.45,47.83,10.65,76.66,3.87,29.12-6.85,52.74-8.57,82.81-4.33,32.78,4.63,64.53,11.58,97.95,12.5"/>
        <path class="cls-16" d="M.31,122.94c25.83-11.02,35.74-35.96,48.5-56.39,7-11.21,23.53-46.95,45.59-40.44,20.61,6.07,33.4,39.87,41.75,54.14,8.25,14.1,19.99,44.13,39.9,50.57,28.05,9.07,54.58-31.15,77.32-38.52,29.84-9.67,50.27,18.76,78.36,20.44,26,1.56,47.97-8.36,74.38-2.48,28.54,6.35,47.14,12.23,76.6,4.94,28.99-7.17,52.67-9.13,82.79-5.3,32.8,4.17,64.62,10.66,97.98,11.15"/>
        <path class="cls-11" d="M.31,120.72c25.89-11.22,35.77-36.4,48.52-56.99,6.93-11.19,23.51-47.46,45.6-40.86,20.68,6.18,33.44,40.53,41.73,54.91,8.16,14.13,19.93,44.84,39.89,51.3,28.44,9.2,54.97-34.56,77.34-42.55,30.76-10.99,49.83,22.29,78.31,24.45,26.3,1.99,47.54-9.83,74.46-3.07,12.57,3.16,24.6,8.37,37.62,10.25,13.71,1.98,25.83-.85,38.91-4.24,28.9-7.49,52.58-9.62,82.78-6.08,32.81,3.84,64.69,9.99,98,10.18"/>
        <path class="cls-37" d="M.31,118.64c25.96-11.44,35.8-36.84,48.54-57.6,6.85-11.16,23.49-47.97,45.61-41.28,20.76,6.28,33.47,41.21,41.72,55.68,8.07,14.17,19.87,45.55,39.88,52.03,28.15,9.1,56.18-37.58,77.37-46.65,30.49-13.04,50.41,25.98,78.26,28.51,26.58,2.42,47.13-11.51,74.54-3.68,12.57,3.59,24.49,9.09,37.58,11.38,13.62,2.38,25.95-.83,38.89-4.32,28.86-7.78,52.46-10.03,82.76-6.69,32.82,3.62,64.74,9.53,98.02,9.53"/>
        <path class="cls-2" d="M.31,116.71c26.02-11.65,35.82-37.27,48.55-58.21,6.77-11.14,23.47-48.49,45.62-41.7,20.83,6.39,33.51,41.88,41.71,56.46,7.98,14.2,19.81,46.27,39.86,52.76,28.32,9.15,56.76-41.06,77.4-50.73,30.89-14.49,50.42,29.64,78.21,32.56,26.87,2.82,46.68-13.06,74.62-4.31,12.56,3.93,24.36,9.93,37.54,12.46,13.62,2.61,25.95-.77,38.87-4.38,28.85-8.06,52.34-10.37,82.75-7.13,32.82,3.5,64.78,9.25,98.04,9.16"/>
        <path class="cls-47" d="M.31,114.94c26.08-11.86,35.85-37.7,48.57-58.8,6.7-11.12,23.46-48.99,45.63-42.11,20.91,6.49,33.55,42.53,41.69,57.22,7.89,14.23,19.75,46.98,39.85,53.47,28.47,9.2,57.32-44.51,77.42-54.73,31.18-15.86,50.51,33.28,78.16,36.53,12.57,1.48,25.54-4.33,37.44-6.91,13.76-2.99,24.05-2.52,37.27,1.95,12.56,4.25,24.24,10.73,37.5,13.48,13.61,2.82,25.96-.71,38.85-4.43,28.87-8.31,52.2-10.64,82.73-7.43,32.83,3.45,64.8,9.12,98.06,9.03"/>
        <path class="cls-10" d="M.31,113.33c26.14-12.05,35.88-38.11,48.58-59.37,6.63-11.1,23.44-49.47,45.64-42.5,20.98,6.58,33.58,43.16,41.68,57.94,7.81,14.26,19.69,47.65,39.84,54.16,28.61,9.24,57.84-47.87,77.44-58.57,31.38-17.13,50.65,36.82,78.11,40.35,12.54,1.61,25.76-4.69,37.5-7.57,13.84-3.4,24.04-2.8,37.28,1.96,12.57,4.52,24.1,11.47,37.46,14.42,13.6,3.01,25.97-.66,38.83-4.46,28.9-8.54,52.07-10.83,82.71-7.6,32.83,3.46,64.82,9.13,98.07,9.08"/>
        <path class="cls-35" d="M.31,111.89c26.2-12.22,35.91-38.49,48.6-59.9,6.57-11.08,23.42-49.91,45.65-42.87,9.24,2.93,16.87,15.97,21.21,22.39,7.84,11.6,13.9,24.13,20.46,36.24,7.74,14.29,19.63,48.27,39.83,54.8,28.75,9.29,58.29-51.06,77.47-62.18,31.52-18.28,50.81,40.2,78.06,43.94,12.58,1.73,25.89-5.1,37.56-8.2,13.93-3.7,23.99-3.11,37.29,1.94,12.58,4.78,23.97,12.14,37.42,15.27,13.58,3.17,25.97-.6,38.82-4.47,28.95-8.72,51.94-10.95,82.7-7.66,32.83,3.52,64.83,9.22,98.09,9.28"/>
        <path class="cls-29" d="M.31,110.62c26.26-12.37,35.94-38.85,48.61-60.39C55.44,39.16,72.32-.09,94.59,7.03c9.26,2.96,16.89,16.19,21.2,22.64,7.84,11.73,13.9,24.39,20.45,36.62,7.68,14.34,19.57,48.84,39.82,55.39,28.9,9.35,58.66-54.01,77.49-65.49,31.63-19.29,50.95,43.35,78.02,47.24,12.63,1.82,26.01-5.48,37.62-8.78,14-3.98,23.96-3.41,37.3,1.9,12.58,5.01,23.85,12.73,37.39,16.01,13.56,3.29,25.99-.55,38.8-4.46,29.01-8.87,51.83-11,82.68-7.61,32.83,3.61,64.83,9.38,98.1,9.57"/>
        <path class="cls-34" d="M.31,109.55c26.32-12.49,35.97-39.16,48.62-60.82,6.46-11.06,23.37-50.67,45.67-43.51,9.29,2.99,16.9,16.37,21.2,22.86,7.85,11.85,13.9,24.62,20.45,36.96,7.64,14.39,19.5,49.33,39.81,55.91,29.07,9.43,58.93-56.65,77.51-68.42,31.75-20.13,51.05,46.18,77.98,50.18,12.71,1.89,26.09-5.86,37.67-9.32,14.05-4.2,23.93-3.69,37.31,1.83,12.59,5.2,23.74,13.23,37.36,16.63,13.53,3.38,26-.5,38.79-4.44,29.06-8.97,51.75-10.98,82.66-7.47,32.82,3.72,64.83,9.57,98.11,9.91"/>
        <path class="cls-45" d="M.31,108.66c26.38-12.57,35.99-39.42,48.63-61.17,6.42-11.06,23.34-50.97,45.68-43.76,9.31,3.01,16.92,16.52,21.19,23.03,7.85,11.95,13.89,24.82,20.44,37.26,7.6,14.45,19.43,49.72,39.8,56.36,29.28,9.54,59.1-58.9,77.52-70.91,31.9-20.79,51.09,48.63,77.95,52.68,12.79,1.93,26.17-6.17,37.71-9.79,14.04-4.39,23.94-3.94,37.32,1.73,12.6,5.34,23.64,13.63,37.34,17.11,13.49,3.42,26.03-.46,38.77-4.41,29.11-9.02,51.69-10.88,82.65-7.26,32.82,3.84,64.83,9.77,98.12,10.26"/>
        <path class="cls-43" d="M.31,107.98c26.44-12.6,36.02-39.63,48.64-61.44,6.39-11.06,23.31-51.19,45.68-43.96,9.34,3.02,16.93,16.62,21.19,23.15,7.86,12.03,13.89,24.99,20.44,37.52,7.59,14.52,19.36,50.01,39.79,56.7,29.55,9.68,59.14-60.69,77.53-72.87,32.12-21.27,51.06,50.62,77.92,54.67,12.87,1.94,26.23-6.45,37.75-10.18,14.01-4.54,23.96-4.15,37.33,1.61,12.62,5.43,23.56,13.93,37.33,17.45,13.44,3.43,26.06-.42,38.76-4.35,29.14-9.01,51.68-10.71,82.63-7,32.82,3.94,64.83,9.94,98.13,10.58"/>
        <path class="cls-33" d="M.31,107.5c26.5-12.59,36.06-39.77,48.64-61.63,6.37-11.07,23.27-51.34,45.69-44.11,9.36,3.02,16.94,16.67,21.19,23.21,7.86,12.1,13.89,25.12,20.44,37.71,7.59,14.61,19.28,50.17,39.79,56.95,29.88,9.87,59.05-61.96,77.54-74.25,32.42-21.53,50.94,52.08,77.91,56.1,12.95,1.93,26.26-6.67,37.77-10.49,13.93-4.63,24-4.32,37.33,1.45,12.64,5.47,23.48,14.11,37.32,17.61,13.38,3.38,26.1-.4,38.76-4.29,29.15-8.94,51.71-10.46,82.62-6.69,32.81,4.01,64.83,10.06,98.13,10.8"/>
        <path class="cls-17" d="M.31,107.24c26.57-12.52,36.09-39.84,48.65-61.7,6.37-11.08,23.23-51.4,45.69-44.18,9.38,3.01,16.94,16.66,21.19,23.22,7.87,12.14,13.89,25.21,20.43,37.85,7.62,14.71,19.19,50.19,39.79,57.07,30.3,10.12,58.8-62.65,77.55-74.95,32.85-21.57,50.69,52.94,77.9,56.87,13.04,1.89,26.26-6.83,37.79-10.71,13.82-4.65,24.06-4.45,37.34,1.27,12.67,5.46,23.43,14.17,37.32,17.6,13.32,3.29,26.15-.39,38.75-4.2,29.13-8.8,51.8-10.14,82.6-6.35,32.81,4.04,64.84,10.09,98.14,10.9"/>
      </g>
    </g>
  </g>
</svg>