<?xml version="1.0" encoding="UTF-8"?>
<svg id="Ebene_2" data-name="Ebene 2" xmlns="http://www.w3.org/2000/svg" viewBox="0 0 117.01 36.1">
  <defs>
    <style>
      .cls-1 {
        fill: #fff;
        stroke-width: 0px;
      }
    </style>
  </defs>
  <g id="Ebene_1-2" data-name="Ebene 1">
    <g>
      <path class="cls-1" d="M20.8,28.83h-3.09s0,.76-.04,2.21c-.12-.04-.32-.08-.6-.16,0,.04,0,.08-.04.16.04.28.04.36.08.32v.36s-.16.04-.36.16c.08.12.24.24.44.36.04-.04.16-.32.36-.76,0,.08,0,.12.04.16.04,0,.08-.04.16-.12v2.01l-.08-.08-.08.12.12.08c.04.12.04.4.04.84-.12.08-.28.2-.48.4v.68c.24.24.2,0,.48,0v.52h-.52c.04-.12.12-.24.24-.28-.08-.04-.2-.08-.32-.08-.04.2-.04.32,0,.36h-5.54v-5.34c.12.04.24.16.4.36.04-.04.08-.12.08-.2,0-.24-.08-.4-.28-.48.04-.04.08-.16.04-.32l-.08-.08c-.08.08-.12.12-.12.16-.08-.48-.08-.92-.04-1.32H0v-5.74l3.17-6.75c0,.16-.04.28-.12.32.12.12.16.16.2.16-.04-.2-.04-.44,0-.76.08-.24.36-.8.8-1.69.28-.04.6-.16.96-.4.2-.08.28-.12.32-.12s.16.2.28.2,0-.08.12-.08c.16.12.68.72.72.56,0-.08,0-.24.04-.44h.2c.16.16.28.28.32.4-.36.16-.56.28-.52.36-.24-.04-.48,0-.76.2,0-.04-.04-.12-.12-.16-.08.04-.12.12-.12.2l-.12-.08c-.08.04-.16.08-.24.04l-.16.16s.16.08.28.2l.12-.12h.32c0,.12,0,.2.04.24.04-.04.04-.08.04-.12.04,0,.32.08.44.08.24,0,.44.04.56.16.08.04.2.24.36.6-.04.04,0,.08.08.08.24,0,.4.04.48.08.12.12.24.2.28.24l-3.05,6.83h6.75v-2.77c.12,0,.24-.08.28-.2-.2-.2-.16-.16-.28-.12v-2.01c.12,0,.2,0,.24-.04-.04-.08-.08-.2-.16-.32-.04,0-.08.04-.08.08v-2.49s.08-.04.12-.08c.2.2.28.32.28.44.16,0,.2-.04.08-.16.04,0,.16-.08.4-.2v-.44s-.12-.04-.28-.04h-.16c-.2,0-.36,0-.44.04v-2.45s.04.12.12.24c.12-.04.16-.16.16-.28,0-.04-.08-.16-.2-.28-.04.04-.04.08-.08.16v-.32c.16.04.24,0,.24-.12,0,.12-.08-.04-.24-.52l-.04-2.85c-.16.2-.28.4-.32.6,0-.16.16-.52.16-.64,0,.04-.08-.04-.2-.32-.04.08-.12.2-.2.36-.04-.08-.08-.16-.04-.28-.08-.16-.12-.24-.16-.24.08-.12.12-.24.12-.4l-.32-.16c-.2.16-.24.28.08.44-.76.12-.28.16-.84.28.2.44.32.72.32.92,0-.16-.08,0-.24.48l.08.08c.2-.04.48-.28.84-.76l.12.12c.08-.08.12-.16.12-.24.12.2.16.36.16.48-.92,2.05-1.89,3.98-2.81,5.74h-.28c0-.12.12-.56.12-.72-.12-.08-.28-.12-.56-.12-.08-.32-.04-.52.08-.6l-.44-.44c-.28.2-.48.28-.52.28s-.84-.08-1.2-.08c.04-.12,0-.28-.08-.52l-.12.12s-.04-.04-.12-.04-.12.04-.12.16c0-.04-.04-.08-.08-.12-.04.04-.08.16-.16.28-.16.04-.4.16-.68.36L10.4,1v.96s.08.04.16.12c.2-.2.16-.48-.08-.8.24-.12.28-.32.08-.68.04-.12.16-.32.28-.6h4.66c.04.28.16.64.36,1.08-.04.04-.04-.32-.04-1.08h1.93v11.49c-.16,0-.16.04-.04.16l-.72.24c.28.12.44.16.48.16s.12-.08.2-.24c.08.28.08.56,0,.8-.12,0-.2.04-.24.08,0-.04-.08-.16-.24-.28-.2.16-.36.24-.52.24-.04,0-.52-.12-.68-.12t-.08,0s0,.04.04.08c-.16.04-.24,0-.24-.04-.08-.04-.2-.16-.32-.28-.04.12-.04.24.04.36-.12.12-.32.2-.44.32.04.04.08.04.16,0,.12.08.28.2.48.36.04.16.16.44.32.8-.04.08-.04.2-.04.32.04.04.08.12.16.16.2-.12.32-.2.36-.28l.04-.08c0,.12.16.52.16.64v.24s.08.08.12.08c.08-.2.12-.36.08-.48.04-.04.08-.12.08-.2,0-.04-.08-.48-.08-.68t.04-.08c-.08-.08-.16-.12-.24-.12-.04,0-.12.08-.28.24l-.2-.2c.28-.16.12-.4,1.16-.88.04-.04.08-.04.12-.04.04.08.12.2.2.32v.32l-.2-.04s-.04-.04-.04.08c0-.04.04.08.16.28.08-.08.12-.12.16-.08.04.04.04.52.04,1.49-.28.44-.4.64-.4.6,0,.12.04.28.08.4.04-.04.04-.16.04-.32.2,0,.28.88.28,2.65-.16-.28-.36-.56-.56-.84-.04.12-.08.28-.08.44,0,.28.08.56.2.8-.04.08-.04.24,0,.48.04.12.08.2.12.32.12-.12.16-.16.2-.16-.04.08-.12.24-.24.44l.16.16s.12-.12.16-.24v3.49c.52,0,1.37-.04,1.41.4.04-.04.04-.16.04-.36h.32c.12,0,.28.08.48.24,0,.12.04.28.12.48.08,0,.16-.08.28-.28-.12-.12-.24-.28-.36-.44h.68l.08.76c0,.28-.08,1.24-.08,1.44l-.08-.04s-.04.08-.2.16c.12.04.24.08.4.16v2.93ZM.48,28.27v-.28h-.08v.28h.08ZM.6,22.57s-.12-.04-.16-.12v.4c0-.08.04-.16.16-.28ZM.96,24.66c0-.12-.04-.16-.12-.16l-.12.16h.24ZM2.89,18.75h-.08v-.2h.08v.2ZM3.17,19.03v-.08h-.16v.08h.16ZM3.13,18.83v-.24h-.08v.24h.08ZM3.57,20.4v-.24c-.04.08-.08.12-.12.12-.04-.04-.08-.04-.12-.04l-.12-.12s-.04.04-.16.08l.28.24c.12-.08.2-.08.24-.04ZM3.37,17.99v-.36h-.08v.36h.08ZM3.65,19.72c0-.16,0-.32-.04-.44,0-.12-.08-.2-.24-.2.08.2.16.4.28.64ZM4.5,16.91v-.24c-.28-.12-.36-.16-.28-.16-.36,0-.48,0-.4.04-.04.08-.08.2-.12.32-.04-.04-.12-.16-.12-.2,0,.12-.04.24-.08.28h.08s.08-.04.12-.04c.12,0,.2.08.28.24.12-.04.32-.12.52-.24ZM3.81,18.23v-.36c-.2.12-.28.2-.28.28l.28.08ZM4.1,19.03v-.08h-.16v.08h.16ZM4.18,18.51l-.08-.04-.08.16.08.04.08-.16ZM4.1,19.8v-.24h-.08v.24h.08ZM4.46,18.63s-.12-.24-.16-.28l-.08.24h.12s.08.04.12.04ZM4.7,19.48c-.12-.12-.16-.2-.16-.24v.16h-.2l-.04.16v.24c.12-.08.24-.2.4-.32ZM4.62,20.32s-.08-.16-.08-.28c0,.04-.08.16-.12.2-.04-.12-.04-.2.08-.32-.04,0-.08,0-.16-.04-.04.08-.04.28-.04.56.16-.08.28-.12.32-.12ZM4.54,18.27v-.2s-.04.08-.16.08l.16.12ZM5.18,24.9c-.28-.04-.4-.84-.52-1.01-.48.6.04.6.04,1.01h.48ZM4.82,23.77v-.28h-.08v.28h.08ZM6.06,20.8c-.12-.28-.28-.4-.52-.44v.52s.2.12.32.12l.2-.2ZM6.02,12.65v-.08h-.2v.08h.2ZM6.26,12.69v-.16h-.08v.16h.08ZM6.63,12.53v-.12h-.36v.12h.36ZM6.43,19.8c0-.12-.04-.24-.08-.28-.04.16-.08.28-.08.32.04,0,.08,0,.16-.04ZM6.38,28.03v-.32h-.08v.32h.08ZM6.71,9.72v-.2h-.12v.2h.12ZM6.99,27.59c0-.08-.12-.12-.36-.12.08.2.16.28.2.32.12-.08.16-.16.16-.2ZM6.83,25.26s-.08-.04-.12-.08v.2c0-.08.04-.12.12-.12ZM6.91,10.48v-.08h-.16v.08h.16ZM6.99,24.94v-.12h-.24v.12h.24ZM8.43,11.41c-.12-.16-.16-.28-.16-.32-.08.04-.2.08-.36.12-1.61.93-1.04,1.08-1.08,1.04-.04-.04.32.28.48.28.12,0,.12-.12.24-.12.24,0,.4-.16.52-.44.04-.2.12-.4.2-.6.04.04.08.04.16.04ZM7.71,15.14c-.04-.16-.2-.28-.4-.4v.4h.4ZM7.67,24.86c-.04-.08-.04-.2-.04-.4-.04,0-.12.08-.24.2.12.04.24.12.28.2ZM8.19,25.38l-.24-.08v.12l.2.04.04-.08ZM8.15,25.22v-.36l-.12-.04v.32s.08.04.12.08ZM9.08,25.38c0-.12-.2-.44-.2-.56-.52.52-.8.8-.8.84s.28.32.32.44c-.04-.08.04-.32.24-.76.08.04.2.12.36.28.04-.12.08-.2.08-.24ZM8.47,15.54c-.24.12-.36.2-.36.28,0,.12.08.32.08.44.08-.2.16-.44.28-.72ZM8.27,24.7v-.12h-.16v.12h.16ZM8.19,27.31v-.28h-.08v.28h.08ZM8.83,24.42c-.08-.2-.16-.28-.28-.28.12.4.24.48.28.28ZM9,27.39c-.04-.24-.12-.48-.32-.76l-.08.28c.32-.04.28.36.4.48ZM9.28,26.66c0-.32-.08-.6-.24-.84v.32c0,.12.08.32.24.52ZM9.56,25.62c0,.2-.08-.04-.24-.76-.04.16-.08.32-.08.48,0-.16.08-.16.2-.04,0,.12,0,.28-.04.44.12,0,.16-.04.16-.12ZM9.8,10.32c-.08-.08-.2-.2-.32-.4,0,.12-.16.24-.16.36,0,.04.04.12.16.24.12-.12.32-.2.32-.2ZM9.52,4.38v-.16h-.08v.16h.08ZM9.72,5.22v-.28c-.16-.16-.24-.28-.24-.36,0,.28.08.52.24.64ZM9.92,6.27v-.44c-.08.04-.2.04-.36.04.2.16.08.24.36.4ZM9.76,25.5v-.2h-.08v.2h.08ZM10.48,24.78c0-.2-.12-.4-.4-.52l-.08.64c.12.08.24.12.28.12.12,0,.2-.08.2-.24ZM10.84,8.92c-.04.08-.16.16-.44.28.04-.12.08-.32.16-.6.04.08.16.2.28.32ZM11.08,1.16v-.4h-.08v.4h.08ZM11.08,1.89v-.16h-.08v.16h.08ZM11.08,7.43v-.16h-.08v.16h.08ZM11.2,7.99v-.24h-.08v.24h.08ZM11.77,8.55v-.08h-.16v.08h.16ZM12.05,1.41c-.12-.28-.24-.44-.4-.56.04.16.08.4.16.76.04,0,.12-.08.24-.2ZM11.93,29.51l-.12-.2-.08.04.12.2.08-.04ZM11.93,13.53c0-.08,0-.2-.04-.36-.04,0-.08.12-.12.36,0-.04.04-.04.16,0ZM12.01,13.98v-.08h-.16v.08h.16ZM12.05,2.01v-.28h-.08v.28h.08ZM14.01,7.99l-.08-1.13c-.84.32-.92.52-1.2.8-.52.4-.76.64-.76.68,0,.24.04.36.16.36s.4-.28.52-.28h.16c.08.04.16.04.2.04.16,0,.32-.04.44-.12,0-.08.04-.2.12-.36h.44ZM12.05,14.78h-.08v-.16h.08v.16ZM12.05,19.2v-.24h-.08v.24h.08ZM12.29,2.33l-.2-.12-.08.08.24.12.04-.08ZM12.25.92v-.32c0,.12-.04.2-.12.2.08,0,.12.04.12.12ZM13.05,31.04s-.4-.16-.4-.16h-.4s.08.04.16.08c-.04.04,0,.08.08.16.04-.04.08-.16.12-.2.12.08.24.2.36.32,0-.08.04-.16.08-.2ZM12.77,3.65v-.2c0-.12-.08-.28-.2-.4h-.24c.08.32.16.56.28.72l.16-.12ZM12.53,18.15l-.16-.04-.04.08.16.08.04-.12ZM12.53,34.13s-.12.16-.16.28c.04-.2.08-.28.16-.28ZM13.05,19.07c-.16.04-.32.2-.52.4.08.16.12.24.08.28q-.04-.12-.08-.04c-.04.08-.08.16-.08.24,0,.36.36.52.4.72,0-.44.2-1.65.2-1.61ZM12.73,9.44s.04-.12-.04-.24c-.08.16-.12.24-.12.28.04,0,.12,0,.16-.04ZM12.73,15.06l-.12-.08-.04.04.08.08.08-.04ZM12.73,33.69s-.04.08-.16.12c.12.12.16.16.12.2.04-.16.08-.28.04-.32ZM13.17,5.22c0-.28-.08-.56-.2-.92-.12-.04-.16-.08-.2-.08,0,.04-.04.04-.12.08.04.32.16.76.44,1.29.04-.12.08-.24.08-.36ZM12.85,21.08c-.12.04-.16.08-.2.08l.2.2v-.28ZM13.17,24.29c-.04-.28-.04-.6-.04-.92-.04-.04-.16,0-.36.08.08.04.12.28.12.8h.12c.08.04.12.04.16.04ZM12.97,10.04h-.12l-.04.2.08.04.08-.24ZM13.01,15.14q-.2-.2-.2-.08c0,.08,0,.12.04.16.04-.04.08-.04.16-.08ZM13.09,15.78c0-.12-.04-.16-.16-.16l.16-.16v.32ZM13.65,27.31c0-.12,0-.16-.04-.16-.04-.16-.04-.36-.08-.6-.12-.12-.24-.28-.28-.48.04-.08.08-.32.04-.72-.16-.2-.2-.12-.36-.12v.4c0,.16.12.52.32,1.13v.16c-.16.12-.28.32-.32.64.12.04.24.08.32.08.28,0,.4-.12.4-.32ZM13.17,9.84s-.12-.08-.2-.16c0,.16.04.28.12.36.04-.08.04-.16.08-.2ZM13.13,17.99v-.24h-.08v.24h.08ZM13.25,18.83l-.16-.16v.28l.16-.12ZM14.01,18.99s-.16-.2-.2-.2c-.04.04-.16.08-.32.12-.08.2-.2.44-.36.8.08,0,.16.04.24.12-.08.08-.08.16-.04.2.04-.04.08-.12.12-.2l.04.24s-.08.04-.08.08c-.04.24.12.36.48.4.08,0,.04-.08-.08-.2-.2,0-.04-.16-.2-.44-.28-.48,0-.44.4-.92ZM13.61,28.59v-.36h-.08v.36h.08ZM14.01,30.88c0-.32-.12-.64-.36-1,.04.24.08.6.12,1.04.04,0,.08,0,.12-.04h.12ZM14.22,11.41v-.24c-.12-.28-.08-.68-.36-.68-.08.16-.12.32-.12.44,0-.04.08.16.2.64.08-.12.16-.16.28-.16ZM14.38,22.61c-.32-.12-.2-.76-.56-1.04-.04.2-.08.44-.08.8.04.04.16.12.28.24-.12.04-.12.32,0,.76.08.28.12.4.12.32.04,0,.12,0,.2-.04-.04-.64-.04-1.01.04-1.04ZM13.85,10.16v-.36h-.08v.36h.08ZM13.85,21.16v-.28h-.08v.28h.08ZM14.5.64v-.32l-.08-.08c-.12.08-.32.16-.56.28v.28s.12.08.2.16c.12-.08.24-.2.44-.32ZM15.18,15.9c0-.08-.24-.28-.68-.56v-.12c-.4,0-.6.12-.64.4.2.12.36.24.56.4l.12-.12c.04.12.2.44.24.6l.32-.36s-.04,0-.08-.04c.12-.08.16-.16.16-.2ZM13.97,9.72v-.16h-.08v.16h.08ZM14.09,11.97v-.24h-.08v.24h.08ZM14.09,31.12v-.24h-.08v.24h.08ZM14.3,33.21v-.36s-.04.04-.12.08l-.12-.12v.48s.12-.08.24-.08ZM14.26,6.79l-.08-.04s-.08.08-.08.16c.04,0,.2-.12.16-.12ZM15.9,8.35s-.04-.08-.08-.36c-.32.16-.52-.2-.68-.4-.12.08-.24.2-.36.36-.04-.04-.12-.16-.12-.2,0,.16-.04.28-.08.32v.08c-.08.04-.2.08-.36.08-.04.08-.04.24-.04.52,0-.04.04-.08.12-.08s.12.04.12.16c.04-.08.12-.2.24-.32.04-.2.16-.2.36-.08v-.24c.12-.04.28-.08.48-.12.12.2.16.28.16.24,0,.08,0,.12-.04.12v.08s.08,0,.28-.16ZM14.54,9.36s-.12-.28-.12-.4h-.2c.12.44.2.6.2.52s.04-.12.12-.12ZM14.54,24.58l-.12.08c-.2-.44-.2.08-.2.24,0,.12.08.24.2.28.04-.16.08-.36.12-.6ZM14.46,24.26v-.16h-.08v.16h.08ZM14.9,14.42c-.12,0-.2-.16-.32-.2-.08.04-.12.08-.12.2.16.08.28.12.32.12,0-.08.04-.12.12-.12ZM14.82,6.55v-.36s-.12,0-.16-.04c-.12.12-.16.2-.16.24,0,.04.04.12.16.24.04-.04.08-.08.16-.08ZM14.58,25.74v-.2h-.08v.2h.08ZM14.98,27.07v-.4c-.12-.04-.2-.16-.2-.28,0,.04-.2.16-.2.28s.12.28.4.4ZM14.94,11v-.6h-.08v.6h.08ZM16.18,22.49s-.24-.28-.24-.4.08-.32.24-.56l-.08-.2c-.08,0-.16.04-.2.12.08.04.08.08.04.12-.08.08-.2.16-.32.28-.12.36-.56,1.33-.56,1.36,0,.08.08.12.2.12v-.12c.08-.04.16-.16.24-.28.12.04.24.16.36.36.2-.44.32-.72.32-.8ZM15.18,29.8v-.24h-.08v.24h.08ZM15.78,6.95s-.08-.04-.16-.04c-.12-.12-.16-.16-.16-.12.04-.04.08-.08.12-.16s.04-.12,0-.12l-.2-.2h-.2v.28c.04.08.16.2.28.36-.28.08-.24.24.04.52.08-.16.16-.32.28-.52ZM15.46,19.28c-.04-.12-.16-.2-.28-.2v.28c.04.08.12.2.2.4l.08-.48ZM15.66,32.89s-.04-.08-.08-.16c-.04-.04-.04-.08,0-.12-.28-.16-.12-.16-.4.36l.4.08s.04-.12.08-.16ZM15.42,1.04c-.12-.12-.16-.16-.16-.2v.36l.16-.16ZM16.38,1.77c-.12-.2-.16-.28-.16-.32l-.12.12c-.08-.08-.12-.08-.12,0,.04.16-.6.2-.64.2.04.04.28.2.64.44.08-.2.2-.36.4-.44ZM16.18,10.76v-.64c0-.08-.04-.16-.12-.24h-.2c-.12.2-.32.36-.52.48v.32c.2.2.36.28.48.28s.32-.2.36-.2ZM16.06,20.92c0-.12-.28-.44-.44-.4-.12.12-.2.28-.2.4,0,.2.12.4.32.6.2-.44.32-.64.32-.6ZM15.94,24.54c-.08-.12-.2-.2-.32-.32,0,.08-.04.16-.08.2.08.12.16.2.2.2.08,0,.16-.04.2-.08ZM17.23,27.71c-.24-.12-.32-.32-.28-.64-.04-.04-.12-.08-.16-.16-.08-.2-.12-.4-.12-.52-.32,0-.28-.08-.28.16-.2.08-.44.2-.8.4.36.2.64.24.76.12.32.44.28,1.36.6,1.69,0-.52.08-.88.28-1.04ZM16.3,31.04c-.12-.12-.24-.16-.4-.16-.08,0-.16.04-.24.16.04.04.08.12.12.24h.44c0-.12.04-.2.08-.24ZM15.78,33.93v-.2h-.08v.2h.08ZM16.1,23.65l-.12-.08-.04.08.08.08.08-.08ZM16.3,33.09v-.24c-.04-.12-.16-.16-.36-.16.04.08.16.2.36.4ZM16.22,12.45v-.2h-.2l.2.2ZM16.14,16.95v-.16h-.08v.16h.08ZM16.38,15.14s-.04-.08-.16-.2c-.12.08-.12.16,0,.28,0-.04.04-.04.16-.08ZM16.42,6.87v-.08h-.28v.08h.28ZM17.27,16.22v-.4c-.28-.12-.36-.16-.32-.16-.04,0-.2.16-.48.52-.04-.04-.12-.16-.16-.36.04,0,.08-.04.12-.08-.12-.12-.2-.12-.28,0v1.04c.08-.08.2-.12.4-.12-.12,0,.2.08.52.68.12-.2.12-.44.08-.72-.04-.28-.08-.44-.08-.48.08.04.16.08.2.08ZM16.87,21.52c-.2-.4-.4-.64-.6-.68-.08.04-.12.08-.12.2,0,.04.16.28.44.68.04-.12.16-.2.28-.2ZM16.26,18.59v-.16h-.08v.16h.08ZM17.15,4.66l-.2-.2c-.12.08-.28.2-.52.32.08.04.08.12-.04.24.2,0,.36.08.56.2.04-.12.12-.32.2-.56ZM16.79,22.57l-.28-.04c0,.12.04.24.08.28.12-.08.2-.16.2-.24ZM16.75,23.65l-.16-.12-.04.04.12.16.08-.08ZM16.75,6.91v-.36h-.08v.36h.08ZM17.11,29.8l-.16-.08-.04.08.16.08.04-.08ZM17.63,7.19c-.08-.24-.2-.56-.32-.96-.08.04-.12,0-.12-.08-.04.04-.08.12-.08.24,0-.2.08.2.24,1.16h.2l.08-.36ZM17.67,10.52c0-.28,0-.24-.2-.2.04.04.12.08.2.2ZM17.59,11.12v-.16h-.08v.16h.08ZM17.71,19.52v-.84h-.2c.12.68.2.96.2.84ZM18.03,26.22c0,.12-.08.16-.28.16,0,.12.08.16.24.16.2,0,.24-.12.04-.32ZM18.99,26.14h-.32c0,.08,0,.12-.04.16-.04-.12-.2-.36-.24-.48,0,.2-.08.36-.2.52.08.12.2.16.32.16l.12-.12c.2-.04.32-.04.32,0l.04-.24ZM19.96,26.1c0-.08-.04-.16-.12-.28,0,.04-.04.04-.16.08,0,.04,0,.2.28.2ZM20.48,24.9c-.12-.12-.16-.24-.16-.44,0,.04-.04.08-.16.16v.36c.12,0,.24-.04.32-.08ZM20.6,23.89v-.28h-.08v.28h.08Z"/>
      <path class="cls-1" d="M28,5.85v14.98h-4.11V5.85h-3.41v-3.56h10.92v3.56h-3.4Z"/>
      <path class="cls-1" d="M51.21,20.84h-4.45l-2.28-12.44h-.05l-2.25,12.44h-4.45l-3.48-18.55h4.27l1.91,12.91h.1l2.02-12.91h4.06l2.1,12.91h.08l1.89-12.91h4.06l-3.51,18.55Z"/>
      <path class="cls-1" d="M59.2,20.84V2.29h8.96v3.69h-4.95v3.64h4.56v3.46h-4.56v3.98h5.27v3.77h-9.27Z"/>
      <path class="cls-1" d="M81.57,20.84l-4.3-11.29h-.08l.1,11.29h-3.75V2.29h4.61l4.27,11.45h.08l-.08-11.45h3.61v18.55h-4.48Z"/>
      <path class="cls-1" d="M97.81,5.85v14.98h-4.11V5.85h-3.41v-3.56h10.92v3.56h-3.4Z"/>
      <path class="cls-1" d="M112.3,14.16v6.68h-4.11v-6.68l-4.69-11.87h4.53l2.23,7.68h.05l2.25-7.68h4.45l-4.72,11.87Z"/>
    </g>
  </g>
</svg>