<?xml version="1.0" encoding="UTF-8"?>
<svg id="Slogan" xmlns="http://www.w3.org/2000/svg" viewBox="0 0 148.75 147.92">
  <defs>
    <style>
      .cls-1 {
        fill: #ffe1bb;
      }

      .cls-1, .cls-2, .cls-3, .cls-4, .cls-5 {
        stroke-width: 0px;
      }

      .cls-2 {
        fill: #ffe100;
      }

      .cls-3 {
        fill: #000;
      }

      .cls-4 {
        fill: #5e449a;
      }

      .cls-5 {
        fill: #fff;
      }
    </style>
  </defs>
  <g id="Slogan_Text">
    <g>
      <path class="cls-5" d="M7.73,78.08c-.64.01-1.18-.1-1.63-.33-.44-.23-.8-.55-1.08-.94-.28-.4-.48-.86-.61-1.39s-.2-1.07-.21-1.64l-.02-1.32-4.14.07-.04-2.65,10.97-.18.07,4.03c0,.6-.04,1.16-.15,1.68s-.29.98-.55,1.37-.6.7-1.02.93c-.43.23-.95.35-1.58.36h0ZM7.67,75.43c.26,0,.47-.06.63-.17s.29-.25.38-.42c.09-.18.15-.38.18-.6.03-.22.04-.45.04-.69l-.02-1.16-2.59.04.02,1.12c0,.25.03.49.07.71.04.23.12.43.23.61s.25.32.42.42.39.15.65.14h-.01Z"/>
      <path class="cls-5" d="M1.2,86.66l3.95-3.01-.14-.89-4.31.66-.39-2.56,10.85-1.66.63,4.14c.08.52.1,1.04.07,1.55-.03.51-.14.98-.34,1.42-.2.43-.48.8-.87,1.1-.38.3-.89.5-1.51.59-.74.11-1.38,0-1.95-.31-.56-.32-1-.82-1.33-1.49l-4.21,3.55-.47-3.06.02-.03ZM8.71,85.4c.26-.04.45-.12.6-.26.14-.13.24-.29.3-.47s.09-.38.09-.6-.02-.42-.05-.62l-.21-1.4-2.53.39.19,1.25c.03.22.08.43.15.65s.17.42.29.59.28.3.47.39c.19.09.43.12.7.07h0Z"/>
      <path class="cls-5" d="M2.35,92.2l10.48-3.26,2.19,7.05-2.13.66-1.43-4.6-1.98.62,1.35,4.35-2.03.63-1.35-4.35-2.18.68,1.52,4.87-2.16.67-2.28-7.31h0Z"/>
      <path class="cls-5" d="M16.19,106.48c-.58.28-1.12.41-1.61.38-.5-.02-.96-.16-1.37-.4-.42-.25-.8-.58-1.14-1s-.63-.89-.88-1.4l-.57-1.19-3.73,1.8-1.15-2.39,9.89-4.76,1.75,3.63c.26.54.45,1.07.57,1.59.12.52.14,1.01.08,1.48-.07.46-.25.89-.54,1.27-.29.39-.72.72-1.29.99h-.01ZM15.03,104.1c.23-.11.4-.25.51-.42.1-.16.16-.35.17-.55s-.02-.4-.09-.62-.15-.43-.26-.64l-.5-1.05-2.33,1.12.48,1.01c.11.22.23.43.37.62s.29.34.46.46.36.19.55.21c.2.02.41-.03.65-.14h0Z"/>
      <path class="cls-5" d="M14.47,117.58l1.3-1.91-2.38-3.52-2.24.54-1.62-2.39,11.67-2.35,1.44,2.13-6.53,9.93-1.65-2.44h0ZM19.48,110.63l-3.9.96,1.55,2.28,2.35-3.24Z"/>
      <path class="cls-5" d="M21.71,125.96l1.52-4.73-.62-.66-3.16,3-1.78-1.88,7.97-7.55,2.88,3.04c.36.38.68.79.94,1.23.27.44.44.89.53,1.36s.06.93-.09,1.4c-.14.46-.45.91-.9,1.35-.54.51-1.13.8-1.78.85-.64.06-1.29-.1-1.94-.47l-1.44,5.31s-2.13-2.25-2.13-2.25ZM27.16,120.65c.19-.18.3-.36.34-.55s.03-.38-.02-.56c-.05-.18-.14-.37-.27-.54-.12-.18-.25-.34-.39-.48l-.97-1.03-1.86,1.76.87.92c.15.16.32.31.5.45s.37.25.57.32c.2.07.4.09.61.06.21-.03.42-.15.62-.34h0Z"/>
      <path class="cls-5" d="M25.79,129.84l6.77-8.64,5.81,4.55-1.38,1.76-3.8-2.97-1.28,1.64,3.59,2.81-1.31,1.67-3.59-2.81-1.4,1.79,4.02,3.14-1.39,1.78-6.03-4.72h0Z"/>
      <path class="cls-5" d="M46.02,136.43c-.46.84-1.02,1.48-1.67,1.92-.65.44-1.34.72-2.06.83-.73.11-1.47.09-2.21-.08-.75-.17-1.45-.43-2.11-.8l-3.59-1.97,5.28-9.62,3.48,1.91c.68.37,1.31.82,1.88,1.34.57.52,1.02,1.11,1.33,1.76s.46,1.37.44,2.16c-.02.79-.28,1.64-.78,2.54h0ZM43.6,135.1c.3-.54.46-1.04.48-1.5.02-.45-.06-.87-.24-1.24s-.43-.71-.76-1.01c-.33-.3-.69-.56-1.09-.77l-1.15-.63-3.09,5.63,1.1.6c.42.23.84.4,1.28.52.44.12.86.15,1.28.09s.81-.22,1.18-.48c.38-.27.71-.67,1-1.2h.01Z"/>
      <path class="cls-5" d="M55.29,136.29l-.63,2.17,4.08,1.19-.61,2.1-4.08-1.19-1.19,4.09-2.52-.73,3.07-10.54,6.93,2.02-.63,2.17-4.42-1.29h0Z"/>
      <path class="cls-5" d="M72.29,142.51c-.1.86-.34,1.63-.72,2.31-.38.68-.86,1.24-1.45,1.69s-1.26.77-2.02.96c-.76.19-1.57.24-2.42.14s-1.62-.33-2.32-.69c-.69-.36-1.27-.83-1.74-1.4s-.81-1.23-1.03-1.98c-.21-.75-.27-1.55-.17-2.42.1-.87.34-1.64.72-2.31s.86-1.22,1.45-1.65,1.26-.74,2.01-.92c.75-.18,1.56-.22,2.41-.13.85.1,1.63.32,2.32.68.7.35,1.28.8,1.75,1.36s.81,1.2,1.03,1.94.27,1.54.17,2.42h0ZM69.47,142.18c.05-.47.03-.92-.08-1.35-.11-.43-.28-.8-.52-1.13-.24-.32-.54-.59-.9-.81-.37-.21-.78-.35-1.24-.4-.46-.05-.89-.02-1.29.11s-.76.32-1.07.58-.57.59-.76.98c-.2.39-.32.83-.38,1.3-.06.49-.03.96.07,1.39.11.43.28.82.51,1.14.24.33.54.6.9.81.36.21.77.35,1.23.4.46.05.89.02,1.29-.11s.76-.32,1.07-.59.57-.6.77-.99.33-.84.39-1.34h.01Z"/>
      <path class="cls-5" d="M80.75,147.57l-2.64-4.21-.9.05.26,4.35-2.58.16-.66-10.96,4.18-.25c.53-.03,1.04,0,1.55.07.51.08.97.23,1.38.47.41.23.75.56,1.01.96.26.41.41.93.45,1.56.04.74-.12,1.38-.49,1.91-.37.53-.91.92-1.61,1.18l3.14,4.52-3.09.19h0ZM80.19,139.98c-.02-.26-.08-.46-.2-.62-.12-.15-.27-.27-.44-.35-.18-.08-.37-.13-.59-.14-.21-.02-.42-.02-.62,0l-1.42.08.15,2.55,1.26-.08c.22,0,.44-.04.67-.09.23-.05.43-.13.61-.23.18-.1.33-.25.43-.43s.15-.41.14-.69h0Z"/>
      <path class="cls-5" d="M92.52,136.58l2.23,8.42-2.56.68-2.23-8.42-3,.79-.58-2.19,8.56-2.27.58,2.19-3,.79h0Z"/>
      <path class="cls-5" d="M106.49,140.57l-1.86-4.19-3.91,1.74,1.86,4.19-2.42,1.08-4.46-10.03,2.42-1.08,1.69,3.8,3.91-1.74-1.69-3.8,2.42-1.08,4.46,10.03-2.42,1.08Z"/>
      <path class="cls-5" d="M112.03,137.68l-6.01-9.18,6.17-4.04,1.22,1.87-4.03,2.64,1.14,1.74,3.81-2.49,1.16,1.78-3.81,2.49,1.25,1.91,4.27-2.79,1.24,1.89-6.41,4.19h0Z"/>
      <path class="cls-5" d="M119.83,120.82l1.59,1.62,3.03-2.98,1.53,1.56-3.03,2.98,2.99,3.04-1.87,1.84-7.69-7.83,5.16-5.06,1.59,1.62-3.29,3.23v-.02Z"/>
      <path class="cls-5" d="M134.71,113.02c.3.5.48,1.04.55,1.6.06.56,0,1.14-.17,1.74-.18.6-.48,1.18-.9,1.75-.43.58-.91,1.04-1.43,1.37-.52.33-1.06.55-1.61.64s-1.11.06-1.67-.09c-.56-.15-1.11-.42-1.64-.82l-5.48-4.09,1.58-2.11,5.3,3.96c.24.18.49.32.75.42s.53.15.79.15.53-.07.78-.21.5-.35.72-.65.36-.59.42-.88.05-.56-.02-.82-.19-.5-.36-.72-.38-.42-.62-.6l-5.3-3.96,1.59-2.12,5.48,4.09c.53.4.95.84,1.25,1.35h0Z"/>
      <path class="cls-5" d="M133.03,102.97l7.7,4.07-1.24,2.34-7.7-4.07-1.45,2.74-2-1.06,4.14-7.82,2,1.06s-1.45,2.74-1.45,2.74Z"/>
      <path class="cls-5" d="M143.9,92.76c.44.39.78.84,1.01,1.35.23.52.36,1.09.37,1.71.02.62-.09,1.27-.32,1.95-.24.68-.55,1.26-.94,1.74s-.84.84-1.34,1.1-1.04.4-1.62.43-1.19-.06-1.81-.28l-6.47-2.22.86-2.49,6.26,2.15c.28.1.56.15.84.17s.55-.02.8-.1.48-.23.68-.44.36-.49.49-.84c.12-.35.17-.67.13-.96-.03-.29-.12-.55-.27-.77-.15-.22-.34-.42-.57-.57-.23-.16-.49-.28-.77-.38l-6.26-2.15.86-2.51,6.47,2.22c.63.21,1.16.52,1.6.9h0Z"/>
      <path class="cls-5" d="M147.99,83.98l-4.69,1.63-.15.89,4.3.72-.43,2.55-10.83-1.81.69-4.13c.09-.52.23-1.02.41-1.49.19-.48.45-.89.77-1.24s.71-.61,1.17-.77c.46-.16,1-.2,1.62-.09.73.12,1.32.42,1.75.91.43.48.7,1.09.79,1.83l5.11-2.05-.51,3.06h0ZM140.46,82.83c-.25-.04-.47-.02-.65.06-.18.08-.32.2-.44.35s-.21.33-.27.54c-.07.2-.11.4-.15.6l-.23,1.4,2.52.42.21-1.24c.04-.21.05-.44.06-.67,0-.23-.03-.45-.09-.65-.06-.2-.17-.37-.32-.52-.15-.15-.37-.24-.64-.29h0Z"/>
      <path class="cls-5" d="M148.62,78.42l-10.97-.2.13-7.38,2.23.04-.09,4.82,2.08.04.08-4.56,2.12.04-.08,4.56,2.28.04.09-5.1,2.26.04-.14,7.66h.01Z"/>
    </g>
    <g>
      <path class="cls-5" d="M11.65,40.67c-.36.08-.7.25-1.01.5-.31.26-.54.54-.69.85-.08.16-.14.33-.19.5s-.07.35-.05.52c.02.17.07.33.15.48.08.15.22.27.42.37.17.08.32.11.47.1s.29-.07.44-.17c.15-.09.3-.22.46-.37s.33-.33.52-.52c.27-.28.57-.57.87-.87.31-.3.65-.54,1.02-.73s.76-.3,1.19-.34c.42-.04.88.07,1.38.3.57.27,1.01.62,1.32,1.02.31.41.52.86.62,1.34s.1.99.01,1.5c-.09.52-.25,1.02-.49,1.5-.34.71-.79,1.33-1.36,1.87-.57.54-1.18.92-1.85,1.14l-.84-2.33c.41-.1.82-.3,1.21-.6s.68-.64.87-1.03c.09-.18.15-.36.19-.54.04-.19.05-.36.03-.53-.02-.17-.09-.32-.19-.46s-.25-.26-.45-.35c-.19-.09-.37-.12-.54-.09-.18.03-.36.11-.55.23-.19.12-.39.29-.6.5s-.45.46-.71.73-.53.52-.81.75c-.29.24-.59.42-.93.55-.33.13-.69.19-1.07.19s-.8-.12-1.24-.33c-.55-.26-.97-.6-1.25-1.02s-.46-.86-.54-1.34-.06-.98.04-1.49c.1-.51.27-1,.49-1.47.27-.56.65-1.08,1.13-1.56.49-.48,1.03-.85,1.65-1.09l.87,2.3h.01Z"/>
      <path class="cls-5" d="M23.58,32.77c.32.49.52,1.02.6,1.58s.04,1.14-.11,1.75c-.16.6-.44,1.2-.85,1.78-.41.59-.88,1.06-1.38,1.42-.51.35-1.04.58-1.59.69-.55.11-1.11.1-1.68-.04-.57-.13-1.12-.39-1.67-.77l-5.61-3.91,1.51-2.16,5.43,3.79c.25.17.5.3.77.39.26.09.53.13.8.12.27,0,.52-.09.78-.23s.49-.37.7-.68c.21-.31.34-.6.39-.89s.03-.56-.05-.82-.21-.49-.39-.7-.39-.41-.64-.58l-5.43-3.79,1.52-2.17,5.61,3.91c.54.38.97.81,1.29,1.31Z"/>
      <path class="cls-5" d="M31.03,28.26l-4.78-1.36-.63.64,3.11,3.05-1.82,1.85-7.83-7.7,2.93-2.98c.37-.38.77-.7,1.2-.99.43-.28.87-.47,1.34-.58.46-.1.93-.09,1.4.04.47.13.93.41,1.38.85.53.52.83,1.1.91,1.75.08.64-.05,1.29-.4,1.95l5.36,1.25-2.17,2.21v.02ZM25.53,23c-.18-.18-.37-.29-.56-.32-.19-.03-.38-.02-.56.04-.18.06-.36.16-.53.29-.17.13-.33.27-.46.41l-.99,1.01,1.82,1.79.88-.9c.15-.16.3-.33.43-.52.13-.19.23-.38.3-.58.06-.2.08-.4.03-.61-.04-.21-.16-.41-.36-.61Z"/>
      <path class="cls-5" d="M38.25,22.31l-2.13,1.57-9.86-6.36,2.39-1.77,6.67,4.75.05-.04-2.59-7.76,2.36-1.74,3.11,11.34h0Z"/>
      <path class="cls-5" d="M42.37,19.64l-5.41-9.55,2.32-1.32,5.41,9.55-2.32,1.31h0Z"/>
      <path class="cls-5" d="M51.47,15.17l-2.45,1.02-8.06-8.53,2.75-1.15,5.34,6.2.06-.02-.66-8.15,2.7-1.13s.32,11.76.32,11.76Z"/>
      <path class="cls-5" d="M56.02,13.49l-2.6-10.66,7.17-1.75.53,2.17-4.68,1.14.49,2.02,4.43-1.08.5,2.06-4.43,1.08.54,2.21,4.96-1.21.54,2.2-7.44,1.81h-.01Z"/>
      <path class="cls-5" d="M74.71,5.14c.07.96-.05,1.8-.35,2.52-.3.72-.73,1.33-1.28,1.82-.55.49-1.18.87-1.9,1.13s-1.45.42-2.2.48l-4.08.3-.8-10.95,3.96-.29c.77-.06,1.54-.02,2.31.1.77.13,1.46.38,2.08.75.62.37,1.13.9,1.54,1.57s.66,1.53.73,2.56h-.01ZM71.96,5.34c-.05-.62-.18-1.12-.41-1.52-.23-.39-.52-.7-.87-.92-.35-.22-.75-.36-1.18-.43-.44-.07-.88-.09-1.33-.06l-1.31.1.47,6.4,1.25-.09c.47-.03.93-.12,1.36-.26s.8-.35,1.12-.62c.32-.27.56-.62.73-1.05.17-.43.23-.94.19-1.55h-.02Z"/>
      <path class="cls-5" d="M85.87,3.06l-1.23,8.62-2.62-.38,1.23-8.62-3.07-.44.32-2.24,8.76,1.25-.32,2.24-3.07-.44h0Z"/>
      <path class="cls-5" d="M95.22,14.38l1.38-4.38-4.08-1.28-1.38,4.38-2.53-.79,3.29-10.47,2.53.79-1.25,3.96,4.08,1.28,1.25-3.96,2.53.79-3.29,10.47-2.53-.79Z"/>
      <path class="cls-5" d="M99.54,16.01l4.97-9.78,6.58,3.34-1.01,1.99-4.3-2.18-.94,1.85,4.06,2.07-.96,1.89-4.06-2.07-1.03,2.03,4.55,2.31-1.03,2.02s-6.83-3.47-6.83-3.47Z"/>
      <path class="cls-5" d="M122.01,21.7c-.4.5-.83.84-1.3,1.04-.46.19-.93.27-1.42.22s-.97-.18-1.46-.42-.95-.53-1.39-.89l-1.02-.83-2.6,3.22-2.06-1.67,6.9-8.53,3.13,2.53c.47.38.86.78,1.2,1.2.33.42.56.86.7,1.3.14.45.15.91.06,1.38-.1.47-.34.96-.74,1.44h0ZM119.94,20.04c.16-.2.26-.4.28-.59s0-.38-.08-.56-.19-.36-.35-.52-.32-.32-.51-.47l-.9-.73-1.63,2.01.87.7c.19.16.39.29.59.4.2.11.41.18.61.22.21.03.4.02.59-.05.19-.07.36-.2.53-.4h0Z"/>
      <path class="cls-5" d="M122.55,33.37l1.01-2.08-2.87-3.13-2.13.86-1.95-2.13,11.2-4.02,1.74,1.9-5.02,10.77-1.99-2.17h0ZM126.5,25.76l-3.72,1.51,1.86,2.03,1.86-3.55h0Z"/>
      <path class="cls-5" d="M134.76,36.52c.12-.35.14-.72.08-1.12-.06-.4-.18-.74-.37-1.03-.1-.15-.21-.29-.33-.42-.13-.13-.26-.24-.42-.31-.15-.07-.31-.11-.49-.12-.17,0-.35.05-.53.17-.16.1-.26.22-.32.35-.06.13-.09.29-.08.46,0,.18.03.37.08.59s.11.45.18.71c.1.38.2.78.3,1.2.1.42.13.83.11,1.25-.02.41-.13.81-.32,1.19-.19.38-.51.73-.97,1.03-.53.35-1.05.55-1.56.61s-1,0-1.47-.15c-.47-.16-.9-.42-1.3-.76s-.75-.74-1.04-1.19c-.43-.66-.74-1.36-.91-2.13-.18-.76-.19-1.49-.03-2.17l2.43.48c-.13.41-.16.85-.11,1.34.06.49.2.91.44,1.28.11.16.23.31.37.44.14.13.28.23.44.3.15.07.32.09.49.07s.35-.08.53-.2c.17-.11.29-.25.35-.42.06-.17.09-.36.09-.59s-.05-.48-.12-.77c-.07-.29-.16-.62-.27-.98-.1-.36-.18-.72-.23-1.08-.06-.37-.05-.73,0-1.08s.19-.69.39-1.02c.2-.32.51-.62.92-.9.51-.34,1.01-.52,1.51-.55s.98.04,1.43.23c.45.18.88.45,1.26.8.38.35.72.74,1.01,1.17.34.52.59,1.11.76,1.77s.2,1.32.09,1.97l-2.42-.43h.03Z"/>
      <path class="cls-5" d="M139.36,43.98l-7.86,3.75-1.14-2.39,7.86-3.75-1.34-2.8,2.04-.98,3.81,7.99-2.04.98-1.34-2.8h0Z"/>
    </g>
  </g>
  <g id="Johnny">
    <path id="Rahmen" class="cls-5" d="M107.01,101.93c-1.83-6.15-5.61-15-11.16-17.88-.52-.3-.66-.66-.31-1.15,8.99-9.55,10.14-23.76,6.55-35.74-1.3-8-7.04-14.72-13.49-19.24-6.72-4.47-14.76-3.82-22.04-1.62-2.51.88-5.02,2.18-7.07,3.17-.87.32-1.8,1.49-2.62.53-.48-.6-1.4-.91-2.2-.77-4.49,1.04-7.08,4.94-8.43,8.8-.51,1.8-.25,3.03.33,4.94.24.66.34,1.35.08,2.02-1.24,3.08-2.33,6.67-1.83,9.93.2,1.1-.16,2.1-.36,3.25-1.74,8.08,1.22,16.09,4.66,23.35.76,1.52-1.61,2.38-2.27,3.61-3.14,4.08-5.08,9.23-4.94,14.34.7,3.34,3.73,5.6,6.51,6.98,1.32.84,3.46,1.09,4.69,2.18.65,2.24.52,4.9.89,7.14.19,1.36-.07,2.56.12,3.91.25,1.63,2.45,2.55,3.61,1.23.73-.77.69-1.98.9-2.73.84-2.11.4-4.24.33-6.42-.05-.62,0-1.36.83-1.14,3.07.91,6.67,1.31,9.82,1.59.27.07.43.22.47.46-.03,1.11-.52,2.52-.69,3.76-.39,1.66-.3,2.95.03,4.35.08.98.05,2.34.95,3.04.83.73,2.3.55,2.94-.34.92-1.59.59-3.83,1.2-5.51.41-1.33,1.01-2.83,1.34-4.46.13-.81.75-1.18,1.55-1.12,8.23-.26,15.3.26,22.32-2.84,2.95-1.22,7.39-3.56,7.29-7.42l-.02-.18.02-.02Z"/>
    <g>
      <path id="Hoodie" class="cls-4" d="M54.68,35.96s2.04-2.88,4.79-4.16c0,0,5.96-3.15,7.74-3.51s1.92-.47,1.92-.47c0,0,6.42-1.35,8.56-1.15s5.16.58,7.16,1.62,4.72,2.66,6.23,4.14,3.93,4.39,4.83,5.57,2.85,4.04,3.21,5.68,1.43,6.42,1.43,6.42c0,0,1.4,6.56,1.43,7.41s.22,6.37-.63,9.36-2.17,8.4-4.91,11.75-4.91,5.6-4.91,5.6l.63.52s3.98,1.4,5,2.55,2.82,3.57,4.87,7.82,3.06,5.96,3.01,7.11-1.1,2.53-1.78,3.13-2.88,1.98-5.41,2.85-3.49,1.21-4.45,1.32-9.61.74-9.61.74l-7.16.22-4.69-.22s-4.69-.08-6.48-.47-6.63-1.45-8.07-2.03-3.44-1.07-5.63-2-5.35-2.61-5.98-3.32-2.09-2.62-2.03-3.39.66-5.17,1.21-6.21,1.98-4.94,3.24-6.2,2.91-2.66,3.46-2.83.85-.3.85-.3c0,0-.55-.49-1.81-3.35s-2.6-5.49-3.24-8.15-1.56-6.73-1.65-8.87,1.18-7.33,1.18-7.33c0,0-.25-1.15-.3-2.09s.08-2.16.6-4.31,1.73-4.56,1.73-4.56l5.67-8.92Z"/>
      <path id="Haut" class="cls-1" d="M53.69,79.98s2.22,4.72,3.58,6.56,5.44,6,5.44,6c0,0,1.51,2,3.14,2.1s4.46-1.11,5.44-2.06,3.47-2.57,4.25-3.36,5.06-5.17,5.06-5.17c0,0,2.87-3.16,3.99-5.82s2.51-5.16,2.83-6.51,1.07-5.34,1.26-6.82.94-8.03.94-8.03c0,0,.54-4.08.4-5.81s-.21-3.58-1.08-5.06-2.57-4.19-4.38-5.9-2.68-2.7-4.8-3.69-4.27-1.74-5.89-2.04-2.24-.68-4.75-.64-5.42.25-7.22,1.1-4.42,2.54-4.94,2.81-4.28,10.1-4.28,10.1l-2.39,5.05s-1.13,3.14-1.46,4.38-.5,6.99-.42,7.94,1.99,7.42,2.35,8.25,2.92,6.62,2.92,6.62Z"/>
      <path id="Zähne" class="cls-5" d="M52.81,67.92s1.24.82,2.5,1.26,2.7.94,4.92.99,3.81.16,6.07-.93,3.66-2.14,3.87-2.37.86,0,.86,0c0,0,1.15,1.21,1.11,1.4s-.82,1.21-1.34,1.71-2.51,2.39-3.5,2.9-1.96.95-3.62,1.17-4.69-.31-5.44-.76-3.16-1.87-4.17-2.51-1.67-1.01-1.67-1.01l.4-1.85Z"/>
      <path id="Hair" class="cls-2" d="M55.12,31.25s-2.82.97-3.99,2.46-2.83,3.59-2.95,5.02-.05,3.85.44,4.57,2.03,2.87,3.32,3.13,2.5.51,3.32,0,2.39-1.84,3.27-3.38,2.21-3.36,2.77-3.61.59-.43,2.48.07,2.46.79,3.54.41,2.64-1.42,3.77-1.49,2.33-.12,3.04.73,1.52,2.18,2.26,2.9,1.56,1.24,2.77,1.29,3.77-.2,4.44-.09,2.52.61,2.77,1.62.63,1.74.2,2.46-1.47,1.53-1.96,2.08-.7,1.71-.47,2.03,1.76.52,2.75,1.33,1.91,2.42,2.23,3.34.45,1.33.45,1.33c0,0,.61-3.11.55-5.59s-.56-5.39-2.3-7.62-3.14-4.53-4.74-5.59-3.34-2.57-5.53-3.18-4.02-1.42-6.59-1.62-3.29-.02-3.29-.02c0,0-4.38.5-6.32,1.31s-4.51,2.82-5.03,3-1.35.07-1.66-.41-1.55-2.14-1.37-2.82,1.38-2.37,1.6-2.68.2-.95.2-.95Z"/>
      <g id="Linien">
        <path class="cls-3" d="M105.44,102.42c-.01-.09-.03-.18-.06-.26-.15-.63-.31-1.25-.55-1.85-.17-.46-.37-.91-.54-1.38-.03-.15-.1-.3-.2-.4-.59-1.47-1.33-2.89-1.98-4.32-1.55-3.46-3.74-6.88-7.18-8.7-.91-.46-1.88-.79-2.82-1.2,1.47-1.48,2.88-3.02,4.17-4.66,4.21-5.61,6.09-12.64,6.18-19.6.03-4.35-1.18-8.56-2.06-12.79-.56-2.47-1.15-5.01-2.57-7.15-2.17-3.22-4.69-6.25-7.6-8.83-4.48-3.77-10.58-5.79-16.4-4.64-2.06.23-4.08.69-6.1,1.17-2.51.79-4.84,2.04-7.21,3.15-1.54.78-3.04,1.71-4.27,2.92-.69.71-1.49,1.36-2.05,2.18-1.69-2.49,2.65-3.77,1.35-5.08-1.48-.43-4.25,1.92-5.17,3-1.32,1.78-3.46,5.01-2.58,7.36.16,1.08.57,2.12,1.18,3.03-.08.11-.16.22-.23.33-.32.51-.6,1.05-.82,1.61-.18.45-.35.92-.5,1.38-.16.48-.3.96-.43,1.44-.04.16-.08.32-.12.48-.01.06-.03.11-.04.17-.02.05-.04.1-.04.15-.08.35-.15.71-.22,1.07-.16.85-.27,1.71-.27,2.58,0,.34.02.69.08,1.03.03.15.07.3.12.45.06.15.13.3.24.43-.1.4-.19.81-.28,1.22-.64,2.69-1.03,5.47-.84,8.24.37,4.02,1.44,7.96,3.09,11.63.93,2.32,1.93,4.64,3.19,6.8-2.1.51-3.65,2.51-4.8,4.24-1.36,2.08-2.4,4.43-2.93,6.87-.01.03-.03.04-.04.07-.21,1.16-.5,2.31-.57,3.48-.19.3-.24.9.14,1.95,1.08,2.68,3.74,4.32,6.26,5.49,1.65.71,3.35,1.3,5.06,1.87-.16,3.16.51,6.29.68,9.45,0,.03,0,.06.02.09,0,.02-.02.03-.02.05-.04.26,0,.52,0,.78.1.69-.38,1.87.25,2.3.17.11.35.1.49.03.62.02.5-1.53.58-2.44.18-.15.33-.36.39-.56.44-1.16.12-2.44.09-3.64-.11-1.76-.17-3.51-.14-5.27,1.64.57,3.28,1.17,4.98,1.52,3.27.73,6.61.97,9.95,1.07-.35,1.56-.75,3.11-1.07,4.66-.04.53-.95,3.94-.32,4.21.36,1.05.03,2.38.28,2.81.03.2.2.38.46.4.65.06.71-.71.7-1.18.02-.62.08-1.25.09-1.87.45-.71.32-1.98.7-2.73.83-2.02,1.32-4.11,1.64-6.23.86.01,1.72.02,2.58.04,5.37.02,10.74-.21,16.06-.92,1.78-.24,3.48-.84,5.12-1.56,1.93-.86,4-1.65,5.48-3.23.38-.33,1.73-2.05,1.42-2.71ZM48.91,42.86c-.05-.12-.09-.25-.13-.38-.03-.08-.05-.16-.08-.24-.04-.13-.08-.26-.12-.39v-.04s-.01-.05-.02-.08c-.05-.18-.08-.35-.1-.54-.02-.24-.01-.47,0-.71,0-.15.04-.3.08-.45.01-.3.04-.61.1-.91.04-.19.08-.38.14-.56,0-.08.03-.17.05-.25.03-.1.07-.2.1-.3t.01-.02s0-.02.01-.03c.1-.24.21-.48.32-.7,1.1-2.37,3-4.53,5.52-5.46-1.77,1.72-2.58,3.34-.74,5.41.41.39.82.96,1.34,1.25.03.04.07.09.12.12.11.07.25.08.42.05h.06c.29,0,.46-.11.53-.23.7-.36,1.53-1.01,1.91-1.2.73-.47,1.49-.92,2.27-1.31,1.53-.77,3.21-1.16,4.9-1.4,3.55-.56,7.22-.22,10.6,1.03,2.32.77,4.63,1.76,6.48,3.42,2.08,1.97,4.64,4.72,5.94,7.56-.48-.11-1-.11-1.47,0,.02-.64-.15-1.29-.48-1.83-.83-1.55-2.29-1.87-3.86-1.87-.55,0-1.1.04-1.65.08-.67.05-1.34.1-1.95.07-3.12-.08-3.36-3.25-5.69-4.59-2.07-1.22-4.18.33-6.09,1.11-1.27.53-2.26.14-3.21-.24-1.3-.53-2.51-1.05-4.25.76-.11.12-.21.23-.3.35h-.01s-.02.03-.02.04c-.01,0-.02.02-.03.03-.02.03-.03.05-.05.08-.09.16-.18.3-.26.46,0-.02.01-.03.02-.05-.06.09-.12.19-.18.28-.06.08-.12.15-.18.23-.08.11-.16.23-.23.34-.01.02-.02.03-.03.04,0,.01-.01.02-.02.03h0c-.04.08-.09.16-.14.23,0,.01,0,.01,0,.02-.03.05-.07.11-.1.16-.01.03-.02.05-.03.08-.01.03-.02.05-.03.08-.02.08-.06.16-.09.23-.02.06-.05.12-.08.18-.06.1-.12.2-.2.31-.01,0-.01.01-.01.01-.01.01-.02.03-.02.03-.04.05-.07.08-.1.13-.08.13-.16.26-.24.38-.08.15-.16.29-.26.43-.11.16-.22.32-.35.46-.09.1-.18.2-.29.29-.07.06-.15.11-.21.17-.05.04-.09.08-.14.12-.04.03-.08.07-.12.11-.07.06-.13.11-.21.16-.05.03-.09.07-.14.11-.1.08-.21.14-.32.21-.11.07-.22.16-.35.21-.1.04-.2.07-.3.1-.06.02-.11.04-.17.04-.42.17-.86.27-1.32.27h-.11c-.36-.02-.72-.1-1.08-.25-.12-.02-.23-.08-.33-.14-.06-.02-.11-.05-.16-.07-.14-.07-.29-.15-.43-.23-.22-.13-.45-.27-.57-.49-.16-.13-.31-.28-.46-.43-.1-.08-.19-.17-.28-.26-.13-.14-.24-.3-.34-.46-.04-.07-.09-.13-.13-.2-.01-.02-.02-.03-.04-.05-.05-.06-.09-.11-.13-.17-.06-.07-.11-.14-.16-.21-.05-.07-.1-.13-.15-.2-.07-.1-.12-.21-.17-.32ZM78.7,88.96c-.05-.29-.15-.55-.3-.69-.16-.18-.46-.43-.76-.56.8-.81,1.58-1.64,2.38-2.46,1.6-1.7,3.28-3.37,4.47-5.41,1.36-2.36,2.7-4.79,3.12-7.51.38-1.84.9-3.66,1.18-5.53.34-2.14.49-4.31.74-6.46.43-3.83,1.33-7.7.66-11.55-.39-2.71-2.05-5.01-3.75-7.08-1.86-2.32-4-4.49-6.73-5.74-2.42-1.13-5.01-1.97-7.64-2.43-3.57-.43-7.31-.18-10.7,1.08-2.01.75-3.69,2.14-5.57,3.13-.08-.02-.14-.02-.2,0-.03-.03-.07-.06-.1-.1.13-.09.23-.22.36-.32,1.7-1.34,3.37-2.95,5.45-3.73,3.02-.89,6.18-1.26,9.29-1.62,4.03-.09,7.91,1.55,11.23,3.73,2.95,2.06,5.82,4.47,7.71,7.57,1.57,3.52,2.08,7.46,2.13,11.29.16,5.62-1.6,10.98-2.81,16.4-.62,2.61-1.06,5.31-2.31,7.71-.78,1.6-1.85,3.03-2.84,4.5-1.35,2.02-2.74,3.99-4.44,5.74-.17.18-.35.35-.53.53,0-.07,0-.13-.01-.19.03-.1.02-.21-.03-.3ZM89.63,51.65c0,1.33-.12,2.66-.28,3.99-.07-.19-.14-.38-.21-.56-.46-1.13-1.27-2.1-2.3-2.75-.85-.73-2.83-.63-2.33-2.15h.01c.19-.56.67-.91,1.14-1.25.04.05.1.1.18.13,1.71.25,2.71,1.44,3.79,2.59ZM86.39,48.36c.3-.31.51-.69.64-1.1h.02c.2-.02.38-.08.58-.08.45-.02.95-.03,1.35.23.02.01.04.03.06.03.11.33.2.66.27.98.14.66.22,1.32.27,1.98-.3-.31-.61-.58-.73-.7-.69-.64-1.54-1.12-2.46-1.34ZM47.13,53.82c-.01-.41.01-.82.05-1.23v-.05c.08-.78.23-1.59.41-2.39v-.05c.02-.11.04-.21.07-.31.24-.95.53-1.89.87-2.81v-.03c.07-.17.14-.35.21-.53.2-.51.4-1.03.61-1.54.35.43.75.82,1.2,1.15-.07.12-.14.23-.19.31-.66,1.11-1.25,2.25-1.75,3.44-.63,1.36-1.09,2.77-1.48,4.21v-.17ZM49.42,76.18c-1.61-3.58-2.63-7.41-2.99-11.33-.24-4.24.83-8.47,2.04-12.52.62-1.72,1.34-3.4,2.25-4.99.17-.29.33-.58.5-.86.45.25.93.43,1.44.56-.13.26-.25.51-.39.77-2.13,3.62-3.75,7.58-4.21,11.79-.32,2.44-.16,4.88.23,7.31.36,1.94,1.13,3.74,1.76,5.61.48,1.76,1.23,3.44,2.2,4.96.45,1.5.96,2.99,1.72,4.37.81,1.46,1.66,2.91,2.58,4.31-.57.05-.89.53-.96,1.1-.82-1.07-1.6-2.09-2.23-3.04-1.63-2.51-2.83-5.26-3.94-8.04ZM55.28,105.12c-.09.47-.16.94-.2,1.4-3.08-1.04-6.24-2.06-8.72-4.23-1.07-.96-2.07-2.24-2.1-3.73.06-.07.1-.15.1-.27.03-.82.2-1.63.34-2.43.08-.32.17-.77.23-1.12v-.1c.26-.82.51-1.64.77-2.45.58-1.66,1.5-3.24,2.49-4.72,1.03-1.44,2.37-2.97,4.16-3.38.15.25.31.5.48.75,1.28,1.81,2.66,3.56,3.97,5.35,1.03,4.94-.83,10-1.52,14.93ZM57.28,85.85c-.37-.59-.74-1.18-1.1-1.78.41.12.83.24,1.24.35.1.04.2.09.3.14.02.01.03.03.05.03.07.04.14.09.21.14.48.33.97.65,1.47.97.45.29.91.58,1.37.86-.17-.15-.33-.3-.49-.45.07.05.14.09.21.12-.46-.31-1.33-1.77-.65-2.15,1.64.7,3.41,1.12,5.26,1.19,1.64.17,3.29-.39,4.62-1.32-2.89.8-5.99.66-8.83-.32-3.12-1.11-5.77-3.33-7.68-6.02-1.31-1.88-2.07-4.15-2.8-6.34-2.27-5.39-2.27-11.53-.34-17.03.68-1.87,1.55-3.67,2.53-5.4.31-.56.59-1.1.87-1.66h.05c2.34,0,4.38-2.14,5.38-4.11.19-.36.37-.72.54-1.1.05-.09.12-.18.18-.27,1.92-2.86,2.9-2.26,4.35-1.66.66.27,1.41.54,2.39.49,2.22-.14,4.03-2.41,6.32-1.65,2.59,1.2,2.59,4.46,5.98,4.82.72.1,1.57.04,2.44-.02,2.2-.16,4.52-.32,5.14,2.22.3,1.16-.47,2.12-1.43,2.66-1.09.71-1.84,2.54-.62,3.47.72.47,1.6.64,2.3,1.16,1.74,1.17,1.81,2.57,2.57,4.18-.21,1.45-.42,2.89-.55,4.33-.01.24-.03.48-.05.72-.35-.11-.85.32-1.16.48-.27.22-.69.37-.79.73-.03.22.13.43.35.46.52-.06.87-.61,1.37-.79.05-.02.1-.04.16-.07-.31,3.06-.92,6.06-1.62,9.05-.58.3-1.45.02-1.92-.47-.37-.21-.48-1.02-1.02-.66-.45.47.21,1.17.92,1.6-2.51,4.57-4.67,5.26-8.95,7.85,1.56-.26,3-.82,4.29-1.6-.01,0-.01.02-.01.03-.05.13-.11.25-.16.38,0,.02-.02.05-.02.08l-.18.39c-.04.08-.07.16-.11.24-.04.1-.11.2-.12.31-.03.24.17.44.31.62.11.13.21.27.32.41.09.11.19.22.27.34.03.11.06.22.09.33.03.11.06.23.09.34.07.24.13.48.2.72.01.02.02.03.02.05-2.08,2.27-4.22,4.5-6.52,6.54-.22.11-.46.31-.66.38-.37.18-.8.35-1.24.51-2.34.71-4.89,1.27-7.34.86-1.47-.21-2.92-.59-4.17-1.42-.07-.06-.13-.09-.2-.11-1.2-1.33-2.41-2.65-3.43-4.15ZM72.69,112.68c-.03.11-.06.22-.09.34.04-.17.07-.33.11-.49,0,.05-.01.1-.02.15ZM74.45,93.85c-1.23,3.77-1.29,7.54-1.41,12.04-.08,1.36-.3,2.71-.57,4.05-2.15-.09-4.29-.23-6.42-.46-1.53-.2-3.06-.47-4.56-.85-1.4-.37-2.74-.86-4.1-1.33.01-.46.02-.93.05-1.39.17-1.86.37-3.77.72-5.61.35-1.71.85-3.48.97-5.25.04-.46.03-.92.01-1.37,1.23,2.16,2.19,4.52,2.74,6.94.42-2.95-1.05-6-2.98-8.88-.22-1.13-.54-2.25-.9-3.35.02-.06.03-.13.04-.19.92,1.1,1.88,2.16,2.86,3.21,1.42,1.72,2.67,4.12,5.2,4.15,3.11.11,6.02-3,8.47-5,.09-.06.16-.12.22-.18.13-.11.27-.21.4-.31.18-.16.35-.33.52-.49,0,.29.07.56.22.8-.38.7-.71,1.4-.98,2.1-3.44,2.52-7.24,5.18-8.13,8.52,2.1-2.8,4.85-5.04,7.63-7.15ZM104.66,102.63c0,.06-.03.11-.04.16-.11.31-.25.62-.44.89-1.34,1.98-3.62,2.92-5.73,3.84-3.79,1.87-8.05,1.92-12.17,2.29-3.78.17-7.59.27-11.4.2.38-2.92.48-5.89.68-8.85.28-3.09.4-6.49,1.67-9.39,1.94-1.53,3.71-3.27,5.16-5.29,4.97-6.95,5.82-8.01,7.52-16.47.58-2.59,1.33-5.15,1.87-7.76.61-3.21.83-6.5.65-9.77-.03-1.56-.33-3.08-.62-4.6-.41-1.96-.87-3.96-1.95-5.68-3.04-4.19-7.29-7.46-11.99-9.59-2.29-.83-4.69-1.5-7.14-1.45-3.06.29-6.14.74-9.13,1.49-1.78.48-3.24,1.65-4.67,2.77-.62.54-1.39.99-1.92,1.62-.12-.14-.23-.29-.33-.43.07-.04.13-.11.17-.21,1.66-1.99,3.68-3.68,6.03-4.81,2.1-1,4.19-2.05,6.36-2.88,2.19-.63,4.44-1.08,6.7-1.36,5.66-1.12,11.58.88,15.9,4.59,1.9,1.69,3.59,3.61,5.18,5.6.99,1.31,2,2.61,2.77,4.06.76,1.52,1.2,3.17,1.59,4.82.95,4.51,2.28,8.99,2.26,13.63-.09,7.56-2.44,15.31-7.61,20.97-.9.99-1.83,1.96-2.78,2.91-.13.04-.23.14-.27.27-1.66,1.63-3.38,3.2-5.14,4.73-1.86,1.49-3.78,3.27-4.54,5.62,2.01-2.41,4.42-4.47,6.78-6.53,1.16-1.04,2.31-2.09,3.42-3.18,1.86.81,3.82,1.44,5.31,2.9,1.95,1.73,3.3,4.04,4.41,6.38v.07c.88,1.83,1.69,3.68,2.52,5.53.36.94.72,1.89.93,2.89t-.01.02Z"/>
        <path class="cls-3" d="M84.1,54.12c.19.05.37.11.54.2,1.77,1.11,2.57,3.27,3.32,5.14.21.48.96.16.75-.32-.15-.34-.27-.69-.41-1.04-.77-1.75-2.02-4.41-4.1-4.76-.41.05-.48.64-.1.78Z"/>
        <path class="cls-3" d="M86.76,58.63c-.38-.68-.81-1.35-1.4-1.88-.34-.37-1.54-1.16-1.5-.14.03.13.15.25.28.28.24.09.44.26.63.42.89.8,1.39,1.92,1.95,2.96.06.13.13.29.28.35.31.15.68-.21.53-.53-.24-.49-.5-.97-.77-1.46Z"/>
        <path class="cls-3" d="M83.92,59.4c.66.6,1.23,1.28,1.63,2.1h.01c.26.46.97.04.7-.41-.46-.93-1.14-1.72-1.91-2.39-.13-.25-.51-.28-.68-.05-.21.28.01.59.25.75Z"/>
        <path class="cls-3" d="M83.78,61.67c.4.29.65.73.86,1.17.21.48.96.16.75-.32-.21-.45-.47-.9-.83-1.25-.3-.35-1.16-.85-1.26-.09-.01.3.28.37.48.49Z"/>
        <path class="cls-3" d="M70.04,71.14c.09,0,.18-.05.25-.12.66-.65,1.34-1.29,1.86-2.06.47.89.72,1.89.64,2.92.79-1.72.22-3.81-1.22-5-.41-.34-1.78-1.81-2.03-.71,0,.22.16.32.33.41-.32.43-.76.74-1.19,1.04-.12.08-.29.17-.43.27,0,0-.01.01-.02.01-3.62,1.79-6.63,2.67-11.31,1.45-.78-.2-1.52-.5-2.26-.86-.41-.15-.92-.58-1.41-.7.1-.2.23-.4.38-.59.24-.38-.29-.81-.61-.51-1.35,1.45-1.04,3.74.16,5.19-.14-.45-.25-.93-.31-1.41,1.1.36,1.95,1.21,2.93,1.8,1.89,1.2,4.02,2.15,6.29,2.28,2.71.17,5.39-.99,7.35-2.84.2-.18.39-.38.57-.57h.03ZM67.61,72.15c-3.8,2.69-8.32,1.64-11.89-.9-.68-.4-1.66-1.37-2.5-1.49-.09-.13-.24-.19-.4-.19.01-.34.06-.67.14-.99h.07c.58.22,1.05.54,1.65.81,1.77.83,3.74,1.19,5.69,1.29,2.75.18,5.62-.54,7.98-2.03.3.05.66-.3.92-.45.43-.29.84-.61,1.17-1.01.08,0,.15-.03.21-.06.38.31.72.67,1.02,1.07-.01.01-.02.02-.02.04-.35.56-.82,1.1-1.29,1.57-.09.12-.23.24-.37.36-.79.67-1.54,1.38-2.38,1.98Z"/>
        <path class="cls-3" d="M55.61,54.73c.4-.02.8-.02,1.18.07-1.31-.7-3.24-.94-4.57-.18-.52.45-1.13,1-1.25,1.7,0,.5.79.52.81,0,.21-.35.47-.68.78-.95.87-.6,2.02-.56,3.05-.65Z"/>
        <path class="cls-3" d="M71.02,56.05c1.5.17,3.9.22,3.92,2.21v.02c.07.12.21.2.35.2.68-.09.36-1.05.17-1.46-.92-1.65-3.57-1.86-5.25-1.59-.73.11-1.4.44-2.08.74.95-.08,1.92-.21,2.89-.12Z"/>
        <path class="cls-3" d="M59.75,59.91c-.56.5-1.16,1.03-1.39,1.78-.4,1.22.29,2.7,1.51,3.12h.01c.28.09.59,0,.8-.19-.08.03-.19.06-.28.06-.54.02-.87-.56-1.11-.97-.53-1.01-.19-2.26.72-2.93,1.67-1.53,3.33-3.34,3.82-5.61.04-.5.57-2.03-.21-2.09-.42,0-.42.43-.42.74-.02.35-.07.7-.14,1.05-.4,2.03-1.84,3.66-3.31,5.04Z"/>
        <path class="cls-3" d="M71.81,47.09c.79-.04,1.58.1,2.32.36.91.27,1.68.92,2.11,1.76.17.28.2.65.44.88,1.59.5-.14-2.55-.58-2.95-1.02-1.31-2.55-1.97-4.1-2.42-1.1-.45-3.34-.19-3.01,1.42.39,1.13,1.84,1.05,2.82.95Z"/>
        <path class="cls-3" d="M52.87,49.85v.05s.09.01.13.01c.43,0,.79-.38,1.15-.6.47-.33.86-.54,1.3-.6.03-.01.05-.03.08-.04.05-.02.1-.03.15-.04.82-.14,1.67-.09,2.49.06.96.23,2.28.59,2.85-.51.37-.64-.04-1.47-.71-1.72-.06-.03-.12-.04-.18-.06-.18-.08-.38-.14-.58-.17-1.55-.24-3.11.43-4.45,1.15-.55.32-1.08.69-1.61,1.05-.49.21-1.48,1.03-.62,1.42Z"/>
        <path class="cls-3" d="M59.25,75.13c-.23,0-.41.19-.41.41.06.61,1.54.84,2.07.94h.01c1.17.12,2.43.07,3.5-.49-.08.01-.16.03-.24.03-1.67.06-3.38-.26-4.93-.89Z"/>
      </g>
    </g>
  </g>
</svg>