<?xml version="1.0" encoding="UTF-8"?>
<svg id="Ebene_2" data-name="Ebene 2" xmlns="http://www.w3.org/2000/svg" viewBox="0 0 1174.45 558.23">
  <defs>
    <style>
      .cls-1 {
        fill: #fff;
        stroke-width: 0px;
      }
    </style>
  </defs>
  <g id="Ebene_1-2" data-name="Ebene 1">
    <g>
      <path class="cls-1" d="M112.09,449.4c0,2.62,0,4.39,0,6.16,0,32.5.02,65-.07,97.5,0,1.71,1.28,4.05-1.37,5.17-.45-1.74-1.29-3.49-1.29-5.23-.08-32.17-.06-64.33-.06-96.5,0-1.99,0-3.97,0-6.95-2.14,1.07-3.7,1.76-5.16,2.6-28.27,16.3-56.52,32.65-84.83,48.89-1.48.85-3.53,3.67-4.93,1.34-1.44-2.41,2.08-2.77,3.5-3.6,28.93-16.83,57.9-33.59,86.95-50.2,3.32-1.9,4.58-3.97,4.56-7.85-.17-33.16-.17-66.33,0-99.49.02-4.1-1.43-6.27-4.89-8.25-28.9-16.54-57.67-33.31-86.59-49.83-3.96-2.26-5.58-4.88-5.56-9.5.17-33.66.17-67.33,0-100.99-.02-4.64,1.71-7.16,5.61-9.39,28.62-16.36,57.06-33.04,85.75-49.28,4.49-2.54,5.72-5.35,5.69-10.21-.2-32.83-.13-65.66-.05-98.5,0-1.76.85-3.52,1.3-5.28.48,1.75,1.36,3.51,1.37,5.26.08,33.5.12,67-.02,100.5-.01,3.63,1.15,5.65,4.29,7.44,28.9,16.54,57.67,33.32,86.61,49.81,4.35,2.48,5.9,5.53,5.88,10.38-.14,33,.02,66-.18,98.99-.03,4.45,1.42,6.8,5.24,8.98,28.65,16.32,57.2,32.82,85.67,49.43,3.3,1.93,5.71,2.03,9.06.08,28.76-16.79,57.59-33.46,86.51-49.96,3.41-1.94,4.44-4.09,4.41-7.87-.17-24.66-.11-49.33-.03-74,0-1.63.76-3.26,1.17-4.88,2.94.92,1.48,3.37,1.49,5.02.12,24.67.18,49.33-.03,74-.03,3.91,1.29,5.89,4.57,7.76,28.76,16.45,57.37,33.18,86.18,49.56,4.69,2.67,6.33,5.79,6.29,11.09-.21,33.16-.05,66.33-.19,99.49-.02,3.64,1.17,5.65,4.3,7.44,29.05,16.62,58.03,33.36,86.97,50.19,2.92,1.7,5.1,1.84,8.13.07,28.76-16.79,57.66-33.33,86.41-50.13,4.29-2.51,7.65-2.88,12.19-.21,28.72,16.86,57.66,33.33,86.41,50.14,3.4,1.99,5.74,1.81,9.01-.1,28.76-16.79,57.66-33.33,86.41-50.14,4.07-2.38,7.21-2.47,11.36-.04,28.74,16.83,57.67,33.33,86.43,50.12,3.48,2.04,6.02,1.94,9.45-.06,28.61-16.71,57.37-33.16,85.98-49.89,4.16-2.43,7.39-2.68,11.71-.15,28.88,16.92,57.93,33.55,86.87,50.35,1.51.87,2.59,2.48,3.86,3.75-2.31,2.06-3.66-.52-5.07-1.33-29.03-16.65-58.02-33.37-86.9-50.26-3.31-1.94-5.65-1.91-8.96.02-28.9,16.88-57.96,33.48-86.85,50.38-4.04,2.36-7.14,2.12-10.99-.13-28.92-16.85-57.95-33.5-86.85-50.37-3.14-1.83-5.39-1.87-8.55-.02-29.05,16.96-58.24,33.67-87.29,50.62-3.75,2.19-6.75,2.12-10.46-.04-28.92-16.85-57.96-33.48-86.85-50.38-3.51-2.06-5.98-1.88-9.39.12-28.9,16.88-57.95,33.5-86.87,50.35-3.61,2.11-6.51,2.13-10.11.03-29.06-16.93-58.25-33.65-87.28-50.63-3.36-1.97-5.71-1.82-8.97.08-28.91,16.87-57.95,33.5-86.85,50.38-3.93,2.3-7.06,2.14-10.9-.1-28.91-16.87-57.94-33.52-86.84-50.4-3.11-1.81-5.35-1.97-8.54-.09-21.1,12.4-42.34,24.58-63.58,36.75-1.36.78-3.15.83-4.74,1.22,1.13-1.19,2.07-2.73,3.43-3.53,21.15-12.32,42.32-24.6,63.59-36.71,3.02-1.72,4.04-3.66,4.03-7.08-.12-33.66-.12-67.33,0-101,.01-3.47-1.14-5.32-4.12-7.02-29.05-16.62-58.03-33.36-86.95-50.2-2.91-1.69-5.08-1.97-8.17-.17-29.2,17.03-58.49,33.9-87.82,50.7-2.67,1.53-3.58,3.29-3.57,6.33.1,33.83.13,67.66-.03,101.5-.02,3.57,1.33,5.34,4.21,6.98,21.11,12.06,42.16,24.22,63.17,36.45,1.46.85,4.21.93,3.59,3.88-1.61-.46-3.38-.63-4.79-1.44-20.22-11.6-40.39-23.28-60.58-34.94-1.54-.89-3.13-1.7-5.51-2.98ZM205.96,223.59c0-16.99-.07-33.98.06-50.97.02-3.19-.91-5.07-3.81-6.73-29.32-16.78-58.56-33.69-87.74-50.71-2.85-1.66-4.85-1.6-7.67.04-29.05,16.91-58.17,33.72-87.34,50.41-3.13,1.79-4.31,3.83-4.3,7.46.14,33.31.14,66.62,0,99.94-.02,3.8,1.06,5.92,4.44,7.84,29.05,16.58,58.01,33.32,86.92,50.15,2.95,1.72,5.11,1.89,8.16.12,29.03-16.94,58.14-33.75,87.32-50.44,3.05-1.74,4.07-3.76,4.04-7.13-.14-16.65-.06-33.31-.06-49.97ZM305.37,390.58c0,16.82.08,33.65-.07,50.47-.03,3.39.95,5.42,3.99,7.17,29.47,16.86,58.87,33.84,88.21,50.91,2.54,1.47,4.36,1.35,6.8-.07,29.35-17.06,58.74-34.06,88.2-50.93,2.89-1.65,3.82-3.53,3.81-6.74-.1-33.65-.11-67.29.02-100.94.01-3.49-1.23-5.36-4.18-7.05-29.16-16.72-58.28-33.52-87.31-50.46-3.05-1.78-5.23-1.59-8.17.13-29.05,16.91-58.17,33.72-87.34,50.42-3,1.72-4.07,3.7-4.03,7.13.17,16.66.08,33.31.08,49.97Z"/>
      <path class="cls-1" d="M103.78,338.06c-.28.7-.35,1.68-.86,2.05-20.69,14.75-41.41,29.44-62.61,44.48-2.63-4.54-5.09-8.77-7.78-13.41,10.09-4.66,19.71-9.08,29.31-13.54,14-6.5,27.98-13.04,41.97-19.55,0,0-.04-.02-.04-.02Z"/>
      <path class="cls-1" d="M223.66,503.05c-.03,10.04-4.43,16.72-12.19,18.84-9.96,2.73-19.1-2.76-21.08-12.91-.56-2.9-.83-6-.45-8.9,1.36-10.59,7.66-16.03,17.68-15.71,9.33.3,15.21,6.59,15.95,17.03.05.66.08,1.33.09,1.64ZM219.29,503.29c-.93-3.32-1.32-6.56-2.71-9.28-4.1-8.03-15.11-8.33-19.52-.46-3.66,6.52-3.66,13.52.22,19.98,4.35,7.23,14.97,7.02,19-.38,1.61-2.95,2.03-6.54,3-9.86Z"/>
      <path class="cls-1" d="M382.95,168.09c.51-2.75.71-5.61,1.58-8.24,2.35-7.08,8.54-11.16,16.06-10.96,7.54.2,13.84,4.53,15.4,11.76.95,4.4,1.07,9.28.24,13.69-1.61,8.53-8.55,13.37-16.96,12.89-8.58-.49-14.77-6.39-15.8-15.1-.15-1.32-.15-2.65-.22-3.98-.1-.02-.2-.04-.3-.07ZM387.56,167.41c.82,3.42,1.15,6.44,2.26,9.13,1.88,4.55,5.6,6.98,10.55,6.89,4.92-.09,8.47-2.58,10.33-7.22,2.34-5.84,2.33-11.72-.47-17.34-3.98-7.97-14.92-8.55-19.47-.92-1.71,2.86-2.21,6.44-3.2,9.46Z"/>
      <path class="cls-1" d="M318.18,224.51c0,4.99-.02,9.99,0,14.98,0,1.63-.1,2.9-2.32,2.9-2.14,0-2.43-1.11-2.41-2.81.04-3.66-.2-7.34.06-10.98.24-3.41-1.2-4.35-4.34-4.15-3.32.2-6.66.19-9.98,0-3.15-.18-4.6.8-4.38,4.2.23,3.65.02,7.32.03,10.98,0,1.74-.55,3.19-2.53,2.59-.86-.26-1.94-1.68-1.95-2.58-.13-10.49-.08-20.97-.08-31.46,0-1.44.2-2.59,2.13-2.62,2.18-.03,2.41,1.3,2.42,2.92.02,3,.11,6,.01,8.99-.08,2.32.76,3.3,3.18,3.22,4.16-.14,8.32-.1,12.48-.01,2.09.05,3.04-.67,2.96-2.87-.11-2.99,0-5.99-.02-8.99,0-1.73-.11-3.34,2.47-3.28,2.7.06,2.23,1.91,2.24,3.49.03,5.16.01,10.32.01,15.48Z"/>
      <path class="cls-1" d="M375.07,167.94c0,4.99.02,9.98-.01,14.97-.01,1.59.42,3.43-2.24,3.51-2.62.08-2.41-1.64-2.41-3.31-.01-3.82-.06-7.65,0-11.47.03-2.07-.81-3.06-2.93-3.04-4.32.04-8.65.05-12.97,0-2.19-.02-2.91,1.14-2.91,3.12,0,3.82,0,7.65-.06,11.47-.02,1.45.2,3.11-2.1,3.19-2.26.08-2.3-1.46-2.31-2.99-.02-10.31-.06-20.62.08-30.93.01-.94,1.09-2.44,1.94-2.67,2.09-.57,2.38,1.12,2.39,2.74.02,2.99.1,5.99.03,8.98-.05,2.27.79,3.34,3.21,3.28,4.15-.12,8.32-.11,12.47,0,2.38.06,3.25-.92,3.17-3.24-.11-3.16.02-6.32,0-9.48-.02-1.59.48-2.47,2.27-2.45,1.68.02,2.4.69,2.39,2.37-.03,5.32-.01,10.64-.01,15.96h.02Z"/>
      <path class="cls-1" d="M28.02,391.6c0,4.65.06,9.31-.03,13.96-.03,1.8.85,4.45-2.43,4.35-3.34-.1-2.03-2.84-2.14-4.55-.19-2.98-.24-6,0-8.97.27-3.39-1.18-4.35-4.34-4.14-3.31.22-6.65.02-9.97.06-4.53.05-4.54.07-4.6,4.82-.04,3.16.02,6.32-.03,9.47-.02,1.45.24,3.19-2.01,3.28-2.53.11-2.44-1.76-2.44-3.43-.02-9.97-.01-19.95.02-29.92,0-1.49-.01-3.13,2.18-3.19,2.25-.07,2.22,1.56,2.24,3.07.05,2.83.11,5.65.03,8.48-.07,2.48.84,3.67,3.48,3.59,3.99-.12,7.98-.12,11.97,0,2.62.08,3.56-1.04,3.46-3.57-.12-2.82-.03-5.65,0-8.48.02-1.49-.16-3.12,2.11-3.17,2.45-.05,2.53,1.58,2.53,3.36-.01,4.99,0,9.97,0,14.96Z"/>
      <path class="cls-1" d="M277.16,229.15c.83,1.15,1.21,1.6,1.5,2.09,1.9,3.27,3.83,6.52,5.64,9.84.31.56.11,1.4.15,2.11-.82-.24-2.06-.22-2.4-.76-2.1-3.34-4.06-6.77-5.89-10.26-.26-.49.46-1.48,1-3.02Z"/>
      <path class="cls-1" d="M275.28,248c-.95-.68-1.61-.92-1.89-1.39-1.7-2.81-3.38-5.63-4.91-8.54-.27-.52.17-1.41.28-2.13.67.25,1.67.29,1.97.77,1.82,2.93,3.52,5.93,5.13,8.98.23.44-.29,1.26-.57,2.31Z"/>
      <path class="cls-1" d="M267.6,250.26c-.51.56-.8,1.15-1.11,1.16-.57.03-1.46-.1-1.69-.49-1.53-2.51-2.97-5.08-4.31-7.7-.2-.38.2-1.2.53-1.67.15-.22,1.09-.25,1.2-.07,1.83,2.88,3.58,5.81,5.38,8.76Z"/>
      <path class="cls-1" d="M253.23,246.57c.76.42,1.32.54,1.53.87,1.28,2.1,2.53,4.22,3.67,6.4.19.36-.1,1.33-.44,1.51-.42.23-1.44.13-1.65-.19-1.34-2.05-2.62-4.17-3.71-6.36-.23-.47.35-1.35.62-2.24Z"/>
      <path class="cls-1" d="M245.76,251.74c1.02,1.39,1.92,2.29,2.42,3.37.61,1.33,1.42,3.95,1.21,4.05-2.61,1.24-2.61-1.51-3.6-2.73-.6-.73-.99-1.72-1.18-2.65-.09-.43.53-1,1.15-2.04Z"/>
      <path class="cls-1" d="M241.83,262.46c-1.06.58-1.93,1.17-2.01,1.08-1.12-1.33-2.19-2.72-3.11-4.18-.1-.17.72-.92,1.11-1.4,1.22,1.37,2.45,2.75,4.01,4.5Z"/>
      <path class="cls-1" d="M233.98,267.05c-1.31.31-2.14.78-2.54.54-.96-.58-1.81-1.43-2.48-2.33-.14-.19.68-1.1,1.06-1.68.88.77,1.76,1.54,3.96,3.47Z"/>
      <path class="cls-1" d="M222.35,268.37c.64.94,1.21,1.47,1.34,2.11.07.32-.73,1.18-1.02,1.13-.63-.11-1.18-.65-1.77-1.02.38-.58.76-1.16,1.44-2.22Z"/>
      <path class="cls-1" d="M106.56,337.55c-.93.17-1.86.34-2.78.5l.04.02c.87-.18,1.75-.36,2.62-.54h.12Z"/>
      <path class="cls-1" d="M106.44,337.54c.1,0,.19,0,.29,0-.06,0-.11.01-.17.02h-.12Z"/>
      <path class="cls-1" d="M112.18,129.25c.95.51,1.84.96,2.7,1.46,24.34,14.05,48.67,28.11,73,42.17.29.17.59.32.85.53,1.05.84,3.27,1.01,2.12,3.08-.18.33-2.35-.06-3.31-.61-24.79-14.25-49.55-28.57-74.31-42.89-.72-.41-1.52-.78-2.04-1.38-.32-.36-.34-1.17-.19-1.69.09-.31.77-.45,1.2-.67Z"/>
      <path class="cls-1" d="M318.55,390.74c0-13.81-.05-27.63.07-41.44.01-1.53-1.23-3.77,1.46-4.57.42,1.44,1.21,2.87,1.21,4.31.07,27.96.05,55.92.05,83.87,0,.83.13,1.71-.08,2.48-.18.66-.77,1.21-1.17,1.82-.5-.68-1.27-1.3-1.44-2.06-.25-1.11-.08-2.32-.08-3.48,0-13.65,0-27.29,0-40.94Z"/>
      <path class="cls-1" d="M482.28,343.31c-1.16.63-1.9,1.37-2.37,1.22-1.25-.38-2.4-1.1-3.55-1.77-23.94-13.82-47.88-27.63-71.79-41.51-1.39-.81-3.57-3.07-3.44-3.23,1.99-2.72,3.45.17,4.8.94,24.14,13.8,48.21,27.74,72.28,41.66,1.23.71,2.39,1.57,4.07,2.68Z"/>
      <path class="cls-1" d="M402.2,484.94c-.45-.41-1.13-.75-1.25-1.22-.11-.45.25-1.21.65-1.54.76-.62,1.69-1.04,2.55-1.53,24.16-13.96,48.3-27.95,72.52-41.82,1.28-.74,3.14-3.34,4.45-1.07,1.27,2.2-1.8,2.66-3.14,3.45-23.98,13.93-48.02,27.78-72.05,41.64-1.15.66-2.31,1.3-3.73,2.1Z"/>
    </g>
  </g>
</svg>