<?xml version="1.0" encoding="UTF-8"?>
<svg id="Ebene_2" data-name="Ebene 2" xmlns="http://www.w3.org/2000/svg" viewBox="0 0 32.52 58.86">
  <defs>
    <style>
      .cls-1 {
        fill: #ffe1bb;
      }

      .cls-1, .cls-2, .cls-3, .cls-4, .cls-5, .cls-6, .cls-7, .cls-8, .cls-9 {
        stroke-width: 0px;
      }

      .cls-2 {
        fill: #fff592;
      }

      .cls-3 {
        fill: #ffef4d;
      }

      .cls-4 {
        fill: #fff8b4;
      }

      .cls-5 {
        fill: #000;
      }

      .cls-6 {
        fill: #b78100;
      }

      .cls-7 {
        fill: #e5b647;
      }

      .cls-8 {
        fill: #dd9c00;
      }

      .cls-9 {
        fill: #fff;
      }
    </style>
  </defs>
  <g id="Ebene_1-2" data-name="Ebene 1">
    <g>
      <path class="cls-9" d="M32.36,43c-.31-1.2-.55-3.14-1.67-3.8-2.39-.43-4.88.32-7.24.32-.87,0-.81-1-1.09-1.76-.18-.6-.37-1.18-.6-1.79-.23-.74-.68-1.41-.89-2.15-.11-.61.29-1.1.49-1.68.61-1.34.78-3,1.04-4.37.05-.07.11-.07.19,0,.46.43.92,1.45,1.08,1.95.06.35.41.92.9,1.08.89.22,1.29-.81,1.57-1.5,1.49-3.62.48-7.58-2.28-11.05-.28-.38-.66-.66-.81-1.06-.12-.35-.11-.99-.44-1.42-.56-.64-1.06-.95-1.48-1.65-.42-.42-.89-.99-.72-1.56.12-.35.2-.26.37-.17.49.29.39,1.59,1.07,1.86.47.18.86.03,1,.5.12.41.44.94.9,1.11.58.2.91.06.93.92.16,1.59,2.53,1.84,2.88.21.25-1.04-.61-2.17,0-3.15.49-.75,1.35-1.56,1.95-2.28.41-.41.89-.87.73-1.48-2.34-3.77-7.74-3.52-11.57-2.67-.15.03-.1.01.09-.08.4-.15.87-.58.86-1.07.06-.99-1.16-1.63-1.93-.9-.41.31-.63.59-.75.32-.2-.68-.79-1.3-1.55-1.09-.55.13-.96.62-.93,1.18,0,.32.2.62.23.84.04.49-.71.53-1,.85-.35.25-.53.59-.92.62-.29,0-.72-.09-1.05.2-.51.44-.33.93-.87,1.17-.42.18-1.09.26-1.09-.14.28-.59,1.6-.42,1.7-1.38.04-.39-.14-.73-.46-.98-1.29-1.01-2.41-2.58-3.06-4.4-.37-.82-.36-1.84-1.14-2.38-.9-.55-1.69.56-1.96,1.32-1.48,3.4-.82,8.35,1.46,11.44.53.69.86,1.49,1.35,2.21.05.15-.18.12-.56.07-.44-.06-.9-.05-1.34.02-3.47.83-4.67,3.8-5.63,7.54-.4,2.26.19,4.44.6,6.53.67,2.82,2.34,5.03,4.77,6.58.36.21.8.51.87.9.49,5.13.79,10.47,2.65,15.49.4.96.91,1.86,1.62,2.61,2.42,2.28,5.9,2.67,9.1,3.36,2.53.51,5.74.8,8.27.58,1.87-.27,2.25-2.63,2.81-4.11,1.17-3.28,2.06-8.37,1.57-11.52l-.03-.16Z"/>
      <g>
        <path class="cls-5" d="M31.64,43.18c-.18-1.11-.57-2.18-.99-3.21-.03-.07-.07-.11-.13-.12-.12-.09-.35-.05-.5-.06-1.37,0-2.74.16-4.11.28-1.19.16-2.41.11-3.58.41-.08-.32-.17-.64-.27-.97-.25-.85-.44-1.72-.74-2.56-.39-1.12-.82-2.3-1.56-3.25,0-.01-.01-.02-.02-.04.57-.86.99-1.82,1.29-2.81.56-1.8.74-3.72.33-5.57-.32-1.62-.79-3.22-1.62-4.66-2.42-4.2-7.69-3.28-9.56.81-.9.21-1.78.57-2.55.94.03-.06.05-.11.08-.17.55-1.37,1.91-3.65,1.21-5.07-1.07-1.82-3.8-1.49-5.14-.16-1.67,1.62-2.49,3.95-2.98,6.17-.2,1.33.08,2.69.28,4.01.26,1.36.46,2.76,1.11,4,1.04,2.12,2.83,3.72,4.92,4.73-.03.23.05.56.03.74.06,1.17.16,2.34.27,3.51.37,3.22.75,6.45,1.56,9.59.66,2.36,1.58,4.85,4.03,5.84,2.28.94,4.69,1.51,7.12,1.9,1.47.24,2.94.52,4.44.57.94.04,1.87.01,2.81,0,.66-.04,1.21.07,1.53-.64.62-1.08.98-2.29,1.35-3.47.42-1.35.83-2.72,1.08-4.11.36-2.18.59-4.44.32-6.64ZM3.87,32.9c-1.73-1.89-2.19-4.48-2.53-6.93-.49-2.34.19-4.49,1.22-6.58.87-1.87,2.87-3.75,5.05-2.86,1.31.6,1.21,1.78.75,2.93-.57,1.65-1.38,3.21-2.06,4.81-.13.33-.33.64-.4.99,0,.27.42.3.45.03.32-.76.66-1.51,1-2.26.67-.36,1.39-.69,2.12-.95.24-.06.48-.13.73-.19.1.05.22.05.29-.06.86-.18,1.74-.25,2.58,0,1.33.48,2.12,1.83,2.33,3.18-.12,0-.24,0-.37.03-1.25.24-2.44.77-3.5,1.46-.49.36-1.98,1.1-2.14,1.61,0,.23.32.3.42.11.22-.23.5-.4.76-.58.74-.49,1.5-.98,2.29-1.39.98-.4,2.07-1,3.15-.7,1.19.48,1.87,1.86,1.83,3.11,0,.9-.66,1.61-1.43,1.99-.16.13-.54.16-.74.28-.06-.25-.15-.49-.27-.72-.1-.21-.23-.4-.38-.58-.18-.23-.54.05-.35.27,0,0,0,0,0,0,.5.61.75,1.44.6,2.21,0,.29-.42.66-.13.89.42.17.51-.65.59-.92.04-.26.04-.51.01-.77.5.11,1.76-.81,1.95-1.1,1.39-1.62.21-4.73-1.82-5.15.04-.6-.62-1.97-.83-2.21-1.01-1.54-2.63-1.81-4.28-1.54.1-.19.21-.38.33-.56.53-.75,1.24-1.46,2.06-1.9,5.38-2.42,7.64,3.76,8,8.04.08,2.91-.9,6.05-3.08,8.06-2.22,1.72-5.17,2.11-7.87,1.5-2.43-.45-4.67-1.7-6.31-3.55ZM12.36,37.16c2.14.11,4.32-.59,6.02-1.9.41-.36.76-.77,1.09-1.21.64.89,1.06,1.9,1.4,2.93-.18.05-.34.33-.51.42-1.34,1.02-2.73,2.07-4.36,2.58-1.01.31-2.12.4-3.18.5-1.29.05-2.59-.21-3.84-.5-.41-.09-.8-.25-1.17-.43-.01-.14-.03-.29-.05-.43-.07-.81-.14-1.63-.18-2.44-.01-.19-.02-.39-.02-.58,1.51.66,3.16,1.02,4.79,1.07ZM31.3,45.47c-.04,2.37-.39,4.73-1.08,7.01-.46,1.48-.84,3-1.54,4.39-.23.41-.32.74-.86.7-1.6.06-3.21.09-4.8-.1-2.06-.3-4.11-.6-6.14-1.1-4.26-1.17-6.03-1.65-7.32-6.22-.93-3.29-1.34-6.7-1.7-10.09,1.25.59,2.88.7,4.2.87,1.27.02,2.56-.16,3.8-.44,1.79-.49,3.3-1.61,4.76-2.72.09-.1.27-.21.4-.33.12.39.23.78.34,1.17.19.7.4,1.4.57,2.1-.01.07,0,.13.04.18.14.61.26,1.23.3,1.86.01.12.13.21.25.19.38-.07.07-.81.08-1.09-.04-.32-.1-.64-.17-.95.79-.15,1.6-.25,2.41-.28,1.67-.14,3.33-.35,5.01-.38.14,0,.27,0,.41,0,.06.14.12.29.17.43.63,1.52.96,3.16.85,4.81Z"/>
        <path class="cls-1" d="M21.13,26.89c.08,2.91-.9,6.05-3.08,8.06-2.22,1.72-5.17,2.11-7.87,1.5-2.43-.45-4.67-1.7-6.31-3.55-1.73-1.89-2.19-4.48-2.53-6.93-.49-2.34.19-4.49,1.22-6.58.87-1.87,2.87-3.75,5.05-2.86,1.31.6,1.21,1.78.75,2.93-.57,1.65-1.38,3.21-2.06,4.81-.13.33-.33.64-.4.99,0,.27.42.3.45.03.32-.76.66-1.51,1-2.27.67-.36,1.39-.69,2.12-.95.24-.06.48-.13.73-.19.1.06.24.05.3-.07.85-.18,1.74-.25,2.57,0,1.33.48,2.12,1.83,2.33,3.18-.12,0-.24,0-.37.03-1.25.23-2.44.77-3.5,1.46-.49.36-1.98,1.1-2.14,1.61,0,.23.32.3.42.11.22-.23.5-.4.76-.58.74-.49,1.5-.98,2.29-1.39.98-.4,2.07-1,3.15-.7,1.19.48,1.87,1.86,1.83,3.11,0,.9-.66,1.61-1.43,1.99-.16.13-.54.16-.73.28-.06-.25-.15-.49-.27-.72-.1-.21-.23-.4-.38-.58-.18-.23-.54.05-.35.27,0,0,0,0,0,0,.5.61.75,1.44.6,2.22,0,.29-.42.66-.13.89.42.17.51-.65.59-.92.04-.25.04-.51.01-.76.51.1,1.76-.81,1.94-1.11,1.39-1.62.21-4.73-1.82-5.15.03-.61-.63-1.97-.83-2.21-1.01-1.54-2.64-1.81-4.28-1.54.1-.19.21-.38.34-.56.53-.75,1.24-1.46,2.06-1.9,5.38-2.42,7.64,3.76,8,8.04Z"/>
        <path class="cls-6" d="M30.45,40.66c.63,1.52.96,3.16.85,4.81-.04,2.37-.39,4.73-1.08,7.01-.46,1.48-.84,3-1.54,4.39-.23.41-.32.74-.86.7-1.6.06-3.21.09-4.8-.1-2.06-.3-4.11-.6-6.14-1.1-4.26-1.17-6.03-1.65-7.32-6.22-.93-3.29-1.34-6.7-1.7-10.09,1.25.59,2.88.7,4.2.87,1.27.02,2.56-.16,3.8-.44,1.79-.49,3.3-1.61,4.76-2.72.09-.1.27-.21.4-.33.12.39.23.78.34,1.17.19.7.4,1.39.57,2.1-.02.07,0,.14.05.2.14.61.25,1.22.3,1.85.01.12.13.21.25.19.38-.07.07-.81.08-1.09-.04-.32-.1-.64-.17-.95.79-.15,1.6-.25,2.41-.28,1.67-.14,3.33-.36,5.01-.38.14,0,.28,0,.42,0,.06.14.12.29.17.43Z"/>
        <path class="cls-6" d="M20.87,36.98c-.18.05-.34.33-.51.42-1.34,1.02-2.73,2.07-4.36,2.58-1.01.31-2.12.4-3.18.5-1.29.05-2.59-.21-3.84-.5-.41-.09-.8-.25-1.17-.43-.01-.15-.03-.29-.04-.44-.07-.81-.14-1.63-.18-2.44,0-.19-.02-.38-.02-.57,1.51.66,3.16,1.02,4.8,1.06,2.14.11,4.32-.59,6.02-1.9.41-.36.77-.77,1.09-1.21.63.89,1.06,1.89,1.4,2.93Z"/>
        <path class="cls-1" d="M9.9,22.94c-.02-.12.06-.22.16-.26,0,0,0,0,0-.01,0-.05,0-.1.02-.15-.07-.1-.12-.23-.03-.34-.04-.14.07-.26.2-.29.2-.06.39.18.38.36.02.02.03.05.04.07.07.05.11.13.1.22.12.16-.06.45-.24.46-.2.06-.54.25-.62-.07Z"/>
        <path class="cls-1" d="M10.27,22.39c-.11-.02-.23-.08-.27-.19-.04-.11.03-.25.14-.28.07-.05.14-.06.22-.06.1-.03.22-.04.3.04.22-.05.44.15.3.36-.05.07-.15.11-.24.09-.18,0-.3.04-.46.05Z"/>
        <path class="cls-5" d="M15.26,20.62s.01-.02.02-.03c0,.01-.01.03-.02.04,0,0,0,0,0,0Z"/>
        <path class="cls-7" d="M28.27,9.58c.16.13.32.26.48.4-.82-.35-1.78-.38-2.66-.4-1.19,0-2.42.2-3.58.52-1.03.4-2.24.65-3.02,1.49-.09.11-.2.31-.2.48h0c-.21.51-.19,1.1,0,1.61.15.41.41.78.76,1.04-.06.03-.13.06-.2.09-.03.01-.05.03-.07.05-.29-.09-.6-.17-.9-.22-.25-.06-.89-.1-1.43-.02.91-1.03,1.62-2.37,2.09-3.44.14-.28.1-.83-.33-.76-.3.08-.6.18-.88.31.31-.61.14-.74-.55-1.37-.04-.05-.07-.11-.09-.16.09-.06.17-.12.26-.17.16-.09.33-.18.5-.25.23-.1.47-.17.71-.24h0s.01,0,.02,0c.54-.14,1.1-.25,1.66-.33.53-.07,1.06-.09,1.59-.09,0,0,.02,0,.03,0,.01,0,.02,0,.03,0h0s0,0,.01,0c.44,0,.88.02,1.32.03.42,0,.84.02,1.26.08.28.04.55.1.82.18.32.09.63.2.94.33.28.12.55.26.82.42.19.11.4.26.59.42h0s0,0,0,0Z"/>
        <path class="cls-7" d="M23.15,19.23c2.04,2.71,3.34,6.45,1.88,9.68-.04-.32-.1-.64-.18-.98-.28-1.25-.67-2.45-1.29-3.58-.8-1.28-1.77-2.49-2.95-3.45-.07-.07-.14-.15-.22-.21-.18-.14-.38-.25-.6-.31-.21-.07-.43-.11-.66-.13-.21-.01-.43.02-.63.07-.2.05-.39.14-.56.26-.15.11-.28.25-.39.41-.01.01-.02.03-.03.05.04-.22.07-.41.1-.52.23-1.21.19-2.55-.44-3.62.6.23,1.22.37,1.92.4.64,0,1.32.04,1.96-.06.14.13.35.2.49.33.57.51,1.13,1.05,1.6,1.66Z"/>
        <path class="cls-7" d="M9.75,21.09c.02.2.14.37.38.38.05,0,.1-.01.16-.03-.16.05-.32.1-.48.15-.17.05-.34.09-.51.13.01,0,.03,0,.04-.01-.08.02-.16.05-.24.08-.04.01-.08.03-.12.04.26-.23.52-.48.76-.74Z"/>
        <path class="cls-7" d="M13.5,21.59c-.11-.04-.21-.09-.33-.12-.07-.02-.15-.03-.22-.05-.01,0-.03,0-.04-.01-.11-.03-.22-.05-.34-.07-.1-.02-.19-.03-.29-.04-.12-.01-.24-.03-.36-.04-.08,0-.16,0-.23,0-.14-.03-.29-.02-.43,0-.04,0-.08,0-.12.01-.12.01-.25.04-.37.06.02,0,.03,0,.05,0-.13.02-.26.05-.38.09,1.04-.34,3.08-1.91,3.92-2.83.11.62.29,1.23.54,1.8,0,.02-.02.03-.03.06h0c-.34.43-.69.87-1.05,1.29-.1-.05-.2-.09-.3-.13Z"/>
        <path class="cls-7" d="M12.63,14.07s.03.07.05.11c-.63-.32-1.31-.55-2.01-.7-1.08-.19-2.02-.29-2.53-.16-.07-.08-.15-.15-.21-.24-.45-.61-.93-1.21-1.31-1.87-.55-.98-.86-2.07-1.08-3.16-.46-2.1-.39-4.37.52-6.33-.07.88.06,2.08.15,2.44.4,2,1.35,3.8,2.33,5.58.02.06.04.12.07.18.09.21.24.39.42.53.35.27.8.39,1.25.39h.02c.66,0,1.35-.28,1.79-.78.15-.17.27-.36.34-.58.02-.05.03-.1.04-.15.1.07.2.13.3.21-.31,1.49-.69,3.05-.14,4.52Z"/>
        <path class="cls-7" d="M11.45,16.86c.07.02.15.04.22.05-.48.55-.87,1.18-1.14,1.8-.1-.29-.28-.56-.54-.73-.22-.14-.46-.21-.72-.21,0-.01.02-.02.03-.03.34-.48.69-.95,1.04-1.43.34.23.71.43,1.12.54Z"/>
        <path class="cls-6" d="M10,7.7c-.32.1-.63.25-.89.47-.23.2-.41.44-.52.72-.01-.02-.03-.05-.04-.07-.4-.73-.79-1.46-1.11-2.23-.55-1.36-.99-2.8-.96-4.29v.02h0c0-.11,0-.23.02-.35.43,1.44,1.03,2.83,1.95,4.02.46.61.96,1.22,1.54,1.71Z"/>
        <path class="cls-6" d="M7.76,22.16c.12-.3.24-.6.37-.9.12.06.24.1.37.12.07,0,.14.02.22.02.03,0,.06,0,.1,0-.25.24-.52.46-.81.67-.1.07-.2.15-.3.22.02-.04.03-.08.05-.12Z"/>
        <path class="cls-6" d="M24.43,28.08c.03.15.07.3.09.45-.5-1.09-1.31-2.03-2.11-2.93-.71-.81-1.57-1.48-2.51-2.01.02,0,.04-.02.06-.02.22-.09.45-.21.66-.37.09-.07.19-.15.27-.24.11-.13.19-.28.24-.44.05-.17.07-.35.05-.53.76.76,1.42,1.64,1.99,2.55.6,1.1.99,2.31,1.27,3.54Z"/>
        <path class="cls-6" d="M26.06,10.03c.77,0,1.6.03,2.34.29-1.69.33-3.32.91-4.8,1.81-.14.09-.75.43-1.17.77-.1-.57-.4-1.11-.86-1.45-.18-.14-.39-.24-.61-.29,1.6-.72,3.35-1.12,5.1-1.13Z"/>
        <path class="cls-2" d="M16.33,10.31c.53.11.6.65,1.42.45-.96,1.58-1.78,3.21-2.5,4.91-.04.04-.07.1-.07.16,0,0,0,.01,0,.02-.09-.05-.21-.09-.32-.14.13-.18.16-.46.26-.66.3-.88.62-1.77.73-2.7.03-.32-.47-.36-.5-.04-.09.75-.32,1.43-.56,2.16-.11.32-.21.64-.34.95-.04-.04-.07-.09-.09-.15-.07-.57.02-1.15.04-1.71.07-1.48.21-2.98.04-4.46.58.24.48,1.04,1.12,1.19.25.08.52.04.78.03Z"/>
        <path class="cls-3" d="M17.91,10.15c-.13.09-.29.15-.45.15-.36.02-.54-.36-.86-.45-.09-.03-.18-.04-.28-.04.05-.15.08-.33.16-.43.12-.24.23-.48.35-.73.02,0,.04,0,.06,0,.26.01.2.39.28.57.11.4.43.68.74.93Z"/>
        <path class="cls-3" d="M16.27,8.65c-.03.06-.06.12-.09.18-.05.17-.23.46-.32.72.07-.32.14-.63.2-.95.06.02.13.04.2.05Z"/>
        <path class="cls-3" d="M15.62,8.3c-.07.39-.16.77-.23,1.15-.04-.11-.08-.22-.14-.31-.19-.34-.67-.42-.83-.77.27-.07.51-.19.77-.27.2.03.32.11.44.2Z"/>
        <path class="cls-4" d="M16.16,16.43c1.61,1.39,1.13,3.98.52,5.8-1.48-1.51-2.11-3.76-1.93-5.85,0-.05.02-.1.03-.16.14.06.28.1.41.14.16-.01.29-.1.39-.25.19.11.39.21.58.31Z"/>
        <path class="cls-4" d="M14.33,15.97s-.01.03-.01.05c-.1.61-.11,1.25-.05,1.88-.01.01-.03.03-.04.05-.46.66-1.14,1.13-1.76,1.64-.68.48-1.39,1.07-2.19,1.36.57-1.96,1.42-3.93,3.31-4.94.12-.11.38-.13.5-.25.07.08.16.16.25.22Z"/>
        <path class="cls-4" d="M13.66,15.4s.01.01.02.02c-.57.22-1.11.58-1.58,1.04,0,0-.01,0-.02,0-.29,0-.58-.09-.85-.21-.73-.33-1.32-.89-1.93-1.39-.36-.33-.77-.64-1.06-1.04,1.85-.22,3.95.43,5.41,1.59Z"/>
        <path class="cls-4" d="M21.71,16.52c-.77.38-2.12.3-2.98.24-.82-.07-1.56-.38-2.28-.74-.11-.09-.22-.18-.34-.25.23-.13.45-.29.66-.47.03.01.07.02.1.01,1.62-.62,3.59.08,4.83,1.21Z"/>
        <path class="cls-4" d="M18.09,11.42c.32-.18.66-.33,1-.44-.56,1.38-1.38,2.67-2.41,3.75-.21.21-.45.4-.71.55.06-.17.12-.33.19-.44.49-1.13,1.1-2.22,1.72-3.28.08-.03.15-.09.22-.13Z"/>
        <path class="cls-4" d="M14,10.08c.03.86-.02,1.73-.06,2.6-.03.75-.11,1.49-.11,2.23-.03-.02-.07-.05-.09-.07-.1-.08-.21-.15-.32-.22,0-.1-.04-.21-.13-.28-.14-.25-.23-.52-.31-.79-.34-1.38.06-2.78.33-4.15.24.13.41.35.55.58.04.06.09.09.15.11Z"/>
        <path class="cls-5" d="M29.6,10.23s-.02-.05-.04-.08c-.32-.35-.68-.66-1.05-.95-.16-.13-.33-.25-.5-.36-.17-.11-.34-.2-.52-.3-.39-.2-.8-.37-1.22-.5-.42-.13-.86-.23-1.3-.28-.43-.05-.85-.05-1.28-.06-.22,0-.44-.01-.66-.02-.11,0-.21,0-.32,0-.06,0-.12,0-.17,0,0,0,0,0-.01,0,0,0-.02,0-.03,0,0,0,0,0,0,0,0,0,0,0,0,0-.01,0-.02,0-.03,0-.05,0-.11,0-.16,0-.47,0-.93.03-1.4.08-.43.05-.86.13-1.28.22-.45.1-.91.22-1.34.4-.2.09-.39.18-.57.29-.05.03-.09.06-.14.09-.07-.26-.17-.5-.48-.58,0,0-.01,0-.02,0,.31-.6.66-1.18,1.18-1.61.06.04.12.07.2.08.64.07.78-.83.07-.92-.26,0-.41.16-.45.35-.21.15-.41.33-.58.53-.39.48-.69,1.02-.97,1.57-.05,0-.09,0-.14,0-.08,0-.15-.03-.22-.07.05-.37.08-.75.04-1.13-.02-.27-.07-.53-.14-.78.15-.12.22-.35.1-.64-.16-.63-1.29-.22-.96.39.09.18.23.28.37.33.16.49.18.99.13,1.49-.09-.06-.19-.12-.31-.14-.32-.08-.6.12-.89.22-.29.05-.66.23-.59.58-.23.17.06.6.04.87-.34-.35-.84-.63-1.07-.19-.14-.1-.3-.22-.45-.27-.04-.06-.11-.09-.19-.09-.12.01-.21.12-.2.24,0,.02,0,.04,0,.06,0,.04,0,.08,0,.12,0,.04-.01.08-.02.12-.01.05-.03.09-.05.14-.02.05-.04.09-.07.14-.03.05-.06.1-.09.14-.04.05-.08.1-.13.15-.05.05-.1.09-.15.14-.06.05-.13.09-.2.14-.08.04-.15.08-.23.12-.08.03-.16.06-.24.09-.09.03-.19.05-.29.06-.09.01-.18.02-.27.02-.09,0-.18,0-.27-.01-.07-.01-.15-.02-.22-.04-.07-.02-.14-.04-.21-.07-.05-.02-.11-.05-.16-.08-.05-.03-.09-.06-.13-.09-.04-.03-.07-.06-.1-.09-.03-.03-.06-.07-.09-.1-.01-.01-.02-.03-.03-.04,0-.03,0-.07-.02-.1-.04-.07-.08-.14-.11-.21,0-.02,0-.03-.01-.05,0-.03,0-.07,0-.1,0-.05,0-.09,0-.14,0-.04.01-.08.02-.11.01-.04.03-.09.04-.13.02-.05.05-.1.07-.15.03-.05.07-.1.1-.15.04-.05.07-.09.11-.13.05-.05.1-.09.15-.13.07-.05.14-.1.21-.14.07-.04.14-.08.22-.11.09-.04.18-.07.27-.1.09-.02.18-.04.27-.06.03,0,.05,0,.08,0,.05.01.09,0,.14-.01,0,0,.01,0,.02,0,.12,0,.21-.12.2-.24-.01-.13-.12-.21-.24-.2,0,0-.01,0-.02,0-.07-.05-.14-.09-.19-.14-1.09-.93-1.98-2.12-2.64-3.4-.37-.81-.71-1.66-.94-2.54-.08-.24-.09-.53-.27-.73-.65-.48-1.02,1.09-1.22,1.51-.64,1.73-.67,3.62-.33,5.42.29,1.82.92,3.59,2.1,5.03.21.27.4.56.63.81-.17.31.22.9,1.48,1.89.24.2.49.41.75.61-.18.24-.36.49-.54.73-.18.25-.36.5-.54.75-.06.1-.14.19-.21.29,0,.09,0,.17,0,.26,0,.08,0,.16,0,.25.04,0,.08,0,.12-.01.04-.02.08-.03.12-.05.05-.02.1-.03.15-.04.04,0,.09-.01.14-.01.05,0,.09,0,.14,0,.04,0,.07.01.11.02.04,0,.07.02.11.03.03.01.06.03.09.04.03.02.06.04.09.06.03.02.06.04.08.07.03.03.05.06.08.08.02.03.05.06.07.09.02.03.04.07.06.1.02.04.04.09.05.14.02.05.03.1.04.16,0,.06.02.12.02.19,0,.06,0,.13,0,.19,0,.08-.02.16-.04.23-.02.08-.04.16-.07.23-.03.08-.07.16-.11.23-.04.07-.08.14-.13.2-.05.06-.1.13-.15.18-.05.05-.1.1-.16.15-.06.05-.11.09-.17.13-.05.03-.1.06-.15.08-.05.02-.1.04-.16.06-.05.02-.1.03-.16.04-.04,0-.08.01-.12.01-.05,0-.09,0-.14,0-.04,0-.08-.01-.12-.02-.03,0-.07-.02-.1-.03-.03-.01-.06-.03-.1-.04,0,0,0,0,0,0-.04.11-.08.22-.13.33-.01.03-.02.05-.04.08.12.06.24.1.37.12.07,0,.14.02.22.02.03,0,.07,0,.1,0-.26.24-.52.46-.81.67-.1.07-.2.15-.3.22-.04.1-.08.19-.12.29.03-.01.05-.03.08-.04.03-.02.07-.04.1-.06.02-.07.07-.13.13-.18.05-.03.09-.06.14-.09,0,0,0,0,0,0,.09-.07.21-.08.31-.05.08-.05.17-.09.26-.13.04-.06.1-.1.17-.13.07-.02.15-.05.22-.07.26-.24.52-.48.76-.74.02.2.13.37.38.38.05,0,.1-.01.15-.02.05-.01.09-.03.14-.04,1.04-.34,3.08-1.91,3.92-2.83.11.62.29,1.23.54,1.81-.01.02-.02.03-.03.05,0,0,0,0,0,0-.34.43-.69.87-1.05,1.29.04.02.09.05.13.07.04.03.08.06.11.1,0,0,0,0,.01.01.04.02.07.04.11.07.11-.13.22-.26.33-.39.2-.25.43-.48.62-.74.21.41.45.8.72,1.15.23.27.49.71.88.77.22.04.39-.21.52-.56.09-.05.17-.15.25-.27.06-.02.11-.07.14-.13.01-.03.03-.07.04-.1.05-.12.11-.24.18-.36.04-.06.08-.13.13-.19.04-.05.08-.09.12-.14.03-.03.07-.06.1-.09.04-.03.08-.05.12-.08.04-.02.09-.05.13-.07.06-.03.13-.05.2-.07.08-.02.15-.03.23-.05.06,0,.12-.01.17-.01.07,0,.13,0,.2.01.11.02.23.04.34.07.07.02.14.05.21.07.07.03.13.06.2.1.02.01.04.02.05.04.04.09.15.15.23.21.06.06.12.13.17.2.03.05.07.1.1.15.04.06.07.13.1.2.02.06.04.12.06.18.01.04.02.09.03.13,0,.04,0,.07,0,.11,0,.05,0,.09-.01.13,0,.03-.01.07-.02.1-.01.04-.03.08-.04.12-.01.03-.03.05-.04.08-.02.02-.03.05-.05.07-.02.02-.04.04-.06.06-.06.06-.13.11-.19.17-.07.05-.14.09-.21.14-.11.06-.22.11-.33.16-.1.04-.2.08-.3.1-.03,0-.09.02-.15.03,0,0-.01,0-.02,0-.12,0-.21.11-.21.23,0,0,0,0,0,.01,0,.06.03.11.07.15.02.02.05.03.07.04.02.02.04.04.07.06,1.25.61,2.32,1.53,3.19,2.61.47.54.93,1.1,1.29,1.72.23.41.46.89.6,1.36.09.21.02.58.29.66.01,0,.03,0,.04,0,.06,0,.1-.02.14-.05.16-.02.21-.17.21-.32.02-.06.05-.11.08-.15.33-.61.58-1.27.73-1.95.79-3.46-.84-7.08-3.15-9.61-.13-.11-.64-.66-1.09-1,.07-.03.14-.05.21-.08.73-.34.32-.77-.14-1.11-.41-.34-.87-.61-1.36-.81.03-.01.06-.02.08-.03,0,0,0,0,0,0,0,0,0,0,0,0,.14-.05.32-.1.3-.28,0-.06-.03-.11-.07-.15-.02-.05-.05-.09-.1-.12-.05-.02-.11-.05-.16-.08-.05-.03-.1-.07-.15-.11-.05-.04-.1-.09-.15-.14-.05-.05-.1-.11-.14-.17-.05-.06-.09-.13-.13-.2-.04-.08-.08-.15-.11-.23-.03-.08-.06-.17-.08-.25-.02-.09-.04-.17-.05-.26,0-.08-.01-.17-.01-.25,0-.08,0-.16.02-.24.01-.07.03-.13.04-.2.02-.06.04-.13.07-.19.02-.05.05-.11.08-.16.03-.04.05-.08.09-.12.03-.03.06-.07.09-.1.03-.03.06-.05.09-.08.03-.02.07-.05.1-.07.04-.02.07-.04.11-.05.04-.01.07-.02.11-.03.03,0,.07-.01.1-.02.04,0,.08,0,.13,0,.05,0,.09,0,.14.01.05,0,.09.02.13.03.05.02.1.03.15.06.05.02.09.05.14.07.06.03.11.07.16.11.05.04.1.09.15.14.05.06.1.11.15.17.04.06.09.13.12.19.04.07.08.15.11.23.03.08.06.17.08.25.02.08.04.17.05.26,0,.08.01.17.01.25-.05.1-.04.18.04.25.01.01.03.02.04.03.03.03.07.05.12.05.11,0,.21-.07.23-.17,0,0,0,0,0-.01.13-.13.28-.25.43-.36.3-.23.62-.42.94-.61.18.85-.69,1.79-.05,2.55.48.5.87.06,1.19-.35.42-.27.45.79.44,1.03,0,.57-.21,1.46.51,1.67.36.13.79-.04.94-.39.19-.55-.1-1.13-.22-1.67-.18-.6-.14-1.27.21-1.8.53-1.05,1.87-1.73,2.18-2.86.06.01.13,0,.17-.05.07-.01.15-.03.22-.04.22,0,.28-.25.16-.38ZM27.59,9.48c.34.06.63.19.83.38-.68-.22-1.43-.26-2.15-.27.11-.05.23-.1.37-.15.12.05.25-.01.37,0,.19,0,.39.02.58.04ZM16.48,9.38c.12-.24.23-.48.35-.73.02,0,.03,0,.05,0,.26.01.2.4.28.57.11.4.43.68.74.93-.13.09-.29.15-.45.15-.36.02-.54-.36-.86-.45-.09-.03-.18-.04-.28-.04.05-.15.08-.33.16-.43ZM18.09,11.42c.32-.18.66-.33,1-.44-.56,1.38-1.38,2.67-2.42,3.75-.21.21-.45.39-.71.55.06-.17.12-.33.19-.44.49-1.13,1.1-2.22,1.72-3.29.08-.03.14-.09.21-.13ZM16.27,8.65c-.03.06-.06.12-.09.18-.05.17-.23.46-.32.72.07-.32.14-.63.2-.95.06.02.13.04.2.05ZM15.18,8.1c.2.03.32.11.44.2-.07.39-.16.77-.23,1.15-.04-.11-.08-.22-.14-.31-.19-.34-.67-.42-.83-.77.27-.07.51-.19.77-.27ZM13.92,8.82s0,0,0,0c.02.02.05.03.08.04-.03,0-.05-.02-.07-.03ZM13.31,9.4c.24.13.41.35.55.58.04.06.09.09.14.1.03.87-.02,1.73-.06,2.6-.03.75-.1,1.49-.11,2.24-.03-.02-.07-.05-.1-.08-.1-.08-.21-.15-.32-.22,0-.1-.03-.21-.13-.28-.14-.25-.23-.52-.31-.79-.34-1.38.06-2.78.33-4.15ZM6.5,1.97c.43,1.44,1.03,2.84,1.95,4.02.46.61.96,1.22,1.55,1.71-.33.1-.63.25-.89.47-.23.2-.41.44-.52.72-.01-.02-.03-.05-.04-.07-.4-.73-.79-1.46-1.11-2.23-.55-1.35-.98-2.78-.96-4.26,0-.12.01-.23.02-.35ZM7.93,13.08c-.45-.61-.93-1.21-1.31-1.87-.55-.98-.86-2.07-1.08-3.16-.46-2.1-.39-4.36.52-6.32-.07.88.06,2.08.15,2.43.4,2,1.36,3.81,2.34,5.58.02.06.04.12.06.18.09.21.24.39.42.53.35.27.8.39,1.25.39,0,0,.01,0,.02,0,.66,0,1.35-.28,1.79-.78.15-.17.27-.36.34-.58.02-.05.03-.1.04-.15.1.07.2.14.3.21-.31,1.49-.69,3.05-.14,4.52.02.03.03.07.05.11-.63-.32-1.31-.55-2.01-.7-1.08-.19-2.02-.29-2.53-.16-.07-.08-.15-.15-.21-.24ZM9.3,14.86c-.36-.33-.77-.64-1.06-1.04t0,0c1.86-.22,3.97.44,5.43,1.6,0,0,0,0,0,0-.57.22-1.11.58-1.58,1.04,0,0-.01,0-.02,0-.29,0-.58-.09-.85-.2-.73-.33-1.32-.89-1.93-1.39ZM10,17.98c-.22-.14-.46-.21-.72-.21,0-.01.02-.02.03-.03.34-.48.69-.96,1.04-1.43.34.23.71.43,1.12.54.07.02.15.04.22.05-.48.55-.87,1.19-1.15,1.81-.1-.3-.27-.56-.54-.74ZM14.31,16.02c-.1.62-.11,1.25-.05,1.88-.01.01-.03.02-.04.04-.46.66-1.14,1.13-1.76,1.64-.68.48-1.39,1.07-2.19,1.36.57-1.96,1.42-3.93,3.31-4.94.12-.11.38-.13.5-.26.07.09.16.16.26.23,0,.01-.02.03-.02.04ZM14.35,15.26c-.07-.57.02-1.15.04-1.71.07-1.48.21-2.98.04-4.46.58.24.48,1.04,1.12,1.19.25.08.52.04.78.03.53.11.6.65,1.42.45-.96,1.58-1.78,3.21-2.5,4.91-.04.04-.07.1-.07.16,0,0,0,.01,0,.02-.1-.05-.21-.09-.32-.14.13-.18.16-.46.26-.65.3-.88.62-1.77.73-2.7.03-.32-.47-.36-.5-.04-.09.75-.32,1.43-.56,2.16-.11.32-.21.64-.34.94-.03-.04-.07-.09-.09-.15ZM16.68,22.23c-1.48-1.51-2.11-3.76-1.93-5.85,0-.05.02-.1.03-.16.14.06.28.1.41.14.16-.01.28-.11.39-.25.19.1.37.2.56.3,1.62,1.39,1.15,3.98.54,5.81ZM22.41,25.61c-.72-.81-1.57-1.49-2.51-2.01.02,0,.04-.01.06-.02.22-.09.45-.21.66-.37.09-.07.19-.15.27-.24.11-.13.19-.28.24-.44.05-.17.07-.35.05-.53.76.76,1.42,1.64,1.99,2.55.6,1.1.99,2.31,1.27,3.54.04.16.07.31.1.47-.5-1.1-1.31-2.05-2.11-2.95ZM23.15,19.23c2.04,2.71,3.33,6.45,1.87,9.68-.04-.32-.1-.64-.18-.98-.28-1.25-.67-2.45-1.29-3.58-.8-1.28-1.77-2.49-2.95-3.45-.07-.08-.14-.15-.22-.22-.18-.14-.38-.25-.6-.31-.21-.07-.43-.11-.66-.13-.21-.01-.43.02-.63.07-.2.05-.39.14-.56.26-.15.11-.28.25-.39.41-.01.02-.02.03-.03.05.04-.22.07-.41.1-.52.23-1.21.19-2.55-.44-3.63.6.23,1.22.38,1.92.41.64,0,1.32.04,1.96-.06.14.13.36.2.49.33.57.51,1.13,1.05,1.6,1.66ZM21.71,16.52c-.77.38-2.12.3-2.98.24-.82-.07-1.56-.38-2.28-.75-.11-.09-.22-.18-.34-.25.23-.13.45-.29.66-.47.03.01.07.02.1.02,1.62-.62,3.59.08,4.83,1.21ZM19.49,11.59c-.09.11-.2.32-.19.48-.2.51-.19,1.1,0,1.61.15.41.42.78.77,1.04-.07.03-.13.06-.21.09-.03.01-.05.03-.07.06-.29-.09-.59-.17-.9-.22-.25-.06-.9-.1-1.44-.02.91-1.03,1.63-2.37,2.09-3.44.14-.28.1-.83-.33-.76-.3.08-.6.19-.88.32.31-.61.14-.74-.54-1.38-.04-.05-.07-.1-.09-.16.09-.06.17-.12.26-.17.16-.09.33-.18.5-.25.23-.1.47-.17.71-.24h0s.01,0,.02,0c.54-.14,1.1-.25,1.66-.33.53-.07,1.06-.09,1.59-.09,0,0,.02,0,.03,0,.01,0,.02,0,.03,0,0,0,0,0,0,0,0,0,0,0,0,0,0,0,0,0,.01,0,.44,0,.88.02,1.32.03.42,0,.84.02,1.26.08.28.04.55.1.82.18.32.09.63.2.94.33.13.06.25.11.37.18-.01,0-.02,0-.03,0-1.05-.06-1.69.87-2.31.67-.37-.13-.79-.34-1.17-.13-.19.12-.35.28-.47.47-.25.06-.49.12-.73.18-1.03.4-2.24.65-3.02,1.49ZM23.6,12.14c-.14.09-.75.43-1.17.77-.1-.57-.39-1.11-.86-1.45-.18-.14-.39-.24-.61-.29.67-.3,1.37-.55,2.08-.73-.04.2-.04.4.02.6.06.2.14.4.25.58.1.17.25.32.36.48-.02.01-.05.03-.07.04ZM23.49,10.89c-.05-.17-.03-.38.05-.57.83-.18,1.68-.28,2.53-.29.77,0,1.59.04,2.33.3-1.51.29-2.99.79-4.34,1.54-.2-.32-.5-.59-.57-.98ZM28.44,10.96c-.3.5-.75.87-1.16,1.28-.42.47-.82.99-1.05,1.58-.57,1.12.83,3.15-.05,3.18-.5-.03-.32-.67-.33-1.01.02-.39.02-.8-.09-1.17-.1-.34-.42-.69-.8-.59-.33.08-.45.43-.69.61-.59-.22-.02-1.23.02-1.68.05-.29.04-.59-.04-.87,1.33-.75,2.81-1.24,4.31-1.53-.03.07-.07.14-.12.21Z"/>
        <path class="cls-5" d="M25.14,11.47c-.18-.06-.2-.33-.03-.41.12-.07.25-.12.38-.17.5-.2,1.01-.37,1.52-.54.12-.04.24.02.28.14.04.12-.02.24-.14.28-.29.1-.57.19-.86.29-.31.11-.63.22-.93.36-.06.05-.15.07-.23.05Z"/>
        <path class="cls-8" d="M27.59,9.48c.8.14,1.39.69.85,1.49-.3.5-.75.87-1.16,1.28-.42.47-.82.99-1.05,1.58-.57,1.12.83,3.15-.05,3.18-.5-.03-.32-.67-.33-1.01.02-.39.02-.8-.09-1.17-.1-.34-.42-.69-.8-.6-.33.08-.44.43-.69.61-.59-.22-.02-1.23.02-1.68.06-.32.04-.67-.07-.98-.15-.48-.63-.78-.73-1.29-.13-.45.24-1.21.78-1.06,1.14.55,1.37-.05,2.38-.4.12.05.25-.01.37,0,.19,0,.39.02.58.04ZM27.16,10.78c.12-.04.18-.17.14-.28-.04-.12-.17-.18-.28-.14-.51.17-1.02.33-1.52.54-.13.05-.26.09-.38.17-.17.08-.15.35.03.41.08.03.17,0,.23-.05.3-.13.62-.25.93-.36.29-.1.57-.19.86-.29Z"/>
      </g>
    </g>
  </g>
</svg>