<?xml version="1.0" encoding="UTF-8"?>
<svg xmlns="http://www.w3.org/2000/svg" viewBox="0 0 168.51 239.82">
  <defs>
    <style>
      .cls-1 {
        fill: #7dae4c;
      }

      .cls-1, .cls-2, .cls-3, .cls-4, .cls-5, .cls-6, .cls-7 {
        stroke-width: 0px;
      }

      .cls-2 {
        fill: #ffe1bb;
      }

      .cls-3 {
        fill: #80973a;
      }

      .cls-4 {
        fill: #ffe100;
      }

      .cls-5 {
        fill: #000;
      }

      .cls-6 {
        fill: #fff;
      }

      .cls-7 {
        fill: #d3a400;
      }
    </style>
  </defs>
  <g id="Rahmen">
    <path id="Rahmen-2" data-name="Rahmen" class="cls-6" d="M168.46,171.2c-1.35-5.91-4.14-11.56-6.74-17.1-4.03-9.55-10.72-18.97-18.38-22.7-1.07-.63-1.08-1.4-.31-2.35.92-1.09,1.94-2.21,2.83-3.31,10.8-12.85,16.1-30.88,16.11-48,0-8.38-1.89-16.3-3.63-24.1-1.17-5.15-2.1-10.29-4.01-15.27-4.33-10.61-17.19-25.12-26.8-31.08-14.66-9.42-30.07-8.38-45.76-4.33-7.86,2.17-15.01,6.1-22.12,9.78-1.76.71-2.37-1.56-3.79-2.07-5.69-2.25-13.21,4.38-16.32,8.32-4.3,5.75-7.28,12.81-6.09,17.25.24,2.46,1.74,4.99,1.7,7.54-2.6,7.61-5.88,15.83-4.36,23.9.24,1.43-.07,2.86-.39,4.28-1,4.53-1.51,8.8-1.64,12.76.03,2.1-1.93,3.11-3.43,4.15-4.41,3.19-9.53,6.59-14.2,9.73-6.41,3.89-11.32,9.99-3.65,15.81,1.05,1.15,3.48,2.68,3.41,4.08-.06,1.04-1.49,2.09-2.54,3.12-2.48,2.38-5.24,4.21-7.28,7.05-5.43,9.17,11.37,8.9,15.99,12.52,1.6,1.52,2.04,4.42,2.99,6.44,1.18,3.43,2.83,6.9,4.16,10.27.74,3.41-.87,6.93-1.06,10.33-.97,10.83-2.48,21.61-.33,32.45,2.39,9.41,5.66,18.72,11.96,26.42,1.04,1.23,2.03,2.64,3.18,3.67,2.69,2.37,6.47,3.68,9.56,5.13,5.33,2.49,11.68,4.15,17.98,3.9,5.31-.13,10.74-1.9,16.18-5.12.8-.45,1.6-.76,2.41-.81,2.52.1,5.09.89,7.55,1,11.88,1.75,24.32-.91,34.39-7.63,2.63-1.97,4.56-1.76,7.91-3.28,3.73-1.63,7.7-3.45,11.3-5.45,4.83-2.77,9.1-6.88,12.66-10.97,8.5-9.02,11.11-22.92,10.54-36.15l-.03-.18h.05Z"/>
  </g>
  <g id="Hoodie">
    <path id="Hoodie-2" data-name="Hoodie" class="cls-1" d="M51.68,25.85s7.65-8.77,11.79-10.43,13.16-7.03,19.84-8.35,19.34-3.73,24.71-2.53,12.03,2.38,20.8,9.22,16.08,16.36,18.39,20.31,4.61,11.75,6.26,18.67,3.4,18.01,3.73,24.16.11,13.81-2.64,21.78-5.71,15.61-8.34,19.26-12.19,14.07-12.19,14.07l2.31,1.29s9,2,14.49,10.79,7.41,12.52,9.63,18.23,3.85,9.06,3.81,10.62-.42,14.44-1.88,17.94-5.52,12.06-10.9,17-11.97,9.44-15.92,10.76-10.1,2.79-10.65,3.64-8.45,5.69-13.07,6.9-11.58,1.54-15.07,1.54-11.63-1.99-13.01-1.96-3.05,1.4-3.05,1.4c0,0-7.74,4.51-11.47,4.95s-8.89,1.1-16.36-1.87-11.53-4.39-15.04-9.33-7.31-10.65-8.76-16.69-2.99-10.21-2.99-13.4.02-10.96,0-14.39,2.47-18.33,2.47-18.33l6.04-66.15s-2.34-7.64-1.86-11.15,3.32-16.8,3.32-16.8c0,0-1.83-2.89-1.46-4.19s2.89-13.48,4.18-16.23,12.89-20.75,12.89-20.75Z"/>
  </g>
  <g id="Gesicht">
    <path id="Gesicht-2" data-name="Gesicht" class="cls-2" d="M39.22,93.1s-1.01-7.74-.72-11.69,1.11-10.44,2.04-13.35,2.2-6.19,4.89-11.71,3.69-7.67,3.69-7.67c0,0,6.69-8.06,10.61-11.96s5.14-6.48,13.51-8.67,20.66-1.54,23.96-.66,13.16,7.3,16.96,9.06,10.38,5.65,11.76,8.45,3.13,5.63,4.31,8.42c1.09,2.6,1.07,13,.52,16.23s-2.29,14.39-2.75,18.33c0,0,.47,7.33-1.52,10.8s-10.89,8.74-17.69,9.29-18.97,2.58-29.63,1.18c-10.66-1.4-31.82-4.33-34.25-6.32s-5.67-9.73-5.67-9.73Z"/>
  </g>
  <g id="Haare">
    <path id="Haare-2" data-name="Haare" class="cls-4" d="M54.22,14.43s-3.08-.22-5.83,1.98-7.66,6.7-8.77,9.99c0,0-2.95,6.18-1.61,11.25s3.73,8.7,6.75,9.89,5.49,1.53,7.63.71,4.9-1.72,7.33-6.16,4.46-8.83,7.15-9.6,4.73-.49,6.04.05,4.28,2.31,6.81,1.37,6.2-2.91,8.34-3.46,5.44-.55,6.86.82,3.4,5.16,4.89,6.2,2.03,3.51,5.22,3.68,8.78-.71,11.2-.38,5.82,1.37,6.7,4.06.27,5.54-.77,6.75-3.9,2.36-4.23,4.12-.55,3.46,1.21,4.5,5.87,2.2,6.81,3.84,3.46,6.81,3.46,6.81c0,0,1.32-8.95,1.32-12.19s-.94-9.39-2.75-12.63-4.77-6.81-6.97-9.39-5.98-6.75-9.06-8.45-4.72-3.24-10.87-5.11-10.71-3.24-15.81-3.29-11.91,1.37-14,1.87-14.27,7.3-15.37,7.63-3.35-.71-4.28-2.25-2.25-4.83-1.98-5.93,3.35-5,3.51-5.11,1.06-1.59,1.06-1.59Z"/>
  </g>
  <g id="Geld">
    <path id="Geld-2" data-name="Geld" class="cls-3" d="M4.08,131.86l16.8,5.87,16.67,7.75,77.91-3.53s12.64-10.97,14.67-13.11,8.67-6.52,10.1-7.24,4.03-2.5,4.03-2.5c0,0,.58-.41-1.48-1.15s-13.43-5.41-14.74-6.68-.82-1.8-.82-1.8c0,0,1.7-4.57,4-6.71s3.9-3.51,4.34-4.94-.16-2.6-.55-2.81-5.89-2.57-10.41-3.89-11.22-4.23-12.98-5.16-2.53-1.09-3.24-.96-1.11.02-1.87,1.34-1.69,5-1.69,5l-.15.46s-.82.03-3.05-.24-1.6-1.59-1.6-1.59c0,0,.64-5.22.68-6.97s-.68-2.42-.68-2.42c0,0-5.53.34-11.68-.08s-11.03-1.05-14.82-.73-6.61,1.3-6.71,1.63,1.57,3.35,1.81,6.48.87,7.32.87,7.32v.78l-8.72-.78s-.49-5.02-1.06-6.31-1.96-1.66-2.53-1.48-16.15,5.4-16.15,5.4l-6.1,2.8s-2.69-5.44-3.07-5.54-2.8,1.59-2.8,1.59c0,0-17.73,11.72-17.79,12.01s-3.57,3.68-3.57,3.68c0,0,.66,2.37,1.76,3.09s6.15,5.71,6.59,6.42,1.26,1.65,1.26,1.65l-2.47,2.8s-8.56,7.92-8.67,8.05-2.09,2.49-2.09,2.49Z"/>
  </g>
  <g id="Hände">
    <path id="Hände-2" data-name="Hände" class="cls-2" d="M78.22,119.32s0,1.44.12-.29.91-5.22,1.81-5.59,4.08-1.27,5.64-.39,3.62,2.97,3.62,2.97c0,0-.04-4.16,1.19-4.78s5.05-.64,7.75,1.39,6.38,7.47,8.15,10.43,4.34,7.99,5.62,11.12,2.4,8.15,2.4,9.1-.41-4.78,1.89-9.96,5.27-8.6,7.04-8.91,3.21-.44,3.79.26.78,7.33.5,10.62-2.27,14.95-2.68,16.55-2.72,11.9-5.6,16.02l-3.79,5.81-1.59,1.61-1.76,1.99s-3.35,2.52-5.82,3.4-7.76,2.49-9.94,2.33-4.83.25-5.44,0-4.83-1.34-4.83-1.34l-4.49-1.92-2.1-5.11s-5.79,6.33-11.31,7.55-5.41,1.63-7.3,1.56-6.15-.75-6.15-.75l-4.85-2.17s-2.15-.82-5.92-3.95-10.28-10.38-11.84-13.34-5.11-10.17-6.26-13.11-3.32-8.3-3.97-10.36-1.63-5.2-1.3-6.22.73-2.05.73-2.05c0,0,2.28-.65,3.78.34s7.1,5.63,8.83,8.64,3.13,8.55,3.13,8.55c0,0-.54-5.95,0-9.91s.98-9.06,3.58-14.45,4.54-9.97,6.47-11.65,4.53-3.38,5.97-3.29,2.51.96,2.72,2.04,0,4.34,0,4.34l.86-.21s2.73-3.2,4.24-3.7,4.78-.22,5.68,1.84,1.15,4.12.91,7.29-.54,9.8-.54,9.8c0,0,3.06,1.47,3.99,3.04,1.19,2.01,2.29,4.36,2.29,4.36,0,0,2.35-5.84,3.18-7.99.72-1.88,2.18-2.16,3.53-2.94l-1.96-8.58Z"/>
  </g>
  <g id="Ringe">
    <path id="Ring2" class="cls-7" d="M36.97,143.73l.33,5.59,4.08,1.11h1.24s.5,1.78,1.03,2.28,1.63,1.16,2.09.95,1.94-2.3,2.19-2.63,1.94-.75,2.68-1.12,2.02-.98,2.18-1.6-.28-3.98-.28-3.98l-4.2,2s-.71-3.05-1.67-3.09-3.31.98-3.47,1.81-.24,1.45-.24,1.45c0,0-3.43-.69-4.13-1s-1.81-1.76-1.81-1.76Z"/>
    <path id="Ring1" class="cls-7" d="M86.57,143.94l.22,4.37s2.8.16,4.86-.41,7.21-3.01,8.23-3.95,1.31-1.92,1.31-1.92l-.58-4.52s-1.8,2.31-2.75,3.12-1.92,1.52-4.38,2.34-6.31,1.03-6.31,1.03l-.61-.05Z"/>
  </g>
  <g id="Linien">
    <path class="cls-5" d="M164.99,172.12v-.02c-.02-.18-.07-.35-.13-.52l-.1-.41c-.31-1.24-.66-2.48-1.13-3.68-.38-1.03-.83-2.03-1.2-3.06-.06-.23-.14-.46-.26-.65-.04-.06-.08-.12-.12-.18-1.31-3.34-3.01-6.55-4.48-9.81-3.45-7.65-8.3-15.23-15.92-19.26-2.02-1.04-4.17-1.77-6.25-2.67,3.27-3.27,6.39-6.68,9.24-10.32,9.33-12.43,13.51-28.02,13.7-43.43.05-9.64-2.62-18.96-4.57-28.33-1.24-5.47-2.55-11.09-5.69-15.83-4.81-7.15-10.39-13.85-16.84-19.57-9.93-8.37-23.44-12.84-36.34-10.29-4.57.51-9.05,1.53-13.52,2.59-5.54,1.74-10.71,4.53-15.96,6.98-3.4,1.72-6.72,3.77-9.45,6.46-1.54,1.57-3.31,2.99-4.55,4.82-3.72-5.52,5.88-8.35,3-11.26-3.29-.94-9.41,4.26-11.46,6.66-2.94,3.92-7.69,11.11-5.73,16.29,0,.01,0,.02.01.03,0,0,0,0,0,.02.35,2.44,1.26,4.82,2.63,6.87-.16.23-.33.46-.48.7-.71,1.13-1.33,2.34-1.82,3.58-.4,1.01-.77,2.03-1.11,3.06-.35,1.05-.67,2.12-.95,3.19-.09.36-.18.71-.27,1.07-.03.13-.06.25-.09.38-.03.11-.06.22-.08.33-.19.79-.35,1.58-.5,2.37-.35,1.88-.6,3.8-.6,5.72.01.76.05,1.53.19,2.28.06.34.15.67.27,1,.13.34.3.68.53.96-.21.9-.41,1.81-.61,2.71-1.43,5.97-2.3,12.11-1.87,18.26.02.21.04.42.06.63-.49-.49-1.11-.72-1.87-.21-1.82,1.12-3.52,2.42-5.28,3.63-3.27,2.39-6.63,4.58-10.02,6.84-2.57,2.04-9.69,5.27-8.03,9.31,3.05,2.98,6.43,5.65,9.04,9.07-.77.91-1.55,1.78-2.36,2.64-2.95,3.29-6.57,5.88-9.65,9.02-1.87,2.04-.46,2.81,1.58,3.36,1.51.5,3.02.98,4.54,1.45,3.49.98,6.88,2.17,10.18,3.66.11.42.24.83.37,1.24.52,1.6,1.11,3.17,1.71,4.74.29.78.6,1.55.9,2.33.3.8.59,1.6.89,2.4.3.81.61,1.63.95,2.43.34.78.69,1.56,1.04,2.34.63,1.37,1.28,2.72,1.96,4.05-.29,1.45-.53,2.89-.62,4.36-.26.42-.38,1.12-.24,2.15-.65.68-.65,2.78-.87,3.65-.88,10.98-2.63,22.34-.07,33.2,2.72,9.2,6.08,18.92,13.03,25.72-.05.33.07.68.48.9.78.63,1.62,1.16,2.5,1.65.11.08.2.17.32.26.17.13.34.19.5.19h.02c1.58.8,3.24,1.47,4.83,2.22,4.81,2.21,9.89,3.94,15.24,3.9v.02c.41.02.82.03,1.23.03,5.9,0,11.56-2.33,16.47-5.53.66-.44,1.28-.93,1.86-1.46h0c3.1,1.82,7.88,1.78,11.12,2.28,1.6.17,3.2.26,4.8.26,9.81,0,19.49-3.29,27.33-9.25.15-.12.23-.29.28-.47,1.98,1.1,13.77-5.23,15.27-5.87,6.22-3.15,11.08-8.37,15.45-13.7,5.57-7.67,7.47-17.48,7.46-26.81.03-.58.01-1.41.07-2.34,0,0,.03-1.12.02-1.33ZM139.73,124.76c-.75.83-1.51,1.65-2.27,2.46-.26.27-.51.54-.77.81-.25.26-.51.53-.77.8-.58.6-1.17,1.2-1.76,1.79-.19.2-.39.39-.59.59-.09.03-.18.07-.25.12-.03.02-.06.05-.09.07-.01.01-.03.03-.04.04-.06.05-.1.11-.14.17-.02.04-.03.07-.05.1,0,.03-.03.07-.04.1-.69.68-1.38,1.35-2.08,2.02-.23.23-.47.45-.7.67-.6.57-1.19,1.12-1.8,1.68.18-1.33.36-2.76.46-4.16.26-.16.45-.47.54-.78.41-.81.97-1.54,1.57-2.22,2.85-3.23,6.98-4.95,10.59-7.18.29-.18.75-.43,1.24-.72-.96,1.25-1.98,2.47-3.05,3.64ZM128.93,128.84c-.06-2-.38-3.74-1.16-4.87-1.57-1.52-3.64-.93-5.34.16.32-.45.65-.9.98-1.35.4-.55.8-1.09,1.2-1.64.4-.55.81-1.1,1.21-1.66.06.1.13.2.19.31.02.03.04.07.06.11.02.02.02.03.02.05.05.22.12.43.34.57,0,0,0,0,0,.01.2.11.4.17.63.13.22-.04.41-.16.54-.34.1-.14.15-.32.15-.49,0-.05,0-.1-.01-.15,0-.03-.02-.06-.02-.09-.01-.07-.03-.14-.05-.21-.07-.21-.17-.41-.29-.6-.13-.22-.28-.44-.44-.65.02-.09.04-.18.06-.27.43-.59.87-1.18,1.3-1.78.27-.37.12-.92-.25-1.16-.12-.08-.25-.12-.39-.12-.08,0-.17,0-.25.01-.22.05-.39.18-.52.36-.02.03-.05.07-.07.1-.02.03-.04.05-.05.07-.34.47-.68.93-1.02,1.4-.06-.04-.12-.1-.18-.14h0c-.34-.3-.72-.55-1.1-.79-.1-.06-.2-.12-.3-.17.35-.47.69-.93,1.04-1.4.26-.37.18-.9-.19-1.17s-.9-.18-1.17.19c-.34.46-.68.91-1.02,1.37-.07.1-.14.19-.22.29-.05-.02-.1-.04-.15-.05-.34-.09-.71-.15-1.06-.16-.36-.01-.71-.01-1.06.06-.75.15-1.46.4-2.13.76-.64.35-1.27.71-1.84,1.17-.31.25-.62.5-.88.8-.23.26-.43.55-.62.85-.19.3-.38.61-.5.95-.11.32-.23.66-.28,1-.11.67-.12,1.34-.04,2.01.11.94.44,1.83.76,2.72.03.09.07.17.1.26-.74,1-1.48,1.99-2.22,2.99-.5.67-1,1.35-1.5,2.02-.75-1.58-1.59-3.22-2.49-4.84.12-.33.18-.74.32-1.03.99-2.46,1.96-5.01,3.06-7.44,2.41-4.81,4.61-9.75,8.11-13.93,1.02,3.54,3.54,6.23,6.5,8.28.49.34.99.66,1.5.97.29.17.58.34.87.5,4.27,2.86,9.05,4.55,13.89,6.16-4.68,3.24-10.5,5.2-14.03,9.87ZM82.69,183.02c-.03-.13-.05-.27-.06-.42-.04-.54.01-1.2.01-1.85.76.44,1.55.81,2,1.07,2.16,1.03,4.49,1.69,6.88,1.81h.04c6.93.73,14.09-1,19.91-4.83,1.37-1.09,2.62-2.28,3.77-3.53.12,1.61.47,3.76.91,6h0c-.06.11-.1.23-.12.35h0c-.02.12-.05.22-.08.33-.04.12-.09.24-.14.35-.06.13-.13.26-.21.38-.11.16-.22.32-.34.47-.17.2-.35.4-.54.58-.28.26-.57.5-.88.73-.5.37-1.02.69-1.56.99-.06.03-.11.06-.17.09-.77.4-1.57.76-2.38,1.08-1.33.52-2.75.95-4.18,1.31h-.04c-1.98.48-4.03.82-6.1,1.04-2.24.23-4.48.31-6.73.25-1.7-.05-3.46-.2-5.2-.48-1.19-.19-2.37-.45-3.53-.8-.35-.11-.71-.23-1.05-.35v-.05c-.05-1.51-.12-3.01-.21-4.52ZM109.47,178.07c-7.9,4.47-18.89,6.1-26.73.71-.1-.1-.21-.21-.32-.31-.2-.92-.58-1.81-.89-2.7-.44-1.24-.82-2.5-1.25-3.74-.51-1.46-1.13-2.89-1.84-4.27-.38-.74-.8-1.46-1.22-2.18-.44-.76-.89-1.51-1.35-2.26-.83-1.36-1.69-2.71-2.49-4.09-.39-.69-.78-1.39-1.14-2.11-.33-.65-.64-1.3-.96-1.95-.67-1.37-1.33-2.74-1.91-4.15-.54-1.32-1.02-2.68-1.39-4.07-.31-1.19-.57-2.4-.81-3.61-.26-1.32-.46-2.65-.63-3.98v-.09c-.12-.98-.2-1.97-.2-2.96.01-.53.06-1.06.13-1.58.05-.29.1-.58.18-.86.04-.15.1-.3.16-.45.06-.13.13-.26.2-.39.05-.08.1-.15.15-.22.03-.04.07-.08.1-.12.03-.02.08-.07.08-.07l.08-.05s.05-.03.08-.04h.04s.03.01.05.01c.02,0,.03,0,.04,0,.06.03.11.06.17.09.19.12.37.25.54.38.27.21.52.44.76.68.19.21.38.42.55.65.96,1.29,1.78,2.69,2.58,4.08.11.19.2.39.31.58.02.04.04.08.06.12,0,0,.01,0,.01.01.44.81.89,1.62,1.31,2.46.8,1.61,1.51,3.27,2.33,4.88.39.76.81,1.52,1.24,2.26.42.72.87,1.42,1.37,2.1.02.03.04.05.06.08h0c.07.12.16.22.24.32.1.13.21.26.32.39.26.29.52.57.8.84.61.6,1.31,1.12,2.04,1.55.7.4,1.54.77,2.36.72.46-.02.89-.15,1.28-.42.36-.24.68-.55.89-.93.16-.29.25-.62.33-.94.08-.34.15-.67.2-1.01.12-.78.15-1.56.16-2.34,3.19-.07,6.4-.79,9.21-2.34.82-.42,2.53-1.39,3.73-2.4h0c.01.09,0,.15,0,.23-.02.91-.05,1.83-.14,2.73-.11,1.09,1.59,1.22,1.67.14.12-1.6.19-3.21.12-4.81-.4-5.95-2.87-11.54-5.91-16.59-1.73-3.16-4.41-5.84-5.57-9.28-1.24-4.91,1.4-5.81,4.4-4.65.34.18.68.4.99.64.08.37.42.66.82.66h.01c.3.26.6.51.9.76,1.78,1.5,3.13,3.4,4.55,5.22.39.51.79,1.01,1.19,1.51.01.03,0,.07.01.1.06.21.21.39.39.49.03.01.06.02.09.03.74.92,1.45,1.86,2.05,2.88h.02c.07.12.16.21.26.28h.01c2.98,5.02,5.39,10.49,6.93,15.44.41,1.63.29,3.34.18,5,.03.96,1.49,1.06,1.66.12.37-3.96,1.16-9.02,3.08-13.22h0s.02-.05.03-.06c.05-.08.09-.16.12-.25,0,0,.01,0,.01-.02s.01-.01.01-.02h0c1.42-3,3.43-5.51,6.3-6.83,3.82-1.35,2.24,6.99,2.24,9.07-.13,1.37-.3,2.71-.48,4.05h-.01l-.29,2.06-.1.66c-.27,1.8-.54,3.61-.79,5.47-1.9,11.78-5.53,24.67-15.76,31.9ZM80.91,180.55c-.57.38-1.1,1.13-1.64,1.4-2.04,1.79-4.39,3.19-6.98,4.01-5.87,2.02-12.44,3-18.62,1.85-.71-.1-1.36-.38-2.03-.6-.39-.19-.77-.39-1.17-.55,0,0-.01-.01-.02-.01.12-1.14.36-2.9.39-4.38.29.15.57.3.87.43.76.36,1.54.71,2.34.99.8.29,1.64.49,2.48.65.87.17,1.75.27,2.63.3.21.01.43.01.64.01.66,0,1.32-.03,1.98-.09,1.69-.14,3.38-.46,5.01-.94.85-.25,1.68-.56,2.5-.9.75-.31,1.5-.64,2.23-1.01,1.43-.72,2.84-1.5,4.16-2.4,1.08-.74,2.09-1.58,3.02-2.5.36-.36.7-.75,1.03-1.15.14.42.29.84.44,1.26.2.55.4,1.1.56,1.67-.02.19.01.35.09.53.01.04.01.09.02.13.02.43.05.87.07,1.3ZM68.98,104.25s-.11-.09-.18-.12c-.4-.26-1.23-.5-2.16-.67.02-.46.03-.92.05-1.38.02-.49.05-.99.05-1.49,0-.46-.38-.84-.84-.84s-.84.38-.84.84c0,.42-.03.84-.04,1.26l-.05,1.41c-.37-.03-.72-.03-1.06-.01-.01-.79-.03-1.57-.06-2.36-.02-.46-.37-.84-.84-.84-.34,0-.66.22-.78.52-.18-1.44-.35-2.89-.52-4.33h.01c.77.18,1.78.04,2.48.19,3.68.33,7.36.01,11.03-.29.36,4.67-1.28,9.34-1.75,13.98-.41,3.41-.33,6.86-.37,10.3-.15,4.79-.13,9.64,1.37,14.24-.21.68-.42,1.35-.67,1.99-.07.22-.16.44-.25.66-.23-.48-.46-.96-.64-1.46-.67-1.24-1.55-2.41-2.51-3.48-.14-.18-.33-.32-.53-.39h0c-.08-.04-.17-.07-.25-.08-.12-.1-.23-.21-.35-.3.34-.26.63-.7.85-1.02.7-1.01,1.27-2.24,1.19-3.5-.24-2.05-.87-4.67-2.64-5.91-.05-.03-.11-.04-.17-.06.03-.34.05-.68.07-1.02.05-.85.09-1.7-.01-2.54-.1-.85-.33-1.67-.65-2.46-.01-.03-.03-.06-.04-.09-.15-.36-.35-.78-.59-1.18-.28-.47-.62-.88-1.01-1.25l-.02-.02c.05-.11.08-.22.09-.35.05-1.39.09-2.79.14-4.18.03-.95.06-1.9.09-2.85.59.12,1.16.28,1.71.52h0c.82.15,1.25-.95.69-1.44ZM64.91,104.96c-.02.73-.04,1.45-.07,2.17-.05,1.46-.1,2.92-.15,4.39-.16-.07-.32-.13-.49-.17-.01-.02,0-.04-.01-.05-.04-.12-.07-.24-.11-.35-.02-.95-.04-1.89-.06-2.83-.03-1.05-.05-2.1-.07-3.14.32-.03.64-.03.96-.02ZM56.99,113.34c-.02-.65-.12-1.29-.36-1.89-.25-.64-.65-1.17-1.18-1.6-.24-.18-.5-.33-.78-.44-.31-.12-.63-.19-.96-.23-.22-.03-.43-.01-.64,0-.02-.07-.04-.14-.06-.2-.58-2.05-1.17-4.09-1.75-6.14l-1.25-4.4c-.08-.26-.15-.52-.22-.78.36,0,.72.04,1.08.11.62.33,1.44.16,1.47-.66-.14-1.23-1.88-1.07-2.81-1.13-.08,0-.15.01-.22.01-.11-.37-.21-.75-.32-1.12-.06-.2-.11-.4-.17-.59-.15-.43-.66-.65-1.08-.5-.42.15-.63.6-.52,1.02.02.06.05.16.08.27.11.39.22.77.33,1.16-.68.18-1.3.47-1.86.84-.03-.1-.06-.2-.09-.3-.11-.37-.22-.73-.33-1.1-.07-.2-.12-.41-.19-.61-.16-.43-.67-.63-1.09-.47-.41.16-.61.6-.5,1.02.01.02.02.03.02.05.27.88.52,1.75.79,2.63-1.92,2.18-2.67,5.54-2.08,8.49-2.07-3.65-4.25-7.24-6.31-10.9.9-.28,1.8-.59,2.68-.91.59-.21,1.18-.43,1.76-.66,3.04-1.16,6.05-2.42,9.16-3.39,2.93-.93,6.06-2.28,9.1-2.34.93,1.47.78,3.38,1.03,5.05.12,1.17.26,2.33.4,3.49.68,4.7.86,9.53,2.29,14.09v.1c-.06.01-.13.01-.19.02-.38.07-.76.15-1.13.27-.89.31-1.72.8-2.45,1.38-.61.49-1.16,1.05-1.67,1.64.02-.43.04-.85.02-1.28ZM55.27,117h0c-.6,1.01-1.15,2.1-1.64,3.22-.55,1.25-.97,2.54-1.35,3.85-.38,1.32-.73,2.76-.95,4.23,0,.04-.03.2-.05.36-.12.81-.23,1.62-.3,2.43-.07.84-.12,1.68-.14,2.53-.05,1.71-.04,3.42.05,5.13.05.8.09,1.61.18,2.41.08.78.17,1.55.28,2.32.01.11.03.21.05.32-.35.15-.69.47-.99.68-.53.37-1.11.63-1.72.81,0,0,0-.01,0-.02-.23-.66-.55-1.31-1.04-1.82-.33-.34-.73-.61-1.18-.76-.16-.05-.33-.09-.51-.1-.04-.01-.09-.01-.13-.01-.33-.01-.65.05-.96.17-.03.01-.06.02-.09.03-.06.03-.12.05-.16.08-.01.01-.02.01-.02.01-.31.16-.6.37-.84.62-.55.56-.95,1.25-1.23,1.98-.03.06-.05.12-.07.18h0c-.24-.03-.49-.08-.73-.13-.04-.02-.06-.05-.11-.06-.39-.09-.76-.2-1.13-.32-.2-.08-.4-.16-.59-.26-.73-.46-1.36-1.06-1.88-1.74-.02-.02-.05-.03-.07-.04,0-.21,0-.43,0-.64.02-1.2.13-2.41.28-3.61h.01c.3-.27.35-.74.13-1.08.16-.99.35-1.98.59-2.97.25-1.05.55-2.1.85-3.14.44-1.53.95-3.15,1.49-4.77.23-.67.45-1.35.69-2.02.18-.18.25-.41.23-.65.25-.68.5-1.36.79-2.03.65-1.45,1.39-2.87,2.21-4.24.56-.92,1.19-1.92,1.91-2.85.4-.5.82-.98,1.27-1.43.44-.41.9-.8,1.38-1.16.06-.04.11-.08.16-.13.01-.01.04-.04.09-.07.43-.32.92-.65,1.43-.95.19-.1.39-.2.59-.29.11-.04.21-.08.32-.11.2-.05.39-.09.59-.12.1-.02.2-.02.3-.02.1.01.2.02.3.03.13.02.25.05.37.08.07.02.15.05.22.08.04.02.09.05.13.07.05.03.09.07.14.1.07.06.14.13.21.19.06.06.12.13.17.2.05.06.09.12.13.19.06.1.11.2.15.3.05.13.09.26.13.39.04.15.07.3.09.46.04.34.04.69.04,1.04v.06c0,.33-.03.69-.06,1.06-.03.33-.07.66-.07.99,0,.32,0,.63.08.94ZM49.13,148.3s0-.09,0-.14v-.4c-.02-.29-.04-.56-.07-.84.38-.11.75-.24,1.11-.39.36-.21.99-.5,1.51-.85,0,.06.01.11.02.17.09.62.19,1.24.27,1.87-.42.32-.81.86-1.23,1.08-.51.31-1.05.54-1.61.71,0-.25.02-.5.02-.75,0-.15,0-.31-.01-.46ZM43.96,151.46c-.04-.07-.07-.13-.1-.2h0s-.01-.07-.02-.1c-.02-.02-.02-.07-.02-.07l-.02-.07c-.02-.07-.04-.14-.06-.21-.01-.02-.01-.04-.01-.06h0v-.09s-.03-.09-.03-.13c0-.03-.03-.11-.03-.11v-.34h0v-.05c-.01-.17-.01-.35-.01-.53v-.02c-.03-.38-.02-.76,0-1.14.02-.27.06-.53.1-.79v-.08c.01-.11.05-.21.08-.31.01-.02.02-.04.02-.06.07-.27.14-.53.23-.79.04-.11.08-.23.13-.34.01-.03.02-.05.03-.08.01-.03.02-.07.04-.1.01-.02.02-.04.03-.06.01-.02.02-.04.03-.06,0-.02.02-.03.02-.04,0,0,0-.02,0-.02.08-.15.17-.3.26-.44.08-.12.17-.23.26-.34.07-.07.14-.13.21-.2.06-.05.12-.1.18-.14.05-.03.09-.06.14-.08,0,0,0-.01.02-.01h.04c.17,0,.35-.04.53,0,.34.17.54.5.7.86.03.07.06.15.09.22,0,.03.03.07.04.1,0,.02.02.04.02.06.02.04.03.08.05.12.05.12.09.24.14.35.33.98.44,2.02.4,3.06-.04.13-.07.27-.07.42-.43,1.11-.92,2.47-2.07,2.99-.13.01-.24,0-.36-.04-.01,0-.03-.01-.04-.01-.05-.02-.09-.05-.14-.08-.37-.23-.66-.69-.87-1.18.02.07.03.12.05.19ZM41.91,149.59h0s-.02.07-.03.1c-1.33-.28-2.63-.77-3.69-1.61-.02-.02-.04-.04-.06-.06-.02-.27-.04-.55-.06-.82-.03-.51-.05-1.02-.07-1.53.84.88,2.61,1.34,4.03,1.59-.07.38-.11.76-.13,1.15-.02.39-.02.79.01,1.18ZM25.76,110c0-.13.02-.25.03-.38.55.73,1.11,1.45,1.66,2.18,1.13,1.5,2.27,2.99,3.41,4.49t-.02.02h-.01c-1.15-1.31-2.36-2.57-3.56-3.81-.45-.39-.95-.9-1.5-1.39h-.01c.17-.35,0-.74,0-1.11ZM28.75,110.73c-.76-1-1.52-1.99-2.28-2.99.31-.5.69-.97,1.09-1.4,1.76,2.47,3.52,4.94,5.28,7.41.42.59.84,1.18,1.26,1.77-.49.09-.99.2-1.48.3-1.29-1.69-2.58-3.39-3.87-5.09ZM35.21,117.07c.91,1.26,1.81,2.53,2.71,3.79.62.88,1.26,1.76,1.89,2.65-.07.45-.19.88-.34,1.31-.26-.34-.52-.67-.77-1.01-1.55-2.04-3.1-4.07-4.65-6.11-.1-.13-.19-.25-.29-.38.47-.11.96-.2,1.45-.25ZM37.6,117.53c.17.11.34.24.49.4.7.65,1.17,1.46,1.46,2.34-.65-.92-1.3-1.83-1.95-2.74ZM39.02,128.51s-.02.04-.03.07c0-.01,0-.02-.02-.03.02-.02.03-.03.05-.04ZM37.38,124.86c.41.54.82,1.08,1.24,1.63-.12.15-.27.3-.43.44-.02-.04-.03-.08-.04-.11-.54-1.16-1.15-2.27-1.83-3.35.36.47.71.93,1.06,1.39ZM47.16,107.56c.35,1.16.71,2.33,1.05,3.5-.04-.02-.08-.05-.14-.07-1.33-.3-2.5-1.12-3.27-2.24-1.42-2.39-1.35-6,.17-8.48.73,2.43,1.46,4.86,2.19,7.29ZM46.28,98.76c.22-.18.44-.35.69-.5.36-.16.74-.29,1.13-.39.6,2.11,1.2,4.21,1.8,6.32.51,1.78,1.02,3.57,1.53,5.35-.38.15-.74.33-1.09.54-.19.12-.36.25-.55.37-.04-.14-.08-.27-.12-.41-.69-2.3-1.38-4.59-2.07-6.89-.43-1.42-.85-2.84-1.28-4.26,0-.04-.03-.09-.04-.13ZM47.22,112.51c-.32.31-.64.63-.93.97-.16-.21-.32-.41-.44-.61-.33-.49-.67-1.04-1.01-1.6.67.55,1.46.97,2.38,1.24ZM108.99,112.83c.44.86.88,1.7,1.28,2.55h.03c-.28.62-.56,1.25-.84,1.87-.8,1.79-1.6,3.59-2.41,5.38-.5-.83-1.02-1.65-1.54-2.44h0c.43-.92.86-1.84,1.3-2.75.73-1.54,1.46-3.07,2.18-4.61ZM113.03,98.16c.4-.17.81-.28,1.23-.37-.68,1.44-1.36,2.87-2.04,4.31-1.06,2.23-2.12,4.47-3.17,6.7-.22-.57-.42-1.15-.58-1.75-.97-3.47,1.27-7.56,4.56-8.89ZM109.93,110.87l3.9-8.25c.65-1.38,1.31-2.76,1.96-4.14.13-.28.26-.56.4-.84.64.05,1.27.19,1.86.41-.35.79-.7,1.58-1.06,2.37-1.25,2.78-2.5,5.57-3.74,8.35-.69,1.55-1.38,3.09-2.07,4.63-.42-.84-.85-1.68-1.25-2.53ZM117.12,104.23c.81-1.79,1.6-3.58,2.41-5.38.49.37.94.8,1.3,1.34.31.46.6.94.83,1.44.06.32.32.6.64.67.45.11.88-.19,1-.63-.32-1.78-1.53-3.32-3.08-4.36.22-.5.45-1,.67-1.5.02-.02.03-.05.04-.08.19-.42.02-.92-.4-1.12-.41-.19-.93-.02-1.12.4-.01.02-.03.05-.04.08,0,.01-.02.03-.02.05-.2.46-.41.91-.61,1.37h0c-.58-.24-1.18-.41-1.78-.5.14-.3.28-.6.42-.9.15-.31.3-.6.43-.91.18-.42-.08-.92-.49-1.08-.42-.16-.87.05-1.06.45l-.02.04c-.37.78-.74,1.56-1.11,2.34-4.62.34-8.35,4.44-8.61,9.11.04,2.05.7,3.97,1.54,5.83-.93,1.98-1.87,3.95-2.8,5.92-.28.6-.57,1.2-.85,1.8-1.01-1.4-2.05-2.7-3.1-3.83-1.05-1.13-2.12-2.09-3.17-2.84.19-.44.35-.88.55-1.17,3.18-6.46,4.8-13.41,7.3-20.16,1.98-5.82,2.08-6.16,7.45-2.83,4.07,2.16,8.48,3.44,12.82,4.94.59.2,1.18.4,1.76.62.73.26,1.47.54,2.19.84.17.07.34.14.51.21.2.12.63.28,1.14.47,1.4.52,3.45,1.25,3.22,1.93-1.09,2.2-3.13,3.85-4.79,5.74-.09.1-.17.2-.26.3-.23.27-.45.55-.65.83-.26.31-.91,1.28-1.55,2.42-.26.46-.52.95-.75,1.44-.25.53-.46,1.06-.61,1.53-.24-.17-.47-.35-.7-.52-1.29-1.14-2.4-2.46-3.17-4.01-1.13-2.6-1.56-5.41-4.26-1.86-.46.59-.91,1.2-1.33,1.82.04-.08.07-.17.11-.25ZM96.4,99.82c.01-.06.02-.13.03-.19.19-1.22.4-2.43.57-3.65.06-.45-.24-.89-.7-.96-.44-.07-.9.25-.96.7-.2,1.39-.43,2.78-.65,4.16,0,.02,0,.03,0,.05-1.17.15-2.28.44-3.17.94-3.67,2.28-2.96,6.76-.2,9.4-1.24.44-2.21,1.43-2.54,3.13-.05.4-.08.78-.08,1.16-.17-.16-.34-.32-.52-.48-.54-.47-1.11-.94-1.75-1.28-.61-.32-1.27-.59-1.95-.7-.24-.03-.49-.05-.74-.05-.39,0-.77,0-1.15.05-.06,0-.11.02-.17.02.06-.78.14-1.56.2-2.34.07-.81.13-1.62.2-2.44.26-.17.43-.49.32-.89-.05-.21-.13-.41-.21-.61.38-5.23.59-10.48-.15-15.67.08-.05.16-.1.23-.17.03-.03.04-.07.06-.1,2.87-1.14,6.6.73,9.54,1.1,3.58.7,7.26,1.34,10.91,1.62-.11.33-.22.65-.34.97-.8,2.36-1.56,4.73-2.32,7.1h0c-.31-.12-.64-.24-.98-.35.03-.17.06-.34.09-.51.13-.77.27-1.54.41-2.31.07-.43.16-.87.23-1.3.03-.22.01-.44-.12-.64-.12-.18-.31-.31-.52-.36-.42-.09-.93.19-1,.64-.15.89-.32,1.77-.48,2.66l-.26,1.46c-.6-.09-1.21-.15-1.82-.16ZM97.92,101.66l-1.02,5.69c-.21,1.15-.41,2.31-.62,3.46-.22-.12-.44-.22-.67-.31t-.02-.01s-.1-.03-.14-.05c-.1-.04-.19-.09-.29-.13-.13-.09-.25-.14-.37-.17.05-.32.1-.64.15-.97.28-1.75.55-3.49.82-5.24.12-.81.25-1.62.38-2.43.6.01,1.19.07,1.78.16ZM94.42,101.62c-.29,1.82-.57,3.65-.86,5.47-.14.87-.27,1.73-.41,2.6-.07-.11-.16-.21-.3-.3-1.84-1.44-3.15-4.45-1.3-6.4.79-.77,1.79-1.19,2.87-1.37ZM99.07,138.1c-.57.49-1.08,1.37-1.6,1.67-2.58,2.13-6.03,3-9.3,3.36-.33.02-.65.03-.98-.02-.06,0-.11.01-.16.02h-.02c-.06-.43-.12-.87-.21-1.3-.1-.51-.22-1.02-.35-1.52-.15-.9-.32-1.8-.58-2.67-.16-.43-.35-.85-.52-1.28-.02-.04-.02-.08-.05-.13-.01-.02-.02-.03-.03-.05-1.17-2.8-2.6-5.48-3.68-8.31-.19-.63-.37-1.26-.56-1.89-.01-.03-.02-.07-.03-.1-.03-.12-.07-.25-.1-.37.14-.47-.04-.81-.33-.99-.08-.27-.16-.54-.25-.81-.23-.71-.47-1.41-.66-2.13-.18-.69-.3-1.39-.39-2.1-.04-.36-.04-.73-.04-1.09.01-.38.02-.76.07-1.14.03-.21.08-.42.14-.62.12-.42.25-.82.42-1.22.04-.1.09-.19.14-.28.02-.03.04-.06.06-.09.07-.08.14-.16.21-.23.1-.09.19-.17.29-.25.09-.06.17-.12.26-.17.21-.11.43-.22.65-.31.19-.07.38-.14.58-.2.18-.04.37-.07.56-.1.36-.04.72-.05,1.08-.05.18,0,.35.01.53.03.09.02.19.04.28.06.24.07.48.16.71.26.2.09.39.19.58.3.24.14.46.3.68.47.52.42,1.03.87,1.5,1.35.23.23.45.46.65.72,0,.01.03.03.04.05.02.03.04.07.06.1.11.15.24.24.4.3h0c1.21,3.93,4.64,7.21,6.45,10.88,1.62,2.84,3.07,5.94,3.97,9.18-.16.21-.33.43-.47.67ZM100.04,139.59c.17.84.29,1.68.36,2.53h0v.02s-.06.03-.08.06c-.16.18-.35.34-.53.5-2.28,2.02-5.21,3.53-8.19,4.26-1.36.2-2.74.39-4.12.49-.02-.29-.02-.59-.04-.88-.05-.58-.12-1.16-.19-1.74h.01c.05,0,.11,0,.17-.01,4.12-.18,8.54-1.37,11.62-4.23.23-.29.64-.63.99-1ZM99.11,90.41c-1.29-.19-2.57-.4-3.86-.61-2.76-.32-5.53-1.38-8.31-1.77h0v-.04c.01-.82.02-1.64.06-2.46.03-.12.03-.25,0-.38-.12-.44-.59-.72-1.03-.59-.28.08-.51.31-.59.6-.04.16-.04.31-.04.47-.01.25-.02.5-.02.75-.02.51-.04,1-.04,1.51-.68-.02-1.36.03-2.04.15v-.61c.01-.21.03-.53.03-.85.01-.12.02-.27.02-.42v-.76c0-.12-.04-.33-.19-.51-.14-.17-.35-.28-.57-.3-.44-.05-.9.29-.92.75v.84c-.01.11-.01.25-.01.39v.06c-.01.2-.02.4-.02.6v1.26c-1.92.68-3.61,2.12-4.46,3.96-.33.77-.59,1.6-.74,2.44-.25-.27-.58-.43-1-.43h-.1c-1.56.07-3.12.23-4.68.36-.06,0-.12.01-.18.01.02-.1.02-.21-.01-.33-.5-4.28-1.34-8.52-2.55-12.65,4.67-2.29,12.61-.87,17.77-.52,4.82.51,9.67.13,14.5.35.44,1.12-1.57,6.85-1.01,8.73ZM86.91,85.79s-.01,0-.02.02c.03-.05.06-.1.08-.16-.01.02-.01.03-.01.04-.02.04-.03.07-.05.1ZM86.83,85.91s-.05.06-.05.06h-.01s.06-.06.06-.06ZM81.44,102.65s-.06-.09-.09-.14c-.67-1.36-1.6-2.56-2.5-3.78-1.34-1.69-.98-3.96-.11-5.78.52-1.02,1.37-1.82,2.36-2.38.02.08.02.17.05.26.19,1.44.37,2.88.41,4.33.07,2.5,0,5-.12,7.49ZM76.92,98.77h0v-.03c.55,1.05,1.33,1.96,2,2.95.55.82.96,1.73,1.52,2.56h.01c.14.62.5,1.32.77,1.9-.09,1.2-.19,2.41-.29,3.61.05.7-.29,1.91-.27,2.87-.37.16-.73.35-1.06.59-.03.02-.06.05-.09.07-.32.26-.63.56-.86.9-.24.37-.4.77-.54,1.18-.12.37-.24.75-.34,1.13-.03.11-.04.21-.06.32-.34-.15-.67-.31-.95-.54-.15-.17-.37-.27-.61-.27-.46,0-.84.38-.84.84.15.98,1.34,1.31,2.14,1.68.05.02.09.01.14.03,0,.11-.01.22-.01.33.01.38.05.75.1,1.13.11.78.26,1.55.47,2.3.21.73.46,1.46.69,2.19.16.5.31,1,.47,1.5.09.39.19.79.29,1.18-.58-.02-1.19.23-1.65.59-1.2,1.09-1.93,2.48-2.5,3.97-.06-.25-.11-.5-.16-.76-.57-2.7-.57-5.45-.52-8.29.06-3.42-.02-6.84.18-10.25.29-4.54,1.6-9.1,1.97-13.68ZM79.55,128.86c.19.14.38.17.57.14.72,2.36,1.63,4.64,2.89,6.76.31.67.61,1.34.89,2.03,0,.02.02.04.02.06.33.83.61,1.72.85,2.62.04.25.09.5.12.75.02.15.08.27.14.37.26,1.17.45,2.36.6,3.55.17,1.43.26,2.87.25,4.31v.03c0,.52-.05,1.07-.12,1.61-.05.38-.13.75-.23,1.12-.03.11-.07.21-.11.32-.01.03-.02.05-.03.07-.01.02-.02.03-.03.05-.03.03-.05.06-.08.09-.08.07-.16.14-.24.2-.03.02-.05.03-.08.05-.02.01-.04.02-.06.03-.03.01-.05.03-.08.03-.03.01-.07.02-.1.02h-.14c-.06-.01-.13-.02-.19-.02-.08,0-.16-.03-.24-.05-.15-.05-.29-.1-.43-.16-.22-.1-.44-.22-.65-.34-.32-.2-.64-.42-.94-.66-.32-.26-.62-.53-.9-.82-.33-.35-.64-.71-.93-1.09,0,0-.02-.03-.04-.05-.02-.02-.03-.05-.05-.07-.51-.7-1-1.47-1.45-2.26-.39-.68-.79-1.43-1.17-2.19-.39-.81-.76-1.62-1.14-2.43-.59-1.27-1.22-2.53-1.88-3.77.04-.06.09-.1.12-.17,1.4-2.54,2.14-9,4.86-10.13ZM100.33,102.28c-.15.44-.3.89-.45,1.34-.3.99-.7,1.94-1.12,2.92h-.01c.13-.69.25-1.39.38-2.09.15-.82.3-1.65.44-2.47.07.02.14.03.21.05.21.06.38.16.55.25ZM130.62,92.53c-.77-.31-1.55-.61-2.34-.89.6-4.24.91-8.51,1.41-12.77.12-1.08.26-2.16.41-3.25.03-.2.05-.39.08-.59.16-1.19.33-2.37.49-3.56.03-.19.05-.39.08-.59.01-.1.03-.2.04-.3.06-.5.13-.99.19-1.49.01-.1.03-.2.04-.3.03-.29.07-.57.1-.86v-.06c.04-.29.07-.57.1-.86.03-.29.06-.58.09-.87v-.05c.07-.68.13-1.36.18-2.04v-.04c.1-1.39.16-2.78.16-4.16,0-1.1-.04-2.19-.12-3.28-.08-1.1-.22-2.19-.41-3.29-.04-.27-.08-.53-.13-.79-.01-.03-.02-.07-.02-.1-.17-.91-.41-1.79-.7-2.66-.06-.18-.12-.36-.18-.53-.1-.26-.2-.52-.3-.78-.06-.15-.12-.29-.18-.44-.5-1.17-1.09-2.31-1.74-3.41-.12-.21-.25-.42-.38-.63-.1-.16-.2-.32-.3-.48-.1-.16-.21-.31-.31-.47-.18-.27-.36-.54-.54-.8-.09-.13-.17-.25-.26-.37-.27-.38-.55-.76-.83-1.14-.11-.15-.23-.3-.34-.45-.11-.15-.22-.3-.34-.45-.11-.14-.22-.29-.34-.44-.38-.48-.75-.95-1.13-1.41l-.27-.33c-.51-.65-1.04-1.28-1.57-1.91-.2-.23-.41-.47-.61-.7-.28-.32-.55-.62-.83-.93-.14-.15-.28-.3-.42-.45-.21-.22-.43-.45-.64-.67-.22-.22-.43-.44-.65-.66-1.82-1.83-3.77-3.51-5.9-4.95-.17-.12-.34-.23-.51-.34-.09-.06-.17-.11-.26-.17-.08-.04-.15-.09-.22-.14-.01,0-.03-.01-.04-.02-.08-.05-.17-.11-.26-.16-.52-.32-1.06-.62-1.61-.91-.18-.09-.36-.19-.55-.28-.27-.14-.56-.27-.84-.4-.67-.31-1.35-.62-2.03-.91-.34-.15-.69-.29-1.03-.43-.34-.15-.69-.28-1.03-.42-.17-.07-.35-.13-.52-.2-.44-.17-.87-.33-1.31-.49-.44-.16-.88-.31-1.32-.46-.35-.12-.71-.24-1.06-.35-.36-.11-.71-.22-1.07-.33-.36-.1-.71-.21-1.07-.31-.53-.16-1.07-.3-1.61-.44-.18-.05-.36-.1-.54-.14-.54-.13-1.08-.26-1.62-.38-.18-.04-.36-.08-.54-.12-.18-.04-.36-.07-.54-.11-.55-.11-1.09-.21-1.64-.31-.29-.04-.58-.07-.87-.1-.43-.04-.87-.08-1.31-.12-.44-.04-.88-.07-1.32-.1-3.32-.21-6.66-.13-9.96.27-.33.04-.66.08-.99.13-.88.13-1.75.28-2.62.45-.52.11-1.03.22-1.55.34-.51.12-1.03.25-1.54.39-.34.09-.68.19-1.02.29-.34.1-.67.21-1.01.32-.38.13-.76.26-1.13.39-.12.05-.25.09-.37.14-.65.25-1.29.52-1.91.82-.25.12-.49.24-.74.37-.13.06-.25.13-.37.19-.19.1-.39.2-.58.31-.13.07-.26.15-.39.22-.19.11-.38.22-.57.33-.13.07-.25.15-.38.22-.19.11-.38.22-.57.34-.13.08-.25.15-.38.23-.32.2-.63.39-.94.59-.12.08-.25.16-.37.24-.13.08-.26.16-.38.24s-.25.16-.37.24-.25.16-.37.24c-.18.11-.37.23-.56.35-.13.07-.26.15-.38.23-.06.04-.13.08-.19.12s-.13.08-.19.12c-.89.54-1.78,1.06-2.69,1.54-.02-.01-.04-.01-.06-.01-.09-.01-.18-.01-.26,0-.04,0-.08.01-.11.02-.08-.08-.15-.15-.23-.23.04-.03.08-.05.11-.08.03-.02.1-.08.1-.08.13-.11.26-.24.39-.36.05-.04.1-.09.15-.13.02,0,.03-.03.05-.04.24-.18.47-.37.71-.56.11-.1.23-.19.35-.29.11-.1.23-.19.35-.29.11-.1.23-.19.35-.29.3-.25.59-.49.89-.73.12-.1.24-.19.36-.29l.18-.15c.18-.15.36-.3.54-.44s.36-.29.54-.43c.12-.1.24-.2.36-.29.06-.05.12-.09.18-.14.13-.09.25-.19.37-.28.25-.19.49-.38.74-.56l.75-.54c.13-.09.25-.17.38-.26.13-.09.25-.17.38-.26.25-.17.51-.34.77-.5.13-.08.26-.16.39-.24.33-.2.66-.39,1-.57.13-.07.26-.14.4-.21s.27-.14.41-.21c.55-.27,1.11-.51,1.69-.73,2.08-.62,4.2-1.12,6.34-1.54.42-.09.85-.17,1.28-.25.64-.12,1.28-.23,1.93-.34,3.66-.61,7.36-1.04,11.02-1.46,3.14-.07,6.23.34,9.24,1.1.08.02.16.04.24.06.53.14,1.04.28,1.56.44.31.1.62.19.92.3.01,0,.02,0,.05.01s.06.01.08.03c.03.01.07.02.11.03.51.17,1.02.35,1.53.54.63.24,1.26.49,1.88.75.5.21,1,.43,1.49.66.24.12.49.23.73.35.13.06.25.12.37.18.48.24.96.48,1.43.73.01.01.03.02.04.02.23.12.45.24.67.36.38.21.76.42,1.14.64.22.13.43.25.65.38.93.55,1.84,1.12,2.74,1.71,1.16.82,2.33,1.66,3.47,2.53.16.12.31.24.47.36.8.62,1.58,1.25,2.36,1.89.19.16.39.33.58.49.87.73,1.71,1.48,2.54,2.26.28.25.55.52.82.78.36.35.71.71,1.06,1.07.18.19.35.37.52.55.43.46.85.93,1.26,1.4.33.38.66.76.97,1.15.24.3.47.59.7.89.08.1.16.2.23.3.22.3.44.6.66.91.51.72.99,1.45,1.45,2.2.16.36.32.73.47,1.1.56,1.36,1.06,2.74,1.49,4.14.16.51.31,1.03.45,1.54.07.25.14.51.21.77.06.26.13.52.19.78.19.78.36,1.56.52,2.35.05.27.1.53.15.79.02.14.05.27.07.4.05.26.1.53.14.79.17,1.05.32,2.12.45,3.18.03.27.06.53.09.8.31,2.8.45,5.61.49,8.39.25,8.99-1.72,17.67-3.83,26.34ZM128.47,50.27s.09.05.14.07c.25.72.46,1.44.61,2.16.3,1.46.49,2.92.6,4.38l-.02.02c-.67-.69-1.34-1.28-1.61-1.55-1.52-1.41-3.43-2.48-5.47-2.96.68-.7,1.15-1.54,1.43-2.44h.04c.43-.06.85-.17,1.28-.19,1.01-.04,2.13-.07,3,.51ZM129.93,59.7c.02,2.94-.25,5.89-.61,8.83-.16-.42-.32-.83-.47-1.24-1.01-2.49-2.82-4.64-5.09-6.09-1.88-1.61-6.27-1.41-5.16-4.77.44-1.26,1.49-2.03,2.54-2.78.09.13.22.24.39.3,3.8.56,6,3.21,8.4,5.75ZM121.15,51.3c-.07.07-.14.13-.21.2-.02.03-.05.05-.07.07-.09.08-.19.17-.29.25-.08.06-.15.12-.23.18-.06.04-.11.08-.16.12-.03.02-.05.04-.08.06-.05.04-.11.07-.16.11-.05.04-.11.08-.16.11-.08.05-.17.1-.25.15-.06.04-.11.07-.17.1-2.43,1.56-4.08,5.61-1.38,7.68.42.27.86.5,1.31.7.08.03.15.07.23.1.36.16.73.31,1.09.46.2.08.41.17.61.26.07.04.14.07.21.1.22.1.44.21.65.32,0,0,.03.02.1.05.21.11.41.24.61.37.1.07.19.14.29.21.67.45,1.22.91,1.69,1.38,2.27,2.28,2.62,4.92,4.01,7.88-.45,3.21-.93,6.4-1.21,9.59-.04.53-.08,1.06-.12,1.59-.4-.11-.87.06-1.33.31-.05.03-.1.06-.15.09-.08.05-.16.09-.23.14-.05.03-.1.06-.15.09-.02.02-.05.03-.07.05-.05.03-.09.06-.14.09-.05.03-.1.06-.14.09-.04.03-.09.05-.13.08-.04.02-.08.05-.12.07-.04.02-.08.04-.12.06-.19.16-.41.3-.63.44-.1.06-.2.12-.3.19-.1.07-.19.14-.28.21-.06.05-.12.1-.17.15-.17.17-.31.38-.38.63-.03.18,0,.36.09.52.01.02.02.04.03.06.02.04.05.07.07.1,0,.01.03.02.03.03.01.02.03.04.05.06.13.13.31.22.5.25.36-.04.68-.19.99-.39.06-.04.12-.08.18-.12.03-.02.06-.04.09-.06.18-.14.36-.28.54-.42.06-.05.12-.09.18-.14.03-.02.06-.05.09-.07.06-.04.12-.09.18-.13.13-.09.25-.17.38-.24.13-.07.26-.13.4-.18.06-.02.12-.05.18-.07.06-.03.12-.05.18-.08-.13,1.26-.28,2.53-.45,3.79-.04.31-.08.62-.13.94-.05.31-.09.62-.14.94-.01.07-.02.13-.03.2-3.89-1.33-7.83-2.52-11.53-4.33-1.59-.77-2.98-1.92-4.67-2.48-1.66-.7-3.72-.01-4.31,1.77-.78,1.61-1.37,3.32-1.95,5.03h0c-.62-.22-1.57-.05-2.16-.22-.46-.05-.91-.12-1.37-.18.13-.23.18-.52.16-.78.09-1.37.3-2.84.59-4.3.4-1.84,1.62-5.75-1.46-5.55-4.09-.14-8.2.1-12.29-.17-4.5-.18-18.66-2.61-21.3,1.48-.28.82.24,1.64.39,2.44.4,1.48.77,2.98,1.08,4.48.44,2.21.74,4.45,1.07,6.67-.25,0-.5.01-.75.01-1.33,0-2.65-.07-3.98-.15-.51-.03-1.13-.09-1.75-.13-.26,0-.53-.11-.79-.08-.02-.14-.03-.27-.05-.41-.37-2.68-.09-8.48-4.31-7.12-4.01.74-7.79,2.25-11.63,3.57-1.83.61-3.63,1.33-5.42,2.05-1.65-9.1-.79-18.61,2.29-27.39,1.49-4.14,3.41-8.12,5.59-11.95.06-.11.13-.23.19-.34.05-.08.09-.17.14-.25.02-.03.03-.06.05-.09.13-.22.25-.45.37-.67.08-.14.16-.29.24-.44.16-.3.32-.6.47-.9.08-.16.15-.31.23-.46.07-.14.14-.29.22-.43h.05c5.19,0,9.71-4.74,11.92-9.1.34-.63.65-1.29.95-1.94,0-.01.02-.03.03-.04.02-.03.05-.07.07-.1.24-.36.47-.72.69-1.08.58-.87,1.12-1.59,1.63-2.19.06-.08.13-.15.2-.23.16-.19.33-.37.49-.53,1.63-1.64,2.95-1.98,4.27-1.78h.03c.18.03.35.06.52.11.02.01.04.02.06.02.17.04.35.1.53.16.15.05.31.11.46.17.07.03.15.06.23.09.19.07.39.16.59.24.08.03.16.07.24.1.12.06.25.11.37.16.47.19.96.39,1.49.56.1.03.22.07.33.1.06.02.13.04.19.06.09.03.19.06.29.08.2.05.4.1.61.14.24.04.49.08.74.11.03.01.07.01.11.01.48.04.99.06,1.52.03.66-.04,1.3-.17,1.93-.35.13-.04.25-.08.38-.12.19-.06.37-.13.56-.2.07-.02.13-.05.19-.07.18-.08.37-.15.55-.23.13-.05.25-.1.37-.16.19-.08.37-.16.55-.25.19-.09.37-.18.55-.27.06-.03.12-.06.18-.09.12-.06.24-.12.36-.18,2.69-1.35,5.35-2.74,8.39-1.73.04.02.08.04.13.06.09.04.17.09.26.13.22.12.42.24.62.36.12.07.24.15.35.23.07.05.15.11.22.16.08.06.15.11.22.17.15.11.28.22.42.34s.27.24.4.36l.19.19c1.84,1.86,3.02,4.22,4.82,6.03,1.35,1.34,3.04,2.38,5.62,2.65.07.01.15.03.23.03.08,0,.16.03.24.03.15.02.32.03.48.04.58.03,1.19.03,1.82.01h.06c.12-.01.25-.02.37-.02.72-.03,1.46-.09,2.21-.14.22-.02.44-.03.66-.05.14-.01.29-.03.43-.03.16-.01.31-.03.47-.03.29-.01.57-.03.86-.04h.02c.14-.01.28-.01.42-.01.74-.02,1.47,0,2.17.05.09,0,.19.02.29.03.23.02.45.05.67.09.1.01.2.03.29.05.46.09.9.2,1.32.36.08.03.16.06.24.09.17.06.33.14.49.22.07.04.14.08.21.12.08.05.17.1.25.15.2.13.4.28.59.44.07.06.15.13.22.2.79.76,1.41,1.81,1.77,3.28.47,1.78-.22,3.35-1.39,4.55ZM68.09,130.5c-.02-.68,0-1.35,0-2.02v-.08c.03-1.23.13-2.46.21-3.69.03-.49.05-.98.08-1.48.33.53.56,1.12.78,1.7,1.34,3.34-.5,4.56-1.07,5.57ZM116.82,125.76s-.04-.1-.05-.15h0c1.02-1.39,2.05-2.77,3.08-4.15,1.1-1.48,2.2-2.96,3.3-4.44h.01c.14.07.29.15.43.24.31.19.6.4.88.62.09.08.18.17.27.25-1.68,2.3-3.36,4.6-5.04,6.9-.69.95-1.38,1.89-2.08,2.84h-.01s-.05-.06-.07-.1c0,0-.01-.01-.01-.02s-.01-.01-.01-.02v-.02c-.23-.65-.48-1.3-.7-1.95ZM117.35,122.02c-.42.56-.83,1.12-1.25,1.68-.1-.29-.19-.57-.27-.87-.06-.25-.11-.5-.14-.75-.03-.26-.03-.51-.03-.77.01-.2.02-.41.05-.61.03-.18.07-.34.12-.51.05-.13.09-.27.15-.4.08-.17.18-.34.28-.51l.06-.09c.07-.1.2-.29.34-.47.07-.08.15-.17.23-.25.28-.25.57-.49.87-.71.35-.25.72-.46,1.1-.67.25-.13.5-.26.76-.37.22-.08.45-.15.68-.21.16-.04.32-.08.48-.1.13-.01.26-.01.39-.01.12,0,.23.01.34.02-1.39,1.87-2.77,3.74-4.16,5.6ZM116.29,129.21l-.04.02c.04.11.09.21.17.29-.63.87-1.27,1.73-1.9,2.6-.51.7-1.03,1.41-1.55,2.12-.3-.72-.62-1.45-.97-2.22.02-.03.04-.05.06-.08,1-1.36,2.01-2.72,3.02-4.07.17-.23.34-.46.51-.68.02.07.05.13.07.2.23.6.43,1.21.63,1.82ZM116.13,132.75c-.71,1.8-1.24,3.68-1.64,5.54-.22-.69-.49-1.43-.79-2.22.2-.28.41-.57.62-.85.6-.82,1.21-1.65,1.81-2.47ZM52.65,26.31s.06-.06.08-.09c.04-.04.07-.1.1-.16.01-.03.03-.05.03-.08.23-.28.46-.55.7-.82.35-.41.71-.81,1.08-1.2,1.1-1.17,2.27-2.29,3.5-3.34.27-.24.55-.46.83-.69,1.12-.9,2.28-1.74,3.49-2.51.31-.2.61-.39.92-.57.3-.19.62-.37.93-.54.63-.35,1.27-.68,1.92-.99,1.16-.55,2.33-1.11,3.49-1.67.44-.2.87-.41,1.31-.62.15-.07.29-.14.44-.21.3-.14.59-.27.88-.41.29-.14.59-.27.88-.41.44-.2.88-.4,1.32-.6.29-.14.59-.27.88-.4,1.62-.72,3.26-1.41,4.91-2.05.91-.27,1.82-.52,2.74-.75.46-.12.92-.23,1.38-.34.92-.22,1.84-.43,2.77-.62.31-.07.62-.13.93-.19,1.24-.24,2.48-.46,3.73-.66.32-.05.63-.09.94-.14.47-.07.94-.14,1.41-.2.31-.04.63-.08.94-.12,12.53-2.49,25.65,1.94,35.22,10.16,1.06.94,2.08,1.91,3.08,2.9l.37.37c.62.62,1.23,1.26,1.83,1.9l.72.78c.24.26.47.52.71.78.35.39.7.79,1.05,1.19.23.26.46.53.69.8.46.54.91,1.08,1.36,1.62.33.41.67.82,1,1.23.11.13.22.27.33.41s.22.27.33.41c.07.09.14.18.21.27.27.36.55.72.82,1.08.14.18.27.36.41.54.14.18.27.36.41.54.27.37.54.73.81,1.1.2.28.4.55.6.83.13.19.26.37.39.56.26.37.51.75.76,1.13.19.28.37.57.55.86.06.1.12.19.18.29.12.19.23.39.35.58s.22.39.34.59c.12.2.22.4.33.6,1.68,3.37,2.66,7.03,3.52,10.68.91,4.34,1.98,8.67,2.9,13.02.08.41.17.81.25,1.22.35,1.68.66,3.37.93,5.07.05.32.1.65.15.97.01.08.02.16.03.23.03.16.05.31.07.47.05.31.09.63.13.94.04.31.08.62.12.94.02.15.03.31.05.47,0,.09.03.17.03.25.03.29.06.58.09.87.01.11.03.23.03.34.02.22.04.44.06.66v.05c.02.23.04.45.05.67.01.23.03.46.04.69.06,1.11.09,2.22.09,3.33,0,.39,0,.79-.02,1.18-.01.13-.01.26-.01.39-.01.52-.03,1.05-.06,1.57-.11,2.09-.29,4.19-.56,6.28-.03.26-.06.52-.1.78,0,.13-.03.26-.05.39-.04.26-.08.52-.12.78s-.08.52-.12.78c-.04.26-.09.52-.13.78-.77,4.42-1.9,8.77-3.44,12.97-.14.37-.28.74-.42,1.11l-.14.37c-.1.24-.19.49-.29.73l-.15.37c-.1.25-.2.49-.3.73-.2.48-.41.96-.63,1.44-.17.36-.33.71-.5,1.07-.07.17-.15.33-.23.49-.32.65-.64,1.29-.98,1.93-.26.48-.52.96-.78,1.43-.2.34-.39.68-.59,1.02-.06.11-.13.21-.19.32-.12.21-.25.42-.38.63-.06.1-.13.21-.19.31-.13.21-.26.42-.39.63-.13.21-.27.41-.4.62-.16.24-.31.48-.48.72-.16-.19-.4-.37-.75-.54-1.77-.56-3.47-1.22-5.26-1.85-3.66-1.2-7.11-3.06-10.33-5.22.1-.45.19-.89.29-1.33.18-.86.37-1.71.55-2.56,2.93-4.83,8.29-8.07,7.22-10.83-.61-1.36-2.78-1.95-4.37-2.58.85-3.33,1.71-6.66,2.4-10.03.03-.2.07-.41.11-.61.05-.28.1-.56.15-.85.04-.23.08-.46.12-.69.05-.32.1-.64.15-.96.08-.53.16-1.05.23-1.57.05-.35.1-.7.14-1.05.02-.17.04-.35.06-.52.05-.35.09-.7.12-1.05.03-.35.07-.7.1-1.05.03-.35.06-.7.09-1.05.03-.35.06-.7.08-1.05.02-.18.03-.35.04-.53,0-.17.02-.34.03-.52s.03-.35.03-.53c.02-.35.04-.7.05-1.05.11-2.86.09-5.72-.06-8.57-.03-1.39-.16-2.78-.34-4.16-.03-.22-.06-.43-.09-.64-.06-.42-.13-.85-.2-1.27-.05-.32-.1-.63-.16-.95-.19-1.06-.39-2.11-.59-3.16-.89-4.35-1.91-8.77-4.31-12.58-1.89-2.6-4-5.05-6.28-7.33-.16-.16-.32-.31-.48-.47-.16-.16-.32-.32-.48-.47-.16-.15-.33-.31-.49-.46-.16-.16-.33-.31-.49-.46-.13-.12-.27-.24-.4-.36-.34-.3-.68-.6-1.01-.89-.33-.29-.67-.58-1.02-.87-.14-.11-.28-.23-.42-.34-.21-.17-.42-.34-.63-.51s-.42-.33-.63-.5c-.28-.22-.56-.43-.85-.65-.1-.08-.21-.16-.32-.24l-.09-.06c-.29-.22-.59-.44-.89-.65-.44-.32-.88-.63-1.32-.93-.29-.2-.59-.4-.89-.6s-.6-.4-.9-.59-.6-.38-.91-.57-.61-.38-.92-.56c-.31-.18-.62-.36-.93-.54-.13-.08-.25-.15-.38-.22-.13-.07-.25-.14-.38-.21-.25-.14-.5-.28-.76-.42-.16-.09-.31-.17-.62-.33-.05-.03-.1-.05-.15-.08-.05-.03-.09-.05-.14-.07-.07-.04-.15-.08-.25-.13-1.16-.6-2.34-1.17-3.53-1.71-.46-.17-.92-.33-1.38-.49-.46-.16-.93-.32-1.39-.47-.31-.1-.61-.21-.93-.3-.32-.09-.63-.19-.94-.28l-.47-.14c-.24-.06-.47-.13-.71-.19s-.47-.12-.71-.18c-.15-.04-.31-.08-.47-.12-.23-.06-.47-.12-.71-.17l-.72-.15c-2.43-.5-4.9-.79-7.39-.73-6.79.66-13.61,1.65-20.23,3.31-1.42.38-2.74.96-4.01,1.66-.16.09-.33.18-.49.28-.19.11-.37.22-.55.33-.09.05-.17.11-.26.16-.07.04-.15.09-.22.14-.29.19-.59.39-.88.59-.1.07-.21.15-.31.22-.15.11-.31.22-.46.33-.38.28-.76.56-1.14.85-.13.1-.26.19-.38.29-.55.42-1.1.85-1.64,1.28-.49.42-1.01.81-1.54,1.21-.18.13-.35.27-.53.4-.21.16-.41.33-.62.49-.06.06-.13.11-.2.17-.14.11-.27.22-.4.34-.04.04-.09.08-.13.12-.08.08-.17.16-.25.24-.05.05-.1.1-.15.15-.05.06-.1.11-.15.16-.05.05-.1.11-.15.16-.05.05-.09.1-.14.16-.22-.28-.44-.57-.64-.84-.03-.04-.06-.08-.09-.12.06-.03.12-.07.17-.12ZM39.75,40.21c-.11-.28-.2-.56-.29-.85l-.18-.54c-.09-.28-.19-.56-.27-.84-.01,0-.01-.02-.01-.03h0s0-.04,0-.05c-.01-.05-.03-.11-.04-.16,0-.02-.01-.03-.01-.05-.02-.08-.04-.16-.06-.23-.05-.22-.09-.44-.12-.66-.01-.09-.03-.18-.04-.27-.01-.11-.01-.21-.02-.32-.01-.25-.02-.5-.02-.75,0-.17,0-.33.02-.5.01-.33.09-.66.18-.99.03-.67.1-1.35.23-2.02.09-.42.19-.84.32-1.25,0-.19.07-.38.12-.56.07-.25.16-.48.25-.71.04-.11.08-.21.13-.31.05-.14.09-.3.13-.45,0-.03.02-.07.03-.1l-.02-.02c.15-.32.3-.63.45-.93,2.44-5.26,6.66-10.05,12.23-12.11-3.92,3.81-5.71,7.41-1.64,11.99.91.86,1.83,2.13,2.97,2.77.07.11.15.21.27.28.23.16.55.18.92.11h.14c.64,0,1.03-.25,1.18-.52,1.56-.8,3.38-2.25,4.23-2.66,1.63-1.05,3.3-2.04,5.03-2.91,3.39-1.7,7.12-2.57,10.86-3.1,7.86-1.24,16-.47,23.48,2.29,5.15,1.73,10.26,3.91,14.36,7.59,4.6,4.36,10.28,10.45,13.16,16.75-1.06-.24-2.21-.23-3.25,0,.04-1.41-.32-2.85-1.06-4.05-1.86-3.45-5.09-4.15-8.56-4.15-1.21,0-2.44.09-3.65.17-1.5.1-2.98.21-4.33.15-6.92-.17-7.44-7.18-12.61-10.16-4.6-2.71-9.26.74-13.5,2.46-2.81,1.17-5.01.32-7.11-.53-2.87-1.16-5.58-2.32-9.42,1.69-.26.28-.5.56-.74.86-.01,0-.03,0-.04,0-.04.07-.09.15-.13.22-.2.34-.4.68-.59,1.03-.1.17-.21.35-.32.51-.13.18-.26.35-.4.52-.22.29-.41.58-.59.9h-.02c-.12.22-.26.43-.4.64,0,.01-.01.01-.01.02-.05.08-.11.17-.16.25-.02.06-.05.12-.07.18-.02.06-.05.11-.07.17-.01.01-.01.03-.01.04,0,.02-.01.03-.02.05-.04.13-.1.25-.15.38-.07.18-.14.34-.23.51-.01.01-.02.02-.02.03,0,.01,0,.03-.02.04-.13.24-.26.46-.41.68,0,0,0,.01,0,.02l-.02.02h0s-.01.03-.02.04c0,0-.01.02-.02.03-.06.1-.13.19-.19.28-.08.13-.16.25-.24.38,0,.01-.02.03-.02.03-.02.03-.03.05-.05.08,0,0,0,.01,0,.01-.07.11-.13.23-.21.34-.19.32-.37.65-.58.95-.24.35-.48.71-.77,1.02-.21.22-.42.46-.65.65-.1.08-.19.15-.29.23-.05.05-.1.09-.15.13-.04.04-.09.07-.13.11-.07.06-.14.12-.2.18-.09.08-.17.17-.26.25-.15.14-.3.25-.47.37.04-.02.08-.05.12-.08-.15.1-.28.23-.42.34-.22.18-.47.32-.71.47-.26.16-.5.35-.78.47-.21.09-.44.15-.66.21-.12.03-.24.06-.37.08-.63.26-1.27.43-1.93.52.01-.03.03-.05.04-.08-.02.01-.05.02-.07.02-.1.01-.19.03-.29.03-.1.01-.21.02-.32.02h.14c-.13.01-.25.04-.38.05h-.19c-.14,0-.28-.01-.42-.02-.16,0-.31-.02-.47-.06,0,.01,0,.03-.02.04-.54-.09-1.09-.24-1.65-.47-.26-.05-.5-.18-.73-.31-.12-.05-.24-.11-.35-.16-.08-.04-.16-.08-.23-.12h0c-.22-.12-.44-.24-.65-.36-.31-.18-.64-.37-.91-.62-.01.01-.01.02-.02.03-.16-.15-.32-.31-.42-.51-.36-.31-.7-.62-1.02-.96-.22-.18-.42-.37-.62-.58-.25-.28-.48-.6-.68-.92h0s-.03-.05-.04-.07c-.1-.15-.2-.3-.29-.45-.03-.04-.06-.07-.08-.11-.04-.05-.07-.09-.11-.14-.07-.09-.14-.17-.2-.26-.12-.16-.24-.31-.35-.47-.11-.15-.22-.29-.33-.44-.16-.22-.27-.46-.37-.71ZM35.94,61.73v-.1c.17-1.74.49-3.53.9-5.3v-.02h0s.01-.05.01-.07h0v-.05c.05-.23.1-.46.16-.68.53-2.11,1.17-4.18,1.93-6.22.01-.02.02-.04.02-.06.14-.36.3-.77.46-1.17.44-1.12.86-2.25,1.31-3.36.78.96,1.68,1.82,2.66,2.55-.14.25-.26.47-.37.63-1.46,2.45-2.78,4.99-3.88,7.62-1.39,3.01-2.42,6.14-3.28,9.33-.01-.13-.02-.25-.02-.37-.01-.18-.01-.36-.01-.55,0-.72.05-1.45.11-2.18ZM38.84,61.14c1.38-3.8,2.97-7.54,4.98-11.05.36-.62.71-1.24,1.08-1.85.96.54,2.01.94,3.11,1.21-.01,0-.01.01-.01.01-.27.54-.55,1.08-.83,1.61-4.73,8.03-8.33,16.8-9.34,26.13-.71,5.36-.35,10.76.5,16.11-.45.19-.91.36-1.36.53-.58.24-1.22.35-1.8.6-.05-.1-.11-.21-.17-.31-.29-1.74-.51-3.5-.67-5.26-.55-9.4,1.82-18.76,4.51-27.73ZM9.49,109.11c-3.17-1.93,5.46-6.53,6.86-7.7,5.11-3.25,10.03-6.95,15.09-10.33.54,1.07,1.11,2.13,1.69,3.18.92,1.69,1.89,3.35,2.87,5.01,1.24,2.11,2.51,4.22,3.73,6.35,1.38,2.54,2.72,5.1,4.29,7.52.35.42.72,1.27,1.21,1.71-.14.2-.28.39-.41.59-.49.74-.96,1.5-1.41,2.27-.7,1.21-1.33,2.46-1.89,3.74-.29-2.74-1.83-5.28-4.65-5.99-.27-.06-.55-.08-.82-.1-1.42-1.98-2.83-3.97-4.25-5.95-.94-1.32-1.89-2.65-2.83-3.97-.05-.07-.1-.13-.14-.2.22-.14.45-.27.7-.36.71-.03,1.33-.41,1.07-1.21-.51-.83-1.6-.6-2.75.2-.09-.14-.19-.27-.28-.4-.4-.55-.79-1.12-1.2-1.67-.28-.36-.82-.43-1.18-.15-.36.28-.42.81-.15,1.18.35.46.68.95,1.02,1.42.17.24.34.48.51.71-.41.43-.8.9-1.15,1.4-.59-.79-1.2-1.57-1.79-2.36-.28-.36-.82-.43-1.18-.15-.36.28-.42.81-.15,1.18.75.96,1.48,1.94,2.23,2.92-.3.69-.46,1.38-.47,2.02,0,0,0-.01-.01-.01-.61-.25-1.26-.28-1.92.06-.73.67-1.01,1.69-1.53,2.52-.93,1.62-2,3.15-3.16,4.61h0c-2.11-3.05-5.24-5.49-7.94-8.04ZM20.37,124.64c-.62-.64-1.24-1.27-1.86-1.91h0c-.32-.33-.84-.39-1.19-.07-.33.3-.38.86-.06,1.19.89.9,1.77,1.81,2.65,2.71-.19,1.65.08,3.32.9,4.68-.3.36-.52.8-.65,1.24-.22.75-.2,1.57-.14,2.35.05.56.13,1.12.22,1.68-4.79-2.08-9.89-3.32-14.82-5.03,2.38-2.63,5.38-4.7,7.88-7.26,3.85-3.77,7.39-7.94,9.81-12.79,3.6,1.71,11.15,11.19,12.95,14.92.51,1.06,1.1,2.24,1.56,3.35.18.41.32,1.01.62,1.36l-.39,1.35c-.1.36-.18.73-.28,1.09-1.44-1.78-3.42-2.54-5.56-2.3-1.5-1.54-3-3.09-4.5-4.64-1.26-1.29-2.51-2.59-3.77-3.88.27-.23.56-.43.88-.59,1.02-.14.94-1.67-.1-1.68-.73.22-1.38.59-1.95,1.05-.49-.5-.98-1.01-1.47-1.51-.32-.33-.84-.38-1.19-.06-.33.3-.38.86-.06,1.19l.06.06c.12.12.24.25.36.37.38.39.76.78,1.14,1.18-.43.59-.78,1.25-1.04,1.95ZM31.25,133.1c.07-.03.14-.04.2-.06.47.48.93.95,1.39,1.43,1.25,1.3,2.5,2.58,3.75,3.87-.11.87-.21,1.75-.26,2.63-.02-.02-.04-.04-.06-.06-1.59-1.63-3.18-3.26-4.77-4.89-.71-.73-1.43-1.46-2.14-2.19.63-.25,1.26-.51,1.89-.73ZM29.26,132.05c-.32.19-.78.31-1.19.46-1.02-1.04-2.03-2.08-3.05-3.12-1.1-1.13-2.21-2.26-3.31-3.38.18-.75.49-1.45.91-2.08,1.38,1.42,2.76,2.85,4.14,4.27,1.12,1.16,2.25,2.32,3.37,3.47-.29.11-.58.24-.87.38ZM33.69,132.93c1.36.33,2.58,1.31,3.21,2.58.05.08.11.13.16.18-.04.2-.08.4-.11.6-1.09-1.12-2.18-2.24-3.26-3.36ZM24.44,131.2c-.1-.05-.2-.1-.31-.15-.16-.07-.41-.18-.68-.27-.36-.13-.73-.21-1.11-.23-.01,0-.02-.03-.03-.04-.42-.69-.67-1.47-.76-2.27.97.99,1.93,1.97,2.89,2.96ZM26.82,150.56v-.06c-.41-1.02-.79-2.07-1.18-3.12-.59-1.56-1.21-3.11-1.79-4.67-.57-1.55-1.15-3.1-1.59-4.69h0c.01-.18-.02-.36-.12-.51-.16-.67-.29-1.34-.38-2.03-.06-.53-.11-1.06-.11-1.6.01-.22.02-.44.05-.66.02-.11.04-.22.07-.33.02-.06.05-.13.07-.19.03-.06.07-.12.1-.18.04-.06.08-.11.12-.17.02-.04.05-.07.08-.1.02,0,.03-.02.05-.02h.19c.1.02.19.04.29.07.28.09.55.2.82.31h.02c.76.34,1.5.74,2.22,1.17.61.37,1.19.76,1.75,1.19.84.68,1.62,1.43,2.37,2.2.97,1.01,1.85,2.09,2.69,3.2.56.75,1.14,1.58,1.64,2.46.33.58.71,1.27,1.01,1.99.35.87.6,1.77.84,2.68.22.86.46,1.73.58,2.61.02.15.03.3.04.45l.03.36c0,.13,0,.26.05.38.14.39.55.64.96.56.36-.07.66-.39.68-.76,0-.31-.02-.62-.06-.92,1.15.66,2.48,1.05,3.82,1.27.17.47.39.92.67,1.33.01.02.02.04.03.06,0,.01.01.02.02.03.12.22.28.43.45.63.37.42.85.76,1.4.9.19.05.37.07.56.07.52,0,1.03-.17,1.48-.46.26-.18.49-.38.7-.62.2-.23.39-.49.55-.75,0-.01.02-.01.03-.01.41-.2.64-.8.8-1.3h0c.97-.22,1.91-.54,2.76-1.07.17-.15.41-.31.65-.5.09.38.4.66.8.66h.04c.45-.02.84-.42.8-.88-.05-.68-.11-1.36-.2-2.04-.07-.58-.16-1.16-.25-1.74-.19-1.23-.37-2.46-.52-3.69-.13-1.14-.25-2.4-.3-3.67-.06-1.33-.07-2.66-.06-3.99.02-.98.05-1.97.14-2.96.08-.95.2-1.89.34-2.84v-.04s.02-.14.03-.22c.18-1.24.52-2.57.89-3.88.01-.06.02-.11.04-.16.33-1.13.73-2.27,1.2-3.38.48-1.09,1.02-2.14,1.62-3.17.03-.05.07-.11.1-.17.28-.46.62-.95.98-1.42.35-.44.73-.85,1.12-1.25.28-.26.56-.51.86-.74.27-.2.54-.38.83-.55.22-.12.44-.23.67-.33.19-.07.38-.13.58-.19.27-.06.54-.11.81-.15.18-.01.36-.03.54-.03.13,0,.26.01.39.03.09.02.19.04.28.06.07.03.15.05.22.08.06.03.11.06.17.09.17.11.34.23.5.35.17.14.33.29.48.44.09.1.18.21.27.32.12.16.23.33.33.51.16.29.3.58.43.88.14.36.27.72.37,1.1.07.29.13.59.17.89.05.39.06.78.06,1.18-.03,1.07-.12,2.13-.19,3.19-.06.88-.09,1.76-.15,2.64-.04.68-.1,1.37-.14,2.05-.05.69-.07,1.37-.07,2.05s-.02,1.36.02,2.03c0,.13.02.26.03.39-.34.23-.62.55-.84.91-.44.71-.65,1.51-.78,2.33-.27,1.68-.15,3.38.07,5.06v.12c.02.15.05.41.09.68.22,1.67.53,3.33.89,4.98.17.78.35,1.57.56,2.35.22.82.49,1.63.78,2.43.54,1.52,1.2,2.99,1.89,4.44.33.7.67,1.41,1.02,2.11.33.68.66,1.36,1.02,2.03.81,1.51,1.69,2.96,2.59,4.41.88,1.43,1.75,2.86,2.58,4.32.71,1.27,1.34,2.57,1.89,3.91.32.8.59,1.61.86,2.43.01.03.02.05.03.08-.06.05-.12.1-.16.17-.1.14-.2.27-.3.4-.37.46-.76.9-1.18,1.31-.64.63-1.33,1.22-2.04,1.76-.85.64-1.75,1.2-2.67,1.72-.64.36-1.38.76-2.13,1.13-.72.35-1.46.67-2.2.98-.96.38-1.93.72-2.93.98-1.06.27-2.14.45-3.23.59-.89.1-1.78.15-2.68.15-.71-.02-1.42-.07-2.12-.17-.74-.12-1.47-.28-2.19-.48-.71-.21-1.4-.48-2.08-.78-.87-.39-1.72-.82-2.56-1.27-.14-.4-.37-.64-.71-.61-.1.01-.16.05-.24.08-1.24-.76-2.44-1.57-3.59-2.47-1.02-.81-2.02-1.65-3.01-2.5-1.03-.89-2.04-1.8-2.99-2.77-.03-.02-.1-.1-.1-.1,0-.02-.02-.03-.03-.04-1.47-1.53-2.91-3.13-4.23-4.84-1.12-1.5-2.19-3.05-3.13-4.68-.03-.05-.06-.1-.09-.15-.46-.84-.9-1.68-1.34-2.53-.29-.56-.58-1.12-.86-1.68-.44-.86-.87-1.72-1.29-2.58-.78-1.6-1.52-3.21-2.21-4.86ZM40.6,225.75s-.1-.09-.14-.13c-.26-.24-.49-.52-.69-.82-.21-.22-.42-.45-.62-.68-6.05-7.13-8.95-16.23-11.32-25.16-1.64-10.08-.28-20.38.6-30.48-.02-.83.37-1.77.5-2.63.02-.05.03-.09.04-.13v-.04c.03-.2.07-.4.11-.6.09-.45.17-.9.24-1.35,0-.02.01-.03.01-.05.01-.04.02-.07.02-.1,0-.04.01-.08.02-.12,0-.1.03-.2.05-.29v-.02h0c.04-.2.09-.38.15-.56h0c.03-.1.07-.19.11-.28.03-.51.1-1.03.17-1.54.41.78.82,1.55,1.25,2.31.41.72.84,1.43,1.3,2.12.93,1.42,1.93,2.81,3.02,4.12,1.08,1.3,2.22,2.55,3.4,3.76l.14.14c.63.65,1.31,1.3,2.02,1.93.7.62,1.42,1.23,2.14,1.84,1.28,1.08,2.59,2.14,3.98,3.08.64.43,1.31.85,1.97,1.25.03.5.09,1.02,0,1.4-.18,4.89-.82,9.75-1.91,14.52-1.51,5.83-2.8,11.72-4.13,17.59.06.04.1.1.16.14-.49,2.45-1.08,4.88-1.66,7.32-.04.64-.68,2.19-.92,3.46ZM48.99,230.83c-1.76-.82-3.58-1.54-5.28-2.47-.56-.45-1.11-.9-1.64-1.36.36-.7.31-1.87.62-2.49.48-1.78.89-3.57,1.3-5.37.41-1.79.81-3.59,1.14-5.41.09-.3.13-.68.08-1.01.51-2.34,1.03-4.68,1.59-7.02,1.41-5.7,2.95-11.4,3.52-17.27.32.16.63.32.96.47.09.03.17.04.25.05,1.53.58,3.17.73,4.87.91v.02c5.18.42,10.4-.4,15.34-1.97,3.5-.94,6.56-2.86,9.28-5.19v.14c.55,11.68.38,23.37.01,35.05.11,3.16-.48,6.42.09,9.52.21.33.45.62.72.89-9.58,7.73-22.09,8.01-32.85,2.51ZM125.64,221.21s-.05.02-.08.02c-.03.01-.05.03-.08.03-.03.01-.05.02-.08.03-.05.03-.1.05-.15.08l-.06.04h0s-.05.03-.08.05c-.03.02-.05.03-.08.05-.03.02-.06.04-.09.06-.02.01-.05.03-.07.05-.09.07-.18.14-.27.22-.04.04-.09.07-.13.11-.24.21-.49.43-.73.61-.01.01-.03.03-.04.03-.11.08-.22.15-.33.21-.02.01-.04.03-.06.03-.02.01-.05.03-.07.03-.01.01-.03.01-.03.01-.01.01-.03.02-.05.02-6.13,3.9-13.15,6.79-20.49,7.14-5.52.17-11.45.24-16.79-1.5-.13.02-.25.02-.37.02-.42,0-.83-.09-1.23-.27l-.07-.02s-.01,0-.02-.01c-.03-.01-.05-.02-.08-.03-.44-.16-.85-.52-1.13-.89-.02-.03-.05-.07-.07-.1h-.01s-.01,0-.01,0c-.05-.06-.08-.13-.12-.19-.02-.03-.03-.05-.04-.07-.02-.04-.04-.09-.06-.13-.01-.03-.03-.06-.04-.09h0s-.03-.06-.03-.09c-.02-.04-.04-.09-.05-.13-.01-.03-.03-.06-.03-.09h0s-.02-.06-.02-.09c-.01-.05-.03-.09-.03-.14-.01-.03-.02-.05-.02-.08v-.05s0-.05,0-.08c-.01-.03-.01-.06-.01-.09-.01-.03-.01-.07-.01-.11v-.24c-.01-.26.03-.51.11-.76-.06-2.25.37-5.23.19-6.49.02-.85.05-1.71.07-2.56.03-1.22.06-2.44.09-3.66v-.18c.02-.78.03-1.56.05-2.33v-.22c.02-.76.04-1.53.05-2.29.05-2.99.09-5.98.09-8.97v-3.27c-.01-.37-.01-.73-.01-1.1-.01-.37-.02-.74-.02-1.1,0-.28-.01-.55-.01-.82-.01-.16-.01-.31-.01-.47-.01-.65-.03-1.31-.05-1.96.62.2,1.27.38,1.91.54.07.01.15.03.22.05.08.02.15.03.22.05.05.01.09.02.14.03.08.02.15.03.23.05.39.08.77.15,1.16.22.06.01.11.03.17.03.26.04.52.08.78.12.05,0,.11.02.16.02.22.03.45.06.67.09.08.01.16.03.24.03l.25.03h.09c.07,0,.15.02.23.02.06,0,.12.02.18.02.08,0,.17.02.25.02.08.01.17.01.25.02.08,0,.17.02.25.02,1.27.1,2.54.15,3.82.15,1.35,0,2.71-.06,4.06-.17,2.58-.21,5.14-.6,7.66-1.21,1.68-.41,3.36-.92,4.98-1.59.07-.03.13-.05.19-.08.07-.03.13-.05.19-.08.32-.13.62-.27.93-.42.06-.03.11-.05.16-.08.24-.12.49-.25.73-.38.01-.01.03-.02.05-.03.05-.03.09-.05.14-.08.09-.04.17-.09.25-.14.03-.02.07-.04.1-.06.06-.04.12-.07.18-.11.26-.16.52-.32.77-.5.01-.01.02-.01.02-.01.17-.13.35-.26.52-.39.04-.03.08-.07.12-.1.13-.1.26-.21.39-.33.03-.03.06-.05.09-.08.04-.04.08-.07.12-.11.07-.06.13-.12.19-.18.05-.05.1-.1.15-.15.04-.04.08-.09.12-.13s.07-.08.11-.12c.03-.03.06-.07.09-.1,0,0,.02-.02.02-.02.03-.04.07-.08.1-.12.03-.04.07-.08.1-.12v.02c.07.32.13.62.2.93.02.11.05.22.07.33.03.13.06.26.09.39.01.06.03.12.04.18.08.36.16.71.24,1.05.02.11.05.21.07.32.13.56.25,1.1.37,1.59.01.05.02.1.03.15.01.05.02.09.03.14.01.05.02.09.03.14.02.09.04.18.06.27.02.1.05.2.07.29.1.42.19.8.27,1.12.02.07.04.13.05.19s.03.12.04.18c0,.02.02.05.02.08.01.01.01.03.01.04.01.04.03.07.03.11,0,.03.02.07.02.1.01.03.02.06.02.09.05.19.08.33.09.4,1.88,6.87,3.06,13.9,4.62,20.84.04.12.09.28.15.47.01.02.02.05.02.07.08.26.16.57.25.91.01.06.03.11.04.16.02.08.04.16.06.25.01.05.03.1.04.15.03.12.06.24.09.36.02.05.03.1.04.15.02.08.04.15.06.23.02.05.03.1.04.15.04.13.07.25.1.38.01.05.03.1.04.15.04.16.08.31.12.47.02.04.03.09.04.13.09.35.18.7.28,1.05.01.06.03.13.05.19v.03s.03.1.04.15c.04.12.07.25.11.37l.06.18c.02.09.05.18.08.27.02.05.04.11.06.17.17.52.34.99.52,1.39.01.03.02.05.03.07.04.09.08.17.12.25,0,.02.03.06.03.06l.02.05h-.03ZM163.24,172.68s-.04,2.96-.03,3.01c-.03,1.72-.07,3.45-.18,5.17-.86,13.77-7.26,23.76-18.23,31.84-5.04,3.24-10.64,5.54-16.22,7.7-.35.2-.88.22-1.32.32h0s-.01,0-.01,0v-.02h.01s-.03-.11-.05-.17c-.01-.03-.02-.06-.03-.09-.1-.28-.23-.56-.33-.83-.01-.02-.03-.05-.03-.08-.02-.04-.03-.08-.04-.12-.01-.02-.02-.05-.02-.07-.02-.06-.04-.13-.04-.19-1.07-3.31-2-6.66-2.69-10.07-.07-.4-.14-.81-.21-1.21-.03-.16-.06-.31-.09-.47-.03-.17-.06-.33-.09-.5-.08-.39-.15-.79-.23-1.18-.03-.19-.07-.37-.11-.56-.12-.56-.23-1.12-.35-1.68-.03-.14-.06-.29-.09-.43-.22-.98-.44-1.95-.66-2.93-.07-.31-.15-.63-.22-.94-.81-3.44-1.67-6.88-2.47-10.32-.04-.16-.07-.31-.11-.47-.01-.06-.03-.11-.04-.17-.05-.24-.11-.48-.16-.72-.31-1.37-.61-2.74-.89-4.11-.03-.17-.07-.33-.1-.5-.04-.19-.07-.37-.11-.56-.08-.41-.15-.81-.23-1.22-.03-.13-.05-.27-.08-.41l-.02-.13c-.03-.17-.06-.33-.09-.49-.04-.19-.07-.37-.1-.56-.03-.18-.06-.37-.09-.56v-.02c-.05-.26-.09-.53-.13-.79-.03-.17-.05-.35-.08-.53-.01-.04-.01-.07-.01-.1-.03-.21-.06-.42-.09-.63-.04-.23-.07-.46-.1-.69-.03-.23-.06-.46-.09-.69-.03-.21-.05-.43-.08-.65-.01-.04-.01-.07-.01-.11-.02-.19-.04-.37-.06-.56-.01-.03-.01-.07-.01-.1-.03-.21-.05-.43-.07-.64,3.57-4.51,5.94-9.8,7.6-15.39,1.67-5.58,2.62-11.44,3.34-17.09.07-.59.17-1.28.28-2.04,2.06-1.86,4.1-3.76,6.09-5.71,1.67.73,3.38,1.39,5.04,2.14.13.05.25.11.38.17.32.14.64.29.95.45.12.06.25.13.37.19.25.13.49.26.74.39.12.06.24.13.36.2.3.18.6.35.9.54.18.11.36.22.53.34.12.08.24.16.35.24.06.04.11.08.17.12.34.25.67.51,1,.78.33.27.65.56.96.86.4.36.8.73,1.18,1.11,1.6,1.58,3,3.35,4.26,5.22.1.15.2.3.3.45,1.53,2.34,2.84,4.84,4.03,7.35.29.59.57,1.18.85,1.78.07.17.15.33.23.5.29.63.58,1.26.87,1.89.19.4.37.8.55,1.2.02.05.04.09.06.14.16.36.32.71.48,1.06.09.2.18.4.27.6.27.6.54,1.2.81,1.8.27.6.53,1.2.8,1.8.04.09.08.18.12.27v.02c.07.15.13.3.2.45h0c.04.09.07.18.1.26,0,.03.03.05.03.08.25.65.51,1.3.75,1.95.09.25.18.49.27.74.06.16.12.33.18.49.01.03.02.06.03.09.05.14.09.27.14.41.05.17.11.33.16.5.06.17.11.33.16.5.1.33.2.67.29,1.01.11.41.21.82.3,1.24v.12Z"/>
    <path class="cls-5" d="M72.76,67.46c-1.09,5.04-4.77,9.05-8.47,12.43-2.02,1.49-2.77,4.24-1.59,6.5.53.91,1.27,2.18,2.46,2.15.21,0,.43-.06.62-.13-.46.43-1.16.61-1.76.4h-.01c-2.71-.92-4.24-4.2-3.35-6.9.5-1.66,1.83-2.83,3.08-3.95,3.25-3.05,6.45-6.68,7.33-11.17.15-.77.26-1.54.31-2.32-.02-.68.02-1.64.92-1.64,1.73.14.55,3.52.46,4.63Z"/>
    <path class="cls-5" d="M98.16,74.78c-.31,0-.62-.17-.78-.45-.04-4.4-5.37-4.52-8.69-4.9-2.14-.2-4.29.09-6.4.26,1.5-.66,2.98-1.39,4.62-1.65,3.72-.59,9.59-.13,11.63,3.51.43.91,1.14,3.04-.38,3.23Z"/>
    <path class="cls-5" d="M57.19,66.67c-.85-.19-1.74-.2-2.61-.15-2.29.19-4.84.12-6.76,1.44-.68.61-1.25,1.33-1.73,2.11-.04,1.13-1.81,1.09-1.8-.04h0c.26-1.55,1.63-2.79,2.77-3.77,2.96-1.69,7.21-1.16,10.13.41Z"/>
    <path class="cls-5" d="M99.98,49.68c-2.28-2.92-5.65-4.38-9.09-5.37-2.43-.98-7.41-.42-6.67,3.15.88,2.52,4.09,2.33,6.26,2.11,1.74-.09,3.49.22,5.13.8,2.01.6,3.71,2.04,4.67,3.9.37.62.43,1.45.97,1.95,3.55,1.12-.3-5.66-1.27-6.54ZM90.91,46.31s-.01-.02-.01-.02h.05s.09.02.14.03c-.06,0-.12-.01-.18-.01Z"/>
    <path class="cls-5" d="M66.58,51.99c-1.25,2.44-4.18,1.64-6.32,1.13-1.81-.34-3.69-.45-5.51-.12-.48.11-.97.22-1.46.35-.62.23-1.24.58-1.94,1.07-.79.5-1.59,1.32-2.56,1.32-.09,0-.19,0-.29-.02v-.03c-1.93-.85.27-2.68,1.36-3.15,1.17-.81,2.34-1.61,3.57-2.33,2.98-1.6,6.42-3.07,9.86-2.56.45.06.89.19,1.31.38.14.04.27.09.4.15,1.49.56,2.39,2.38,1.58,3.81Z"/>
    <path class="cls-5" d="M118.9,84.48h-.01c-.46-.98-1.02-1.96-1.9-2.59-.45-.28-1.09-.42-1.06-1.08.23-1.67,2.12-.58,2.79.2.8.78,1.36,1.76,1.84,2.77.46,1.06-1.2,1.78-1.66.7Z"/>
    <path class="cls-5" d="M120.9,81.49h-.01c-.88-1.81-2.15-3.32-3.62-4.64-.53-.36-1.02-1.05-.55-1.66.37-.51,1.21-.45,1.5.1,1.71,1.49,3.21,3.24,4.23,5.29.59,1-.98,1.92-1.55.91Z"/>
    <path class="cls-5" d="M124.1,79.55c-.33-.12-.48-.48-.62-.77-1.24-2.3-2.35-4.79-4.32-6.56-.42-.36-.85-.74-1.39-.92-.29-.07-.56-.33-.63-.63-.08-2.27,2.56-.52,3.33.32,1.3,1.17,2.25,2.65,3.1,4.16.61,1.08,1.18,2.14,1.71,3.22.34.7-.48,1.51-1.18,1.18Z"/>
    <path class="cls-5" d="M126.25,76.98c-1.65-4.14-3.43-8.92-7.36-11.39-.37-.2-.78-.34-1.19-.44-.84-.31-.68-1.61.21-1.72,4.6.77,7.37,6.68,9.09,10.56.3.77.59,1.54.9,2.3h.01c.46,1.05-1.21,1.77-1.66.69Z"/>
  </g>
</svg>