<?xml version="1.0" encoding="UTF-8"?>
<svg id="Ebene_2" data-name="Ebene 2" xmlns="http://www.w3.org/2000/svg" viewBox="0 0 480 128">
  <defs>
    <style>
      .cls-1 {
        fill: #000;
        stroke-width: 0px;
      }
    </style>
  </defs>
  <g id="Ebene_1-2" data-name="Ebene 1">
    <g id="cracked_asphalt_inverted_unten">
      <path class="cls-1" d="M480,61.76v67H0C0,111.42,0,94.09,0,76.76c6.46-2.13,12.93-4.26,20.18-6.65,1.64,7.42,2.9,13.75,4.5,19.99.45,1.77,1.5,3.87,2.94,4.81,4.58,3.01,9.4,5.7,14.29,8.17,1.06.54,3.7.15,4.14-.63,4.38-7.76,12.84-9.19,19.84-12.46,3.64-1.7,5.16-3.59,5.7-6.97,1.64-10.34,3.18-20.7,4.8-31.26,1.04-.24,2.15-.72,3.26-.73,4.79-.02,7.98-2.28,10.56-6.26,2.99-4.6,6.93-8.59,9.78-13.26,5.17-8.46,11.75-13.75,22.25-14.19,4.24-.17,8.3-3.25,12.58-4.57,1.62-.5,4.24-.51,5.34.46,7.18,6.35,14.04,13.05,21.06,19.59.98.91,2.52,2.39,3.27,2.12,1.09-.4,2.24-2.05,2.42-3.3.5-3.61,1.16-7.38.62-10.92-1.59-10.52,4.75-15.78,12.55-20.7,2.23,2.11,4.34,3.98,6.3,6,3.97,4.09,8.2,7.44,14.07,8.8,6.25,1.45,11.15,5.27,15.72,10,5.6,5.81,15.84,9.96,18.54,15.69,1.11,2.37,12.3,6.27,13.2,16.43,2.35-1.72,3.67-2.9,5.18-3.75,3.67-2.07,7.26-4.39,11.18-5.84,4.03-1.49,8.36-2.7,12.61-2.89,5.54-.25,11.38-.22,16.62,1.3,4.12,1.2,6.24.28,7.49-2.97,3.57-9.29,11.88-13.92,18.9-20.58,1.7,2.68,2.96,5,4.54,7.08,2.39,3.14,4.6,6.59,7.6,9.03,4.63,3.77,9.81,6.87,14.88,10.08,1.09.69,3.06,1.28,3.96.76,5.73-3.31,11.23-7.03,16.91-10.45,3.46-2.08,7.09-3.86,10.65-5.78l1.38,1.62c-2.52,3.09-5.32,6-7.45,9.33-1.67,2.6-4.33,6.79-3.37,8.42,2.67,4.54,6.93,8.17,10.65,12.07,7.99,8.38,19.16,11.14,29.04,16.14,2.52,1.28,5.66,1.75,8.53,1.81,5.58.12,10.46,1.52,14.58,5.42,2.59,2.45,5.4,4.66,9.17,7.88,3.34-17.23,7.78-32.65,20.25-43.78,6.5,3.44,12.66,6.69,18.81,9.95Z"/>
    </g>
  </g>
</svg>