<?xml version="1.0" encoding="UTF-8"?>
<svg id="Ebene_2" data-name="Ebene 2" xmlns="http://www.w3.org/2000/svg" viewBox="0 0 480 106">
  <defs>
    <style>
      .cls-1 {
        fill: #000;
        stroke-width: 0px;
      }
    </style>
  </defs>
  <g id="Ebene_1-2" data-name="Ebene 1">
    <g id="cracked_asphalt_inverted_oben">
      <path class="cls-1" d="M480,84.02c-2.94-2.15-5.94-3.6-9.7-1.84-2.55,1.19-4.56.11-5.88-2.2-1.65-2.88-3.29-5.78-4.74-8.76-1.42-2.91-3.65-3.76-6.01-1.79-7.8,6.51-16.98,6.86-26.42,6.65-5.47-.12-5.86.36-6.04,5.77-.28,8.19-.48,16.39-.71,24.43-3.77-.72-8.62-1.35-13.26-2.7-1.62-.47-2.85-2.61-4.04-4.15-3.04-3.94-5.91-8.01-8.93-11.96-6.12-7.99-7.15-12.75-1.46-20.62,4.67-6.46,4.18-6.23-2.04-11.41-6.21-5.17-11.56-11.34-17.6-16.73-6.18-5.51-12.73-10.61-19.26-16-8.78,10.46-20.11,16.2-30.99,22.44-3.26,1.87-7.48,2.58-11.32,2.83-4.46.28-8.19,1.67-11.13,4.81-3.3,3.52-6.4,7.24-9.36,11.04-5.07,6.52-11.06,9.89-19.52,6.96-4.39-1.53-8.89-2.81-13.42-3.88-5.49-1.3-11.07-2.26-16.61-3.34-2.66-.51-4.77.24-6.63,2.39-2.5,2.87-5.37,5.41-8,8.17-2.43,2.55-4.86,3.3-7.67.56-3.09-3.03-6.05-6.25-9.44-8.92-2.25-1.77-5.06-3.55-7.78-3.85-6.27-.7-12.02-2.53-17.48-5.51-5.17-2.81-10.38-3.45-15.65-.4-2.55,1.47-4.57.93-6.79-.87-5.04-4.09-10.25-7.98-15.43-11.9-5.24-3.96-10.74-6.45-17.61-4.11-1.44.49-3.84-.62-5.32-1.67-8.02-5.67-15.82-11.66-23.87-17.29-2.62-1.84-5.8-2.87-8.66-4.39-.98-.52-1.8-1.36-2.6-2.16-2.47-2.46-5.04-2.14-6.74.91-.24.43-.45.91-.55,1.39-2.17,10.43-9.84,17.14-16.65,24.39-.87.92-2.55,1.14-3.9,1.53-.6.17-1.33,0-1.98-.11-18.87-3.51-13.41-3.43-29.09,7.04-9.97,6.66-19.82,13.48-29.72,20.24C0,46,0,23,0,0c160,0,320,0,480,0,0,28.01,0,56.01,0,84.02Z"/>
    </g>
  </g>
</svg>