<?xml version="1.0" encoding="UTF-8"?>
<svg id="Ebene_2" data-name="Ebene 2" xmlns="http://www.w3.org/2000/svg" viewBox="0 0 152.28 185.16">
  <defs>
    <style>
      .cls-1, .cls-2, .cls-3, .cls-4, .cls-5, .cls-6, .cls-7, .cls-8 {
        stroke-width: 0px;
      }

      .cls-2 {
        fill: #dc8931;
      }

      .cls-3 {
        fill: #3d4043;
      }

      .cls-4 {
        fill: #bd935d;
      }

      .cls-5 {
        fill: #fff;
      }

      .cls-6 {
        fill: #fff7e9;
      }

      .cls-7 {
        fill: #818181;
      }

      .cls-8 {
        fill: #ffe1bb;
      }
    </style>
  </defs>
  <g id="Ebene_1-2" data-name="Ebene 1">
    <g>
      <path class="cls-5" d="m152.14,130.16c-.67-6.16-3.09-7.12-8.92-7.07-5.45-.5-9.44-1.42-13.71-2.81-2.16-.66-4.58-1.27-6.7-2.09-1.15-.42-1.62-1.43-1.75-2.58-1.78-8.62-3.5-20.98-14.07-23.82-1.36-.36-1.93-.8-1.29-2,3.04-5.02,4.78-11.02,4.51-16.71-.03-4.4-1.38-8.81-4.34-11.62-.99-.85-1.32-1.93-.63-3.09,4.88-9.14.39-22.06-7.22-27.81-.8-.65-1.05-1.41-.68-2.43,1.09-2.6,1.56-5.61,1.21-8.43-.91-9.52-11.61-21.71-22.28-19.42-4.07,1.29-3.69,6.42-1.54,9.24,1.22,2.04.88,3.9-1.21,4.63-3.55,1.36-7.4,1.53-11.05,2.42-10.78,2.78-20.11,9.64-21.55,19.12-.75,3.17-2.68,5.97-2.09,9.43.2,1.34-.23,2.29-1.63,2.72-6.83,2.34-12.53,8.59-12.99,16.02-.45,4.15.8,8.27,1.2,12.34-.01,2.08-1.94,3.25-2.78,5-1.71,3.04-1.42,6.86.72,9.49.66.82,1.64,1.49,2,2.49.65,1.69-.12,3.43-1.44,4.5-2.53,3-5.88,4.76-9.04,6.43-2.94,1.62-8,4.48-10.33,5.77-.72.4-1.36.81-1.92,1.44-2.1,1.99-1.52,5.92.93,7.31,3.88,2.34,8.21,3.63,12.25,5.16,5.01,1.69,1.06,2.12-1.26,3.17-3.35,1.41-7.77,3.47-10.72,4.77-.91.39-1.71.79-2.4,1.54-2.41,2.23-1.56,6.12,1.05,7.54,1.97,1.1,3.55,1.52,6.58,2.9,2.64,1.08,4.28,1.91,6.59,2.75,1.9.56,4.82.96,2.47,3.39-2.5,1.79-9.52,5.96-12.27,7.76-.81.48-1.47,1-2.06,1.83-1.47,1.89-1.23,4.68.6,6.24,1.87,1.64,3.84,1.6,5.92,2.27,2.38.63,8,2.05,11.06,2.84,3.2.37,5.65,3.21,8.49,4.69,4.91,2.31,10.11,3.61,16.98,2.42,2.39-.34,4.62-1.91,6.78-2.37,5.02.46,10.06,1.49,15.28.65,5.52-.87,10.86-1.87,16.3-2.7,14.42-1.94,28.89,3.08,41.09,10.79,7.08,4.34,12.56-8.27,15.76-12.58,7.42-11.41,10.97-28.67,10.09-41.36v-.15Z"/>
      <g>
        <path class="cls-1" d="m130.88,180.77c2.38-2.15,4.15-4.85,5.82-7.57,2.32-3.44,4.48-6.98,6.11-10.8,1.93-4.01,3.12-8.3,4.01-12.65,1.31-6.35,2.21-12.86,1.69-19.35-.17-1.19-.09-3.55-1.85-3.23-1.41.43-.64,1.78-.54,2.79.78,9.46-1.21,21.15-4.75,29.94-1.77,4.28-4.06,8.29-6.67,12.11-1.48,2.38-2.99,4.77-5.04,6.71-2.32,1.61-1.29,3.74.52,2.64.23-.14.47-.33.71-.58Z"/>
        <path class="cls-1" d="m147.79,128.27c.39-1.03-.85-2-1.76-1.37-5.7-.35-11.43-1.14-16.83-2.98-3.11-.95-6.29-1.7-9.3-2.93-.89-.33-1.7-.97-2.65-1.11-1.1-.11-1.77,1.03-.94,1.86,3.68,2.34,8.13,3.1,12.24,4.42,4.82,1.65,9.84,2.45,14.9,2.89,1.11,0,2.74.53,3.73-.08.25-.15.46-.38.61-.71Z"/>
        <path class="cls-1" d="m113.39,136.13c2.24-5.28,3.58-11.03,4.29-16.71.08-4.87-1.6-9.6-2.88-14.25-1.4-4.05-3.55-8.56-8.05-9.66-8.02-3.27-18.83,4.53-24.99,9.32-3.99,3.71-9.06,7.75-8.82,13.74-.31,5.11,4.78,8.05,9.32,8.35,4.68.11,10.34-1.75,14.21-4.36,1.39-1.17,2.77-2.53,3.76-4.04.44-1.25-.79-1.9-1.8-1.22-1.51,1.36-2.63,3.18-4.49,4.15-3.86,1.84-7.95,3.48-12.23,3.07-6.2-.91-8.01-5.3-5.2-10.7,1.37-2.23,3.37-3.95,5.21-5.78,5.61-5,12.31-9.5,19.72-10.98,2.32-.26,4.64.56,6.69,1.58,1.86,1.28,2.83,3.49,3.78,5.46.76,1.9,1.29,3.88,1.78,5.71.93,3.69,2.14,7.43,1.46,11.24-.57,3.12-1.3,6.23-2.14,9.28-.45,1.74-1.17,3.39-1.77,5.07-.1.98,1.06,1.54,1.8,1.09.13-.08.25-.2.35-.35Z"/>
        <path class="cls-1" d="m104.92,169.8c7.35-6.01,12.08-14.46,15.17-23.3,2.57-6.77,4.66-18.26,1.21-24.89,0,.01.01.02.02.03-.72-1.02-2.5-.18-2.05,1.07.37.61.6,1.25.78,1.95.98,3.81.73,7.7.27,11.52-.95,7.04-3.85,13.81-7.07,20.06-2,3.22-4.3,6.57-7.01,9.17-1.07,1.24-2.6,2.11-3.5,3.45-.51,1.29.94,1.78,1.87,1.21.12-.07.22-.16.32-.26Z"/>
        <path class="cls-1" d="m121.37,121.7s-.03-.04-.04-.05c.02.03.04.06.06.1,0-.01-.01-.03-.02-.04Z"/>
        <path class="cls-1" d="m114.83,173c8.35-6.91,13.95-17.1,15.95-27.7.99-6.28,1.56-12.85.05-19.08-.14-.87-.68-1.96-1.74-1.6-.59.2-.96.88-.74,1.48.12.33.21.68.26.87,1.82,8.91.47,19.58-3.2,27.83-2.7,6.16-6.67,12.01-11.89,16.27-1.1.65-1.36,1.53-1.11,2.1.25.56.98.81,1.89.26.17-.11.35-.24.53-.41Z"/>
        <path class="cls-1" d="m129.21,180.79c.69-.54.45-1.74-.37-2.01-.49-.17-1.06-.62-1.42-.8-2.3-1.54-4.74-2.83-7.28-3.93-6.2-2.7-12.54-5.39-19.27-6.35-6.62-.83-13.5-.91-20.05.45-.92.24-1.54,1.61-.48,2.11,1.09.5,2.39-.32,3.49-.32,14.63-1.75,24.47.99,37.52,7.26,1.71.72,3.25,1.81,4.83,2.76.88.44,1.9,1.54,2.89.93.05-.03.09-.06.14-.1Z"/>
        <path class="cls-1" d="m81.67,168.92c.44-.76.28-1.7.39-2.54.28-4.07.38-8.43.95-12.38.91-6.56,2.26-13.04,4.52-19.28.93-2.95,1.86-5.92,3.27-8.69,1.4-1.97-1.53-3.51-2-1.22-1.7,3.3-2.76,6.86-3.89,10.38-1.48,4.24-2.63,8.59-3.33,13.03-.79,4.31-1.38,8.65-1.56,13.02-.12,2.19-.25,4.39-.4,6.58-.17,1.03.81,2.03,1.62,1.54.15-.09.3-.24.43-.44Z"/>
        <path class="cls-1" d="m81.35,170.12c.61-.86-.23-2.05-1.21-1.81-5.43.42-10.68,2.17-16.14,2.23-3.52-.04-6.86-.75-10.3-1.33-3.12-.52-6.39-.94-9.17-2.54-.99-.79-2.62-.11-1.94,1.26,3.14,3.04,8.76,3.03,12.87,3.95,6.05,1.37,12.24,1.19,18.25-.29,1.51-.24,3.02-.5,4.54-.72.85-.22,1.98.01,2.73-.45.13-.08.25-.18.35-.3Z"/>
        <path class="cls-1" d="m43.24,167.86c3.44-3.64,5.33-8.43,8-12.62,2.39-4.03,5.51-8.01,6.14-12.78.12-8.28-8.23-11.61-14.96-7.85-4.67,2.15-7.88,6.44-11.29,10.13-2.14-.91-2.71,5.1-3.06,6.49-.93,5.8.83,11.41,5.67,14.95,2.51,1.68,6.25,3.7,9.12,1.94.13-.08.26-.17.39-.27Zm-1.7-1.66c-3.61,1.12-8.18-2.82-9.89-5.8-2.19-3.61-1.59-8.41-.53-12.28,3.58-3.49,6.5-7.85,10.75-10.6,3.24-1.96,7.94-3.34,11.05-.46,1.6,1.73,2.61,4.22,1.87,6.55-1.21,3.91-3.63,7.23-5.72,10.69-1.84,3.2-3.66,6.42-5.61,9.55-.54.85-1.07,1.78-1.93,2.35Z"/>
        <path class="cls-1" d="m52.82,135.25c4.43-2.7,7.46-7.62,7.85-12.8.38-4.17-2.54-7.47-5.88-9.54-1.5-1.26-3.79.08-1.9,1.63,2.9,1.59,5.75,4.24,5.44,7.82-.37,4.59-3.13,8.76-7.01,11.09-1.49,1.03-.17,2.96,1.06,2.21.15-.09.3-.22.44-.4Z"/>
        <path class="cls-1" d="m31.03,145.4c.33-.6.1-1.29-.17-1.87-.42-1.12-.75-2.27-.91-3.46-.51-7.97,4.17-15.55,9.64-20.95,1.4-1.45,3.06-2.59,4.91-3.37.21-.15.48-.24.74-.34.54-.2,1.08-.39,1.2-1,.32-1.22-1.12-1.9-2.06-1.2-9.19,3.93-16.74,15.85-16.85,25.8-.02,1.35,1.03,8.02,3.05,6.78.14-.09.29-.22.45-.39Z"/>
        <path class="cls-1" d="m33.06,125.44c.37-1.13-.7-1.49-1.46-1.88-1.09-.73-2.15-1.6-2.85-2.72-1.43-3.04-1.58-6.64-1.25-9.95.6-6.51,7-10.21,12.74-11.71,1.71-.44,3.46-.81,5.21-1.04.95-.1,2.37-.06,2.55-1.28-.11-2.43-6.08-.29-7.61-.13-6.42,1.53-13.61,5.44-14.95,12.45-.77,3.35-.44,6.84.26,10.17.62,3.08,3.06,5.55,5.87,6.79,0,0,0,0,0,0,.33.14.7.08,1-.1.22-.14.41-.35.5-.6Z"/>
        <path class="cls-1" d="m58.3,113.76c3.43-3.92,2.93-10.08-.03-14.12-.98-1.23-4.25-5.32-5.25-2.29-.08.8.62,1.09,1.17,1.43,1.46,1.12,2.64,2.6,3.35,4.3,1.4,3.27,1.14,8.04-2.14,10.07-.57.22-1.23.24-1.64.74-.46.45-.32,1.2.22,1.52.91.48,1.92.2,2.8-.34.59-.36,1.13-.85,1.53-1.31Z"/>
        <path class="cls-1" d="m25.99,146.52c.16-1.22-.85-2.25-1.02-3.45-1.16-4.12-.68-8.66.51-12.69.46-1.61,1.12-2.81,1.88-4.19.27-1.16-1.31-1.93-2.05-.99-2.38,3.61-3.22,8.41-3.36,12.58-.04,1.99.66,9.49,3.17,9.54.15,0,.28-.04.4-.11.24-.15.4-.42.47-.7Zm.87-19.59c-.19.12-.42.19-.64.18.29,0,.57-.11.79-.3-.04.04-.1.08-.14.11Z"/>
        <path class="cls-1" d="m53.21,170.83c.62-1.18-.82-1.91-1.77-1.35-1.33.76-2.59,1.52-4,2.08-3.68,1.36-7.95.78-11.65-.16-8.02-2.08-11.4-9.98-11.28-17.66.01-1.77.21-3.56.85-5.22.14-.32.33-.62.56-.89.72-.43.7-1.64-.08-2.01-3.21-1.04-3.87,7.23-3.65,9.27.13,7.3,3.43,14.82,10.42,17.87,5.03,1.95,11.16,2.89,16.26.74,1.04-.44,2.13-1.07,3.09-1.62.18-.1.36-.2.54-.31.3-.18.57-.4.72-.74Z"/>
        <path class="cls-1" d="m27.75,125.6c.04-.43-.19-.82-.52-1.09-.93-1.08-1.76-2.25-2.53-3.45-2.77-4.62-3.87-10.59-.34-15.1,1.34-1.77,2.99-3.26,4.74-4.61,1.08-.84.6-2.6-.92-2.11-7.36,4.69-10.78,12.6-6.62,20.74,1.01,2.32,2.45,4.45,4.16,6.32.39.46,1.03.48,1.49.2.3-.18.52-.49.54-.89Z"/>
        <path class="cls-1" d="m31.3,101.89c.38-4.75.21-9.6.31-14.33-.05-.29-.19-.51-.37-.66-.19.12-.38.22-.59.29.01,0,.02,0,.03-.01-.11.04-.23.1-.34.14-.15.05-.3.09-.46.11-.14.02-.28.04-.42.05-.05,0-.1,0-.15,0-.03.11-.04.22-.03.35-.08,3.57-.03,7.12-.17,10.68,0,1.04-.1,2.1-.02,3.14.19.96,1.03,1.33,1.65.95.22-.14.42-.37.55-.72Z"/>
        <path class="cls-1" d="m27.99,101.95c.96-.99,2.35-1.62,3.02-2.86.87-1.69-1.66-2.78-2.15-.94-.94.98-2.23,1.63-3.02,2.76-.72,1.49.57,2.2,1.61,1.56.2-.12.38-.29.55-.51Z"/>
        <path class="cls-1" d="m24.21,123.19c.28-.17.41-.5.39-.81-.03-.53-.4-.99-.84-1.24-.38-.21-.76-.43-1.14-.64-.7-.39-1.41-.79-2.11-1.19-.28-.16-.56-.32-.87-.44-.44-.18-.9-.33-1.35-.5-.96-.35-1.92-.71-2.88-1.06-1.16-.42-2.32-.85-3.48-1.28-.45-.17-.91-.32-1.35-.51-.72-.32-1.43-.68-2.13-1.03,1.08-.6,2.15-1.2,3.23-1.8,2.16-1.2,4.31-2.41,6.47-3.61,1.42-.79,2.83-1.6,4.26-2.37.56-.31.83-.97.54-1.57-.27-.55-1.01-.84-1.57-.54-2.41,1.32-4.81,2.68-7.21,4.02-2.13,1.19-4.25,2.37-6.38,3.56-.7.39-1.4.78-2.1,1.17-.06.03-.12.06-.17.1-.39.22-.68.55-.72,1.02-.03.43.18.85.54,1.09.1.07.21.12.32.17.48.23.96.46,1.43.69.47.22.93.45,1.4.68.48.23.95.47,1.44.67.44.18.89.33,1.34.5,1.18.43,2.36.86,3.54,1.3.67.25,1.35.5,2.02.74.66.24,1.33.47,1.99.73.43.19.83.45,1.24.68.35.19.69.39,1.04.58.34.19.67.38,1.01.57.21.12.41.24.62.35.46.23,1.03.23,1.48-.03,0,0,.01,0,.02,0Z"/>
        <path class="cls-1" d="m21.53,112.89c-.03-.62-.6-1.16-1.23-1.1-.51.04-1.03.12-1.54.18-.73.08-1.46.17-2.19.25-1.31.15-2.62.3-3.93.45-1.08.12-2.16.25-3.24.37-.49.06-.99.11-1.48.17-.2.02-.41.04-.61.07-.27.04-.54.19-.75.36-.27.22-.53.64-.44,1.01.09.35.32.59.64.76.2.11.45.18.67.18.22,0,.44-.03.66-.05.49-.06.97-.11,1.45-.17,1.09-.12,2.18-.25,3.27-.38,1.29-.15,2.59-.3,3.89-.45.73-.08,1.46-.17,2.19-.25.5-.06,1.01-.13,1.51-.17,0,0,.02,0,.03,0,.05,0,.11-.01.16-.02.14-.02.27-.07.39-.14.36-.22.59-.65.57-1.07Z"/>
        <path class="cls-1" d="m23.9,143.93c.28-.38.23-.86-.06-1.22-.16-.2-.35-.37-.59-.48-.17-.08-.34-.12-.52-.16-.17-.04-.34-.08-.51-.12-.42-.1-.85-.2-1.27-.29-.95-.22-1.9-.43-2.86-.66-.14-.04-.28-.07-.42-.12-3.14-1.31-6.27-2.67-9.4-4.01-.25-.11-.5-.21-.75-.32,1.06-.47,2.12-.95,3.18-1.42,1.98-.88,3.95-1.78,5.93-2.65.45-.2.92-.35,1.38-.52.48-.17.96-.34,1.43-.51,1.03-.36,2.05-.73,3.08-1.09.61-.22,1.21-.44,1.83-.65.6-.21.9-.93.67-1.51-.23-.61-.91-.88-1.51-.67-1.57.54-3.14,1.11-4.7,1.67-.48.17-.95.34-1.43.51-.46.16-.93.31-1.38.5-1,.41-1.98.88-2.97,1.32-2.58,1.15-5.15,2.31-7.73,3.46-.32.14-.65.29-.97.43-.28.12-.52.27-.69.53-.32.51-.19,1.15.25,1.54.18.17.44.25.66.34,1.67.72,3.34,1.42,5.02,2.14,1.52.65,3.04,1.3,4.56,1.95.55.23,1.1.47,1.65.7.23.1.46.19.68.29.37.16.73.28.97.33,1.19.29,2.39.55,3.58.83.48.11.97.25,1.46.33.35.06.77,0,1.09-.2.12-.07.23-.17.31-.28Z"/>
        <path class="cls-1" d="m24.03,137.08c.28-.19.5-.52.5-.86,0-.4-.29-.71-.6-.91-.34-.22-.73-.24-1.12-.24-.48,0-.95.01-1.43.02-1.62.03-3.24.05-4.85.08-3.44.05-6.88.09-10.32.17-.64.01-1.17.54-1.16,1.18,0,.63.54,1.17,1.18,1.16,3.44-.07,6.88-.11,10.32-.17,1.62-.03,3.24-.05,4.85-.08.48,0,.95-.01,1.43-.02.09,0,.19,0,.28,0,.3,0,.58-.1.83-.26.03-.02.07-.04.1-.06Z"/>
        <path class="cls-1" d="m27.43,167.71c.31-.37.2-.85-.05-1.21-.4-.58-1.13-.67-1.76-.83-.88-.23-1.77-.46-2.65-.68-2.38-.61-4.77-1.23-7.15-1.84-1.55-.4-3.1-.8-4.65-1.2-.27-.07-.54-.14-.81-.21,1.05-.66,2.09-1.31,3.14-1.96,2.68-1.68,5.36-3.36,8.04-5.03.64-.4,1.27-.8,1.91-1.2.54-.33.76-1.03.44-1.6-.31-.54-1.05-.77-1.6-.44-1.36.84-2.71,1.7-4.07,2.55-1.33.83-2.65,1.66-3.98,2.49-1.98,1.24-3.96,2.48-5.94,3.72-.37.23-.74.46-1.11.69-.04.02-.07.05-.11.07-.18.11-.36.22-.49.39-.32.44-.37,1.04-.02,1.48.25.32.6.44.97.53,1.55.39,3.1.8,4.64,1.2,2.67.69,5.35,1.37,8.03,2.06,1.05.27,2.1.54,3.14.81.41.1.83.21,1.24.32.23.06.46.12.69.18.26.07.53.17.8.19.36.03.73-.03,1.03-.21.11-.07.22-.16.31-.26Z"/>
        <path class="cls-1" d="m24.69,160.32c.09-.12.16-.27.19-.42.03-.14.03-.27-.01-.41,0-.01,0-.02,0-.03-.02-.08-.05-.13-.1-.2-.18-.32-.55-.5-.89-.59-.35-.09-.72-.01-1.06.04-.44.06-.88.12-1.33.18-1.04.14-2.08.28-3.12.42-1.56.21-3.11.42-4.67.63-.95.13-1.9.25-2.84.38-.62.08-1.24.15-1.86.25-.63.1-1.05.75-.94,1.36.12.64.73,1.04,1.36.94.68-.11,1.38-.18,2.06-.28,1.02-.14,2.05-.27,3.07-.41,1.57-.21,3.15-.42,4.73-.63,1.01-.14,2.02-.27,3.03-.41.43-.06.87-.12,1.3-.17.22-.03.42-.1.61-.22.18-.11.34-.25.47-.42Z"/>
        <path class="cls-1" d="m31,169.86c.04-.68-.44-1.22-1-1.54-.76-.5-1.54-1.12-2.15-1.75-.18-.2-.36-.38-.51-.61-.8-1.22-2.66-.13-2.03,1.15.89,1.38,2.27,2.42,3.63,3.32.44.33,1.17.41,1.64.12.23-.14.39-.37.42-.69Z"/>
        <path class="cls-1" d="m99.21,96.31c.48-.44.55-1.11.74-1.7.54-1.75,1-3.56,1.77-5.22,1.49-1.67-1.63-3.81-2.68.35-.61,1.78-1.21,3.58-1.67,5.41-.18.99.74,1.88,1.58,1.36.08-.05.17-.12.25-.2Z"/>
        <path class="cls-1" d="m69.88,60.89c.3-1.15-.94-1.55-1.86-1.45-1.15-.02-2.29-.17-3.43-.36-3.91-.72-8.06-.96-11.73-2.6-.77-.37-1.45-.9-2.12-1.37.4.42.76.85,1.18,1.22,3.5,2.89,8.23,3.7,12.53,4.8,1.35.33,2.73.48,4.12.53.29.07.59.02.83-.13.23-.14.42-.37.49-.64Z"/>
        <path class="cls-1" d="m66.47,84.81c.11-.81-.56-1.32-1.28-1.38-1.89-.4-3.73-.96-5.6-1.44-6.48-1.7-13.54-2.28-19.21-6.13-.84-.58-1.63-1.22-2.42-1.87.09.14.24.29.36.43,4.45,5.47,11.5,7.4,18.03,9.15,2.83.7,5.69,1.56,8.52,2.17.36.13.75.08,1.06-.11.29-.18.5-.47.55-.83Z"/>
        <path class="cls-1" d="m102.2,88.54c3.1-4.57,4.82-10.51,4.36-16-.06-4.74-1.94-8.47-6.25-10.69-5.02-2.59-11.6-1.96-17.05-1.54-.91.11-1.81.23-2.72.29-1.15.24-2.94-.36-3.61.85-.42.95.54,1.87,1.49,1.6,2.68-.06,5.46-.52,8.1-.68,6.11-.25,14.31-.47,17.01,6.14,1.23,4.32.99,9.07-.61,13.27-1.35,4.3-3.56,7.72-8.32,8.45-10.48,1.94-15.04-6.69-22.11,6.37-.85,1.23-2.06,5.13-3.99,4.14-1.02-.45-1.52-1.31-1.84-2.33-1.24-2.46-1.38-5.61-3.46-7.56-3.48-3.13-8.1-.3-9.44,3.56-1.96,4.56-1.32,9.62-1.76,14.46-.33,2.22.37,5.13-1.67,6.65-.67.55-1.52.03-2.13-.37-1.62-1.02-2.05-3.06-1.95-4.86.33-5.27,4.02-10.36,2.39-15.68-1.4-4.84-5.9-9.05-10.99-9.54-2.12-.09-4.03.74-5.95,1.51-.05.08-.13.14-.21.19-.02.01-.04.02-.06.03-.01,0-.03.01-.04.02-.03.02-.06.03-.08.05-.21.13-.41.25-.65.33.01,0,.02,0,.03-.01-.11.04-.23.1-.34.14-.15.05-.3.09-.46.11-.14.02-.28.04-.42.05-.09.01-.19,0-.28.01-.13.02-.27,0-.41-.06-1.28-.11-1.66-1.65-1.16-3.02.43-1.1,1.44-1.82,2.16-2.73,1.57-1.96,2.03-4.6,1.53-7.02-1.05-5.71-2.81-12.38,1.68-17.04,2.96-3.31,7.73-5.66,12.18-4.57,1.45.77,2.56-1.41,1.08-2.09-7.4-2.29-16.3,3.53-18.12,10.87-.66,2.78-.41,5.7-.01,8.5.37,2.74,1.58,5.45.74,8.17-.58,2.03-2.69,3.05-3.4,5-1.26,2.78.58,6.93,4.03,6.17,3.06-.42,5.77-2.84,8.99-2.21,4.97,1.43,9.43,6.73,7.97,12.08-.78,4.04-2.81,7.92-2.51,12.12.11,5.06,6.66,9.38,9.53,3.64.89-1.93.64-4.15.86-6.22.41-4.26-.14-8.85,1.26-12.9,1.17-4.53,6.09-6.52,7.43-.91.91,2.15,1.3,4.76,2.93,6.5,1.25,1.13,3.11,1.98,4.74,1.13,2.66-1.73,3.47-5.09,5.25-7.57,1.35-1.89,3.24-4.06,5.78-3.91,2.55.3,4.7,1.04,7.18,1.31,3.58.38,7.55-.04,10.64-1.93.99-.61,1.89-1.36,2.66-2.3Z"/>
        <path class="cls-1" d="m46.45,99.57s0-.04.01-.06c0,.02-.01.05-.01.07,0,0,0,0,0,0Z"/>
        <path class="cls-1" d="m46.47,99.48s0-.02,0-.02c0,.01,0,.03,0,.04,0,0,0-.01,0-.02Z"/>
        <path class="cls-1" d="m69.82,130.71c3.67-3.24,2.23-8.76,1.17-12.89-.36-1.45-.73-2.9-1.37-4.25-.13-1.96-2.01-2.77-3.57-1.54-2.71,1.95-3.15,7.69-3.84,10.81-1.17,4.64,2.37,11.07,7.56,7.89.02-.01.03-.02.05-.03Zm-1.01-11.97c.73,3.29,2.18,7.45-.47,10.16-1.64,1.07-3.34-.56-3.72-2.15-.44-1.35-.26-2.78,0-4.15.55-2.4.99-6.89,2.64-8.54.78,1.46,1.14,3.09,1.54,4.69Z"/>
        <path class="cls-1" d="m64.08,119.96c.79-.56.51-1.82-.38-2.11-.5-.19-1.02-.33-1.53-.46-.96-.24-1.93-.43-2.89-.67-.62-.15-1.27.18-1.44.81-.17.6.19,1.29.81,1.44,1.32.33,2.67.55,3.96.97.36.34.97.34,1.37.09.03-.02.07-.04.1-.07Zm-.88-2.08s.03,0,.05,0c-.17.02-.33.07-.47.15,0,0,.01,0,.02-.01.12-.08.26-.11.4-.14Z"/>
        <path class="cls-1" d="m74.3,119.28c.32-1.07-.96-1.87-1.84-1.3-.98.15-2.35-.17-2.43,1.24,0,1.08,1.14,1.29,1.99,1.16.55-.05,1.22-.09,1.71-.39.25-.16.46-.38.56-.71Z"/>
        <path class="cls-1" d="m47.05,51.5c-1.26-2.93-3.03-6.11-2.15-9.39,1.22-3.33,4.77-5.64,8.26-5.65,1.28-.02,2.74-.31,3.92.25,1.54.82,2.51-1.53.97-2.21-2.32-.78-4.78-.42-7.08-.14-3.96.78-7.59,3.93-8.53,7.9-.57,3.59.99,6.97,2.44,10.13.33.78,1.15.86,1.7.52.43-.27.71-.78.46-1.41Z"/>
        <path class="cls-1" d="m98.99,60.36c8.75-6.7,4.11-22.88-4.5-27.76-1.26-.67-6.25-3.13-6.63-.81-.14,1.04.87,1.38,1.71,1.43,1.53.36,3.06.88,4.34,1.8,3.91,2.56,6.22,7.03,7.03,11.54,1.21,5.33-.39,11.76-6.19,13.42-1.27.14-1.57,1.38-.84,1.98.57.48,1.78.57,3.67-.59.44-.27.91-.6,1.41-1.01Z"/>
        <path class="cls-1" d="m85.61,5.96c-1.8-1.53-10.94-4.89-8.74.39.83,1.29,1.88,2.5,2.14,4.07.6,4.24-1.02,6.3-5,7.51-3.92,1.26-8.06,1.46-12.02,2.52-7.18,2.25-15,6.69-17.24,14.34-.15.66-.24,1.33-.36,2-.19,1.5,2.07,1.84,2.32.32.21-1.22.37-2.48.96-3.59,2.49-4.67,7.07-7.82,11.9-9.72,6.47-3.07,15.1-1.39,20.41-6.78,2.23-3.31,1.94-8.04-.58-11.11,6.5,1.27,11.54,7.25,13.19,13.44.97,4.76-1.66,10.11-6.2,11.93-1.92.96-3.9,1.79-5.96,2.41-.81.33-2.07.09-2.22,1.25-.04,2.05,2.45,1.21,3.62.75,2.65-.85,5.22-2,7.62-3.42,10.17-7.44,5.21-20.34-3.83-26.32Z"/>
        <path class="cls-1" d="m46.43,39.19c.16-.93.55-1.88.49-2.82.34-1.48-1.82-2.07-2.26-.61-.28.92-.42,1.87-.52,2.83-.09.46-.05.92.29,1.28.39.43,1,.44,1.45.16.29-.18.51-.47.55-.84Z"/>
        <path class="cls-1" d="m35.14,87.24c.15-.62-.18-1.27-.81-1.44-.46-.14-.87.1-1.28.25-1.05.46-2.2.61-3.28.97-.5.05-1.02.09-1.52.02-.14-.1-.28-.21-.37-.36-.37-.52-1.14-.6-1.64-.23-1.39,1.25.74,2.96,2.06,2.95,1.49.13,2.89-.38,4.32-.74.38-.1.75-.2,1.11-.36.29-.13.62-.23.89-.4.24-.15.44-.35.52-.67Z"/>
        <path class="cls-1" d="m78.97,138.13c.83-2.08-2.14-2.85-2.25-.64-1.37,8.02-2.87,16.35-1.55,24.44.09-8.09,2.44-15.89,3.8-23.8Z"/>
        <path class="cls-1" d="m74.15,136.82c.28-1.35-1.68-2.09-2.25-.77-.8,4.61-1.55,9.27-1.82,13.95-.26,4.17-.03,8.41.9,12.47-.48-8.68,1.78-17.15,3.17-25.65Z"/>
        <path class="cls-1" d="m77.15,152c-.29.08-.28.12.02.05,0,0,0,0,0,0,.02-.01,0-.06-.03-.05Z"/>
        <path class="cls-1" d="m79.8,152.43c.75-3.84-6.91,2.86-15.39-.31,2.99,1.92,6.67,2.45,10.17,1.92,1.2-.25,3.47-.4,4.68-1.14.22-.13.4-.29.54-.47Z"/>
        <path class="cls-1" d="m79.92,144.36c-.88.21-1.69.78-2.59,1-2.96,1.03-6.11,1.57-9.23,1.35-1.82-.13-3.62-.62-5.25-1.35,5.03,3.7,12.52,3.67,17.89.77.57-.68.07-1.78-.82-1.77Z"/>
        <path class="cls-4" d="m79.62,167.83c.15-2.19.28-4.38.4-6.58.18-4.38.77-8.72,1.56-13.02.7-4.44,1.86-8.79,3.33-13.03.97-3.04,1.89-6.11,3.22-9.01-2,.51-4.02.77-5.88.73-4.01-.27-8.46-2.6-9.22-6.67-.34.08-.7.1-1.01.13-.13.02-.26.03-.4.03.79,3.64,1.13,7.7-1.8,10.3-5.21,3.25-8.79-3.21-7.61-7.86.18-.8.34-1.77.53-2.81-.05-.03-.09-.06-.13-.1-.75-.24-1.51-.42-2.27-.59.3.97.43,2,.33,3.09-.37,4.86-3.05,9.48-7.02,12.26,2.27,1.56,3.78,4.2,3.73,7.76-.62,4.76-3.75,8.75-6.14,12.78-2.36,3.7-4.11,7.88-6.87,11.31.06.03.12.07.17.12,2.78,1.61,6.05,2.02,9.17,2.54,3.43.58,6.77,1.29,10.3,1.33,5.29-.06,10.37-1.7,15.62-2.19-.03-.17-.04-.34,0-.52Zm-4.45-5.91c-.43-2.62-.56-5.26-.5-7.91-.03,0-.06.01-.09.02-1.11.17-2.23.23-3.34.18-.29,2.73-.41,5.48-.26,8.25-.63-2.73-.94-5.54-1-8.36-1.97-.26-3.88-.9-5.57-1.98,1.93.72,3.81.93,5.57.87,0-1,.04-2,.1-2.99.04-.63.08-1.25.13-1.88-2.66-.29-5.23-1.19-7.35-2.76,1.63.74,3.43,1.23,5.25,1.35.74.05,1.49.06,2.23.03.36-3.59.95-7.16,1.56-10.7.58-1.31,2.53-.58,2.25.77-.53,3.25-1.19,6.49-1.77,9.75,1.01-.13,2.01-.34,2.99-.6.38-2.85.88-5.69,1.36-8.48.11-2.21,3.08-1.43,2.25.64-.41,2.4-.92,4.78-1.42,7.17.82-.25,1.56-.75,2.37-.94.89-.01,1.39,1.09.82,1.77-1.14.62-2.38,1.1-3.67,1.45-.29,1.41-.58,2.83-.83,4.25,2.47-.71,3.9-1.16,3.55.6-.65.86-2.44,1.16-3.89,1.38-.42,2.68-.71,5.38-.74,8.11Z"/>
        <path class="cls-4" d="m75.11,148c-1,.16-2.01.23-3.03.23-.26,1.55-.5,3.1-.69,4.66,1.21-.14,2.34-.38,3.35-.64.08-1.41.21-2.83.37-4.24Z"/>
        <path class="cls-4" d="m81.76,104.82c3.94-3.07,9.8-7.37,15.61-9.21-.02-.15-.02-.3,0-.47.31-1.26.7-2.5,1.1-3.74-2.91,1.4-6.4,1.69-9.58,1.35-2.47-.27-4.62-1.01-7.18-1.31-2.54-.15-4.43,2.02-5.78,3.91-1.78,2.47-2.59,5.84-5.25,7.57-1.63.85-3.49,0-4.74-1.13-1.63-1.74-2.02-4.35-2.93-6.5-1.34-5.62-6.26-3.62-7.43.91-.06.18-.12.35-.17.53,1.14.77,2.32,2.24,2.85,2.9,2.96,4.04,3.45,10.2.03,14.12-.29.33-.65.68-1.06.99.65.59,1.23,1.24,1.74,1.93.1,0,.2.01.3.04.96.24,1.93.43,2.89.67.35.09.7.18,1.05.29.54-2.32,1.34-4.56,2.84-5.64,1.56-1.23,3.44-.42,3.57,1.54.63,1.35,1.01,2.81,1.37,4.25.02.09.05.18.07.28.44-.08.96-.05,1.39-.12.15-.1.31-.16.48-.18.2-5.58,5.01-9.43,8.82-12.98Z"/>
        <path class="cls-4" d="m38.48,87.49c-1.41-.27-2.72.03-4,.5-.24.12-.51.21-.75.32-.21.09-.42.17-.63.23,0,0,0,0,0,0-.5.21-1,.42-1.51.6-.04,3.8.03,7.67-.2,11.48,2.69-1.89,5.93-3.17,9-3.9,1.06-.11,4.26-1.18,6.15-1.01-.84-3.85-4.3-7.14-8.06-8.23Z"/>
        <path class="cls-8" d="m44.2,113.31c-.15-.52-.24-1.07-.25-1.62-.3-4.2,1.72-8.07,2.51-12.12,0,0,0,0,0,0,0-.02,0-.05.01-.07,0,.02,0,.04-.01.06.14-.53.23-1.05.26-1.58-.43.09-.89.11-1.27.15-1.76.23-3.5.59-5.21,1.04-5.74,1.5-12.14,5.21-12.74,11.71-.32,3.31-.18,6.9,1.25,9.95.71,1.12,1.76,1.99,2.85,2.72.28.14.6.28.87.45,3.02-4.71,7.16-8.69,11.73-10.7Z"/>
        <path class="cls-8" d="m51.32,133.44c3.88-2.34,6.63-6.5,7.01-11.09.25-2.85-1.51-5.12-3.71-6.72-.22-.03-.44-.11-.66-.22-.16-.1-.28-.23-.37-.38-.04.1-.08.2-.13.3-2.09,4.19-6.16,3.02-8.24.1-.26.1-.52.19-.73.33-1.85.78-3.51,1.93-4.91,3.37-5.46,5.4-10.14,12.98-9.64,20.95.16,1.18.49,2.34.91,3.46.16.35.31.74.32,1.12,3.39-3.67,6.58-7.92,11.22-10.05,2.9-1.62,6.1-1.92,8.79-1.08.04-.03.08-.06.12-.09Z"/>
        <path class="cls-8" d="m57.53,103.07c-.6-1.43-1.52-2.7-2.67-3.73-.45,3.2-.22,6.58-.53,9.77-.12,1.12-.1,2.28-.2,3.42.22.08.45.21.65.38.15.1.31.19.46.29.05-.02.1-.03.15-.05,3.28-2.03,3.54-6.8,2.14-10.07Z"/>
        <path class="cls-8" d="m43.45,163.88c1.96-3.14,3.78-6.37,5.63-9.58,2.09-3.45,4.5-6.78,5.72-10.69.75-2.33-.27-4.82-1.87-6.55-3.11-2.88-7.82-1.5-11.05.46-4.26,2.76-7.17,7.12-10.75,10.6-1.06,3.87-1.66,8.66.53,12.28,1.71,2.98,6.28,6.91,9.89,5.8.85-.56,1.37-1.47,1.91-2.32Z"/>
        <path class="cls-8" d="m106.24,165.4c2.71-2.6,5.01-5.95,7.01-9.17,3.22-6.24,6.12-13.02,7.07-20.05.46-3.82.71-7.7-.27-11.51-.11-.43-.23-.84-.41-1.23-.82-.33-1.62-.69-2.39-1.12-.77,4.73-2.01,9.43-3.87,13.82-.61.99-2.27.42-2.15-.74.6-1.67,1.32-3.33,1.77-5.07.84-3.05,1.57-6.17,2.14-9.28.68-3.81-.53-7.55-1.46-11.24-.48-1.83-1.01-3.81-1.78-5.71-.96-1.97-1.93-4.18-3.78-5.46-2.05-1.01-4.38-1.84-6.69-1.58-7.41,1.48-14.11,5.99-19.72,10.98-1.83,1.83-3.84,3.54-5.21,5.78-2.82,5.4-1,9.79,5.2,10.7,4.28.41,8.37-1.23,12.23-3.07,1.85-.97,2.98-2.79,4.49-4.15,1-.68,2.23-.03,1.8,1.22-.99,1.51-2.37,2.87-3.76,4.04-1.54,1.04-3.37,1.96-5.31,2.69-.04.25-.16.52-.35.8-1.42,2.77-2.34,5.73-3.27,8.69-2.26,6.23-3.61,12.72-4.52,19.28-.57,3.95-.68,8.31-.95,12.38-.07.5-.04,1.03-.09,1.54,6.2-1.12,12.66-1.01,18.89-.23.82.12,1.64.26,2.46.43.89-.96,2.06-1.72,2.92-2.72Z"/>
        <path class="cls-6" d="m102.93,81.78c1.59-4.2,1.84-8.95.61-13.27-2.7-6.61-10.9-6.4-17.01-6.14-2.64.16-5.42.61-8.1.68-.95.27-1.91-.64-1.49-1.6.67-1.21,2.46-.61,3.61-.85.91-.07,1.81-.19,2.72-.29,3.43-.26,7.3-.61,10.95-.19.15-.07.33-.12.54-.14,5.79-1.66,7.4-8.09,6.19-13.42-.81-4.51-3.13-8.99-7.03-11.54-1.28-.92-2.82-1.44-4.34-1.8-.42-.02-.87-.11-1.2-.33-2.09,1.14-4.29,2.08-6.55,2.81-1.17.45-3.66,1.29-3.62-.75.15-1.16,1.41-.91,2.22-1.25,2.06-.62,4.04-1.45,5.96-2.41,4.54-1.82,7.17-7.17,6.2-11.93-1.66-6.19-6.7-12.17-13.19-13.44,2.52,3.07,2.81,7.8.58,11.11-5.31,5.39-13.94,3.71-20.41,6.78-4.82,1.9-9.41,5.05-11.89,9.72-.39.72-.59,1.5-.74,2.3.01.07.02.14.02.22,1.22-.82,2.6-1.4,4.01-1.68,2.31-.28,4.76-.65,7.08.14,1.53.69.57,3.04-.97,2.21-1.18-.56-2.64-.27-3.92-.25-3.49.01-7.03,2.32-8.26,5.65-.88,3.29.89,6.46,2.15,9.39.26.67-.06,1.21-.55,1.46h0c-.33.28-.8.38-1.32.1-4.45-1.09-9.22,1.26-12.18,4.57-4.49,4.66-2.73,11.33-1.68,17.04.5,2.43.04,5.06-1.53,7.02-.71.91-1.73,1.62-2.16,2.73-.24.67-.28,1.38-.1,1.94.14.08.26.18.36.32.1.15.23.25.37.36.49.07,1.02.03,1.52-.02.84-.28,1.72-.43,2.57-.7,1.71-.69,3.44-1.33,5.32-1.26,5.09.49,9.59,4.7,10.99,9.54,1.62,5.32-2.07,10.41-2.39,15.68-.1,1.8.33,3.83,1.95,4.86.61.41,1.46.92,2.13.37,2.05-1.52,1.34-4.43,1.67-6.65.44-4.83-.2-9.9,1.76-14.46,1.33-3.85,5.95-6.68,9.44-3.56,2.08,1.94,2.23,5.09,3.46,7.56.32,1.02.82,1.89,1.84,2.33,1.92.98,3.14-2.91,3.99-4.14,7.07-13.06,11.63-4.43,22.11-6.37,1.35-.21,2.5-.63,3.48-1.23,2.47-1.51,3.87-4.14,4.84-7.22Zm-62.55-5.91c5.67,3.85,12.73,4.43,19.21,6.13,1.87.48,3.72,1.03,5.6,1.43.72.05,1.39.56,1.28,1.38-.1.75-.91,1.2-1.6.94-2.83-.61-5.69-1.47-8.52-2.17-6.53-1.75-13.58-3.68-18.03-9.15-.11-.14-.27-.29-.36-.43.79.65,1.58,1.29,2.42,1.87Zm12.48-19.38c3.66,1.64,7.81,1.88,11.73,2.6,1.14.19,2.28.34,3.43.36.92-.1,2.16.3,1.86,1.45-.15.56-.76.92-1.32.78-1.39-.05-2.77-.2-4.12-.53-4.3-1.09-9.03-1.91-12.53-4.8-.41-.37-.78-.81-1.18-1.22.67.47,1.35,1,2.12,1.37Z"/>
        <path class="cls-6" d="m68.34,128.89c2.65-2.7,1.2-6.87.47-10.16-.4-1.59-.77-3.22-1.54-4.69-1.65,1.65-2.09,6.14-2.64,8.54-.26,1.37-.44,2.8,0,4.15.38,1.57,2.04,3.18,3.66,2.19.02-.01.04-.02.06-.04Z"/>
        <path class="cls-7" d="m42.83,168.14c-2.87,1.74-6.6-.28-9.1-1.95-4.84-3.54-6.6-9.15-5.67-14.95.23-.93.57-3.96,1.41-5.56-1.29-1.15-1.95-5.59-1.93-6.66.05-4.23,1.44-8.83,3.74-13.01-2.69-1.28-4.98-3.69-5.59-6.66-.7-3.33-1.03-6.82-.26-10.17.53-2.77,1.98-5.06,3.93-6.91-.12-.17-.21-.37-.25-.61,0-.11-.02-.21-.02-.31-1.74,1.36-3.4,2.84-4.73,4.61-3.53,4.51-2.43,10.48.34,15.1.77,1.2,1.6,2.37,2.53,3.45.32.27.56.66.52,1.09-.02.4-.24.71-.54.89-.69,1.26-1.29,2.4-1.72,3.9-.51,1.74-.89,3.57-1.07,5.42.07.13.11.26.11.42,0,.2-.07.39-.19.56-.12,2.13.06,4.27.63,6.3.13.91.74,1.73.96,2.6.67.42.66,1.55-.03,1.95-.22.27-.41.57-.56.89-.64,1.66-.84,3.45-.85,5.22-.09,5.48,1.61,11.07,5.5,14.58,0,0,0,0,0,0,.25.14.49.34.67.56,0,0,0,0,0,0,1.43,1.13,3.13,2,5.11,2.51,3.7.94,7.97,1.52,11.65.16.58-.23,1.13-.49,1.67-.78-2.36-.47-4.62-1.18-6.28-2.65Z"/>
        <path class="cls-7" d="m20.81,107.61c-.89.5-1.78,1-2.66,1.49-2.16,1.2-4.31,2.4-6.47,3.61-.06.03-.12.06-.17.1.37-.04.75-.09,1.12-.13,1.31-.15,2.62-.3,3.93-.45.73-.08,1.46-.17,2.19-.25.35-.04.7-.09,1.05-.13.11-1.46.46-2.88,1.01-4.23Z"/>
        <path class="cls-7" d="m23.1,130.16c-.19.07-.37.13-.56.2-1.03.36-2.05.73-3.08,1.09-.48.17-.96.34-1.43.51-.46.16-.93.32-1.38.52-1.98.87-3.95,1.77-5.93,2.65-.1.05-.2.09-.3.14,2.04-.03,4.08-.06,6.12-.09,1.62-.02,3.24-.05,4.85-.08.26,0,.51,0,.77-.01.18-1.64.48-3.31.95-4.92Z"/>
        <path class="cls-7" d="m22.18,154.89c-.02-.15-.03-.32-.03-.53-.21.13-.41.26-.62.39-2.68,1.68-5.36,3.35-8.04,5.03-.12.07-.23.15-.35.22.18-.03.37-.05.55-.07,1.56-.21,3.11-.42,4.67-.63,1.04-.14,2.08-.28,3.12-.42.35-.05.71-.1,1.07-.14-.22-1.27-.34-2.57-.37-3.85Z"/>
        <path class="cls-3" d="m23.07,161.03c-.25.03-.5.07-.76.1-1.01.14-2.02.27-3.03.41-1.57.21-3.15.42-4.73.63-.56.07-1.11.15-1.67.22.98.25,1.96.5,2.94.76,2.38.61,4.77,1.23,7.15,1.84.63.16,1.25.32,1.88.48-.76-1.39-1.35-2.89-1.78-4.44Z"/>
        <path class="cls-3" d="m21.96,137.79c0-.12,0-.24.01-.36-.19,0-.38,0-.57,0-1.62.03-3.24.05-4.85.08-2.18.03-4.37.06-6.55.1,2.56,1.09,5.11,2.2,7.67,3.27.14.05.28.08.42.12.95.23,1.9.44,2.86.66.42.1.85.2,1.27.29.04,0,.08.02.12.03-.29-1.72-.39-3.39-.38-4.19Z"/>
        <path class="cls-3" d="m19.82,114.19c-.31.04-.63.08-.94.11-.73.08-1.46.17-2.19.25-1.29.15-2.59.3-3.89.45-.9.1-1.79.21-2.69.31.16.07.31.15.47.22.45.18.9.34,1.36.5,1.16.43,2.32.85,3.48,1.28.96.35,1.92.71,2.88,1.06.45.16.91.32,1.35.5.3.12.58.28.87.44.33.19.66.37.98.56-.96-1.92-1.51-3.82-1.68-5.67Z"/>
        <path class="cls-2" d="m113.51,171.05c5.22-4.25,9.19-10.1,11.89-16.27,3.67-8.25,5.02-18.92,3.2-27.83-.05-.19-.14-.53-.26-.86-1.96-.62-3.99-1.12-5.98-1.73,1.85,6.73-.03,16.22-2.27,22.13-2.92,8.36-7.31,16.36-13.98,22.29,2.44.65,4.83,1.48,7.19,2.4.07-.04.14-.09.21-.13Z"/>
        <path class="cls-2" d="m129.65,178.72c2.05-1.94,3.56-4.33,5.04-6.7,2.62-3.82,4.9-7.83,6.67-12.11,3.55-8.79,5.53-20.48,4.75-29.94-.02-.22-.08-.46-.13-.7-.85.02-1.8-.21-2.54-.21-4.22-.37-8.4-.98-12.47-2.13,1.31,6.03.75,12.33-.21,18.38-1.92,10.2-7.16,20.01-14.99,26.89,1.46.6,2.91,1.23,4.35,1.86,2.54,1.1,4.98,2.39,7.28,3.93.35.18.93.63,1.42.8.16.05.3.14.42.25.12-.11.26-.21.41-.32Z"/>
      </g>
    </g>
  </g>
</svg>