<?xml version="1.0" encoding="UTF-8"?>
<svg id="Ebene_2" data-name="Ebene 2" xmlns="http://www.w3.org/2000/svg" viewBox="0 0 157.61 241.39">
  <defs>
    <style>
      .cls-1 {
        fill: #6b5c8c;
      }

      .cls-1, .cls-2, .cls-3, .cls-4, .cls-5, .cls-6, .cls-7, .cls-8, .cls-9 {
        stroke-width: 0px;
      }

      .cls-2 {
        fill: #875271;
      }

      .cls-4 {
        fill: #fff0d2;
      }

      .cls-5 {
        fill: #fff;
      }

      .cls-6 {
        fill: #ffe100;
      }

      .cls-7 {
        fill: #ffe1bb;
      }

      .cls-8 {
        fill: #ca8d7c;
      }

      .cls-9 {
        fill: #595368;
      }
    </style>
  </defs>
  <g id="Ebene_1-2" data-name="Ebene 1">
    <g>
      <path class="cls-5" d="m157.55,187.57c-1.5-6.71-4.67-12.96-7.52-19.08-4.29-10.03-10.95-19.45-18.44-23.59-.8-.62-2.54-1.01-2.8-2.07.16-1.68,2.55-3.32,3.5-4.76,18.4-21.66,21.82-52.6,14.16-79.55-1.99-9.3-3.84-18.83-9.9-26.51C115.75,2.71,94.12-6.26,59.66,4.22c-6.34,2.29-12.14,5.24-17.98,8.16-1.25.62-2.41,1.47-3.61,2.03-.95.44-1.45-.3-1.95-1.02-5.12-7.11-17.93,4.46-20.52,9.11-4.53,6.83-7.03,12.51-4.64,20.05.55,2.26,2.04,4.57.72,6.84-3.02,7.34-5.34,15.14-4.59,22.96.21,1.26.47,2.46.31,3.75-4.36,16.82-1.88,33.75,5.04,49.66,1.79,4.27,3.52,8.54,5.57,12.72.49,1.05.51,2.06-.4,2.9-8.57,6.92-13.91,17.91-16.12,28.15-.92,5.22-2.77,10.59-.13,15.54,5.4,10.2,15.04,13.61,24.42,17.13,1.57.43,2.3,1.8,2.27,3.36.25,6.09,1.35,11.96,1.63,17.96.34,3.38-1.08,7.03,1.5,9.79,1.87,2.03,5.15,1.97,6.94.02,1.14-1.26,1.47-3.17,1.65-4.75.16-1.61.77-3.06,1.21-4.62,1.12-5.15-.41-10.11-.06-15.2.46-1.87,2.8-.33,4.03-.16,2.95.82,6.21,1.48,9.42,1.99,4.47.73,8.91,1.08,12.96,1.37.4.05.74.15.98.32,1.06.89.12,2.59-.03,3.75-1.16,5.54-2.98,11.84-1.24,17.03,0,3.79.62,8.61,5.55,8.32,3.86-.36,4.73-4.41,4.69-7.65.62-6.91,3.64-12.99,5.09-19.93.33-1.08,1.26-1.33,2.32-1.35,1.83-.03,3.63.05,5.38.01,12.75-.08,24.22-.79,34.83-2.19,5.38-.67,10.61-2.62,15.55-4.84,6.98-2.85,17.81-8.86,17.12-17.67l-.03-.18Z"/>
      <g>
        <path class="cls-3" d="m44.6,111.38c-4.72-.23-9.52-1.12-13.81-3.13-1.45-.66-2.6-1.43-4-1.98-.07.01-.14.02-.21.01-.91-.03-1.5-1.18-.67-1.83.44-.22.92-.22,1.4-.11,1.2.29,2.46,1.33,3.45,1.71,1.8.88,3.58,1.6,5.49,2.09,11.37,2.97,18.68.82,27.47-3.53,1.44-.71,2.91-1.48,4.45-2.3.17-.09.34-.18.52-.28.4-.21.81-.43,1.22-.65,0,0,0,0,0,0,.09-.05.17-.09.26-.14-.07.08-.14.16-.21.23-.02.02-.03.04-.05.06-.26.28-.51.55-.78.82-.15.15-.29.29-.45.44-1.43,1.37-3,2.59-4.68,3.65-5.14,3.24-11.3,5-17.35,5-.68,0-1.36-.02-2.04-.07Z"/>
        <path class="cls-3" d="m48.82,120.77c-5.5-.32-10.7-2.61-15.3-5.54-2.41-1.44-4.48-3.53-7.16-4.41-.6-.44-.47-1.45.22-1.74,2.18-.21,4.9,2.59,6.76,3.67,8.66,6.17,19.64,8.71,28.88,2.2,2.61-1.88,4.88-4.18,7.41-6.16,1.03-.85,2.07-1.75,3.09-2.59-1.61,2.84-3.64,5.46-6.04,7.67-4.44,4.2-10.41,6.94-16.55,6.94-.44,0-.87-.01-1.31-.04Z"/>
        <path class="cls-3" d="m68.35,101.82c-.53-.44-1.49-.55-1.48-1.41.61-2.66,3.92.9,4.92,1.72,3.49,2.9,4.87,7.99,2.97,12.16.35-5-2.31-9.72-6.41-12.47Z"/>
        <path class="cls-3" d="m26.76,101.69c.78-.74,2.07.33,1.48,1.24h0c-2.62,3.18-2.26,7.69-1.1,11.37-2.91-3.52-3.68-9.09-.39-12.61Z"/>
        <path class="cls-3" d="m45.92,125.47c-1.28-.24-4.89-.8-5.03-2.28,0-.54.45-.99.99-.99,3.76,1.54,7.92,2.3,11.97,2.16.19,0,.4-.05.57-.06-1.86.98-3.97,1.31-6.08,1.31-.82,0-1.63-.05-2.43-.13Z"/>
        <path class="cls-3" d="m43.4,97.11c-2.97-1.01-4.65-4.62-3.67-7.57.55-1.82,2.01-3.11,3.38-4.33,3.56-3.35,7.07-7.32,8.03-12.24.17-.84.28-1.69.34-2.55-.02-.75.02-1.79,1.01-1.8,1.9.15.6,3.86.5,5.08-1.2,5.52-5.23,9.92-9.28,13.63-2.21,1.64-3.04,4.65-1.75,7.13.58,1,1.39,2.39,2.69,2.36.23-.01.48-.07.68-.14-.37.33-.86.54-1.36.54-.2,0-.39-.03-.58-.1Z"/>
        <path class="cls-3" d="m79.99,81.22c-.05-4.83-5.89-4.96-9.52-5.37-2.35-.21-4.7.1-7.02.28,1.65-.72,3.27-1.53,5.06-1.81,4.08-.65,10.51-.14,12.75,3.85.47,1,1.25,3.33-.42,3.54-.34,0-.68-.19-.85-.49Z"/>
        <path class="cls-3" d="m21.78,76.5c.28-1.69,1.78-3.05,3.03-4.13.63-.36,1.32-.63,2.04-.82l-.05.26-.05.26-.04.25-.04.24-.04.24-.04.24-.03.23-.03.23-.02.22v.02c-.3.14-.59.31-.87.5-.75.67-1.37,1.46-1.89,2.32-.02.61-.5.91-.98.91s-1-.32-.99-.96Z"/>
        <path class="cls-3" d="m84.23,61.37c-.59-.55-.66-1.45-1.07-2.13-1.05-2.04-2.91-3.62-5.11-4.28-1.8-.64-3.72-.98-5.62-.88-2.38.24-5.9.44-6.86-2.31-.81-3.91,4.65-4.53,7.31-3.45,3.77,1.08,7.47,2.69,9.96,5.89.98.9,4.66,7.31,2.15,7.31-.21,0-.46-.04-.75-.14Zm-11.33-10.87c.07,0,.13.01.2.02,0,0,0,0,0,0-.05-.01-.11-.02-.16-.03-.02,0-.04,0-.05,0,0,0,.01.01.01.02Z"/>
        <path class="cls-3" d="m26.39,60.79c-2.1-.94.31-2.93,1.51-3.46,1.28-.88,2.57-1.77,3.92-2.56,3.26-1.76,7.03-3.37,10.8-2.8.91.12,1.79.5,2.54,1.06.03.09.07.18.11.27.09.16.16.32.25.47.1.19.21.37.35.54.05.06.1.12.16.17.03.05.05.11.08.16.05.13.09.26.14.39.03.07.06.14.1.21,0,.08,0,.17,0,.25,0,.15-.02.3-.04.45,0,.03-.02.06-.02.1-.02.06-.03.12-.05.18-.02.06-.05.12-.07.18.02-.05.04-.1.06-.15-.08.19-.14.39-.21.58-.12.15-.25.29-.37.45.02-.03.05-.06.07-.09-.06.08-.12.15-.19.22-.01.01-.03.03-.04.04-.22.09-.44.17-.66.26.01,0,.03-.01.04-.02-.02,0-.05.02-.07.03-.07.01-.15.02-.22.03-.15.03-.3.08-.45.12-.11.03-.23.05-.34.09-.08.03-.17.06-.25.08-.01,0-.02,0-.04,0-.19.02-.38.03-.57.05.02,0,.04,0,.05,0-.13.02-.26.03-.39.05-.21-.05-.43-.11-.65-.16-.27-.07-.54-.16-.81-.25-.35-.12-.69-.26-1.07-.32-.28-.05-.55-.04-.83-.06-.11-.01-.23-.03-.34-.05-.32-.06-.62-.17-.94-.23-.32-.06-.63-.03-.95-.03-.21,0-.42.01-.64.03-.23.02-.45.06-.67.09-.12,0-.24,0-.37.02-.24.02-.47.08-.68.18h-.15c-.07,0-.13,0-.2,0-.38,0-.7.1-1.02.26,0,0,0,0-.01,0,.01,0,.02-.01.03-.02-.01,0-.03.01-.04.02-.11.04-.22.08-.32.14-.09.05-.18.1-.27.14-1.07.16-2.02.65-3.15,1.45-.87.54-1.74,1.45-2.8,1.45-.1,0-.21,0-.32-.03Zm11.74-6.53c.1,0,.21,0,.32.02.08-.06.17-.11.26-.16-.19.04-.38.09-.57.14Z"/>
        <path class="cls-3" d="m45.64,57.28s-.02.02-.02.03c0-.01.02-.02.02-.03Z"/>
        <path class="cls-3" d="m41.84,57.96s.05.01.07.02c-.02,0-.05-.01-.07-.02Z"/>
        <path class="cls-3" d="m33.25,57.64s0,0,.01,0c-.02.01-.05.02-.07.04.02-.01.04-.02.06-.03Z"/>
        <path class="cls-3" d="m46.27,56.06s0,.02,0,.04c0-.01,0-.02,0-.04Z"/>
        <path class="cls-3" d="m46.34,55.53s0,.07,0,.11c0-.03,0-.07,0-.11Z"/>
        <path class="cls-3" d="m38.02,54.43c-.43-1.54,2.93-1.85,3.95-1.78,1.27.18,1.01,2.1-.27,1.95-.45-.11-.99.07-1.52.25-.42.14-.84.28-1.2.28-.4,0-.74-.17-.96-.7Z"/>
        <path class="cls-3" d="m68.07,101.9c0-.54.45-.99.99-.99s.99.45.99.99-.45.99-.99.99-.99-.45-.99-.99Z"/>
        <path class="cls-3" d="m63.32,105.99c-.59-1.09.78-1.56,1.48-2.05,1.22-.83,2.46-1.71,3.25-2.98.71-1.19,2.47-.04,1.65,1.08-.87,1.38-2.13,2.41-3.47,3.31-.59.34-1.4,1.11-2.1,1.11h0c-.29,0-.56-.13-.8-.48Z"/>
        <path class="cls-3" d="m67.31,112.19c-.51-.61-.25-1.15.21-1.64.43-.46,1.04-.88,1.35-1.28,1.15-1.14,2.29-2.45,3.12-3.81.01-.05.03-.09.05-.13.55-1.35,2.54-.34,1.74.98-.18.31-.36.6-.56.89-1.26,1.86-2.91,3.43-4.51,4.99-.16.17-.38.26-.6.28-.03,0-.06,0-.09,0-.26,0-.52-.1-.71-.29Z"/>
        <path class="cls-3" d="m25.31,110.19s0,0,0,0c0,0,0,0,0,0,0,0,0,0,0,0,0,0,0,0,0,0,0,0,0,0,0,0,0,0,0,0,0,0,0,0,0,0,0,0-.82-1.84,2.42-2.12,2.1-.24-.13.49-.64.76-1.13.76-.39,0-.78-.17-.97-.52Z"/>
        <path class="cls-3" d="m103.55,92.34c-.51-1.06-1.11-2.13-2.09-2.83-.49-.3-1.19-.46-1.17-1.19.25-1.83,2.32-.64,3.06.21.88.86,1.49,1.93,2.01,3.04.33.76-.32,1.35-.96,1.35-.34,0-.68-.17-.86-.59Z"/>
        <path class="cls-3" d="m105.75,89.08c-.97-1.98-2.36-3.64-3.97-5.09-.58-.39-1.12-1.15-.61-1.81.4-.56,1.33-.49,1.64.11,1.88,1.64,3.52,3.56,4.63,5.8.45.76-.24,1.48-.91,1.48-.3,0-.6-.14-.79-.48Z"/>
        <path class="cls-3" d="m109.28,86.95c-.36-.13-.53-.53-.68-.84-1.35-2.53-2.57-5.25-4.74-7.2-.46-.4-.94-.81-1.52-1.01-.32-.08-.62-.36-.69-.69-.09-2.48,2.81-.57,3.65.35,1.42,1.28,2.47,2.91,3.4,4.56.66,1.19,1.29,2.35,1.87,3.53.32.65-.27,1.38-.92,1.38-.12,0-.25-.03-.37-.08Z"/>
        <path class="cls-3" d="m111.63,84.13c-1.81-4.53-3.76-9.78-8.06-12.49-.41-.22-.85-.38-1.3-.48-.92-.34-.75-1.77.23-1.89,5.04.84,8.08,7.32,9.96,11.57.33.84.64,1.69.99,2.53.32.76-.33,1.36-.97,1.36-.34,0-.68-.17-.85-.59Z"/>
        <path class="cls-3" d="m143.82,168.3c-2.68-5.68-5.98-11.3-10.72-15.49-3.62-3.54-8.38-5.08-12.89-7.04-2.71,2.64-5.49,5.21-8.3,7.73-5.73,5.01-11.59,10-16.46,15.85,1.86-5.71,6.5-10.02,11.02-13.66,4.26-3.72,8.46-7.52,12.49-11.49.11-.3.35-.56.66-.65,2.32-2.3,4.58-4.65,6.76-7.08,12.55-13.75,18.26-32.57,18.49-50.92.04-11.27-3.19-22.16-5.49-33.1-.94-4-2.02-8.01-3.86-11.71-1.87-3.52-4.33-6.69-6.74-9.85-3.86-4.82-7.96-9.49-12.58-13.59-10.49-9.01-24.88-13.86-38.61-11.14-5.49.68-10.95,1.76-16.26,3.3-5.27,2.03-10.35,4.56-15.45,6.98-5.7,2.74-10.62,6.85-14.65,11.69-.09.24-.24.4-.42.5.25.34.52.69.79,1.05,1.29-1.53,3.15-2.62,4.67-3.93,3.46-2.71,7.02-5.57,11.35-6.73,7.26-1.82,14.74-2.91,22.18-3.63,5.95-.13,11.79,1.5,17.33,3.53,11.41,5.17,21.74,13.12,29.12,23.28,2.63,4.18,3.75,9.02,4.73,13.79.7,3.69,1.43,7.39,1.52,11.16.43,7.94-.1,15.93-1.58,23.74-1.31,6.33-3.13,12.54-4.54,18.85-4.14,20.54-6.2,23.12-18.26,40-4.77,6.67-10.97,12.06-17.7,16.68-7.28,5.48-14.62,11.25-20.1,18.57,3.2-11.98,21.82-20.39,30.23-29.34,4.13-4.26,7.51-9.04,10.79-13.93,2.39-3.58,5.01-7.03,6.91-10.92,3.02-5.83,4.1-12.39,5.61-18.73,2.93-13.18,7.2-26.19,6.83-39.83-.12-9.3-1.37-18.88-5.18-27.43-4.58-7.54-11.57-13.38-18.73-18.39-8.06-5.31-17.48-9.27-27.27-9.06-7.56.87-15.24,1.78-22.56,3.92-5.05,1.9-9.11,5.8-13.25,9.05-.31.24-.56.55-.88.77.08.09.17.17.25.25.14-.04.3-.05.48,0,4.58-2.41,8.64-5.77,13.52-7.6,8.23-3.05,17.3-3.66,25.98-2.62,6.4,1.11,12.67,3.16,18.56,5.9,6.64,3.03,11.84,8.3,16.34,13.93,4.12,5.02,8.16,10.61,9.1,17.19,1.63,9.35-.55,18.76-1.6,28.05-.62,5.22-.97,10.48-1.8,15.68-.68,4.53-1.94,8.95-2.86,13.44-1.02,6.61-4.27,12.52-7.57,18.24-2.9,4.96-6.96,9-10.86,13.13-3.85,3.95-7.59,8.04-11.72,11.7-.32.24-.65.5-.98.76-.15.15-.33.29-.53.43-5.95,4.86-13,12.4-20.56,12.14-6.15-.08-9.18-5.91-12.62-10.09-3.34-3.58-6.64-7.2-9.56-11.13-2.67-3.87-4.99-7.98-7.29-12.08-1.83-3.34-3.09-6.98-4.19-10.62-2.36-3.7-4.19-7.77-5.35-12.04-1.53-4.54-3.41-8.91-4.27-13.63-.95-5.89-1.34-11.84-.56-17.74,1.11-10.22,5.05-19.84,10.24-28.64.63-1.18,1.23-2.38,1.81-3.58.17.04.34.06.51.07.15.01.31.03.46.03.07,0,.14,0,.21,0,.14-.01.28-.05.42-.05-.05,0-.1,0-.16,0,.12,0,.24-.01.35-.02.11,0,.21-.02.32-.04.03,0,.06-.01.08-.02-.98,2.11-1.99,4.06-3.11,6.07-2.39,4.2-4.49,8.56-6.13,13.1-4.68,13.36-4.68,28.27.83,41.37,1.76,5.31,3.62,10.82,6.8,15.38,4.63,6.54,11.07,11.93,18.64,14.62,6.89,2.38,14.43,2.72,21.45.77-3.24,2.27-7.24,3.61-11.23,3.21-4.5-.18-8.79-1.2-12.77-2.89-1.66.92.46,4.47,1.58,5.22-.17-.08-.34-.18-.51-.28.4.36.79.72,1.18,1.09,0,0,0,0,0,0t0,0c-1.12-.69-2.23-1.38-3.33-2.09-1.2-.77-2.4-1.56-3.58-2.36-.17-.11-.34-.23-.51-.35-.04-.02-.08-.05-.11-.07-.24-.12-.48-.24-.73-.35-1.01-.27-2.02-.55-3.02-.84.87,1.45,1.76,2.9,2.66,4.33,2.47,3.64,5.42,6.84,8.33,10.08.16.05.33.13.48.26,3.03,2.01,6.57,2.94,10.13,3.45,5.96,1,12.13-.35,17.83-2.08,1.06-.38,2.11-.8,3.01-1.25.49-.17,1.06-.65,1.6-.91,5.59-4.96,10.79-10.36,15.83-15.88-.02-.04-.03-.09-.05-.13-.16-.58-.32-1.16-.48-1.74-.08-.28-.15-.56-.23-.83-.07-.27-.14-.53-.22-.8-.21-.28-.44-.56-.65-.84-.26-.33-.52-.67-.77-1-.34-.44-.83-.91-.74-1.51.03-.27.18-.52.3-.76.09-.19.18-.39.27-.58.15-.31.29-.63.44-.94.01-.07.03-.13.06-.2.12-.31.27-.62.39-.93.01-.03.02-.05.03-.08-3.13,1.9-6.62,3.24-10.42,3.88,10.39-6.29,15.65-7.97,21.72-19.06-1.72-1.06-3.33-2.75-2.25-3.9,1.31-.88,1.59,1.09,2.48,1.61,1.14,1.19,3.25,1.87,4.67,1.13,1.71-7.26,3.18-14.55,3.93-21.97-.13.06-.27.12-.4.16-1.21.43-2.06,1.77-3.32,1.93-.53-.07-.92-.58-.84-1.11.24-.88,1.27-1.23,1.92-1.78.74-.39,1.96-1.42,2.83-1.17.05-.58.09-1.16.13-1.75.3-3.49.83-7,1.33-10.51-1.84-3.92-2.02-7.32-6.25-10.15-1.7-1.27-3.84-1.67-5.6-2.81-2.96-2.26-1.15-6.71,1.51-8.42,2.33-1.31,4.21-3.64,3.47-6.47-1.52-6.16-7.13-5.78-12.48-5.4-2.11.15-4.17.3-5.93.05-8.23-.87-8.22-8.8-14.52-11.71-5.57-1.85-9.97,3.66-15.35,4-2.37.13-4.2-.54-5.8-1.2-3.51-1.46-5.91-2.92-10.56,4.04-1.92,3.18-4.65,6.3-7.92,8.41.04-.04.08-.07.12-.11,0,0,0,0,0,0,0,0,.01,0,.02-.01,0,0,0,0,0,0,0,0,0,0,0,0,0,0,.02-.02.03-.03.01,0,.02-.02.03-.03,0,0,0,0-.01.01.18-.16.37-.31.56-.46.26-.21.48-.47.71-.71.32-.34.58-.74.84-1.12.32-.45.57-.94.86-1.42.02-.03.04-.06.06-.09,0,0,.01-.02.02-.03h0s0,0,0,0c0,0,0,0,0,0,0,0,0,0,0,0h0s0,0,0,0c0,0,0-.01.01-.01,0,0,0,0,0,0,.17-.24.33-.48.5-.73,0,.01-.01.02-.02.03.01-.02.03-.04.04-.06.02-.03.03-.05.05-.08-.01.02-.03.04-.04.06.18-.27.34-.53.49-.81.1-.2.19-.4.28-.61.07-.18.16-.36.21-.55.03-.06.05-.12.07-.19.03-.07.05-.13.08-.2.23-.35.46-.69.66-1.05,0,0,.01-.02.01-.03,0,0,0,.01-.01.02h0s0,0,0,0c0,0,0,0,0,0,0,0,0,0,0,0,0,0,0,0,0,0,0,0,0,0,0,0-.01.02-.03.05-.04.07h0s0,.02-.01.03c0,0,0,0,0,0,.2-.35.43-.69.67-1.02.15-.19.3-.38.44-.57.16-.22.29-.45.43-.69-.03.05-.05.09-.08.14.22-.38.44-.76.66-1.14.04-.06.08-.13.11-.19.27-.35.56-.69.87-1.02,4.21-4.4,7.18-3.12,10.33-1.85,2.3.93,4.71,1.86,7.79.58,4.65-1.89,9.76-5.67,14.8-2.7,5.67,3.26,6.24,10.95,13.82,11.14,1.48.06,3.1-.05,4.75-.17,1.33-.09,2.68-.18,4-.18,3.8,0,7.35.77,9.38,4.55.81,1.32,1.21,2.89,1.17,4.44,1.14-.26,2.4-.28,3.56-.02-3.16-6.91-9.39-13.58-14.43-18.37-4.5-4.03-10.09-6.43-15.74-8.32-8.2-3.03-17.12-3.87-25.74-2.51-4.1.58-8.18,1.54-11.9,3.4-1.9.95-3.73,2.04-5.51,3.19-.93.45-2.93,2.04-4.64,2.91-.17.29-.6.57-1.29.56-.05,0-.1,0-.15-.01-.4.08-.75.06-1.01-.12-.13-.08-.22-.19-.29-.3-1.25-.7-2.26-2.09-3.25-3.03-4.46-5.02-2.5-8.97,1.79-13.14-6.11,2.26-10.73,7.51-13.4,13.27-1.21,2.49-2.6,5.6-2.01,8.38-.02.47-.02.94.03,1.41.05.43.12.85.24,1.27,0,0,0-.01,0-.02,0,.02.01.04.02.06,0-.01,0-.03-.01-.04.02.08.04.16.07.23,0,.02,0,.03.01.05,0,0,0-.02,0-.03,0,0,0,.02,0,.03h0s0,.03.01.05c.1.34.21.67.31,1-.02-.05-.03-.1-.05-.15.07.23.15.46.22.68.1.3.19.6.31.9-1-1.12-1.81-2.16-2.29-2.93-3.21-5.73,2.43-14.28,5.84-18.84,2.25-2.63,8.96-8.33,12.56-7.29,3.15,3.19-7.37,6.29-3.29,12.34,1.36-2,3.29-3.57,4.99-5.29,2.99-2.95,6.63-5.2,10.36-7.09,5.76-2.68,11.43-5.74,17.5-7.65,4.9-1.16,9.82-2.29,14.82-2.84,14.14-2.79,28.95,2.11,39.84,11.28,7.07,6.28,13.19,13.62,18.46,21.45,3.44,5.19,4.88,11.36,6.24,17.36,2.14,10.27,5.07,20.49,5.01,31.06-.21,16.89-4.79,33.98-15.01,47.6-3.12,3.99-6.54,7.73-10.13,11.32,2.28.99,4.64,1.79,6.85,2.92,8.35,4.42,13.67,12.73,17.45,21.12,3.05,6.77,7.01,13.4,7.35,20.99-3.22-6.99-6.2-14.08-9.53-21.02Zm-40.58-106.71c-1.21,3.69,3.59,3.46,5.66,5.23,2.49,1.59,4.47,3.94,5.58,6.68.17.45.34.9.51,1.35.4-3.23.69-6.46.67-9.68-2.63-2.79-5.04-5.69-9.21-6.3-.19-.07-.33-.19-.43-.33-1.15.82-2.3,1.67-2.78,3.05Zm4.54-4.44c2.23.53,4.33,1.7,5.99,3.24.3.3,1.03.95,1.77,1.7-.12-1.6-.33-3.2-.65-4.8-.17-.79-.39-1.58-.66-2.37-.05-.02-.1-.05-.16-.08-.96-.64-2.18-.61-3.29-.56-.48.02-.93.14-1.4.2h-.04c-.3.99-.82,1.91-1.56,2.67Z"/>
        <path class="cls-3" d="m38.26,45.24s-.01.02-.02.03c0,0,.01-.02.02-.03Z"/>
        <path class="cls-3" d="m38.33,45.12s-.04.06-.06.1c.02-.03.04-.07.06-.1Z"/>
        <path class="cls-3" d="m15.9,41s0,.02,0,.03c0,0,0-.02,0-.03Z"/>
        <path class="cls-3" d="m38.28,45.2s.02-.03.03-.04c-.01.01-.02.03-.03.04h0Z"/>
        <path class="cls-3" d="m38.35,45.09s-.03.05-.04.07c.01-.02.03-.05.04-.07Z"/>
        <path class="cls-3" d="m41.5,166.89c-4.52-7.43-10.2-14.05-15.21-21.14-.4-.6-.79-1.21-1.18-1.82-4.35,1.01-7.59,4.71-10.1,8.2-2.4,3.6-4.64,7.42-6.04,11.47-1.5,4.67-2.84,9.43-4.61,14-.04-8.93,3.21-17.67,8.05-25.09,2.78-4.21,6.56-9.05,11.66-10.29-3.07-5.25-5.49-10.87-7.75-16.51-4.01-8.92-6.61-18.49-7.5-28.24-.47-6.74.48-13.47,2.05-20.02.22-.99.44-1.98.67-2.97-.26-.31-.44-.68-.58-1.05-.13-.36-.23-.73-.3-1.1-.15-.83-.2-1.66-.2-2.5,0-2.1.28-4.21.65-6.27.16-.87.34-1.74.54-2.6.02-.12.06-.24.09-.36.03-.14.07-.28.1-.42.1-.39.2-.78.3-1.17.31-1.18.66-2.34,1.04-3.5.37-1.13.77-2.25,1.21-3.35.54-1.36,1.21-2.68,2-3.92.22-.34.45-.68.67-1,0-.01.01-.02.02-.03,0,0,0,0,0,0,.33-.46.68-.91,1.05-1.33.04.05.08.1.12.16.05.07.09.13.13.2-.01-.02-.03-.05-.04-.07.1.17.21.33.32.49l.04.06c-.87,1.86-1.56,3.8-2.3,5.71-.17.44-.35.88-.5,1.29,0,.02-.02.04-.02.06h0c-.83,2.23-1.54,4.51-2.11,6.82-.06.25-.12.49-.18.74,0,.02,0,.03-.01.05h0s0,.02,0,.02c0,.02-.01.05-.02.06h0s0,0,0,0c0,0,0,0,0,.01,0,0,0,.01,0,.02,0,0,0,0,0,0-.44,1.94-.8,3.9-.99,5.81,0,.04,0,.08-.01.11h0c-.09,1-.14,2-.11,2.99,0,.13.01.27.02.4.94-3.49,2.07-6.93,3.6-10.23,1.2-2.89,2.65-5.67,4.25-8.36.33-.5.82-1.47,1.38-2.28.29.28.66.49,1,.68.23.13.47.26.71.38-.82,1.16-1.51,2.41-2.22,3.64-2.21,3.85-3.95,7.95-5.46,12.12-2.95,9.83-5.54,20.1-4.95,30.4.87,9.52,3.35,18.81,7.26,27.51,2.7,6.74,5.62,13.42,9.57,19.53,7.31,11.06,22.68,25.87,20.69,39.83-1.36-5.98-3.74-11.81-6.79-17.12Z"/>
        <path class="cls-3" d="m26.75,54.16c-8.19-1.45-13.55-10.11-12.81-18.13.08-1.4,1.11-7.43,3.24-4.98-.02.05-.04.1-.05.16,0-.02.01-.05.02-.07-.05.17-.09.35-.14.52-.07.14-.13.29-.18.43,0-.02.01-.03.02-.05-.09.24-.18.48-.25.73-.06.2-.13.4-.13.61-.14.45-.25.91-.35,1.37-.14.73-.22,1.48-.25,2.22-.1.36-.18.72-.2,1.09-.03.58-.04,1.14.02,1.72.05.45.13.89.25,1.33,0-.02-.01-.03-.02-.05.02.08.04.15.06.23,0,.02,0,.03.01.05h0s0,.04.01.05c0,0,0,0,0,0,0,0,0,0,0,0,.09.32.19.63.3.94,0,0,0-.01,0-.02.06.2.13.4.2.59.1.32.2.63.32.93.11.27.23.54.41.78.12.16.24.32.36.48.12.17.25.34.38.51.1.13.2.27.31.4.04.05.07.1.11.16,0,0-.01-.02-.02-.03.1.17.21.33.32.49.24.39.51.78.83,1.12.21.23.44.44.68.64.35.37.72.72,1.12,1.05.29.55.86.88,1.39,1.18.35.2.7.38,1.06.55.12.06.25.12.38.17.25.15.52.28.8.34.88.37,1.76.56,2.61.6.07,0,.15,0,.22,0h.06c1.11,0,2.18-.23,3.21-.65.14-.02.28-.05.41-.09.24-.06.49-.13.72-.23.31-.13.57-.34.86-.52.27-.17.54-.32.78-.52.15-.12.29-.26.46-.38-.04.03-.09.06-.13.09.18-.13.35-.25.52-.4.1-.09.19-.18.28-.27.11-.1.22-.2.34-.3-.04.03-.08.07-.12.11.2-.18.41-.35.62-.52.26-.21.48-.47.71-.71.32-.34.58-.74.84-1.12.23-.33.43-.69.63-1.04.2-.3.4-.61.59-.92.07-.1.14-.21.21-.31,0,0,0,0,0,.01v-.02s.02-.01.02-.02c0,0,0,0,0,0,0-.01.02-.02.03-.03,0,0,.01-.02.02-.02,0,0,0,0,0,0,0,0,0,0,0-.01,0,0,0,0,0,0,.16-.24.31-.48.45-.73-.01.02-.02.05-.04.07.01-.02.02-.05.04-.07,0,0,0-.01.01-.02,0,0,0,0,0,0,.01-.02.02-.04.03-.06,0-.01.01-.02.02-.04l-.02.03c.1-.19.18-.39.27-.59.06-.14.12-.28.17-.42.13-.26.25-.52.37-.78.15-.23.31-.47.45-.71,0,0,0,0,0,0,0,0,0,0,0,0h0s0,0,0,0c.19-.34.42-.67.66-.99.15-.19.3-.38.44-.57.16-.22.29-.45.43-.69-.03.05-.05.09-.08.14.22-.38.44-.76.66-1.15.05-.08.1-.16.15-.24.06.01.12.03.18.06.5.21.73.8.53,1.29-.75,1.79-1.51,3.58-2.43,5.3-2.42,4.78-7.38,9.98-13.07,9.98-.42,0-.83-.03-1.26-.08Z"/>
        <path class="cls-3" d="m40.56,41.1s0-.01.01-.02c0,0-.01.02-.02.03,0,0,0,0,0,0Z"/>
        <path class="cls-3" d="m16.86,31.99s-.01.03-.02.05c0-.02.01-.03.02-.05Z"/>
        <path class="cls-3" d="m39.28,43.65h0s0,0,0,.01c0,0,0,0,0-.01,0,.01-.01.02-.02.03,0-.01.01-.02.02-.03Z"/>
        <path class="cls-3" d="m16.31,42.33s0,.03.01.04c0-.01,0-.03-.01-.04Z"/>
        <path class="cls-3" d="m40.61,41.03s0,0,0,0c0,.01-.01.02-.02.03,0-.01.01-.02.02-.03Z"/>
        <path class="cls-3" d="m40.6,41.04s-.01.02-.02.03c0,0,0,0,0,0,0-.01.01-.03.02-.04Z"/>
        <path class="cls-3" d="m16.28,42.22s.02.05.03.08c0-.03-.02-.05-.03-.08Z"/>
        <path class="cls-3" d="m3.75,178.43c.11-3.06.88-6.06,1.44-9.06.18-.83,1.41-.97,1.8-.24.14.24.15.5.12.68-.15.86-.37,1.94-.56,2.72-.34,1.95-.76,3.91-.82,5.89,0,.64-.5.96-.99.96s-.98-.32-.98-.96Z"/>
        <path class="cls-3" d="m152.19,188.95c-.64-3.05-1.82-5.86-2.92-8.72-.25-.43-.2-1.03.23-1.34.94-.62,1.57.23,1.77,1.1.41,1.13.9,2.23,1.32,3.35.57,1.46.98,2.97,1.34,4.49.25.68.32,1.57-.53,1.81-.08.02-.17.03-.25.03-.43,0-.84-.29-.96-.72Z"/>
        <path class="cls-3" d="m85.9,208.9c-12.19-.22-24.52-.2-36.48-2.87-4.35-.9-8.53-2.46-12.72-3.91-5.82-1.96-11.7-3.81-17.35-6.24-6.11-2.83-12.59-6.83-15.21-13.33-2.45-6.79,2.52-5.91,1.32-3.7-.04,3.72,2.49,6.89,5.13,9.27,6.44,5.63,14.79,8.08,22.73,10.81,4.77,1.5,9.22,3.32,14.02,4.59,3.64.93,7.36,1.58,11.08,2.07,16.26,1.76,32.83,1.56,49.13.81,10.02-.9,20.34-1.01,29.55-5.56,5.13-2.24,10.65-4.53,13.92-9.32.46-.67.81-1.4,1.07-2.16.14-.73.49-1.67,1.42-1.42,2.32.89-1.82,6.16-2.86,7.09-3.59,3.84-8.61,5.75-13.31,7.85-3.98,1.74-8.11,3.2-12.43,3.79-12.35,1.65-24.81,2.24-37.27,2.24-.58,0-1.17,0-1.75,0Z"/>
        <path class="cls-3" d="m83.91,160.43c-3.01-1.14-2.46-5.38.08-6.74.89-.6,2.92-.88,3.06.58,0,.98-.96,1.01-1.68.94-1.83.51-2.28,3.68.1,3.53,1.31-.16,1.2-1.77,1.28-2.72,1.69-1.56,2.28.26,1.74,2.08-.4,1.34-1.42,2.67-3.07,2.67-.46,0-.96-.1-1.51-.33Z"/>
        <path class="cls-3" d="m87.02,159.51c-1.52-1.24,2.75-3.28-1.98-5.28-.24-.23-.36-.64-.25-.96.71-1.63,2.86-.03,3.63.83,1.22,1.15,1.18,5.55-.77,5.55-.19,0-.4-.04-.62-.13Z"/>
        <path class="cls-3" d="m70.46,230.24c-2.03.14.45-8.9.53-10.28,1.59-7.63,3.97-15.31,4.4-23.08.45-15.99.53-28.19,9.67-42.19.88-1.66,3.06-.15,1.58,1.18-11.74,18.18-7.22,30.57-10.39,49.74-1.29,6.5-3.18,12.89-4.16,19.44-.5,1.26.17,5.2-1.5,5.2-.04,0-.08,0-.12,0Z"/>
        <path class="cls-3" d="m70.69,230.93c-.14-.52.17-1.06.69-1.21,1.42.09,1.05-.6,1.3-1.7.26-1.68.63-3.25,1.15-4.85,5.65-13.78,4.7-28.97,6.18-43.49.53-5.82,1.3-11.7,3.43-17.18,1.09-2.36,2.57-5.83,4.73-7.23,1.02-.15,1.47,1.22.74,1.76-6.34,7.93-6.53,18.79-7.41,28.42-.89,13.07-.84,26.27-5.87,38.54-1.12,2.18-.4,6.24-2.55,7.48-.32.12-.74.21-1.14.21h0c-.56,0-1.08-.19-1.25-.75Z"/>
        <path class="cls-3" d="m71.25,237.33c-1.33-.4.13-4.69-1.21-7.65-.07-.73.7-1.34,1.38-1.03.81.47.76,1.69,1.07,2.51,1.82.26.63,2.79.6,3.98-.16.84-.44,2.27-1.41,2.27-.13,0-.27-.02-.43-.08Z"/>
        <path class="cls-3" d="m35.1,156.47c-3.09-1.5-2.99-8.46,1.28-7.43,1.72.56.63,3.05-.8,1.81-2.44,1.94,2.16,7.02,1.34,1.27-.65-1.1,1.07-2.1,1.7-.99,1.17,1.89-.01,5.71-2.27,5.71-.39,0-.81-.11-1.25-.37Z"/>
        <path class="cls-3" d="m33.28,223.4c-.52-9.48-2.91-18.9-1.04-28.39,1.88-13.35,7.29-27.07,2.58-40.39-1.22-1.68,1.55-3.43,2.4.88,4.39,15.13-2.62,30.22-3.63,45.28-.51,5.81.66,11.55,1.26,17.3-.11,1.43,1.36,6.24-.59,6.3-.55,0-.97-.45-.99-.99Z"/>
        <path class="cls-3" d="m34.18,225.18c-.32-.43-.25-1.05.18-1.38.28-.22.67-.26.99-.13,1.29-2.33.39-5.35.39-7.86-.41-6.86-.64-13.76-.07-20.61.46-8.32,2.96-16.44,3.97-24.6.46-5.83-1.3-11.51-3.09-16.98-1.1-2.29,2.45-2.82,1.9-.5,1.86,5.6,3.61,11.48,3.17,17.44-.29,4.31-1.5,8.59-2.36,12.74-.84,4.47-1.34,9.11-1.75,13.62-.36,6.06-.18,12.15.17,18.21.06,2.92.85,6.02-.23,8.83-.29.91-1.23,1.86-2.14,1.86-.4,0-.79-.18-1.12-.64Z"/>
        <path class="cls-3" d="m34.97,231.28c-1.23-.22-.84-1.76-.96-2.66.04-.87-.54-2.2.49-2.66.24-.98-.08-2.44.91-3.02.75-.35,1.64.49,1.31,1.25-.62,1.53.2,7.1-1.59,7.1-.05,0-.1,0-.16-.01Z"/>
        <path class="cls-3" d="m33.93,231.21c-1.58-1.03-.4-3.91-.63-5.58.02-.63-.09-1.27,0-1.9.09-.81,1.11-1.2,1.69-.61.27.25.36.68.25,1.03.09,1.74.01,3.48-.17,5.21,1.37.53.61,2.05-.46,2.05-.22,0-.44-.06-.67-.21Z"/>
        <path class="cls-3" d="m72.01,237.97c-1.24-.09-1.64-1.75-.31-2.06.07-1.37.11-2.74.2-4.1.09-.87-.23-2.33,1.03-2.38.54,0,.99.45.99.99-.03,1.57-.16,3.13-.21,4.69.02,1.11-.12,2.87-1.53,2.87-.06,0-.11,0-.17,0Z"/>
        <path class="cls-3" d="m37.33,158.23c-.6-.4-.59-1.22-.86-1.83-.35-.98-.73-1.94-1.01-2.94-.53-.24-.85-.99-1-1.53.01-.53-.16-1.15.26-1.58.53-.55,1.54-.34,1.72.42.83.12,1.18,1.13.84,1.83.37,1.55,1.05,2.99,1.5,4.52.21.64-.37,1.25-.98,1.25-.16,0-.32-.04-.47-.14Z"/>
        <path class="cls-3" d="m81.93,164.16c-.88-.7.02-1.59.36-2.31.75-1.58,1.39-3.22,2.49-4.61-.42-1.09,1.59-2.55,2.56-2.43,1.14.12,1.32,1.76.21,2.09-.83,1.05-1.71,2.1-2.32,3.3-.59.89-1.41,4.17-2.72,4.17-.18,0-.38-.06-.58-.21Z"/>
        <path class="cls-3" d="m70.84,230.22c.44-5.74,2.17-11.34,3.7-16.86.42-3.33.97-6.64,1.59-9.95.49-4.22.97-8.42.86-12.69.21-1.72-.63-7.4.9-8.07.13-2.79.56-5.53.92-8.29.36-1.7.3-3.8,1.45-5.18.87-3.24,2.11-6.39,3.37-9.5.58-1.06,2.26-.18,1.76.88-2.04,5.06-4.01,10.28-4.44,15.76-.23,1.64.36,6.05-.92,6.98-.26,4.25-.43,8.52-.88,12.75,1.08.52-.05,5.08-.05,6.31-.64,6.63-2.87,12.91-4.42,19.35-.58,2.41-1.17,4.8-1.68,7.23-.18.73-.12,1.86-1.08,1.99-.04,0-.07,0-.11,0-.44,0-.85-.27-.98-.72Z"/>
        <path class="cls-3" d="m33.96,223.88c-.37-11.24-1.48-22.71.23-33.9,1.13-6.13,3.64-12.1,3.96-18.37.28-3.57-.51-7.09-.32-10.66.1-.93-.14-2.48,1.14-2.56.54,0,.99.45.99.99-.48,3.42.14,6.7.23,10.02.05,5.15-1.19,10.08-2.65,14.97.84.74-.59,3.81-.65,4.97-.7,3.63-.8,7.34-.72,11.02-.24,1.94,2.25,24.1-1.13,24.1h0c-.31,0-.66-.18-1.07-.57Z"/>
        <path class="cls-4" d="m32.67,57.92s-.08.05-.12.07c-.34.08-.68.16-1.01.26-.13.03-.26.08-.38.13.5-.23.99-.39,1.51-.47Z"/>
        <path class="cls-4" d="m44.06,52.39c.15.04.29.1.43.16.22.08.43.19.63.32h0c0,.05.02.11.04.16-.34-.25-.71-.47-1.1-.64Z"/>
        <path class="cls-4" d="m39.84,60.29s-.03-.02-.05-.03c.02.01.04.02.06.03,0,0,0,0,0,0Z"/>
        <path class="cls-4" d="m34.54,59.74s-.06.04-.1.05c0,0,0,0-.01,0,.03-.02.07-.04.11-.06Z"/>
        <path class="cls-4" d="m48.88,52.46s-.03-.06-.05-.08c.02.04.05.08.07.12,0-.01-.02-.02-.02-.04Z"/>
        <path class="cls-5" d="m33.34,112.76c-1.67-.97-4.03-3.33-6.08-3.65-.22-.31-.61-.46-1-.44.02-.81.12-1.61.31-2.38.07,0,.14,0,.21-.01,1.4.55,2.55,1.32,4,1.98,4.29,2.01,9.09,2.9,13.81,3.13,6.69.44,13.67-1.32,19.39-4.93.73.1,1.6-.74,2.23-1.1,1.05-.71,2.05-1.5,2.86-2.47.18,0,.35-.06.5-.15.92.77,1.75,1.64,2.46,2.6-.02.04-.03.09-.05.13-.83,1.36-1.97,2.67-3.12,3.81-.31.4-.91.81-1.35,1.27,0,0,0,0,0,0-1.74,1.51-3.44,3.07-5.31,4.41-3.79,2.67-7.87,3.82-11.96,3.82-5.89,0-11.81-2.38-16.92-6.02Z"/>
        <path class="cls-6" d="m108.5,48.03c-2.03-3.78-5.58-4.55-9.38-4.55-1.32,0-2.67.09-4,.19-1.65.12-3.27.23-4.75.17-7.59-.19-8.15-7.88-13.82-11.14-5.04-2.97-10.15.81-14.8,2.7-3.08,1.28-5.48.35-7.79-.59-3.16-1.27-6.12-2.55-10.33,1.85-.29.31-.56.64-.83.97,0,0,0,0,0,0-.01.02-.02.03-.03.05t0,0c-.04.06-.08.13-.11.19-.15.26-.3.52-.45.78-.05.08-.1.17-.14.25-.01.02-.02.04-.03.06-.01.02-.02.04-.03.05h0c-.11.19-.22.37-.34.55-.03.05-.07.1-.1.14-.11.14-.22.28-.33.43-.06.08-.12.16-.18.24-.03.04-.06.08-.09.12-.01.02-.02.03-.03.05-.05.07-.1.14-.14.21-.06.09-.11.18-.16.27,0,.02-.02.03-.03.05,0,0,0,.01-.01.02-.14.25-.3.49-.46.74-.06.09-.11.17-.17.26-.03.07-.05.13-.08.2-.02.06-.05.13-.07.19-.01.04-.03.09-.05.13-.02.06-.04.11-.06.16-.04.09-.07.17-.11.25-.06.15-.12.3-.19.44-.02.05-.05.1-.07.15,0,0,0,0,0,.01,0,0,0,0,0,0h0s0,0,0,.01c0,0,0,0,0,.01h0s0,0,0,0h0s-.05.1-.08.14c-.12.21-.24.41-.37.61-.01.02-.03.04-.04.06,0,0-.01.02-.02.03,0,0,0,0,0,0h0s-.01.02-.02.03c-.01.02-.02.03-.03.05-.06.08-.12.17-.18.25,0,0,0,0,0,.01-.08.12-.17.24-.25.37,0,0,0,0,0,0,0,0,0,0,0,0,0,0-.01.02-.02.02,0,0,0,0,0,0,0,0-.01.02-.02.03-.02.03-.04.06-.06.08-.07.12-.15.25-.22.37,0,0,0,0,0,0-.04.08-.09.15-.13.23-.08.14-.17.29-.26.43-.02.03-.03.06-.05.08-.02.03-.04.07-.06.1,0,.01-.02.03-.02.04-.03.05-.07.11-.11.16-.13.19-.26.38-.4.57-.14.19-.28.37-.44.54-.14.15-.29.31-.43.46-.09.09-.18.17-.28.25-.18.15-.37.29-.54.45-.01.01-.03.02-.04.04,0,0,0,0,.01-.01-.04.04-.08.07-.12.11-.01.01-.03.03-.04.04-.03.03-.07.06-.1.09-.1.09-.19.18-.28.27-.14.13-.29.24-.45.35.02-.01.04-.03.06-.04-.16.12-.3.25-.46.38-.25.2-.52.35-.78.52-.28.18-.55.39-.86.52-.23.1-.48.17-.72.23-.13.03-.27.07-.41.09-.67.27-1.36.47-2.07.57,0-.02.02-.03.02-.05-.03,0-.05.01-.08.02-.1.02-.21.03-.31.04,0,0,0,0,0,0,0,0,0,0,0,0,0,0,0,0-.01,0,0,0,0,0-.01,0-.1,0-.19.01-.29.02.04,0,.08,0,.12,0-.14,0-.28.04-.42.05-.05,0-.1,0-.15,0-.02,0-.04,0-.06,0-.05,0-.09,0-.14,0-.11,0-.21-.01-.32-.02-.17-.01-.34-.03-.51-.07,0,0,0,0,0,.01-.61-.09-1.23-.26-1.86-.52-.28-.06-.55-.19-.8-.34-.13-.05-.25-.11-.38-.17-.17-.08-.34-.17-.51-.25-.02,0-.03-.02-.05-.03-.08-.04-.15-.08-.22-.12-.09-.05-.18-.1-.27-.15-.07-.04-.13-.08-.2-.12-.07-.04-.13-.08-.2-.12-.07-.04-.13-.08-.2-.13-.03-.02-.06-.04-.1-.07-.06-.05-.12-.09-.18-.14-.03-.03-.06-.05-.09-.08-.17-.15-.32-.33-.43-.53-.39-.33-.76-.68-1.12-1.05-.24-.2-.47-.41-.68-.64-.31-.34-.58-.73-.83-1.12-.05-.08-.11-.16-.16-.24-.05-.08-.11-.16-.16-.25,0,.01.01.02.02.03-.01-.02-.02-.04-.04-.06-.02-.03-.04-.07-.07-.1-.04-.05-.08-.1-.12-.16-.06-.08-.12-.16-.19-.25-.13-.17-.25-.34-.38-.51-.12-.16-.25-.32-.36-.48-.17-.24-.29-.5-.41-.78-.09-.23-.17-.46-.24-.69,0,0,0-.02,0-.03-.02-.07-.05-.14-.07-.22-.03-.1-.07-.2-.1-.3-.03-.1-.06-.2-.1-.3,0-.02-.01-.03-.02-.05,0-.01,0-.03-.01-.04-.01-.03-.02-.06-.03-.1-.08-.24-.16-.49-.23-.73,0,0,0,0,0,0,0,0,0,0,0,0,0,0,0,0,0,0h0s0,0,0,0c0,0,0,0,0,0,0,0,0-.01,0-.02,0,0,0,0,0,0,0,0,0,0,0-.01,0,0,0,0,0,0,0,0,0,0,0,0,0,0,0,0,0,0h0s0-.02,0-.03,0-.02,0-.02c-.02-.06-.03-.12-.05-.17-.12-.44-.21-.88-.25-1.33-.05-.44-.05-.87-.04-1.31,0-.14.01-.27.02-.41.02-.36.1-.73.2-1.09.03-.74.11-1.48.25-2.22.1-.46.21-.92.35-1.37,0-.21.08-.41.13-.61.08-.27.17-.53.27-.79.04-.11.09-.22.14-.33.05-.17.09-.35.14-.52,0,.02-.01.05-.02.07.02-.06.03-.11.05-.16,0,0-.01-.01-.02-.02.16-.36.33-.7.49-1.04,2.67-5.76,7.3-11.01,13.41-13.27-4.3,4.17-6.25,8.12-1.8,13.14.99.94,2,2.33,3.25,3.03.07.12.16.22.29.3.26.17.6.2,1.01.12.05,0,.1,0,.15.01.7,0,1.13-.27,1.29-.57,1.71-.88,3.71-2.46,4.64-2.91,1.78-1.15,3.61-2.24,5.51-3.19,3.72-1.87,7.8-2.82,11.9-3.4,8.62-1.35,17.54-.51,25.74,2.51,5.65,1.89,11.24,4.28,15.74,8.32,5.04,4.78,11.27,11.46,14.43,18.37-1.16-.26-2.42-.25-3.56.02.04-1.55-.36-3.12-1.17-4.44Z"/>
        <path class="cls-6" d="m113.77,60.41c-1.67-1.54-3.76-2.71-5.99-3.24.74-.76,1.26-1.68,1.56-2.67h.04c.47-.06.92-.19,1.4-.21,1.11-.04,2.32-.07,3.28.56.05.03.1.06.16.08.27.79.49,1.58.66,2.37.33,1.6.53,3.2.65,4.8-.74-.75-1.47-1.4-1.77-1.7Z"/>
        <path class="cls-6" d="m114.48,73.51c-1.11-2.74-3.09-5.09-5.58-6.68-2.06-1.77-6.87-1.55-5.66-5.23.48-1.38,1.63-2.23,2.78-3.05.1.14.24.26.43.33,4.17.61,6.58,3.51,9.21,6.3.02,3.23-.27,6.46-.67,9.69-.17-.46-.34-.91-.51-1.36Z"/>
        <path class="cls-3" d="m28.96,59.21c-.81-.19-.99-1.42-.24-1.8.43-.22.86-.43,1.3-.65,1.73-.81,3.69-1.1,5.59-1.11,1.76-.04,3.53.18,5.22.65.96.2,2.05.44,3.01.17.58-.37,1.06-1.13.46-1.7-.74-.02-1.38-.56-2.16-.52-.22-.02-.46,0-.7,0-.72.04-1.47.08-1.63-.82-.1-1.08.96-1.18,1.78-1.17.48,0,.96.03,1.43.11.48-.17,1.03-.05,1.47.16,1.63.61,2.62,2.61,1.73,4.18-1.38,2.68-4.58,1.8-6.93,1.23-1.98-.38-4.05-.49-6.04-.13-.58.13-1.16.25-1.72.42-.84.22-1.54.97-2.39.97-.06,0-.12,0-.18-.01Z"/>
        <path class="cls-7" d="m73.23,76.15c-.05.27-.12.55-.18.82-.15.6-.35,1.19-.57,1.76-.43,1.07-.98,2.08-1.71,2.93-.63.73-1.53,1.39-2.48,1.39-.13,0-.26-.01-.4-.04-.52-.1-.99-.37-1.35-.8-.31-.36-.54-.78-.7-1.23-.29-.79-.4-1.64-.42-2.48-.01-.35,0-.7.02-1.05.01-.19.03-.38.05-.57.03-.31.08-.63.13-.94,1.05-.09,2.11-.17,3.17-.17.25,0,.51,0,.76.01.31.01.62.03.93.06.3.03.62.07.94.1.58.06,1.2.12,1.82.2Z"/>
        <path class="cls-7" d="m73.47,72.72c.04.48.04.97,0,1.46-.57-.06-1.13-.08-1.69-.09-.53,0-1.05.01-1.56.04-.61.04-1.18.11-1.72.19-.95.15-1.85.44-2.73.8.08-.36.18-.71.28-1.06.06-.19.12-.38.19-.57.09-.26.19-.51.3-.76.02-.05.05-.1.07-.16.5-1.13,1.15-2.23,2.06-3.03.54-.47,1.17-.81,1.87-.86.01,0,.02,0,.03,0,.74-.04,1.41.35,1.9.94.55.71.82,1.61.95,2.52.03.19.05.38.06.57Z"/>
        <path class="cls-7" d="m43.25,72.01v-.31s-.02-.3-.02-.3l-.03-.29-.05-.28-.06-.28-.07-.27-.08-.27-.09-.27-.1-.26-.1-.25-.11-.25-.11-.24-.12-.23-.13-.23-.13-.23-.14-.22-.14-.21-.14-.2-.14-.19-.14-.18-.13-.17-.13-.16-.12-.15-.12-.14-.11-.13-.1-.12-.1-.11-.09-.11-.09-.1-.08-.1-.08-.09-.08-.09-.08-.09-.07-.08-.07-.08-.06-.08-.06-.07-.06-.07-.05-.07-.05-.06-.04-.06-.04-.06-.04-.05-.04-.05-.03-.05-.03-.04-.03-.04-.03-.04-.03-.04-.03-.03-.03-.03-.03-.03-.03-.03-.03-.03-.03-.02-.03-.02-.03-.02-.03-.02h-.03s-.03-.03-.03-.03h-.03s-.03-.02-.03-.02h-.03s-.85.31-.85.31h-.02s-.08-.02-.08-.02l-.12-.02-.13-.02-.13-.03-.13-.02-.13-.03-.13-.03-.13-.03-.13-.03-.13-.03-.13-.03-.13-.03-.14-.03-.15-.03-.16-.03-.16-.03-.16-.02-.16-.02-.16-.02-.16-.02h-.16s-.16-.03-.16-.03h-.16s-.17-.01-.17-.01h-.18s-.18.01-.18.01l-.18.02-.18.02-.18.03-.18.04-.18.05-.19.06-.19.08-.19.09-.19.1-.2.12-.2.13-.21.14-.21.15-.2.16-.2.17-.2.18-.2.19-.21.19-.21.2-.22.2-.22.2-.21.2-.21.2-.2.2-.2.19-.18.18-.18.17-.17.17-.17.17-.16.16-.15.16-.14.15-.13.15-.13.16-.12.16-.11.17-.11.17-.1.18-.09.19-.08.2-.08.21-.07.22-.06.23-.06.24-.06.24-.05.25-.05.26h0c-.72.19-1.41.46-2.04.82-1.25,1.08-2.75,2.44-3.04,4.13-.02,1.25,1.93,1.29,1.97.05.52-.85,1.15-1.65,1.89-2.32.28-.19.57-.35.86-.5l-.02.2-.02.22v.23s-.03.23-.03.23v.23s-.01.23-.01.23v.23s0,.24,0,.24v.24s.02.25.02.25l.02.25.02.25.03.26.03.26.03.27.03.27.04.27.04.27.04.27.04.27.04.27.05.27.05.26.05.26.06.26.07.25.08.25.09.24.1.23.11.22.12.21.14.2.15.18.16.17.17.16.19.14.2.12.22.11.23.09.24.08.25.07.26.05.27.04.28.03.29.02.29.02h.3s.3.01.3.01h.62s.32,0,.32,0h.32s.32,0,.32,0h.32s.32,0,.32,0h.32s.32-.01.32-.01h.32s.31-.03.31-.03l.31-.03.31-.04.31-.06.31-.08.31-.1.3-.12.3-.15.3-.17.3-.19.3-.21.3-.23.3-.25.29-.26.29-.27.28-.28.27-.29.27-.29.26-.3.26-.3.25-.3.24-.29.22-.29.21-.29.19-.29.18-.29.17-.29.16-.29.14-.29.13-.29.12-.3.1-.31.09-.31.08-.32.07-.33.06-.34.06-.34.05-.35.04-.34.03-.34.03-.34.02-.33v-.32Zm2.98-15.89c.01-.33.08-.69.15-1.01-.09-.86-.44-1.66-1.16-2.27-.04-.05-.09-.11-.13-.17,0,.07.01.14.02.2-.2-.13-.4-.24-.63-.32-.14-.07-.28-.12-.43-.16-.46-.21-.95-.35-1.44-.41-.52-.08-1.05-.12-1.57-.12-3.24,0-6.43,1.41-9.24,2.92-1.35.79-2.63,1.67-3.92,2.56-1.19.52-3.61,2.52-1.51,3.46,1.21.21,2.17-.82,3.12-1.42.32-.23.62-.43.92-.6.02-.01.04-.02.06-.03,0,0,0,0,.01,0,.15-.1.32-.19.47-.26,1.5-.96,3.34-1.35,5.11-1.19,2.51.29,5.01.82,7.54.71,1.33.04,2.13-.8,2.61-1.88Zm6.76,17.59c.1-1.22,1.4-4.93-.5-5.08-.99,0-1.03,1.05-1.01,1.8-.06.86-.18,1.71-.34,2.55-.97,4.92-4.47,8.89-8.03,12.24-1.36,1.23-2.82,2.52-3.37,4.33-.98,2.96.7,6.56,3.67,7.57.66.24,1.43.03,1.94-.43-.2.07-.45.13-.68.14-1.3.03-2.12-1.36-2.69-2.36-1.29-2.47-.46-5.49,1.75-7.12,4.05-3.71,8.09-8.11,9.28-13.63Zm1.44,50.59c-.17.01-.38.06-.57.06-4.05.14-8.21-.62-11.97-2.16-.54,0-.99.45-.99.99.13,1.49,3.74,2.04,5.03,2.28,2.85.3,5.92.18,8.5-1.18Zm20.34-10c1.91-4.16.53-9.26-2.97-12.15-1-.83-4.31-4.39-4.92-1.72,0,.56.4.81.84,1.03-.78,1.02-1.85,1.78-2.92,2.5-.31.21-.74.42-1.08.68-8.79,4.35-16.1,6.5-27.47,3.53-1.91-.5-3.69-1.21-5.49-2.09-.99-.37-2.25-1.42-3.45-1.71.26-.5.57-.97.94-1.42,0,0,0,0,0,0,.58-.91-.71-1.98-1.49-1.24-3.29,3.52-2.52,9.09.39,12.61-.35-1.1-.62-2.28-.77-3.47,2.67.88,4.73,2.96,7.14,4.4,4.6,2.93,9.8,5.22,15.3,5.54,6.59.42,13.11-2.4,17.86-6.9.49-.45.97-.92,1.43-1.41h0c.22-.02.44-.11.6-.28,1.6-1.57,3.25-3.13,4.51-4.99,1.14,2.15,1.72,4.59,1.54,7.09Zm9.62-34.31c.46-1.73.59-3.56.4-5.33-.39-3.65-2.16-7.08-4.9-9.51-1.74-1.55-3.84-2.68-6.09-3.26-.04-.01-.09-.02-.13-.02-2.51-.62-5.18-.62-7.67.11-1.78.52-3.48,1.33-4.94,2.47-1.52,1.18-2.84,2.62-3.81,4.3-.91,1.59-1.57,3.33-1.85,5.15-.29,1.88-.24,3.8.19,5.65.83,3.61,3.03,6.85,6.09,8.94h0s.05.04.07.05c.83.55,1.75,1.07,2.73,1.45,1.03.41,2.1.71,3.2.89.77.13,1.54.19,2.32.19.89,0,1.79-.08,2.66-.24h0c.14-.02.27-.05.41-.08.07-.01.14-.03.21-.04,1.86-.41,3.61-1.2,5.18-2.26.5-.35.98-.72,1.43-1.13h0s.04-.04.05-.05c.74-.66,1.46-1.44,2.07-2.3,1.08-1.51,1.88-3.18,2.36-4.97Zm-.16-18.61c3.89,1.23-.33-6.2-1.39-7.17-2.49-3.2-6.19-4.8-9.96-5.89-2.66-1.08-8.12-.45-7.31,3.46.96,2.76,4.48,2.55,6.86,2.31.22-.01.44-.02.66-.02,1.69,0,3.37.33,4.97.9,2.2.66,4.06,2.24,5.11,4.28.41.68.47,1.58,1.07,2.13Zm7.26,8.8c.2-.06.39-.09.59-.09-.04-.07-.07-.14-.12-.2-.06-.08-.12-.16-.18-.23-.22-.24-.45-.47-.69-.69-.13-.11-.26-.21-.39-.31-.1-.06-.19-.12-.29-.17-.1-.05-.21-.09-.32-.13-.07-.02-.15-.04-.22-.06-.1-.02-.21-.03-.31-.04-.12,0-.23,0-.35,0-.14.01-.28.03-.42.06-.02,0-.05.01-.07.02,0,0-.02,0-.02.01-.04.03-.08.06-.12.1-.27.25-.52.52-.77.79-.1.11-.19.23-.28.34-.03.05-.06.1-.09.15-.03.07-.06.14-.09.22-.05.15-.1.3-.13.45-.02.13-.04.26-.05.39-.01.21-.01.42,0,.62,0,.1.02.21.03.31,0,.03,0,.05.01.08,0,.04.01.09.02.13l.09-.03c.07-.02.13-.05.2-.07.47-.17.95-.33,1.41-.52.07-.03.13-.05.2-.08.13-.05.26-.11.39-.17.06-.03.11-.05.17-.08.07-.04.15-.07.22-.11.2-.07.4-.16.6-.26.03-.02.06-.03.09-.04.27-.13.54-.27.82-.36.02,0,.05-.01.07-.02,0,0,0,0,0,0Zm4.7,13.19s.03,0,.05,0c-.41-1.31-.83-2.62-1.24-3.94-.81-2.57-1.61-5.13-2.42-7.7-.06.04-.12.08-.2.1-1.47.53-2.83,1.34-4.34,1.75-.05.03-.09.05-.14.07.03.1.06.2.08.3.02.07.04.15.06.22.03.09.05.18.08.28.07.25.14.5.22.75.23.82.47,1.65.7,2.47.42,1.46.83,2.93,1.24,4.39.28.98.56,1.97.84,2.95.2-.07.39-.13.59-.2.1-.03.2-.06.3-.09.13-.04.26-.08.39-.11.05-.02.11-.03.16-.04.07-.02.13-.04.2-.05.07-.02.14-.04.21-.06.07-.02.15-.04.22-.06.55-.15,1.1-.3,1.63-.49.02,0,.04-.02.07-.02.02,0,.04-.02.07-.02.09-.03.17-.06.25-.1.05-.02.1-.04.14-.06.15-.06.31-.13.46-.21.09-.05.19-.09.28-.11.02,0,.03,0,.05,0,.02,0,.03,0,.05,0h0Zm.45,2.41c.02-.22.03-.44.03-.66-1.22.64-2.58.92-3.9,1.3-.36.07-.74.25-1.12.39.06.13.13.25.2.37.11.17.22.33.34.49.11.13.22.25.34.37.1.1.21.19.33.28.1.07.2.14.31.2.09.05.19.1.29.14.09.03.18.06.28.09.09.02.18.04.27.05.08,0,.16,0,.24,0,.09,0,.18-.01.27-.02.07-.01.14-.03.21-.05.08-.03.15-.05.22-.08.08-.04.16-.08.23-.12.07-.05.15-.1.21-.15.09-.08.18-.16.27-.25.07-.08.14-.16.2-.24.09-.12.17-.24.24-.37.08-.15.15-.29.22-.45.08-.2.14-.39.19-.6.05-.23.1-.46.12-.69Zm6.92,6.57c.5,1.18,2.33.39,1.82-.77-.52-1.1-1.13-2.18-2.01-3.04-.45-.52-1.41-1.18-2.14-1.18-.46,0-.82.26-.92.97-.03.73.67.89,1.17,1.19.97.7,1.58,1.77,2.09,2.83Zm2.2-3.26c.63,1.11,2.35.1,1.7-.99-1.11-2.24-2.75-4.16-4.63-5.8-.17-.32-.52-.49-.86-.49-.3,0-.59.12-.78.38-.52.66.03,1.42.61,1.82,1.61,1.45,3,3.1,3.97,5.09Zm3.52-2.13c.77.36,1.67-.52,1.29-1.29-.58-1.18-1.21-2.35-1.87-3.53-.94-1.65-1.98-3.28-3.4-4.56-.54-.58-1.91-1.57-2.81-1.57-.51,0-.88.32-.85,1.22.07.33.37.61.69.69.59.2,1.06.61,1.52,1.01,2.17,1.94,3.39,4.67,4.74,7.2.15.31.32.7.68.84Zm2.36-2.82c.49,1.19,2.31.4,1.81-.77-.34-.84-.66-1.69-.99-2.53-1.88-4.25-4.92-10.73-9.96-11.57-.98.12-1.15,1.55-.23,1.89.45.11.89.26,1.3.48,4.31,2.71,6.25,7.96,8.06,12.49Zm2.82-5.25c-.5,3.51-1.02,7.02-1.33,10.51-.04.58-.08,1.17-.13,1.75-.87-.25-2.08.78-2.83,1.17-.65.55-1.69.9-1.92,1.78-.08.53.31,1.04.84,1.11,1.26-.16,2.11-1.5,3.32-1.92.13-.05.27-.1.4-.16-.75,7.42-2.22,14.71-3.93,21.97-1.42.74-3.53.06-4.67-1.13-.89-.52-1.17-2.49-2.48-1.61-1.08,1.15.53,2.84,2.25,3.9-6.07,11.08-11.33,12.77-21.72,19.06,3.8-.63,7.29-1.98,10.42-3.88-.01.03-.02.05-.03.08-.13.31-.27.62-.39.93-.03.06-.05.13-.06.2-.15.31-.29.62-.44.94-.09.19-.18.39-.27.58-.11.24-.26.49-.3.76-.08.6.4,1.07.74,1.51.26.34.52.67.78,1,.21.28.45.55.65.84.08.26.14.53.22.8.08.28.15.56.23.83.16.58.32,1.16.48,1.74.01.05.03.09.05.13-5.04,5.52-10.24,10.92-15.83,15.88-.55.26-1.11.74-1.6.91-.9.45-1.95.87-3.01,1.25-4.35,1.32-8.99,2.42-13.59,2.42-1.42,0-2.84-.1-4.24-.34-3.56-.51-7.1-1.44-10.13-3.45-.15-.13-.32-.21-.48-.26-2.91-3.24-5.87-6.44-8.33-10.08-.9-1.44-1.79-2.88-2.66-4.33,1,.3,2.01.57,3.02.84.25.1.49.22.73.35.04.02.08.05.11.07.17.12.34.24.51.35,1.18.8,2.38,1.59,3.58,2.36,1.11.71,2.22,1.4,3.33,2.09t0,0s0,0,0,0c-.39-.36-.79-.73-1.18-1.09.17.11.34.2.51.28-1.12-.75-3.24-4.3-1.58-5.22,3.98,1.69,8.27,2.71,12.77,2.89,3.99.4,7.99-.94,11.23-3.21-7.03,1.94-14.57,1.61-21.45-.77-7.57-2.7-14.01-8.09-18.64-14.62-3.18-4.56-5.04-10.07-6.8-15.38-5.51-13.1-5.51-28.01-.83-41.37,1.64-4.54,3.74-8.91,6.13-13.11.74-1.33,1.44-2.63,2.1-3.98h.02c5.69,0,10.65-5.2,13.07-9.98.4-.74.77-1.5,1.12-2.27h0c.27-.39.52-.79.76-1.19,4.65-6.96,7.05-5.5,10.56-4.04,1.6.66,3.42,1.33,5.8,1.2,5.38-.34,9.78-5.85,15.35-4,6.3,2.92,6.3,10.84,14.52,11.71,1.76.25,3.82.1,5.93-.05,5.35-.38,10.96-.77,12.48,5.4.73,2.82-1.14,5.15-3.47,6.47-2.66,1.71-4.48,6.15-1.51,8.42,1.75,1.14,3.9,1.54,5.59,2.81,4.23,2.83,4.41,6.24,6.25,10.15Z"/>
        <path class="cls-1" d="m79.9,206.89c.91-7.07,1.12-14.27,1.61-21.44.68-7.49.95-15.73,4.02-22.75,4.74-3.75,9.07-8,12.61-12.94,12.06-16.88,14.12-19.46,18.26-40,1.41-6.31,3.23-12.52,4.54-18.85,1.48-7.81,2-15.8,1.58-23.74-.08-3.77-.81-7.47-1.52-11.16-.98-4.77-2.1-9.61-4.73-13.79-7.38-10.17-17.71-18.12-29.12-23.29-5.55-2.03-11.38-3.66-17.33-3.53-7.44.72-14.92,1.81-22.18,3.63-4.32,1.16-7.89,4.02-11.35,6.73-1.52,1.31-3.38,2.4-4.67,3.93-.28-.36-.54-.72-.79-1.05.18-.1.33-.26.42-.5,4.03-4.83,8.95-8.95,14.65-11.69,5.1-2.43,10.18-4.96,15.45-6.98,5.31-1.54,10.77-2.62,16.26-3.3,13.74-2.72,28.13,2.13,38.61,11.14,4.62,4.1,8.73,8.77,12.58,13.59,2.4,3.17,4.87,6.33,6.74,9.85,1.83,3.7,2.91,7.71,3.86,11.71,2.3,10.94,5.53,21.83,5.49,33.1-.23,18.35-5.94,37.17-18.49,50.92-2.19,2.42-4.44,4.78-6.76,7.08-.31.09-.55.35-.66.65-4.03,3.97-8.23,7.77-12.49,11.49-4.52,3.64-9.17,7.95-11.02,13.66,4.87-5.85,10.73-10.84,16.46-15.85,2.81-2.52,5.59-5.09,8.3-7.73,4.51,1.96,9.27,3.5,12.89,7.04,4.74,4.2,8.04,9.82,10.72,15.49,1.92,4.01,3.73,8.06,5.53,12.12,1.07,2.79,2.22,5.54,2.84,8.52,0,0,0,.01,0,.02-.04.13-.07.26-.09.39-.27.76-.62,1.5-1.07,2.16-3.27,4.79-8.79,7.08-13.92,9.32-9.2,4.54-19.53,4.66-29.55,5.56-7.13.33-14.31.56-21.5.56-2.05,0-4.1-.02-6.15-.06Z"/>
        <path class="cls-1" d="m89.23,156.59c.08-.26.05-.56-.08-.81-.12-.72-.37-1.35-.74-1.69-.39-.43-1.13-1.05-1.85-1.35,1.95-1.99,3.87-4.03,5.82-6.02,3.9-4.13,7.96-8.17,10.86-13.13,3.3-5.73,6.54-11.63,7.57-18.24.92-4.49,2.17-8.91,2.85-13.44.83-5.2,1.18-10.45,1.8-15.68,1.05-9.29,3.23-18.7,1.6-28.05-.94-6.59-4.98-12.17-9.1-17.19-4.5-5.62-9.7-10.89-16.34-13.93-5.88-2.75-12.16-4.79-18.56-5.9-8.67-1.04-17.75-.42-25.98,2.63-4.88,1.83-8.94,5.2-13.52,7.6-.17-.04-.33-.04-.48,0-.08-.08-.17-.16-.25-.25.32-.22.57-.53.88-.77,4.14-3.24,8.2-7.15,13.25-9.05,7.32-2.14,15-3.05,22.56-3.92,9.79-.21,19.21,3.75,27.27,9.06,7.16,5.01,14.15,10.85,18.73,18.39,3.81,8.54,5.06,18.13,5.18,27.43.38,13.64-3.89,26.65-6.83,39.83-1.51,6.33-2.59,12.89-5.61,18.73-1.9,3.88-4.51,7.34-6.91,10.92-3.28,4.9-6.66,9.67-10.78,13.93-.42.45-.86.89-1.33,1.34,0-.14,0-.28,0-.42Z"/>
        <path class="cls-1" d="m58.43,205.58c-3.73-.49-7.44-1.14-11.09-2.07-3.43-.91-6.68-2.09-9.99-3.25.03-1.12.08-2.23.15-3.35.42-4.51.91-9.15,1.75-13.62.86-4.14,2.07-8.43,2.36-12.74.09-1.15.09-2.3.03-3.44,2.99,5.25,5.32,11,6.66,16.89,1.02-7.19-2.56-14.6-7.27-21.61-.53-2.71-1.32-5.39-2.17-8.01.06-.19.1-.38.13-.57,2.22,2.7,4.59,5.28,6.97,7.83,3.44,4.18,6.47,10.01,12.62,10.09,7.55.27,14.61-7.28,20.56-12.14.21-.13.38-.28.53-.43.33-.27.66-.52.98-.76.41-.36.81-.73,1.21-1.1,0,.67.15,1.33.51,1.88-.93,1.75-1.73,3.48-2.42,5.21-8.32,6.09-17.47,12.54-19.62,20.6,5.06-6.76,11.71-12.2,18.43-17.31-2.95,9.14-3.08,18.28-3.39,29.17-.18,3.29-.71,6.58-1.39,9.84-5.21-.21-10.41-.57-15.57-1.13Z"/>
        <path class="cls-1" d="m10.59,188.12c-2.58-2.32-5.05-5.41-5.13-9.01.16-.16.26-.38.26-.68.07-1.98.48-3.94.82-5.89.19-.78.41-1.86.56-2.72.02-.08.02-.17.01-.27.62-1.98,1.23-3.97,1.86-5.94,1.4-4.05,3.64-7.88,6.04-11.47,2.51-3.49,5.75-7.19,10.1-8.2.38.61.77,1.22,1.18,1.82,3.11,4.41,6.48,8.63,9.67,12.98,2.5,12.02-2.04,24.3-3.72,36.28-.22,1.13-.38,2.25-.5,3.37-7.46-2.53-15.14-5.01-21.16-10.27Z"/>
        <path class="cls-1" d="m27.6,144.19c-3.96-6.11-6.88-12.79-9.57-19.53-3.91-8.7-6.39-17.99-7.26-27.51-.59-10.3,2-20.57,4.95-30.4,1.51-4.17,3.26-8.27,5.47-12.12.39-.68.78-1.37,1.19-2.05,1.1.61,2.28,1.09,3.53,1.39-.3.6-.61,1.2-.93,1.79-5.18,8.8-9.13,18.42-10.24,28.64-.78,5.91-.39,11.85.56,17.74.86,4.72,2.74,9.09,4.27,13.63,1.16,4.27,2.99,8.34,5.35,12.04,1.1,3.64,2.35,7.27,4.19,10.62,1.99,3.55,4,7.1,6.23,10.5-1.38.1-2.14,1.25-2.34,2.62-2-2.6-3.88-5.07-5.4-7.38Z"/>
        <path class="cls-1" d="m12.45,70.39c-.03-.99.02-1.99.11-2.98h0s0-.08.01-.12c.19-1.91.55-3.88.99-5.81,0,0,0,0,0,0,0,0,0-.01,0-.02,0,0,0,0,0-.01h0s0-.05.02-.07c0,0,0,0,0,0,0,0,0,0,0-.01,0-.02,0-.03.01-.05.06-.25.12-.49.18-.74.57-2.31,1.28-4.59,2.11-6.81h0s.02-.05.02-.07c.15-.4.33-.84.5-1.29.48-1.22.93-2.46,1.43-3.69.85,1.05,1.81,2,2.88,2.8-.16.27-.3.51-.42.69-1.6,2.69-3.05,5.47-4.25,8.36-1.52,3.3-2.66,6.74-3.6,10.23,0-.13-.02-.27-.02-.4Z"/>
        <path class="cls-3" d="m69.92,78.93c-1.02-.16-.8-1.27-.63-2,.19-1,.68-3.87,2.19-3.12,1.07.69-.1,1.75-.23,2.62-.28.84-.02,2.5-1.23,2.5-.03,0-.07,0-.1,0Z"/>
        <path class="cls-7" d="m73.47,72.72c.04.48.04.97,0,1.46-.01.19-.03.39-.04.58,0,.03,0,.06-.01.09-.02.16-.03.32-.06.49-.04.27-.08.55-.14.82-.05.27-.12.55-.18.82-.36.74-.56,1.67-1.31,2.09-.28.6-.48,1.28-1.01,1.71-.59.5-1.53-.03-1.49-.78-.77-.24-.74-1.21-.25-1.72h0c-.77.13-1.23-.67-1.27-1.34-.41,1.13-1.76,1.54-2.27.51.01-.19.03-.38.05-.57.03-.31.08-.63.13-.94,0-.01,0-.03,0-.04,0-.04.01-.07.02-.11.04-.23.09-.45.14-.67.08-.36.18-.71.28-1.06.06-.19.12-.38.19-.57,1.67-1.19,3.7-2.23,5.16-.48.15-.05.32-.05.49,0,.4.11.64.46.67.86.27-.38.55-.82.91-1.14Z"/>
        <path class="cls-7" d="m19.86,79.72c-.32-.49-.05-1.07.28-1.48-.75-.71-.08-1.77.3-2.5,1.36-2.46,3.9-3.92,6.55-4.82l-.03.12-.05.25-.05.26-.05.26-.05.26-.04.25-.04.24-.04.24-.04.24-.03.23-.03.23-.02.22-.02.22-.02.22v.23s-.03.23-.03.23v.23s-.01.23-.01.23v.23s0,.24,0,.24v.24s.02.25.02.25v.18c-.42.34-.9.56-1.42.21-1,.98-1.95,2.01-2.97,2.96-.35.38-.93.8-1.44.8-.28,0-.55-.12-.75-.45Z"/>
        <path class="cls-3" d="m29.95,72.7c-.17.57-.31,1.14-.42,1.73-.32.03-.64.07-.95.12-.26.04-.51.09-.76.14-.03,0-.05.01-.08.02-.12.03-.25.06-.37.09-.13.04-.27.08-.4.12-.18.06-.37.12-.55.2l-.04.02c-.13.05-.25.11-.38.17-.06.03-.12.06-.19.09v-.02s.03-.24.03-.24l.03-.25.03-.25.04-.26.04-.26.02-.1.03-.16.04-.27.05-.28.05-.28c1.2-.34,2.49-.42,3.78-.31Z"/>
        <path class="cls-7" d="m42.57,73.16v.34s0,.35,0,.35l-.02.36-.03.37-.03.37-.04.38-.05.38-.06.38-.06.37-.07.36-.03.13-.05.22-.09.34-.1.34-.12.33-.13.32-.14.32-.16.32-.17.32-.18.32-.19.32-.21.32-.22.32-.24.32-.25.32-.26.32-.26.32-.27.32-.27.32-.28.31-.29.3-.29.29-.3.27-.3.25-.3.23-.3.21-.3.19-.3.16-.3.13-.31.11-.31.09-.31.07-.31.05-.31.03-.31.02h-.32s-.32.02-.32.02h-.32s-.32.01-.32.01h-.32s-.32,0-.32,0h-.32s-.32.01-.32.01h-.31s-.31,0-.31,0h-.3s-.3-.02-.3-.02l-.29-.02-.29-.03-.28-.04-.27-.05-.26-.06-.25-.07-.24-.09-.23-.1-.22-.12-.2-.14-.19-.15-.17-.17-.16-.19-.15-.2-.14-.22-.12-.23-.11-.24-.1-.25-.09-.26-.08-.27-.07-.28-.06-.28-.05-.28-.05-.29-.05-.29-.04-.3-.04-.3-.04-.3-.04-.3-.04-.3-.03-.3-.03-.29-.03-.29-.03-.28-.02-.28v-.08s-.02-.2-.02-.2v-.27s-.02-.27-.02-.27v-.26s0-.25,0-.25v-.25s.01-.25.01-.25v-.25s.03-.25.03-.25l.02-.24.02-.21c.06-.03.12-.06.19-.09.13-.06.25-.12.38-.17l.04-.02c.18-.07.36-.14.55-.2.13-.04.27-.08.4-.12.12-.03.24-.06.37-.09.02,0,.05-.01.08-.02.25-.06.5-.1.76-.14.31-.05.63-.09.95-.12,0,.04-.01.07-.02.11-.06.32-.1.65-.14.98-.06.54-.08,1.08-.07,1.62.02.84.14,1.69.42,2.48.17.46.4.87.7,1.23.36.42.83.69,1.35.8.13.03.27.04.4.04.95,0,1.85-.66,2.48-1.39.73-.85,1.28-1.86,1.71-2.93.43-1.08.74-2.23.9-3.39.02-.16.04-.32.06-.48,0-.03,0-.07.01-.1.08-.87.1-1.75-.03-2.61-.13-.92-.4-1.81-.95-2.52-.49-.59-1.15-.98-1.9-.94,0,0-.02,0-.03,0-.69.05-1.33.39-1.87.86-.91.8-1.55,1.9-2.06,3.03-.02.05-.05.1-.07.16-.18.43-.35.88-.49,1.33-1.28-.12-2.58-.03-3.78.31h0s.05-.28.05-.28l.05-.28.03-.13.03-.14.06-.26.06-.25h0s.07-.25.07-.25l.08-.23.08-.22.09-.21.1-.2.11-.19.11-.18.12-.17.05-.07.08-.1.13-.16.14-.17.15-.17.16-.18.17-.18.17-.19.18-.19.18-.2.2-.21.2-.22.21-.22.21-.22.22-.22.22-.22.21-.22.21-.21.2-.2.2-.2.2-.19.2-.18.21-.17.21-.16.2-.14.2-.13.19-.11.19-.1.19-.08.19-.07.18-.05.18-.04.18-.03.18-.02.18-.02h.18s.18-.01.18-.01h.17s.16.01.16.01h.16s.16.03.16.03l.16.02.16.02.16.03.16.03.16.03.16.03.15.04.14.03.13.03.13.03.13.03.13.03.13.03.13.03.13.03.13.03.13.03.13.03.12.02.08.02h.02s.85-.34.85-.34h.03s.03.02.03.02h.03s.03.02.03.02l.03.02.03.02.03.02.03.02.03.03.03.03.03.03.03.03.03.04.03.04.03.04.03.04.03.04.03.05.03.05.04.06.04.06.04.06.04.07.05.07.05.07.06.08.06.08.06.08.07.09.07.09.08.09.08.1.08.1.08.1.09.11.09.12.1.12.1.13.11.14.12.15.12.16.13.17.13.19.14.2.14.21.14.22.14.23.14.24.13.25.13.25.12.26.11.26.11.27.1.28.1.28.09.29.08.29.07.3.06.3.05.31.03.32.02.33Z"/>
        <path class="cls-7" d="m30.44,71.37c-.18.43-.35.88-.49,1.33-.17.57-.31,1.14-.42,1.73,0,.04-.01.07-.02.11-.06.32-.1.65-.14.98-.12-.15-.2-.34-.22-.55-.85.73-1.68,1.49-2.49,2.27-.03.02-.06.05-.08.07-.25.23-.51.53-.8.77h0v-.2s-.02-.27-.02-.27v-.27s0-.26,0-.26v-.25s0-.25,0-.25v-.25s.02-.25.02-.25v-.25s.03-.24.03-.24l.02-.21v-.02s.03-.24.03-.24l.03-.25.03-.25.03-.26.04-.26.02-.1.03-.16.04-.27.05-.28.05-.28.05-.28.05-.28.03-.13h0c.75-.28,1.5-.51,2.24-.7.51-.53,1.39-1.02,1.88-.25Z"/>
        <path class="cls-3" d="m37.31,70.78c.12.86.11,1.74.03,2.61,0,.03,0,.07-.01.1-.02.16-.03.32-.06.48-.16,1.17-.47,2.32-.9,3.39-.43,1.07-.98,2.08-1.71,2.93-.63.73-1.53,1.39-2.48,1.39-.13,0-.26-.01-.4-.04-.52-.1-.99-.37-1.35-.8-.31-.36-.54-.78-.7-1.23-.29-.79-.4-1.64-.42-2.48-.02-.54,0-1.08.07-1.62.03-.33.08-.65.14-.98,0-.04.01-.07.02-.11.11-.58.25-1.16.42-1.73.14-.45.3-.9.49-1.33.02-.05.04-.11.07-.16.5-1.13,1.15-2.23,2.06-3.03.54-.47,1.17-.81,1.87-.86.01,0,.02,0,.03,0,.74-.04,1.41.35,1.9.94.55.71.82,1.61.95,2.52Z"/>
        <path class="cls-7" d="m42.15,76.91c-1.54.4-1.33-1.59-1.15-2.54.19-1.34.41-2.68.65-4.01-.12-.21-.18-.46-.2-.7-.83-.47-.36-2.06.08-2.67.25-.24.64-.35.98-.24.68-.13,1.24.47,1.24,1.13.45-.52,1.17-1.1,1.8-.48.35.35.36.95,0,1.3-.32.31-.64.62-.98.92.17.26.21.6.09.88,0,.02-.01.03-.02.05.03,1.58-.41,3.15-.73,4.7-.1.87-.67,2.26-1.76,1.67Z"/>
        <path class="cls-7" d="m23.53,79.11c-.98-5.91,2.82-11.96,7.88-14.82.77-.43,1.64-.56,2.52-.52,1.97-.53,4.38-.92,6.22.17,1.42.08,1.88,1.85,2.62,2.83.9,1.38,1.79,2.76,2.75,4.09.72.96-.72,2.07-1.46,1.13-.78-1.09-1.52-2.2-2.26-3.32-.75.29-1.36-.33-1.58-1-.44.3-1.09.08-1.34-.37-4.58-3.52-6.97-.89-10.23,2.57-.55.63-1.01,1.33-1.39,2.08-.02,1.19-.28,2.35-.54,3.5-.34.9-.27,3.15-1.24,3.43-.23.98-1.53,1.24-1.95.25Z"/>
        <path class="cls-3" d="m73.41,72.15c.12.86.11,1.74.03,2.61,0,.03,0,.06-.01.09-.02.16-.03.32-.06.49-.16,1.17-.46,2.31-.89,3.39-.43,1.07-.98,2.08-1.71,2.93-.63.73-1.53,1.39-2.48,1.39-.13,0-.26-.01-.4-.04-.52-.1-.99-.37-1.35-.8-.31-.36-.54-.78-.7-1.23-.29-.79-.4-1.64-.42-2.48-.02-.54,0-1.08.07-1.62.03-.33.08-.65.14-.98,0-.04.01-.07.02-.11.11-.58.25-1.16.42-1.73.14-.45.3-.9.49-1.33.02-.05.05-.1.07-.16.5-1.13,1.15-2.23,2.06-3.03.54-.47,1.17-.81,1.87-.86.01,0,.02,0,.03,0,.74-.04,1.41.35,1.9.94.55.71.82,1.61.95,2.52Z"/>
        <path class="cls-3" d="m19.08,92.23c.19-2.66.52-11.06,2.38-12.68.45-.22,1.02.05,1.21.49.22.45-.1.86-.24,1.28-.57,1.84-.87,3.75-1.1,5.66-.18,1.75-.35,3.5-.41,5.25-.02,1.2-1.83,1.21-1.84,0Z"/>
        <path class="cls-3" d="m21.77,97.49c-.49-.07-.86-.54-.79-1.04.27-1.88.53-3.77.79-5.65.34-2.55.66-5.11,1.09-7.65.09-.49.07-1.11.56-1.39.43-.27,1.01-.09,1.26.33.12.21.15.44.1.65-.32,1.89-.59,3.78-.84,5.67-.25,1.91-.51,3.81-.78,5.72-.32,1,.11,3.46-1.4,3.36Zm2.82-14.34c.1-.1.16-.24.19-.38-.03.14-.1.27-.19.38Z"/>
        <path class="cls-3" d="m24.38,95.28c-2.23-3.11-4.43-6.25-6.79-9.26-.7-.58-.31-1.82.64-1.71.67.09.94.85,1.37,1.3,2.15,2.8,4.19,5.67,6.23,8.55.71.96-.72,2.08-1.46,1.13Z"/>
        <path class="cls-3" d="m25.34,91.13c-2.36-3.08-4.77-6.13-6.98-9.33-.46-.59-.03-1.51.73-1.5.44,0,.74.31.91.65,1.07,1.57,2.23,3.07,3.37,4.58,1.13,1.49,2.26,2.99,3.42,4.46.72.95-.71,2.07-1.46,1.13Z"/>
        <path class="cls-3" d="m89.67,86.62c-.5-1.77-1-3.53-1.5-5.3-.37-1.3-.74-2.6-1.1-3.9-.2-.7-.4-1.41-.6-2.11-.1-.35-.2-.7-.3-1.04-.06-.22-.14-.44-.18-.66-.08-.5.27-.98.77-1.05.46-.07.9.22,1.03.65.17.67.38,1.33.56,1.99.23.82.47,1.65.7,2.47.42,1.46.83,2.93,1.24,4.39.38,1.35.77,2.7,1.15,4.05.14.48-.14,1-.62,1.14-.08.02-.17.04-.25.04-.4,0-.78-.26-.89-.66Z"/>
        <path class="cls-3" d="m96.75,84.98c-.58-1.86-1.17-3.71-1.75-5.57-.87-2.76-1.73-5.51-2.6-8.27-.03-.1-.06-.19-.09-.29-.17-.47.14-1.01.61-1.15.5-.15.98.14,1.15.61.06.17.11.35.17.53.13.4.25.8.38,1.2.24.78.49,1.55.73,2.33.43,1.37.86,2.75,1.29,4.12.58,1.86,1.16,3.71,1.75,5.57.04.13.08.25.12.38.15.48-.13,1.01-.61,1.15-.09.03-.18.04-.27.04-.39,0-.76-.26-.89-.65Z"/>
        <path class="cls-3" d="m92.25,90.09c-.6-.35-1.11-.81-1.55-1.36-.29-.36-.53-.76-.73-1.17-.1-.21-.2-.43-.28-.64-.05-.12-.11-.25-.13-.38-.09-.49.19-.99.69-1.1.46-.1.98.18,1.09.65.06.16.11.31.18.46.1.21.21.42.33.63.11.17.22.33.34.49.11.13.22.25.34.37.11.1.21.19.33.28.1.07.2.14.31.2.1.05.19.1.29.14.09.03.18.06.28.09.09.02.18.04.27.05.08,0,.16,0,.24,0,.09,0,.18-.01.27-.02.07-.01.14-.03.21-.05.07-.02.15-.05.22-.08.08-.04.16-.08.23-.12.07-.05.15-.1.21-.15.09-.08.18-.16.27-.25.07-.08.14-.16.2-.24.09-.12.17-.24.24-.37.08-.15.15-.3.22-.45.08-.19.14-.39.19-.6.05-.23.1-.46.12-.69.02-.26.04-.52.03-.78,0-.2-.02-.39-.04-.59-.06-.5.34-.96.83-1,.51-.05.94.34,1,.83.17,1.49-.08,3.07-.86,4.36-.28.45-.63.85-1.04,1.19-.54.43-1.16.71-1.85.81-.16.02-.33.04-.49.04-.69,0-1.36-.21-1.97-.54Z"/>
        <path class="cls-3" d="m86.1,74.12c-.42-.63-.62-1.37-.72-2.12-.16-1.17-.04-2.47.63-3.47.25-.35.54-.66.83-.97.13-.14.27-.27.41-.4.21-.19.42-.38.69-.49.45-.2.95-.25,1.44-.25.35,0,.7.04,1.04.12.96.24,1.73.88,2.42,1.56.44.44.79.91,1.03,1.48.2.48.34.99.48,1.49.13.48-.16,1-.64,1.13-.48.13-1-.16-1.13-.64-.09-.33-.18-.67-.28-.95,0-.02-.01-.04-.02-.06h0c-.05-.16-.11-.3-.18-.45-.04-.07-.08-.15-.12-.22-.06-.08-.12-.16-.18-.23-.22-.24-.45-.47-.69-.69-.13-.11-.26-.21-.39-.31-.1-.06-.19-.12-.29-.17-.1-.05-.21-.09-.32-.13-.07-.02-.15-.04-.22-.06-.1-.02-.21-.03-.31-.04-.12,0-.23,0-.35,0-.14.01-.28.03-.42.06-.02,0-.05.01-.07.02,0,0-.02,0-.02,0-.04.03-.08.06-.12.1-.27.25-.52.52-.77.79-.1.11-.19.22-.28.34-.03.05-.06.1-.09.15-.03.07-.06.14-.09.22-.05.15-.1.3-.13.45-.02.13-.04.26-.05.39-.01.21-.01.42,0,.62.02.25.06.51.1.76.03.16.08.31.13.46.03.08.06.16.1.24.04.07.08.14.12.21.12.18.21.36.21.59,0,.5-.42.92-.92.92-.34,0-.64-.19-.8-.47Z"/>
        <path class="cls-3" d="m86.14,73.1c-.07-.49.27-.93.74-1.03-.02,0-.04,0-.06.01-.04.01-.07.02-.11.04,1.07-.42,2.18-.73,3.2-1.26.79-.27,1.61-.96,2.47-.73.73.27.74,1.43,0,1.7-1.47.53-2.83,1.34-4.34,1.75-.7.39-1.7.54-1.9-.48Z"/>
        <path class="cls-3" d="m90.22,86.77c-.71-.51-.27-1.73.6-1.66,1.64-.64,3.4-.86,4.97-1.62,1.05-.59,1.96.98.93,1.59-1.24.67-2.62.95-3.96,1.33-.82.17-1.73.89-2.55.36Z"/>
        <path class="cls-9" d="m73.48,74.18c.03-.49.03-.97,0-1.46-.01-.19-.03-.38-.06-.57-.13-.92-.4-1.81-.95-2.52-.49-.59-1.15-.98-1.9-.94,0,0-.02,0-.03,0-.69.05-1.33.39-1.87.86-.91.8-1.55,1.9-2.06,3.03-.02.05-.05.1-.07.16-.11.25-.21.5-.3.76-.07.19-.13.38-.19.57-.11.35-.2.7-.28,1.06-.05.22-.1.45-.14.67,0,.04-.01.07-.02.11,0,.01,0,.03,0,.04-.05.31-.1.62-.13.94-.02.19-.04.38-.05.57-.02.35-.03.7-.02,1.05.02.84.14,1.69.42,2.48.17.46.4.87.7,1.23.36.42.83.69,1.35.8.13.03.27.04.4.04.95,0,1.85-.66,2.48-1.39.73-.85,1.28-1.86,1.71-2.93.23-.57.42-1.16.57-1.76.07-.27.13-.54.18-.82.05-.27.1-.54.14-.82.02-.16.04-.32.06-.49,0-.03,0-.06.01-.09.02-.19.03-.38.04-.58Zm11.31.47c.19,1.78.06,3.6-.4,5.33-.48,1.79-1.28,3.47-2.36,4.97-.61.85-1.33,1.63-2.07,2.3-.02.02-.04.03-.05.05h0c-.46.41-.93.78-1.43,1.13-1.57,1.07-3.32,1.86-5.18,2.26-.07.02-.14.03-.21.04-.14.03-.27.05-.41.08h0c-.88.16-1.77.24-2.66.24-.78,0-1.55-.06-2.32-.19-1.1-.18-2.16-.48-3.2-.89-.98-.38-1.9-.9-2.73-1.45-.02-.02-.05-.03-.07-.05h0c-3.07-2.09-5.26-5.33-6.09-8.94-.43-1.86-.48-3.77-.19-5.65.28-1.82.93-3.56,1.85-5.15.96-1.67,2.29-3.11,3.81-4.3,1.46-1.14,3.17-1.95,4.94-2.47,2.49-.73,5.16-.73,7.67-.11.04,0,.09.01.13.02,2.25.59,4.36,1.72,6.09,3.26,2.74,2.44,4.51,5.87,4.9,9.51Z"/>
        <path class="cls-2" d="m67.71,92.02c-2.6-.37-5.08-1.41-7.19-2.97-2.22-1.64-3.96-3.89-5.05-6.41-.65-1.49-1.05-3.1-1.21-4.71-.02-.18-.03-.37-.03-.43-.13-2.05.12-4.1.76-6.04.24-.74.55-1.45.89-2.14.61-1.19,1.36-2.31,2.24-3.31.92-1.03,1.96-1.94,3.1-2.7.4-.27.81-.51,1.23-.74.02-.02.05-.03.07-.04.13-.07.26-.13.35-.18.43-.21.87-.41,1.32-.59.04-.02.08-.03.13-.04,1.5-.57,3.08-.92,4.69-1.02,2.62-.16,5.28.35,7.65,1.47,2.22,1.05,4.18,2.6,5.7,4.53,1.23,1.56,2.15,3.36,2.72,5.26.68,2.27.82,4.7.44,7.03-.38,2.28-1.26,4.44-2.55,6.35-1.67,2.42-3.97,4.33-6.66,5.52-2,.89-4.18,1.33-6.36,1.33-.75,0-1.49-.05-2.23-.16Zm3.15-1.71c.61-.04,1.22-.12,1.82-.24.61-.13,1.21-.29,1.8-.49.58-.2,1.14-.44,1.7-.71.53-.27,1.05-.57,1.55-.9.49-.33.95-.69,1.4-1.08.44-.39.86-.81,1.26-1.25.38-.44.74-.9,1.07-1.38.34-.51.66-1.04.94-1.59.26-.52.49-1.06.68-1.61.21-.6.38-1.21.51-1.83.12-.61.21-1.23.25-1.73.05-.65.05-1.3.02-1.86,0-.03,0-.07,0-.1h0c-.05-.64-.13-1.28-.26-1.91-.12-.59-.29-1.18-.47-1.72,0-.01-.01-.03-.02-.04v-.02c-.2-.55-.42-1.08-.67-1.59-.27-.55-.58-1.08-.92-1.59-.34-.49-.7-.97-1.09-1.42-.4-.45-.82-.87-1.26-1.27-.43-.38-.89-.73-1.37-1.06-.52-.35-1.05-.66-1.61-.95-.53-.26-1.07-.49-1.62-.69-.6-.2-1.2-.38-1.82-.51-.59-.12-1.2-.2-1.8-.25-.64-.04-1.28-.04-1.91,0-.6.04-1.2.12-1.79.23-.62.13-1.23.29-1.83.49-.28.1-.56.2-.83.32-.21.09-.42.18-.62.28-.02,0-.03.02-.05.02,0,0,0,0-.01,0-.05.03-.11.05-.16.08-.01,0-.03.01-.04.02-.53.27-1.04.57-1.53.89-.48.33-.95.69-1.39,1.07-.44.39-.86.8-1.21,1.2-.02.02-.04.04-.04.05-.41.46-.79.95-1.13,1.46-.32.49-.62.99-.86,1.46-.27.54-.51,1.1-.72,1.68-.21.6-.38,1.21-.51,1.84-.12.6-.2,1.2-.25,1.81-.04.63-.04,1.27,0,1.9,0,0,0,.02,0,.03.05.61.13,1.21.24,1.81.12.59.28,1.18.45,1.69,0,.02.02.04.02.07h0c.21.6.45,1.18.73,1.74.27.54.58,1.05.91,1.56.34.49.7.97,1.09,1.42.39.43.8.84,1.19,1.2.01.01.03.02.04.03h0c.45.39.91.76,1.4,1.09.49.33,1,.63,1.52.9.55.27,1.12.51,1.7.72.56.19,1.13.35,1.71.48.62.13,1.25.22,1.89.27.63.04,1.27.04,1.9,0Z"/>
        <path class="cls-8" d="m92.08,70.08c-.75-.03-1.47.54-2.17.78-.86.45-1.78.74-2.68,1.07-.03-.17-.05-.35-.06-.52-.01-.21,0-.42,0-.62.01-.13.03-.26.05-.39.04-.15.08-.3.13-.45.03-.07.05-.15.09-.22.03-.05.06-.1.09-.15.09-.12.18-.23.28-.34.25-.28.5-.55.77-.79.04-.03.08-.07.12-.1,0,0,.02,0,.02-.01.02,0,.05-.01.07-.02.14-.02.28-.04.42-.06.12,0,.23,0,.35,0,.1.01.21.02.31.04.08.02.15.04.22.06.11.04.21.09.32.13.1.05.2.11.29.17.14.1.27.2.39.31.24.22.48.44.69.69.06.08.12.15.18.23.04.06.08.13.12.2Z"/>
        <path class="cls-8" d="m91.33,76.92c0-.5-.42-.92-.92-.92s-.92.42-.92.92.42.92.92.92.92-.42.92-.92Zm.84,3.12c0-.5-.42-.92-.92-.92s-.92.42-.92.92.42.92.92.92.92-.42.92-.92Zm1.53-3.93c0-.5-.42-.92-.92-.92s-.92.42-.92.92.42.92.92.92.92-.42.92-.92Zm.67,2.88c0-.5-.42-.92-.92-.92s-.92.42-.92.92.42.92.92.92.92-.42.92-.92Zm1.88,4.37c-.14,0-.29.04-.44.13-1.48.72-3.12.96-4.68,1.52-.28-.98-.56-1.96-.84-2.95-.41-1.46-.83-2.93-1.24-4.39-.23-.82-.47-1.65-.7-2.47-.15-.51-.3-1.02-.44-1.54.05-.02.1-.05.14-.07,1.51-.42,2.87-1.23,4.34-1.75.07-.03.14-.06.2-.1.81,2.57,1.61,5.13,2.42,7.7.41,1.31.82,2.62,1.24,3.94Z"/>
        <path class="cls-8" d="m96.67,85.1c0,.22-.01.44-.03.66-.03.23-.07.46-.12.69-.05.2-.12.4-.19.6-.06.15-.14.3-.22.45-.07.13-.16.25-.24.37-.06.08-.13.16-.2.24-.09.09-.17.17-.27.25-.07.05-.14.1-.21.15-.08.04-.15.09-.23.12-.07.03-.15.06-.22.08-.07.02-.14.03-.21.05-.09.01-.18.02-.27.02-.08,0-.16,0-.24,0-.09-.01-.18-.03-.27-.05-.09-.03-.19-.06-.28-.09-.1-.04-.2-.09-.29-.14-.11-.06-.21-.13-.31-.2-.11-.09-.22-.18-.33-.28-.12-.12-.23-.24-.34-.37-.12-.16-.24-.32-.34-.49-.07-.12-.14-.25-.2-.37.38-.14.76-.32,1.12-.39,1.32-.38,2.68-.66,3.9-1.3Z"/>
        <path class="cls-7" d="m23.18,96.21c-.88-.71-.35-2.25-.44-3.25.1-.97-.18-2.63,1.06-2.94.5-1.41.83-2.92,1.53-4.24.34-.59,1.26-.6,1.59,0,.51,1.06-.07,2.34-.18,3.46,1.75.26.61,2.37,0,3.25-.46.58-.6,1.31-.95,1.95-.34.78-.3,2.28-1.6,1.96-.35.14-.73.08-1.01-.19Z"/>
        <path class="cls-7" d="m21.59,98.77c-.96-.71-.68-2.17-.77-3.23-.26-.1-.46-.33-.56-.61-.01-.03-.02-.06-.03-.1-1.39.76-1.89-1.18-1.89-2.22-.99-.49-.62-1.89-.65-2.79-.03-.06-.06-.13-.09-.2-1.64-.54-.09-5.47.07-6.89.17-1.07.1-3.49,1.77-2.97.26-.05.56.02.77.19.07-.04.14-.08.22-.11,0-.1.03-.19.07-.29.09-.22.27-.39.48-.48-.16-.87,1.03-1.42,1.6-.75.07-.05.15-.1.24-.13.02-.01.05-.02.07-.03.38-.49,1.21-.47,1.52.1.26.37.11.82.27,1.21,2-.07.41,3.58.41,4.74,0,1.09,0,2.19-.08,3.27-.13.98-.1,1.9.26,2.83.74.21.83,1.2.67,1.84.09.7.19,1.39.37,2.07,1.41,1.12-.75,2.93-1.55,1.21-.22.16-.35.42-.56.59.05.36-.11.73-.44.92-.1.06-.21.1-.32.11-.45.83-.45,2.28-1.85,1.71Zm2.01-6.28c-.04.24-.08.49-.12.73-.06.35-.11.71-.19,1.06.08-.08.17-.16.26-.24.21-.19.47-.38.74-.49-.11-.41-.05-.89-.26-1.26-.13.07-.28.12-.42.12,0,.02,0,.05-.01.07Z"/>
        <path class="cls-3" d="m24.27,94.47c-1.64-2.01-3.15-4.12-4.56-6.3-.45-.71-.88-1.43-1.35-2.13-.44-.44-.21-1.27.46-1.27.9.1,1.56,2.2,2.07,2.94,1.17,2.22,2.3,4.51,3.38,6.76Z"/>
        <path class="cls-3" d="m27.09,93.36c-3.11-3.62-5.9-7.5-8.52-11.47-.84-.81.45-2.04,1.23-1.16,2.69,4.03,4.93,8.41,7.29,12.63Z"/>
        <path class="cls-3" d="m19.32,92.98c.51-4.13,1.15-8.27,2.24-12.29.15-1.14,1.64-1.23,1.68-.03-1.26,4.09-2.48,8.29-3.92,12.32Z"/>
        <path class="cls-3" d="m20.7,96.66c.75-4.24,1.72-8.48,2.9-12.6.38-.55,1.35-.3,1.4.37.01.5-.22.98-.32,1.47-1.08,3.66-2.57,7.23-3.99,10.75Z"/>
        <path class="cls-3" d="m90.41,76c.5,0,.92.42.92.92s-.42.92-.92.92-.92-.42-.92-.92.42-.92.92-.92Z"/>
        <path class="cls-3" d="m92.77,75.18c.5,0,.92.42.92.92s-.42.92-.92.92-.92-.42-.92-.92.42-.92.92-.92Z"/>
        <path class="cls-3" d="m93.44,78.06c.5,0,.92.42.92.92s-.42.92-.92.92-.92-.42-.92-.92.42-.92.92-.92Z"/>
        <path class="cls-3" d="m91.25,79.11c.5,0,.92.42.92.92s-.42.92-.92.92-.92-.42-.92-.92.42-.92.92-.92Z"/>
      </g>
    </g>
  </g>
</svg>