<?xml version="1.0" encoding="UTF-8"?>
<svg id="Ebene_2" data-name="Ebene 2" xmlns="http://www.w3.org/2000/svg" viewBox="0 0 148.03 197.81">
  <defs>
    <style>
      .cls-1 {
        fill: #c95555;
      }

      .cls-1, .cls-2, .cls-3, .cls-4, .cls-5, .cls-6, .cls-7, .cls-8, .cls-9 {
        stroke-width: 0px;
      }

      .cls-2 {
        fill: #ebbd1f;
      }

      .cls-4 {
        fill: #608000;
      }

      .cls-5 {
        fill: #3d4043;
      }

      .cls-6 {
        fill: #fff;
      }

      .cls-7 {
        fill: #818181;
      }

      .cls-8 {
        fill: #ffe1bb;
      }

      .cls-9 {
        fill: #fbbd00;
      }
    </style>
  </defs>
  <g id="Ebene_1-2" data-name="Ebene 1">
    <g>
      <path class="cls-6" d="m146.43,112.79c-.74-2.02-1.81-4.44-4.07-6.77-.51-.56-1.01-1.18-1.28-1.87-1.22-6.12-3.72-12.47-8.99-15.62-.77-.53-1.27-1.2-1.46-2.12-.79-5.36-3.76-10.88-7.73-15.2-1.92-2.24-4.36-4.59-7.65-5.77-.85-.31-1.58-.53-2.32-1.08-4.8-4.18-9.57-8.71-14.32-12.98-1.49-1.36-4.16-3.79-5.36-4.89-.49-.46-.73-.81-.86-1.36-.93-7.03-5.07-13.69-11.34-17.24-1.08-.55-1.8-1.56-1.77-2.79-.09-3.31.55-6.7,1.33-9.9.68-3.21,2.44-6.13,2.67-9.43C83.71,2.78,81.38-.04,78.29,0c-11.26.54-22.66,9.42-27.86,18.68-.86,1.65-1.36.15-1.94-.77-3.51-5.77-8.93-9.87-13.84-13.41-5.85-4.21-9.9.23-10.52,6.38-1.46,6.6-1.19,12.33-1.08,18.64-.23.56-1.17.12-2.16-.26-2.9-1.02-7.1-2.38-9.48,0-3.86,3.8.72,13.82,1.03,18.54-.07.44-.45.56-1.04.46-2.89-.81-6.75-1.48-8.53,1.63-2.19,3.5,1.35,8.54,3.08,12.11,1.75,3.07,3.63,5.84,5.59,8.23.24.32.56.74.52,1.11-.26,1.02-1.62,1.28-2.4,1.89-2.97,2.04-6.62,4.08-8.75,7.04-2.24,3.29-.04,7.72,3.94,7.87,1.97.17,3.44-.68,5.39-.98,4.31-.62,8.82-.67,13.2-1.05,2.36-.06,18.76-1.53,18.89.58-.93,3.2-2.37,6.47-2.4,10.22-.11,1.43.19,2.8-.11,4.2-2.18,4.8-3.92,9.74-3.63,14.57.21,5.02,2.35,10.01,4.71,14.01.67,1.02.6,2.09-.14,3.03-5.52,7.07-10.94,14.45-18.63,19.34-2.81,1.88-2.57,5.81-1.01,8.35,7.45,14.95,21.77,28.66,38.3,34.29,7.73,2.95,11.86,6.25,16.74-2.82,4.76-6.73,9.33-13.87,14.71-19.9.77-.93,1.96-.92,3.02-.45,7.34,3.13,15.76,2.17,22.58-.69,7.28-1.62,13.98-5.38,19.11-11.27,2.49-2.77,3.68-5.92,4.7-9.28,1.29-2.79,2.61-5.72,3.34-8.28,3.19-9.33,6.44-20.69,2.88-29.09l-.05-.15Z"/>
      <g>
        <path class="cls-2" d="m138.42,136.28s-.03.07-.05.1c-.22,1.1-.34,2.23-.63,3.32-.62,2.61-1.69,5.08-2.93,7.45-.07.13-.14.27-.21.4-.15-.99-.35-2.02-.54-3.03-.45-2.25-1.3-4.4-2.24-6.49-.27-.7-.77-1.75-1.48-2.01.07-.5.11-.99.16-1.4-.02-.83.15-2.05.11-3.16,2.84,1.01,5.36,2.09,7.81,4.81Z"/>
        <g>
          <path class="cls-1" d="m84.74,54.26c.3-.3.72-.4,1.1-.31-.27.74-.6,1.45-.98,2.15,0,0-.02-.02-.03-.03-.04-.03-.08-.07-.11-.1-.47-.46-.45-1.25.02-1.7Z"/>
          <path class="cls-1" d="m68.55,30.35c-.17.47-.62.77-1.33.56-.25-.06-.45-.19-.63-.35.65-.11,1.3-.18,1.95-.21Z"/>
          <path class="cls-1" d="m86.96,47.42c.02.56,0,1.12-.04,1.69-.41-.44-.43-1.15-.03-1.62.02-.02.04-.05.07-.07Z"/>
          <path class="cls-1" d="m54.76,35.48c.1.04.2.09.3.13-.23.12-.47.24-.7.36-.36.19-.73.39-1.09.59-.08-.07-.14-.16-.19-.27-.23-.53.26-1.16.82-1.11.29.08.57.18.85.3Z"/>
          <path class="cls-1" d="m60.23,33c-.04.17-.11.33-.22.47-.24.3-.59.46-.94.46-.06,0-.11,0-.17-.01.43-.33.88-.63,1.34-.91Z"/>
          <path class="cls-1" d="m58.68,38.83c-.1.12-.19.24-.29.36-.26.34-.5.69-.73,1.05-.26-.43-.59-.82-.91-1.21-.07-.09-.15-.18-.23-.27-.36-.42-.77-.79-1.23-1.11-.29-.2-.6-.38-.92-.54-.21-.1-.44-.17-.66-.26.21-.3.42-.59.65-.87.13-.17.26-.33.4-.49.1.04.2.09.3.13h0c.43.21.85.45,1.25.73.45.32.86.68,1.24,1.08.15.15.29.31.42.48.24.3.48.6.71.92Z"/>
          <path class="cls-1" d="m86.96,47.42c.02.56,0,1.12-.04,1.69,0,.03,0,.06,0,.09-.11,1.39-.41,2.77-.84,4.1-.07.22-.15.44-.23.66-.27.74-.6,1.45-.98,2.15-.96,1.78-2.25,3.4-3.76,4.73-2.43,2.14-5.43,3.59-8.62,4.14-1,.17-2.01.26-3.02.26-1.32,0-2.63-.15-3.92-.46-1.21-.29-2.38-.69-3.51-1.21-1.3-.61-2.5-1.4-3.61-2.3-1.79-1.45-3.21-3.25-4.31-5.26-2.02-3.68-2.58-8.18-1.58-12.24.4-1.61.98-3.16,1.8-4.6.09.06.19.13.28.19.09.07.18.15.27.22.24.25.46.51.68.78-.56,1.06-1.01,2.17-1.34,3.33-.52,2.04-.65,4.16-.39,6.25.32,2.08,1.01,4.07,2.05,5.9,1.05,1.73,2.39,3.24,3.98,4.5,1.68,1.25,3.57,2.19,5.59,2.75,2.02.51,4.11.64,6.18.39.24-.04.48-.08.72-.13,0,0,.01,0,.02,0,.19,0,.35-.04.51-.11,1.64-.37,3.21-.98,4.67-1.81,1.72-1.05,3.24-2.38,4.5-3.96,1.26-1.68,2.19-3.56,2.76-5.58.52-2.04.66-4.16.39-6.25-.3-2.07-1.01-4.04-2.03-5.86-1.05-1.73-2.39-3.26-3.98-4.52-1.68-1.26-3.56-2.19-5.57-2.76-2.06-.52-4.2-.65-6.31-.38-.2.03-.4.06-.59.1-.55.12-1.11.24-1.65.4-.54.16-1.08.36-1.61.57-.68.28-1.34.61-1.98.98-.96.59-1.86,1.27-2.69,2.03-.29-.31-.6-.61-.95-.88-.1-.08-.2-.15-.3-.22.27-.26.55-.51.84-.75.17-.14.35-.28.52-.41.43-.33.88-.63,1.34-.91.16-.1.31-.19.47-.29.67-.39,1.36-.75,2.07-1.05.41-.17.84-.33,1.26-.47.02,0,.04-.02.07-.03.81-.27,1.64-.47,2.48-.61.65-.11,1.3-.18,1.95-.21,2.4-.13,4.83.24,7.1,1.08,5.76,2.13,10.14,7.42,11.09,13.49.13.83.21,1.66.23,2.5Z"/>
          <path class="cls-3" d="m25.43,72.44c2.67-.48,5.37-.61,8.05-.41-5.23-3.74-9.39-8.3-12.48-13.59-.1,0-.2,0-.31,0-.52-.03-.9-.36-1.3-.66-.84-.63-1.76-1.15-2.71-1.6-2.55-1.08-5.15-1.47-7.8-2.16,2.19,5.16,5.25,9.96,9,14.12,1.28,1.3,2.52,2.72,4.1,3.65.5.05.94.41,1.07.91.79-.1,1.58-.18,2.37-.25Zm12.29.18c4.89,1,9.56,3.09,13.6,6.06-1.95-11.93-7.07-18.66-15.95-27.19-.43.07-.88.08-1.23.14-2.41.39-4.75,1.63-7.25,1.09-1.96-.21-3.58-1.92-3.15-3.95,1.03-3.08,4.16-5.05,6.57-7.22-.22-.17-.43-.37-.62-.58-.88-.33-1.68-1.31-2.5-1.68-3.49-2.12-7.13-4.04-11.11-5.07,2.58,16.63,6.78,28.09,21.36,37.62h0s0,0,0,0h0c.21.25.3.52.28.77Zm8.4-44.18c-.32-.72-.4-1.61-.68-2.31-.14-.37-.3-.82-.35-1.27-.5-1.33-1.14-2.6-1.85-3.83-3.1-4.91-7.84-8.33-12.42-11.74-1.65,6.68-2.21,13.69-1.29,20.46.48,3.38,1.67,6.59,3.11,9.65,3.54-3.2,7.13-6.35,11-9.15.83-.54,1.65-1.18,2.48-1.82Zm.81,74.75c-.1.14-.23.25-.38.33.15-.08.28-.2.38-.33Zm3.04-22.06c.08-.1.16-.2.25-.3-.41-.36-.87-.66-1.34-.95-7.9-5.12-15.63-6.46-24.82-4.86-5.51.38-10.71,2.62-14.94,6.08,7.87-.79,15.78-1.39,23.69-1.6,5.76.1,11.66-.1,17.17,1.63Zm2.8-42.78c-.41-.2-.78-.48-1.04-.86-2.1,1.31-4.1,2.81-5.98,4.31-2.93,2.61-5.89,5.17-8.78,7.81.72.67,1.35,1.57,2.04,2.13,1.74,1.7,3.39,3.48,4.95,5.34.83-1.31,2.04-2.44,2.99-3.64.71-.61,1.37-1.7,2.18-2.37.02-.03.04-.05.07-.07.31-.43.72-.89,1.21-1.09-.04-.37-.08-.75-.1-1.12-.12-2.19.15-4.38.77-6.48.4-1.39.97-2.72,1.68-3.96Zm3.85-6.11c-.35-.29-.69-.58-1.04-.88-1.03-.87-2.07-1.75-3.1-2.62-.32-.27-.65-.55-.97-.82-.05-.05-.11-.09-.16-.14-.26.13-.51.29-.76.46-6.57,4.32-12.55,9.45-18.34,14.74-.93,1.17-8.8,6.48-5.15,7.3,1.58.7,4.84-.92,7.13-1.17,0,0,.01-.02.02-.03.77-1.61,4.09-3.69,4.81-4.52,3.3-3.06,6.65-6.09,10.45-8.53.41-.23,1.15-.7,2.05-1.24.08-.16.19-.32.32-.46.57-.61,1.27-.91,2.1-.92.91-.48,1.82-.91,2.64-1.19Zm2.29,88.23c-.2.16-.46.25-.73.26.27,0,.53-.1.73-.26Zm-.11-33.82c-.27-1.55-.23-3.14.17-4.67-1.37.18-2.75.27-4.13.29,1.42,1.38,2.81,2.76,3.96,4.39Zm.9-44.7c.18-.48-.02-1.02-.13-1.5-.21-.59-.53-1.12-.89-1.62-.23-.31-.47-.62-.71-.92-.13-.17-.27-.33-.42-.48-.37-.4-.79-.76-1.24-1.08-.39-.28-.81-.53-1.25-.73h0c-.1-.05-.2-.09-.3-.13-.28-.12-.56-.22-.85-.3-.56-.05-1.05.58-.82,1.11.05.11.11.2.19.27.12.13.28.21.44.28.21.09.45.16.66.26.32.15.63.33.92.54.45.32.86.69,1.23,1.11.08.09.15.18.23.27.32.39.65.78.91,1.21.2.32.35.66.44,1.03.04.41.06.89.5,1.07.4.2.91.01,1.1-.39Zm1.44,40.46c-.12.09-.25.16-.4.21.14-.03.29-.12.4-.21Zm-12.19,17.64c4.15-1.11,8.5-1.88,12.83-1.87-1.83-5.6-4.66-10.9-9.2-14.72-.34-.24-.58-.5-.74-.76-.07.08-.13.17-.18.27-2.72,4.07-5,8.44-5.52,13.34-.18,1.55-.08,3.12.14,4.66.88-.37,1.93-.58,2.68-.91Zm14.58-70.54c.11-.04.23-.07.35-.11-1.86-.32-3.71-.75-5.58-1.05-1.1-.19-2.21-.38-3.29-.63,1.38,1.17,2.76,2.33,4.14,3.5.08.07.17.14.25.22.53-.33,1.08-.63,1.64-.9.64-.32,1.3-.59,1.97-.84.13-.05.26-.09.38-.13.05-.02.1-.04.15-.06Zm5.49,12.03c-1.18-1.04-2.39-1.83-3.61-2.72-1.21-.72-2.37-1.54-3.68-2.08-.21-.03-.41-.13-.57-.27-.08.06-.17.12-.25.18-.35.28-.68.56-1,.86.29.39.56.79.82,1.21.21.35.38.74.51,1.13.16.48.22.96.25,1.22.1.67.02,1.32-.36,1.91-.36.56-.94.97-1.59,1.12-.19.04-.38.06-.57.06-.49,0-.99-.14-1.4-.41-.46-.29-.87-.78-1.05-1.31-.21.54-.4,1.1-.56,1.66-.16.63-.29,1.26-.38,1.91-.04.32-.06.64-.08.95.36-.16.73-.29,1.03-.41,1.26-.56,2.49-1.21,3.69-1.88.33-.22.7-.3,1.04-.26.32-.13.62-.27.92-.43,2.24-.91,4.49-1.89,6.85-2.46Zm.46,25.44c-.99,0-1.99-.08-2.98-.23-5.25-.78-10.06-3.93-12.98-8.33-.66-.99-1.21-2.04-1.68-3.12-.35-.83-.64-1.69-.87-2.55-.07.09-.15.18-.23.27-.11.19-.26.35-.44.46-.63.62-1.31,1.2-1.58,1.65-1.18,1.35-2.24,2.53-3.13,3.95.36.45.71.91,1.06,1.38,2.73,3.76,4.64,8.1,5.96,12.54.17.82.4,1.67.6,2.52,1.29-.45,3.15-.62,3.96-1.02,4.55-1.54,9.06-3.96,12.32-7.51Zm-5.11,52.67c5.65,1.22,12.52.07,17.56-2.68-.46-7.98-7.62-13.6-14.74-15.81-6.56-1.33-14.48-.15-20.64,2.38h0c-.19.12-.4.17-.6.17-.12.11-.23.24-.31.38-8.42,12.6,1.01,24.51,9.37,34.02,1.41,1.7,2.95,3.32,4.83,4.49,0-.1,0-.2.02-.3.03-.15.09-.28.16-.4-.03-.05-.06-.1-.09-.16-2.25-3.73-3.06-8.12-3.06-12.43.12-2.03-.06-4.28.75-6.16-.59-1.49-.97-3.16-.4-4.36.03-.04.07-.08.11-.12-1.4-1.03-3.22-1.85-3.99-3.41-.33-1.92,1.86-1.53,2.69-.48,2.61,1.87,5.16,4.11,8.34,4.89Zm6.22,34.67c1.45,1.07,2.93,2.11,4.48,3.02-2.75-2.1-4.79-4.5-5.11-7,.01-.05.03-.09.05-.13-1.06-.48-1.9-1.32-2.82-2.02-1.27-.89-2.58-1.73-3.79-2.67.29.6.6,1.17.9,1.67.58.95,1.2,1.89,1.88,2.76.73.9,1.47,1.81,2.3,2.63.7.66,1.46,1.25,2.11,1.74Zm2.02-109.8c-.34-.34-.68-.68-1.02-1.03-.23.09-.49.14-.76.15-1.7.25-3.34.82-4.94,1.45-.87.34-1.72.67-2.55,1.02.17.32.36.63.63.88,2.31,2.89,5.34,5.05,8.42,7.03.91.75,2.04,1.25,3.06,1.82-1.75-3.43-4.08-9.67-2.85-11.32Zm.38,91.95c-.13,0-.25-.03-.38-.05-5.05-2.21-10.16-5.1-13.19-9.81-.49,5.21.23,10.74,3.37,14.99,2.2,2.58,5.35,4.08,7.92,6.24.93-2.51,1.58-5.13,1.91-7.79.24-.92-.06-2.61.38-3.58Zm-.84,50.35c2.12-2.98,4.16-6.01,6.26-8.99-6.03-1.33-11.43-4.51-16.64-7.73-10.03-5.43-19.41-13.65-23.38-24.59-1.81,2.18-3.67,4.33-5.77,6.24-1.88,1.73-3.93,3.24-6.02,4.71-.14.12-.27.24-.38.38.04.1.08.2.14.3,5.44,10.85,14.12,20.4,24.41,26.83,4.19,2.37,8.54,4,12.94,5.79,1.58.68,3.14,1.35,4.75,1.94.13.06.24.13.34.21.87-1.8,2.24-3.4,3.34-5.07Zm1.24-157.88c-.38-1.48-.15-3.56-.28-4.73.07-6.22,1.9-12.24,3.96-18.05-9.35,2.07-19.37,9.2-22.46,18.56.72.04,1.57.18,1.84.83,0,0,.01,0,.02,0,2.22.43,4.47.76,6.68,1.26,1.75.32,3.72.3,4.94,1.79,1.77-.13,3.56-.02,5.31.34Zm-.12,29.88c.22-.37.5-.72.76-.97-3.36-1.78-11.06-7.08-12.92-10.73-.49.24-.97.5-1.45.77-.27.21-.57.28-.85.25-.46.21-.93.43-1.38.65-.56.19-1.23.62-1.84.69,0,.08.02.17.03.25.09.6.22,1.2.37,1.79.17.59.37,1.17.61,1.74.25.57.53,1.12.84,1.66.3.49.62.96.96,1.42.39.49.8.95,1.23,1.4.42.41.87.8,1.33,1.16.49.37,1,.71,1.53,1.02.53.3,1.07.57,1.62.81.59.24,1.18.44,1.79.61.61.15,1.22.27,1.84.36.63.07,1.26.11,1.89.12.56-.01,1.12-.05,1.67-.11.15-.4.53-.71.78-1.07.43-.58.78-1.23,1.19-1.82Zm5.36,5.86c-1.33.72-2.74,1.28-4.22,1.67-.72.19-1.45.34-2.18.44,0,.18-.02.38-.09.61-4.06,5.61-11.74,9.12-18.49,10.46.07.64.08,1.28,0,1.91,0,0,0,0,0,0,4.88.32,9.85-.73,13.98-3.34,4.51-3.03,8.15-7.15,11-11.75Zm-3.67,57.36s0-.1,0-.14c-2.62.57-5.31.87-7.99.56-2.7-.12-5.25-.98-7.53-2.35.85,7.02,7.83,11.31,13.8,13.97,2.07-3.14,1.6-7.29,1.45-10.86-.06-.46.06-.87.27-1.17Zm.38-19.63c-.03-.45.02-.94.16-1.35-4.31-1.99-8.94-3.69-12.53-6.88.66,1.56,1.14,3.04,1.14,4.07.68.05,1.35.12,2.02.21,3.29.62,6.42,2.03,9.21,3.95Zm1.79-42.83c-.08-.03-.16-.07-.24-.12-.29-.12-.57-.25-.85-.39-.05.12-.12.24-.22.34-.25.39-.52.87-.86,1.23-.03.04-.06.08-.08.12.06-.02.11-.04.17-.07.55-.24,1.08-.51,1.6-.81.16-.1.32-.2.48-.3Zm-.7,39.26c4.77-4.21,2.54-13.2.55-18.41-.65-1.46-1.36-2.9-2.31-4.19-.39-.43-.82-1.13-.83-1.74-1.69,1.62-3.53,3.07-5.52,4.31-2.07,1.28-4.34,2.14-6.7,2.68,0,.18-.06.37-.17.57-2.59,9.61,7.91,13.73,14.97,16.78Zm4.02,76.15c1.36-1.96,2.88-3.78,4.45-5.56-3.56-.7-6.9-2.28-10.2-3.75-4.31-1.98-8.61-4.08-12.45-6.88-7.29-5.55-14.28-12.4-17.47-21.14-.83,1.05-1.68,2.08-2.47,3.13-.67.78-1.32,1.58-1.98,2.37,0,.07-.01.15-.02.22,1.93,7.05,7.06,12.98,12.41,17.75,5.63,4.53,11.96,7.99,18.28,11.44,2.85,1.4,5.86,2.44,8.93,3.14.17-.24.35-.48.53-.73Zm1.26-120.19c.08-.15.16-.29.24-.44-.23-.25-.38-.57-.63-.83-.61-.77-1.14-1.45-1.75-2.12-.16-.09-.3-.2-.43-.33-.13-.13-.27-.27-.4-.4-.31-.31-.62-.62-.93-.94-.73-.74-1.46-1.48-2.19-2.21-.26-.26-.52-.52-.78-.79.02.2.05.38.09.54.62,3.11,1.79,6.14,3.5,8.81.49.53.6,1.16.46,1.65.1.1.18.19.25.28.13-.11.25-.23.37-.35.4-.41.78-.84,1.14-1.3.38-.51.73-1.03,1.06-1.58Zm1.78-5.23c.07-.63.11-1.26.12-1.88-.01-.63-.06-1.25-.14-1.88-.1-.61-.22-1.21-.38-1.81-.18-.6-.38-1.19-.62-1.77-.24-.54-.51-1.06-.8-1.57-.32-.52-.66-1.03-1.02-1.51-.38-.47-.77-.92-1.2-1.35-.41-.4-.84-.77-1.29-1.13-.51-.38-1.04-.74-1.58-1.07-.52-.29-1.06-.56-1.61-.8-.58-.23-1.16-.43-1.76-.6-.62-.16-1.25-.29-1.89-.38-.61-.07-1.23-.11-1.85-.11-.65.01-1.29.06-1.93.14-.2.03-.39.06-.58.1-.36.08-.73.16-1.09.24-.05.01-.11.03-.16.04-.57.17-1.14.37-1.69.6-.1.04-.2.09-.29.13.78.41,1.58.96,2.19,1.34,0,0,0,0,0,0,1.58.72,4.01,2.83,5.49,4.08.3-.01.59.08.81.31.02.02.04.04.06.06h0s0,0,0,0c0,0,0,0,0,0,0,0,.01.01.02.02,0,0,0,0,.01.01,1.91,1.93,3.82,3.86,5.73,5.79.67.67,1.33,1.35,2,2.02,1.15.87,2.06,2.03,2.94,3.19.04-.12.08-.25.11-.37.16-.61.28-1.23.37-1.86Zm3.47-.48c.04-.56.05-1.12.04-1.69-.02-.84-.1-1.67-.23-2.5-.95-6.07-5.33-11.37-11.09-13.49-2.27-.84-4.69-1.21-7.1-1.08-.65.03-1.31.1-1.95.21-.84.14-1.67.34-2.48.61-.02,0-.04.02-.07.03-.43.14-.85.3-1.26.47-.72.3-1.4.66-2.07,1.05-.16.09-.32.19-.47.29-.46.28-.91.59-1.34.91-.18.13-.35.27-.52.41-.29.24-.57.49-.84.75.1.07.2.15.3.22.35.26.66.56.95.88.83-.76,1.72-1.44,2.69-2.03.64-.37,1.3-.7,1.98-.98.52-.22,1.06-.41,1.61-.57.54-.16,1.1-.28,1.65-.4.2-.04.39-.07.59-.1,2.11-.27,4.25-.14,6.31.38,2.01.57,3.9,1.5,5.57,2.76,1.59,1.26,2.92,2.79,3.98,4.52,1.03,1.82,1.73,3.79,2.03,5.86.27,2.09.13,4.21-.39,6.25-.57,2.02-1.51,3.9-2.76,5.58-1.25,1.58-2.77,2.92-4.5,3.96-1.47.83-3.04,1.44-4.67,1.81-.15.07-.32.11-.51.11,0,0-.01,0-.02,0-.24.05-.48.09-.72.13-2.07.25-4.15.12-6.18-.39-2.02-.56-3.91-1.5-5.59-2.75-1.58-1.25-2.93-2.77-3.98-4.5-1.05-1.83-1.74-3.82-2.05-5.9-.26-2.09-.13-4.21.39-6.25.33-1.16.77-2.27,1.34-3.33-.22-.27-.44-.53-.68-.78-.09-.08-.18-.15-.27-.22-.09-.07-.18-.13-.28-.19-.82,1.44-1.4,2.99-1.8,4.6-1,4.07-.44,8.57,1.58,12.24,1.11,2.01,2.52,3.81,4.31,5.26,1.11.9,2.31,1.7,3.61,2.3,1.13.53,2.3.92,3.51,1.21,1.29.31,2.6.46,3.92.46,1.01,0,2.02-.09,3.02-.26,3.19-.55,6.19-2,8.62-4.14,1.51-1.33,2.79-2.95,3.76-4.73.38-.69.7-1.41.98-2.15.08-.22.16-.44.23-.66.43-1.32.74-2.71.84-4.1,0-.03,0-.06,0-.09Zm-.56,118.65c.62-.69,1.24-1.38,1.85-2.08-.8-.25-1.58-.55-2.36-.84-1.9-.7-3.74-1.49-5.58-2.32-1.04-.47-2.09-.89-3.11-1.39-1.05-.51-2.1-1.01-3.11-1.58-1.04-.6-2.05-1.27-3.04-1.95-1.01-.69-2-1.41-2.95-2.18-.48-.39-.94-.79-1.38-1.22-.42-.41-.8-.86-1.18-1.3-.69-.81-1.38-1.62-1.98-2.5-.54-.79-1.08-1.59-1.55-2.43-.45-.81-.85-1.65-1.25-2.48-.01-.03-.03-.06-.04-.08-.24.05-.53.02-.85-.09-4.96-2.52-8.1-7.49-11.59-11.63-.13-.17-.27-.33-.4-.5-.38.71-.81,1.39-1.27,2.06.11.24.17.54.17.89,3.65,10.19,12.71,18.57,21.88,23.87,3.74,2.02,7.61,3.81,11.54,5.45,1.44.57,2.9,1.09,4.25,1.43.7.19,1.51.23,1.97.87Zm4.13-106.7c-.44-.39-.88-.78-1.32-1.17-.98-.87-1.96-1.74-2.95-2.61-.68,1.21-1.5,2.34-2.44,3.37.02,0,.04,0,.06,0,1.82.02,4.35.02,6.65.4Zm.28,101.1c1.36-4.52,1.3-9.46.78-14.12-.05-.13-.08-.29-.11-.45-3.68-.94-7.21-2.43-10.45-4.4-2.07-1.29-4.19-2.72-5.79-4.58-.1,1.28-.43,2.66-.46,3.43-.41,2.46-1.09,4.89-1.95,7.06-.11.42-.33.77-.62,1.03.08.13.14.29.17.47,3.35,6.16,11.96,9.72,18.44,11.57Zm2.12-30.83c-.01-.36-.06-.75-.05-1.13-.94,1.18-2.31,1.59-4.29.56-3.87-1.9-7.98-3.59-11.37-6.29.23,3.15-.02,8.1-1.61,10.55.48.43.67,1.16,1.11,1.64,3.99,4.36,9.52,6.95,15.09,8.54.82-4.56.93-9.25,1.11-13.87Zm.48-15.14c-.11-.04-.2-.1-.28-.16-.22.03-.46.03-.72.01-1.42.03-5.89-.89-8.53-2.23.28,1.08.45,2.18.49,3.26-.36,2.88-4.56,3.43-6.84,4.2-.08.02-.17.05-.25.07,3.35,3.15,7.57,4.93,11.66,6.9,1.5.81,1.89,1.23,2.61-.65,1-3.2,1.04-6.44,1-9.72-.07-.96.35-1.51.85-1.67Zm.3-7.18c.04-2.59-.58-5.13-.82-7.68.08-.51.32-.82.62-.98-.03-.06-.06-.13-.09-.2-3.64-.38-7.56-.07-10.85-1.88-.53-.36-1.25-.82-1.89-1.34-.05.14-.11.29-.17.43-.54,1.18-1.44,2.73-2.64,3.47.1.28.1.59-.01.87,0,.69-.11,1.65-.65,2.1,1.06.87,2.07,1.8,2.99,2.79,1.03,1.23,1.91,2.63,2.59,4.13.39-.1.82-.03,1.11.29,2.79,1.52,5.95,2.66,9.15,2.59.78-1.35.58-3.08.66-4.59Zm.06-11.22c.74-.83.53-2.23.93-3.19-1.12-.31-2.19-.92-3.08-1.86-2.81-2.89-3.77-7.05-3.15-10.97-.82,0-1.67-.1-2.44-.14-2.23-.29-4.71-.95-6.85-2.1,1.14,2.84,1.96,5.83,2.01,6.88.48,2.57.66,5.26.21,7.84,3.02,3.65,8.1,3.06,12.36,3.53Zm1.98,2.04s0,0,0,0c0-.05,0-.11,0-.16,0,0,0-.01,0-.02.02.23-.03.46-.13.67.09-.15.12-.32.14-.49Zm1.99-3.77c.12-.47.25-.96.42-1.45-.41.11-.83.17-1.26.2.24,1.22-.32,3.16-1.2,4.37.51.32,1.13.56,1.61.76.13.07.27.12.42.18-.24-1.34-.25-2.71.02-4.05Zm.44-25.33c.11-.06.22-.11.32-.17-2.03-2.36-4.26-4.67-7.21-5.79-1.03-.63-3.06-.31-3.44-1.59-1.79-.15-3.61-.13-5.43-.08-1.82,3.33-4,6.53-6.56,9.36.31.16.56.46.61.88.81,1.65,2.03,3.12,3.67,4,1.96,1.1,4.21,1.6,6.41,1.93.84.13,1.69.05,2.53,0,.49-1.45,1.21-2.82,2.14-4.02,1.85-2.12,4.51-3.25,6.96-4.52Zm-1.7,95.23c4.18,1.71,8.87,1.72,13.25.65-3.77-.57-7.45-1.77-11.03-3.05-1.8-.64-3.38-1.68-4.94-2.75-.25,1.34-.67,2.54-1.41,3.21,1.36.7,2.74,1.35,4.14,1.95Zm6.6-97.06c1.64-.37,3.33-.54,5.02-.51-.19-.17-.37-.34-.56-.51-1.51-1.38-3.03-2.76-4.54-4.14-3.14-2.86-6.28-5.72-9.42-8.59-1.22-1.11-2.44-2.23-3.66-3.34-.45-.41-.9-.83-1.35-1.25-.23,1.54-.64,3.04-1.22,4.48,1.12.98,2.24,1.98,3.36,2.97,1.64,1.44,3.28,2.89,4.92,4.33,2.15,1.89,4.3,3.79,6.45,5.68.34.29.67.59,1,.88Zm5.13,41.72c0-.08,0-.16,0-.23-4.27-.45-7.92-3.56-9.63-7.46,0,0-.01,0-.02,0-.67-.26-2.09-.64-3.27-1.19.47,2.79,1.7,9.59.03,12.71,3.64,1.68,7.59,2.81,11.58,3.13,1.27-2.06,1.24-4.65,1.31-6.95Zm1.56,16.58c.36-2.95.29-6.13-.17-9.02-.02-.1-.04-.2-.06-.3-.57,1.26-1.45,2.13-2.85,2.1-4.11-.33-8.18-1.46-11.95-3.15.15.28.23.64.22,1.08,0,1.82.04,5.51-.59,8.57.22.13.43.3.64.43,2.66,1.38,5.56,2.42,8.42,3.19,4.04.63,5.88,2.38,6.33-2.9Zm2.58,2.92c-.16.08-.34.13-.53.14.19,0,.37-.05.53-.14Zm.76,34.4c.5-4.57-.66-9.05-1.95-13.34-.15-.71.08-1.22.47-1.47-4.48-.87-8.97-1.95-13.19-3.66-1.35-.62-2.76-1.33-3.85-2.36-.15,1.18-.39,2.27-.85,3.02.81,2.15.51,6.53.54,8.01-.11.82-.13,2.12-.23,3.52,1.24.41,2.18,1.51,3.35,2.08,4.9,2.27,10.29,3.87,15.7,4.2Zm.17-16.93c.61-4.71-.62-9.45-1.64-14.01-.21-.61.02-1.28.44-1.61-.3-.33-.55-.64-.75-.93-.7,1.45-1.9,2.4-3.99,2.19-3.75-.34-7.37-1.51-10.83-2.96-.34-.15-.87-.36-1.43-.61.76,2.12-.19,7.36-.09,8.54-.12.6-.15,1.59-.2,2.71.22,0,.44.05.66.2,3.68,4.03,12.51,5.26,17.82,6.48Zm10.35-59.09c.32.2.69.38,1.07.57-.22-4.4-2.24-8.78-5.03-12.08-1.74-2.08-3.52-4.49-6.06-5.58-.07.03-.15.06-.24.08-2.15-.25-4.34-.79-6.55-.71-1.08.05-2.14.22-3.17.48-.2.14-.44.2-.69.2-.01,0-.03,0-.04,0-2.74.81-5.32,2.21-7.78,3.65-6.01,3.24-6.28,16.55,1.56,17.35,1.74-.04,2.95-1.52,4.35-2.35,1.03-.68,2.1-1.31,3.21-1.85,6.01-3.15,13.32-2.4,19.37.24Zm4.57,43.57c.02-.47-.08-.99-.08-1.48-.72-.26-1.47-.55-2.24-.87-4.73-2.34-9.27-5.35-12.97-9.13-.22-.24-.44-.49-.64-.75.1,1.38.08,2.72.15,3.26-.07,1.33-.06,3.11-.27,4.82.43.15.8.55.85,1.22,1.61,2.39,4.14,4.11,6.67,5.41,2.62,1.03,5.51.98,8.14,1.96.36-1.44.39-2.95.38-4.43Zm3.21,22.74c-.79.1-1.75.06-2.91-.12-5.01-.4-10.24-1.23-14.8-3.43.78,2.64,2.45,9.11,1.92,12.87.79-.47,1.59-.74,2.39-.13,0,.01.01.02.02.03,5.2-1.6,10.13-4.84,13.38-9.21Zm-.7-49.82c1.06.33,2.85.61,4.23,1.21-.37-4.96-2.31-10.14-6.66-12.82-2.02-.78-2.96-.47-3.34-1.32-.59-.31-1.14-.81-1.73-1.06-4.62-2.25-10.11-3.11-15.1-1.71-2.13.69-4.02,1.72-5.85,2.93.01.36-.14.72-.52.96-4.07,4.65-.66,12.13,4.54,14.31,4,1.73,7.72-1.11,11.31-2.54,4.21-1.52,8.88-1.2,13.12.04Zm1.5,46.92c.59-2.91-.22-5.87-.92-8.67-.4-1.29-.9-2.55-1.44-3.78-.11-.28-.27-.58-.42-.89-.31.3-.72.48-1.27.47-5.2-1.49-9.24-1.14-13.6-4.9-.12-.09-.23-.17-.34-.26.54,2.21.93,4.46,1.24,6.72.13,1.99,1.19,6.79-.34,8.66,4.1,1.88,8.78,2.65,13.19,3,1.19-.05,3.05.64,3.9-.34Zm6.2-15.51s.03-.07.05-.1c-2.46-2.72-4.97-3.8-7.81-4.81.04,1.11-.13,2.33-.11,3.16-.05.4-.09.89-.16,1.4.72.26,1.22,1.32,1.48,2.01.94,2.09,1.78,4.24,2.24,6.49.2,1.01.4,2.04.54,3.03.07-.13.14-.27.21-.4,1.24-2.37,2.3-4.84,2.93-7.45.3-1.09.41-2.22.63-3.32Zm1.4-2.99c1.39-4.69,2.71-9.56,1.84-14.46-.53-3-1.45-6.16-3.49-8.46-.54-.71-1.55-.95-2.29-1.41-.33.04-.69-.01-.96-.15-4.15-1.87-9.05-2.93-13.56-2.45-2.76.32-5.2,1.86-7.74,2.93-.06.27-.24.54-.57.77-1.84,5.44,1.25,9.21,5.52,12.19,4.23,3.24,8.87,5.73,13.94,7.26,2.68.89,5.25,2.3,7.09,4.47.07-.22.14-.45.22-.68Zm3.1-19.28c2.44,6.28,1.32,13.21-.62,19.43-.76,2.33-1.45,4.68-2.18,7.03-.03.14-.09.27-.17.4-.81,2.96-2.1,5.78-3.57,8.48-.12.18-.24.41-.35.65.07.12.12.27.15.45-1.19,6.17-8.14,11.55-13.53,14.27-2.16.83-4.53,2.16-6.89,2.04-.33.17-.63.33-.85.49-4.06,1.9-8.52,2.5-12.91,2.33-3.84-.27-7.5-1.77-10.85-3.62-.38.46-.83.89-1.1,1.23-5.8,6.07-10.43,13.03-15.18,19.91-1.54,2.08-2.96,4.28-4.34,6.46-.44.44-1.09.41-1.54.09-.35.26-.9.34-1.54.1-6.52-2.72-13.27-5.02-19.34-8.69-10-6.87-18.6-16.21-23.94-27.15-.26-.75-.75-1.57-.42-2.36.18-.38.55-.63.94-.68,1.23-1.26,3.42-2.32,4.31-3.25,3.4-2.71,6.21-6.02,8.91-9.39,2.91-3.58,6.06-7.05,8.31-11.09.03-.05.06-.1.1-.15-3.4-4.8-6.43-10.85-6.37-16.47.22-4.31,1.31-9.12,4.23-12.43-.57-1.08-.34-2.93-.49-3.98-.09-5.3,2.14-10.24,4.79-14.71.07-.1.14-.2.21-.3-9.87-2.22-20.13-1.18-30.14-.48-3.33.23-6.65.31-9.92.92-1.38.23-2.76,1.28-4.17.71-1.75-1.05.1-2.82,1.17-3.59,1.91-1.5,3.87-2.95,5.93-4.23,2.53-1.68,5.38-2.68,8.32-3.3-4.72-3.83-8.32-8.92-11.22-14.23-.57-1.44-3.31-5.95-2.6-7.13.33-.64,1.09-.82,1.73-.61,1.69.39,3.37.8,5.06,1.2,2.14.51,4.33,1.11,6.24,2.16-1.51-3.27-2.65-6.79-3.42-10.51-.7-2.76-1.34-5.54-1.74-8.36-.13-1.37-1.1-3.7.86-4.14,3.76.27,7.33,2.14,10.65,3.85.61.43,2.39,1.26,3.86,2.22-1.74-4.35-2.57-9.04-2.53-13.74-.12-4.74.48-9.47,1.5-14.1.38-2.09,1.1-4.4,3.63-2.79,5.32,3.86,10.88,7.92,14.09,13.82.5,1.28,1.93,3.36,1.95,4.97.09.38.18.74.29,1.05,1.21-.84,2.46-1.56,3.83-1.94.09-.84.43-1.93,1.11-3.3,3.45-6.9,9.52-12.26,16.46-15.5,2.88-1.2,6.13-2.87,9.31-2.37,2.32,1.02-1.3,7.18-1.54,9.22-.77,2.65-1.33,5.54-1.63,8.15-.26,2.34-.25,4.7.03,7.03.13.4.13.93-.01,1.38.06.02.13.04.19.06,3.3,1.15,6.3,3.26,8.5,5.97,1.98,2.45,3.37,5.35,3.98,8.45.22,1.13.34,2.28.35,3.43.53.47,1.05.96,1.57,1.44.78.71,1.56,1.42,2.35,2.14,1.56,1.43,3.13,2.85,4.69,4.28,3.11,2.84,6.23,5.68,9.35,8.52,1.37,1.24,2.73,2.49,4.1,3.73.19.17.38.34.57.52.23.21.47.41.64.66.19-.11.42-.18.7-.18,3.29.65,5.75,3.11,7.79,5.63,4.01,4.42,6.78,10.22,6.61,16.27,7.06,1.65,10.06,10.08,10.27,16.63,2.98,1.16,4.44,4.19,5.5,7Z"/>
          <path class="cls-4" d="m45.43,26.13c.29.7.36,1.59.68,2.31-.83.64-1.65,1.27-2.48,1.82-3.88,2.8-7.46,5.95-11,9.15-1.44-3.06-2.63-6.28-3.11-9.65-.92-6.77-.36-13.78,1.29-20.46,4.59,3.41,9.32,6.84,12.42,11.74.71,1.22,1.35,2.5,1.85,3.83.05.44.2.9.35,1.27Z"/>
          <path class="cls-4" d="m73.09,24.22c.13,1.16-.1,3.25.28,4.73-1.75-.35-3.53-.47-5.31-.34-1.21-1.49-3.19-1.47-4.94-1.79-2.21-.5-4.45-.83-6.68-1.26,0,0-.01,0-.02,0-.26-.65-1.12-.79-1.84-.83,3.09-9.36,13.11-16.49,22.46-18.56-2.06,5.82-3.89,11.83-3.96,18.05Z"/>
          <path class="cls-4" d="m71.58,43.49c.34.34.68.69,1.02,1.03-1.23,1.66,1.11,7.9,2.85,11.32-1.02-.58-2.15-1.07-3.06-1.82-3.09-1.97-6.11-4.14-8.42-7.03-.27-.25-.45-.56-.63-.88.83-.35,1.68-.68,2.55-1.02,1.6-.63,3.23-1.19,4.94-1.45.27,0,.53-.06.76-.15Z"/>
          <path class="cls-4" d="m51.32,78.68c-4.03-2.97-8.71-5.06-13.6-6.06.01-.26-.07-.53-.28-.77h0,0c-14.59-9.54-18.78-21-21.36-37.63,3.97,1.03,7.61,2.96,11.11,5.07.82.37,1.62,1.35,2.5,1.68.19.21.4.4.62.58-2.41,2.17-5.54,4.14-6.57,7.22-.43,2.02,1.19,3.74,3.15,3.95,2.49.54,4.84-.69,7.25-1.09.35-.06.81-.07,1.23-.14,8.88,8.53,14,15.26,15.95,27.19Z"/>
          <path class="cls-4" d="m33.48,72.03c-2.68-.2-5.39-.07-8.05.41-.79.07-1.58.15-2.37.25-.13-.5-.57-.86-1.07-.91-1.59-.93-2.82-2.35-4.1-3.65-3.75-4.16-6.81-8.96-9-14.12,2.65.69,5.24,1.08,7.8,2.16.95.45,1.87.97,2.71,1.6.4.3.77.62,1.3.66.11.02.21.02.31,0,3.09,5.28,7.25,9.85,12.48,13.59Z"/>
          <path class="cls-4" d="m50.22,80.82c-.08.1-.17.2-.25.3-5.51-1.73-11.4-1.54-17.17-1.63-7.9.22-15.82.81-23.69,1.6,4.24-3.46,9.44-5.7,14.94-6.08,9.19-1.6,16.92-.26,24.82,4.86.47.29.93.59,1.34.95Z"/>
          <path class="cls-2" d="m61.78,98.18c-4.33-.01-8.68.76-12.83,1.87-.75.33-1.79.54-2.68.91-.21-1.54-.32-3.11-.14-4.66.52-4.9,2.8-9.27,5.52-13.34.05-.09.11-.18.18-.27.15.26.4.52.74.76,4.54,3.83,7.37,9.12,9.2,14.72Z"/>
          <path class="cls-2" d="m58.96,81.98c-.4,1.53-.44,3.12-.17,4.67-1.15-1.62-2.53-3.01-3.96-4.39,1.38-.02,2.76-.11,4.13-.29Z"/>
          <path class="cls-2" d="m76.95,80.44c1.99,5.21,4.22,14.2-.55,18.41-7.06-3.05-17.56-7.17-14.97-16.78.11-.2.16-.39.17-.57,2.35-.54,4.62-1.4,6.7-2.68,1.99-1.24,3.83-2.7,5.52-4.31,0,.61.43,1.31.83,1.74.95,1.29,1.66,2.73,2.31,4.19Z"/>
          <path class="cls-2" d="m75.48,101.07c-.14.41-.2.89-.16,1.35-2.78-1.91-5.91-3.33-9.21-3.95-.67-.09-1.35-.16-2.02-.21,0-1.03-.47-2.51-1.14-4.07,3.59,3.19,8.22,4.89,12.53,6.88Z"/>
          <path class="cls-2" d="m98.46,70.55c-.11.06-.22.11-.32.17-2.45,1.28-5.11,2.41-6.96,4.52-.93,1.2-1.65,2.57-2.14,4.02-.84.05-1.69.13-2.53,0-2.21-.33-4.45-.83-6.41-1.93-1.63-.88-2.86-2.35-3.67-4-.05-.43-.3-.72-.61-.88,2.57-2.83,4.75-6.04,6.56-9.36,1.82-.05,3.64-.07,5.43.08.38,1.27,2.42.96,3.44,1.59,2.95,1.12,5.18,3.44,7.21,5.79Z"/>
          <path class="cls-2" d="m94.66,94.59c-.4.96-.19,2.36-.93,3.19-4.27-.47-9.35.12-12.36-3.53.45-2.58.27-5.28-.21-7.84-.05-1.05-.87-4.04-2.01-6.88,2.14,1.15,4.62,1.81,6.85,2.1.77.03,1.62.14,2.44.14-.61,3.92.34,8.07,3.15,10.97.89.94,1.96,1.55,3.08,1.86Z"/>
          <path class="cls-2" d="m92.85,101.33c.24,2.55.86,5.09.82,7.68-.08,1.52.13,3.24-.66,4.59-3.2.08-6.37-1.06-9.15-2.59-.29-.31-.72-.39-1.11-.29-.68-1.5-1.56-2.9-2.59-4.13-.93-.99-1.93-1.92-2.99-2.79.54-.44.64-1.41.65-2.1.12-.28.12-.59.01-.87,1.2-.74,2.11-2.29,2.64-3.47.06-.14.12-.29.17-.43.64.53,1.36.98,1.89,1.34,3.29,1.8,7.21,1.49,10.85,1.88.02.07.05.13.09.2-.3.15-.54.47-.62.98Z"/>
          <path class="cls-2" d="m98.11,94.6c-.16.49-.3.98-.42,1.45-.27,1.35-.26,2.72-.02,4.05-.14-.05-.28-.11-.42-.18-.47-.2-1.09-.44-1.61-.76.88-1.2,1.44-3.15,1.2-4.37.42-.03.84-.1,1.26-.2Z"/>
          <path class="cls-2" d="m108.18,110.38c0,.08,0,.15,0,.23-.07,2.3-.04,4.89-1.31,6.95-4-.32-7.94-1.45-11.58-3.13,1.67-3.12.44-9.91-.03-12.71,1.19.55,2.6.93,3.27,1.19,0,0,.01,0,.02,0,1.71,3.9,5.36,7.01,9.63,7.46Z"/>
          <path class="cls-2" d="m109.56,118.17c.46,2.89.52,6.07.17,9.02-.45,5.28-2.29,3.52-6.33,2.9-2.87-.77-5.77-1.81-8.42-3.19-.22-.13-.43-.29-.64-.43.63-3.06.59-6.76.59-8.57.02-.44-.07-.8-.22-1.08,3.77,1.7,7.84,2.82,11.95,3.15,1.39.03,2.28-.84,2.85-2.1.02.1.04.2.06.3Z"/>
          <path class="cls-2" d="m93.09,116.02c.08.06.17.12.28.16-.5.15-.92.7-.85,1.67.04,3.28,0,6.52-1,9.72-.73,1.88-1.11,1.47-2.61.65-4.09-1.96-8.31-3.74-11.66-6.9.08-.02.17-.05.25-.07,2.28-.77,6.48-1.32,6.84-4.2-.05-1.09-.22-2.18-.49-3.26,2.64,1.34,7.11,2.26,8.53,2.23.25.02.49.02.72-.01Z"/>
          <path class="cls-2" d="m74.94,121.9s0,.1,0,.14c-.22.3-.33.71-.27,1.17.15,3.57.62,7.72-1.45,10.86-5.97-2.65-12.95-6.95-13.8-13.97,2.28,1.38,4.83,2.24,7.53,2.35,2.68.31,5.37.01,7.99-.56Z"/>
          <path class="cls-2" d="m72.59,136.42c.13.03.26.05.38.05-.44.97-.14,2.67-.38,3.58-.33,2.66-.98,5.28-1.91,7.79-2.57-2.16-5.72-3.66-7.92-6.24-3.14-4.26-3.86-9.79-3.37-14.99,3.03,4.71,8.14,7.6,13.19,9.81Z"/>
          <path class="cls-2" d="m91.55,148.04c.52,4.66.58,9.6-.78,14.12-6.47-1.85-15.09-5.4-18.44-11.57-.03-.18-.09-.34-.17-.47.29-.26.51-.61.62-1.03.86-2.17,1.54-4.6,1.95-7.06.03-.78.36-2.16.46-3.43,1.6,1.87,3.72,3.3,5.79,4.58,3.24,1.97,6.77,3.47,10.45,4.4.03.16.06.31.11.45Z"/>
          <path class="cls-2" d="m92.84,130.19c-.01.38.03.77.05,1.13-.19,4.62-.29,9.31-1.11,13.87-5.57-1.59-11.11-4.18-15.09-8.54-.44-.48-.63-1.21-1.11-1.64,1.59-2.45,1.84-7.39,1.61-10.55,3.39,2.69,7.5,4.39,11.37,6.29,1.98,1.03,3.35.62,4.29-.56Z"/>
          <path class="cls-2" d="m75.06,157.34c-1.55-.91-3.03-1.95-4.48-3.02-.65-.48-1.41-1.07-2.11-1.74-.83-.82-1.57-1.73-2.3-2.63-.68-.87-1.3-1.82-1.88-2.76-.3-.51-.6-1.07-.9-1.67,1.21.94,2.52,1.78,3.79,2.67.92.7,1.76,1.54,2.82,2.02-.02.04-.04.09-.05.13.32,2.5,2.36,4.9,5.11,7Z"/>
          <path class="cls-2" d="m109.69,166.6c-4.37,1.07-9.07,1.06-13.25-.65-1.4-.6-2.78-1.25-4.14-1.95.75-.67,1.17-1.87,1.41-3.21,1.56,1.08,3.14,2.12,4.94,2.75,3.58,1.29,7.26,2.49,11.03,3.05Z"/>
          <path class="cls-2" d="m111.13,151.16c1.28,4.3,2.45,8.77,1.95,13.34-5.41-.33-10.8-1.93-15.7-4.2-1.17-.57-2.12-1.67-3.35-2.08.1-1.4.12-2.7.23-3.52-.04-1.48.26-5.86-.54-8.01.46-.75.7-1.85.85-3.02,1.09,1.04,2.5,1.74,3.85,2.36,4.22,1.71,8.71,2.8,13.19,3.66-.38.25-.62.76-.47,1.47Z"/>
          <path class="cls-2" d="m128.46,154.67c1.16.19,2.12.22,2.91.12-3.26,4.37-8.18,7.61-13.38,9.21,0-.01-.01-.02-.02-.03-.8-.61-1.6-.34-2.39.13.53-3.76-1.13-10.23-1.92-12.87,4.56,2.21,9.78,3.03,14.8,3.43Z"/>
          <path class="cls-2" d="m111.6,133.57c1.02,4.56,2.25,9.3,1.64,14.01-5.31-1.22-14.15-2.45-17.82-6.48-.21-.15-.44-.2-.66-.2.05-1.12.08-2.11.2-2.71-.1-1.18.84-6.42.09-8.54.56.25,1.09.46,1.43.61,3.46,1.44,7.08,2.61,10.83,2.96,2.08.21,3.28-.74,3.99-2.19.2.29.45.6.75.93-.42.33-.65,1-.44,1.61Z"/>
          <path class="cls-2" d="m131.25,143.22c.7,2.8,1.51,5.76.92,8.67-.85.99-2.71.3-3.9.34-4.41-.34-9.09-1.12-13.19-3,1.53-1.86.46-6.67.34-8.66-.3-2.25-.7-4.5-1.24-6.72.11.08.22.17.34.26,4.36,3.75,8.4,3.4,13.6,4.9.55,0,.96-.17,1.27-.47.15.31.31.61.42.89.54,1.23,1.04,2.49,1.44,3.78Z"/>
          <path class="cls-2" d="m128.08,130.58c0,.49.1,1.01.08,1.48.01,1.48-.02,2.99-.38,4.43-2.64-.98-5.52-.93-8.14-1.96-2.54-1.29-5.06-3.02-6.67-5.41-.06-.67-.42-1.07-.85-1.22.21-1.7.2-3.49.27-4.82-.07-.54-.05-1.88-.15-3.26.2.26.41.51.64.75,3.7,3.77,8.24,6.79,12.97,9.13.77.33,1.52.61,2.24.87Z"/>
          <path class="cls-8" d="m81.92,116.96c-5.03,2.75-11.91,3.91-17.56,2.68-3.18-.79-5.73-3.02-8.34-4.89-.83-1.04-3.03-1.43-2.69.48.78,1.56,2.59,2.38,3.99,3.41-.04.04-.08.08-.11.12-.58,1.2-.19,2.87.4,4.36-.82,1.88-.63,4.13-.75,6.16,0,4.32.8,8.7,3.06,12.43.03.05.06.1.09.16-.08.12-.13.26-.16.4-.02.1-.02.2-.02.3-1.88-1.17-3.42-2.79-4.83-4.49-8.36-9.51-17.79-21.42-9.37-34.02.08-.14.19-.26.31-.38.2,0,.41-.05.6-.17h0c6.16-2.53,14.08-3.71,20.64-2.37,7.13,2.22,14.28,7.84,14.74,15.81Z"/>
          <path class="cls-8" d="m88.21,165.68c-.61.7-1.23,1.39-1.85,2.08-.46-.64-1.27-.69-1.97-.87-1.35-.34-2.8-.87-4.25-1.43-3.93-1.63-7.8-3.42-11.54-5.45-9.17-5.3-18.23-13.68-21.88-23.87,0-.36-.06-.66-.17-.89.46-.67.89-1.35,1.27-2.06.13.17.27.34.4.5,3.49,4.14,6.63,9.11,11.59,11.63.32.11.61.13.85.09.01.03.03.06.04.08.4.83.8,1.67,1.25,2.48.47.84,1.01,1.64,1.55,2.43.6.88,1.29,1.69,1.98,2.5.38.44.76.89,1.18,1.3.44.43.9.84,1.38,1.22.95.76,1.95,1.48,2.95,2.18.99.68,1.99,1.36,3.04,1.95,1.01.57,2.06,1.08,3.11,1.58,1.02.5,2.08.92,3.11,1.39,1.84.83,3.69,1.63,5.58,2.32.78.29,1.56.59,2.36.84Z"/>
          <path class="cls-8" d="m141.6,118.94c.87,4.91-.45,9.77-1.84,14.46-.07.23-.14.45-.22.68-1.84-2.17-4.41-3.58-7.09-4.47-5.07-1.53-9.71-4.02-13.94-7.26-4.27-2.97-7.36-6.75-5.52-12.19.33-.23.51-.5.57-.77,2.54-1.06,4.98-2.6,7.74-2.93,4.52-.48,9.41.58,13.56,2.45.27.14.62.19.96.15.74.46,1.75.7,2.29,1.41,2.04,2.3,2.95,5.46,3.49,8.46Z"/>
          <path class="cls-8" d="m134.89,106.18c-1.38-.6-3.16-.88-4.23-1.21-4.24-1.24-8.91-1.56-13.12-.04-3.59,1.43-7.31,4.27-11.31,2.54-5.2-2.18-8.61-9.66-4.54-14.31.38-.24.53-.61.52-.96,1.83-1.21,3.71-2.23,5.85-2.93,4.99-1.4,10.48-.54,15.1,1.71.59.25,1.14.74,1.73,1.06.38.85,1.33.54,3.34,1.32,4.35,2.69,6.3,7.86,6.66,12.82Z"/>
          <path class="cls-8" d="m124.65,89.05c-.37-.19-.74-.37-1.07-.57-6.06-2.64-13.36-3.39-19.37-.24-1.11.54-2.18,1.18-3.21,1.85-1.41.83-2.62,2.31-4.35,2.35-7.84-.8-7.57-14.12-1.56-17.35,2.46-1.44,5.04-2.85,7.78-3.65.01,0,.03,0,.04,0,.25,0,.5-.06.69-.2,1.03-.26,2.09-.43,3.17-.48,2.21-.08,4.4.46,6.55.71.09-.02.17-.05.24-.08,2.54,1.08,4.32,3.5,6.06,5.58,2.79,3.31,4.81,7.68,5.03,12.08Z"/>
          <path class="cls-9" d="m78.4,177.83c-2.1,2.99-4.15,6.02-6.26,8.99-1.09,1.67-2.46,3.27-3.34,5.07-.1-.07-.21-.14-.34-.21-1.61-.59-3.16-1.26-4.75-1.94-4.4-1.79-8.75-3.41-12.94-5.79-10.28-6.43-18.96-15.98-24.41-26.83-.05-.09-.1-.19-.14-.3.11-.14.24-.26.38-.38,2.08-1.47,4.14-2.98,6.02-4.71,2.1-1.91,3.96-4.05,5.77-6.24,3.97,10.94,13.34,19.16,23.38,24.59,5.21,3.22,10.61,6.39,16.64,7.73Z"/>
          <path class="cls-9" d="m84.87,169.44c-1.57,1.78-3.09,3.6-4.45,5.56-.18.24-.35.48-.53.73-3.06-.71-6.08-1.75-8.93-3.14-6.32-3.45-12.64-6.9-18.28-11.44-5.35-4.77-10.48-10.7-12.41-17.75.01-.08.02-.15.02-.22.65-.8,1.31-1.59,1.98-2.37.8-1.05,1.65-2.08,2.47-3.13,3.19,8.74,10.18,15.58,17.47,21.14,3.84,2.81,8.14,4.9,12.45,6.88,3.3,1.47,6.64,3.05,10.2,3.75Z"/>
          <path class="cls-7" d="m59.57,40.45c.11.48.31,1.02.13,1.5-.19.4-.7.59-1.1.39-.44-.18-.46-.66-.5-1.07-.02-.09-.05-.18-.08-.27-.01-.04-.03-.08-.04-.12,0-.01,0-.02-.01-.03-.01-.03-.03-.06-.04-.1,0-.01,0-.02-.02-.03-.01-.04-.03-.07-.05-.11-.02-.04-.04-.08-.06-.13-.04-.08-.09-.16-.14-.24-.03-.06-.07-.11-.1-.16-.03-.05-.07-.1-.11-.15-.03-.04-.06-.08-.08-.12-.03-.04-.07-.09-.1-.13-.17-.22-.34-.43-.52-.64-.07-.09-.15-.18-.23-.27-.24-.28-.5-.54-.78-.77-.04-.03-.07-.06-.11-.09-.05-.04-.1-.08-.15-.12,0,0-.02-.01-.02-.02-.05-.04-.1-.08-.15-.11-.06-.04-.11-.08-.17-.12-.03-.02-.05-.03-.08-.05,0,0,0,0-.01,0-.06-.04-.13-.08-.19-.12-.08-.04-.15-.09-.23-.13,0,0,0,0,0,0-.08-.04-.16-.08-.24-.12-.13-.06-.27-.11-.41-.16-.03,0-.06-.02-.08-.03-.03-.01-.06-.02-.08-.03s-.05-.02-.08-.03c-.08-.03-.16-.07-.24-.12-.02-.01-.04-.02-.05-.03-.02-.01-.04-.03-.05-.04-.03-.03-.07-.06-.1-.09-.01-.01-.03-.03-.04-.05,0,0-.01-.01-.02-.02,0,0-.02-.02-.03-.03-.02-.02-.03-.05-.05-.07-.02-.03-.03-.06-.05-.09-.23-.53.26-1.16.82-1.11.07.02.14.04.22.06.07.02.14.05.21.07,0,0,0,0,0,0,.06.02.13.05.19.07.08.03.15.06.22.09.1.04.2.09.3.13h0c.12.06.24.12.36.18.04.02.08.04.13.07.08.04.16.09.24.14.12.07.24.15.36.23.06.04.11.08.17.12.2.14.4.3.58.46.04.03.07.06.11.1.05.04.1.09.15.13.04.03.07.07.11.1.05.05.1.1.15.14.05.05.09.1.14.15.15.15.29.31.42.48.06.08.12.15.18.23.18.23.36.46.53.69.05.07.1.15.15.22l.08.13s.04.07.06.1c.03.05.07.1.1.16.08.13.16.27.23.41.03.05.05.1.08.15.02.05.05.1.07.15.02.04.04.08.05.13.02.06.05.12.07.18Z"/>
          <path class="cls-7" d="m86.96,47.42c.02.56,0,1.12-.04,1.69,0,.03,0,.06,0,.09-.11,1.39-.41,2.77-.84,4.1-.07.22-.15.44-.23.66-.27.74-.6,1.45-.98,2.15-.96,1.78-2.25,3.4-3.76,4.73-2.43,2.14-5.43,3.59-8.62,4.14-1,.17-2.01.26-3.02.26-1.32,0-2.63-.15-3.92-.46-1.21-.29-2.38-.69-3.51-1.21-1.3-.61-2.5-1.4-3.61-2.3-1.79-1.45-3.21-3.25-4.31-5.26-2.02-3.68-2.58-8.18-1.58-12.24.4-1.61.98-3.16,1.8-4.6.09.06.19.13.28.19.09.07.18.15.27.22.24.25.46.51.68.78-.56,1.06-1.01,2.17-1.34,3.33-.52,2.04-.65,4.16-.39,6.25.32,2.08,1.01,4.07,2.05,5.9,1.05,1.73,2.39,3.24,3.98,4.5,1.68,1.25,3.57,2.19,5.59,2.75,2.02.51,4.11.64,6.18.39.24-.04.48-.08.72-.13,0,0,.01,0,.02,0,.19,0,.35-.04.51-.11,1.64-.37,3.21-.98,4.67-1.81,1.72-1.05,3.24-2.38,4.5-3.96,1.26-1.68,2.19-3.56,2.76-5.58.52-2.04.66-4.16.39-6.25-.3-2.07-1.01-4.04-2.03-5.86-1.05-1.73-2.39-3.26-3.98-4.52-1.68-1.26-3.56-2.19-5.57-2.76-2.06-.52-4.2-.65-6.31-.38-.2.03-.4.06-.59.1-.55.12-1.11.24-1.65.4-.54.16-1.08.36-1.61.57-.68.28-1.34.61-1.98.98-.96.59-1.86,1.27-2.69,2.03-.29-.31-.6-.61-.95-.88-.1-.08-.2-.15-.3-.22.27-.26.55-.51.84-.75.17-.14.35-.28.52-.41.43-.33.88-.63,1.34-.91.16-.1.31-.19.47-.29.67-.39,1.36-.75,2.07-1.05.41-.17.84-.33,1.26-.47.02,0,.04-.02.07-.03.81-.27,1.64-.47,2.48-.61.65-.11,1.3-.18,1.95-.21,2.4-.13,4.83.24,7.1,1.08,5.76,2.13,10.14,7.42,11.09,13.49.13.83.21,1.66.23,2.5Z"/>
          <path class="cls-7" d="m55.58,31.36c.35.29.69.58,1.04.88-.81.28-1.73.71-2.64,1.19-.83,0-1.53.3-2.1.92-.13.14-.24.3-.32.46-.9.54-1.64,1.01-2.05,1.24-3.8,2.45-7.15,5.47-10.45,8.53-.72.83-4.04,2.92-4.81,4.52,0,0-.02.02-.02.03-2.29.26-5.56,1.87-7.13,1.17-3.65-.82,4.22-6.13,5.15-7.3,5.8-5.29,11.77-10.42,18.34-14.74.25-.17.5-.33.76-.46.05.05.11.09.16.14.32.27.65.55.97.82,1.03.87,2.07,1.75,3.1,2.62Z"/>
          <path class="cls-7" d="m83.58,47.7c0,.63-.04,1.26-.12,1.88-.09.63-.21,1.25-.37,1.86-.04.13-.07.25-.11.37-.88-1.16-1.79-2.33-2.94-3.19-.66-.68-1.33-1.35-2-2.02-1.91-1.93-3.82-3.86-5.73-5.79,0,0,0,0-.01-.01,0,0-.01-.01-.02-.02,0,0,0,0,0,0,0,0,0,0,0,0h0s-.04-.04-.06-.06c-.22-.22-.51-.32-.81-.31-1.49-1.24-3.91-3.35-5.49-4.08,0,0,0,0,0,0-.61-.38-1.41-.92-2.19-1.34.1-.05.2-.09.29-.13.55-.23,1.12-.43,1.69-.6.05-.01.11-.03.16-.04.36-.09.73-.16,1.09-.24.19-.04.39-.07.58-.1.64-.08,1.28-.13,1.93-.14.62,0,1.24.04,1.85.11.64.09,1.26.22,1.89.38.6.17,1.18.37,1.76.6.55.24,1.08.51,1.61.8.55.33,1.07.68,1.58,1.07.45.36.87.74,1.29,1.13.42.43.82.88,1.2,1.35.37.49.71.99,1.02,1.51.29.51.56,1.04.8,1.57.24.58.44,1.17.62,1.77.16.6.28,1.2.38,1.81.08.62.12,1.25.14,1.88Z"/>
          <path class="cls-7" d="m63.87,29.4c-.12.03-.23.07-.35.11-.05.02-.1.03-.15.06-.13.04-.26.09-.38.13-.67.24-1.33.52-1.97.84-.56.28-1.1.58-1.64.9-.08-.07-.17-.15-.25-.22-1.38-1.17-2.76-2.33-4.14-3.5,1.09.25,2.19.44,3.29.63,1.87.3,3.72.72,5.58,1.05Z"/>
          <path class="cls-7" d="m108.06,68.38c-1.69-.03-3.38.14-5.02.51-.33-.3-.67-.59-1-.88-2.15-1.89-4.3-3.79-6.45-5.68-1.64-1.44-3.28-2.89-4.92-4.33-1.12-.99-2.24-1.98-3.36-2.97.58-1.44.99-2.94,1.22-4.48.45.42.9.83,1.35,1.25,1.22,1.11,2.44,2.23,3.66,3.34,3.14,2.86,6.28,5.73,9.42,8.59,1.51,1.38,3.03,2.76,4.54,4.14.19.17.37.34.56.51Z"/>
          <path class="cls-5" d="m74.39,66.36c1.48-.39,2.89-.96,4.22-1.67-2.85,4.59-6.49,8.72-11,11.75-4.14,2.61-9.1,3.66-13.98,3.34,0,0,0,0,0,0,.08-.63.07-1.26,0-1.91,6.75-1.34,14.44-4.84,18.49-10.46.07-.23.1-.43.09-.61.73-.1,1.46-.25,2.18-.44Z"/>
          <path class="cls-5" d="m66.5,66.75c.99.15,1.98.23,2.98.23-3.25,3.55-7.77,5.98-12.32,7.51-.81.39-2.67.57-3.96,1.02-.2-.86-.43-1.7-.6-2.52-1.32-4.44-3.23-8.78-5.96-12.54-.35-.46-.7-.92-1.06-1.38.89-1.43,1.95-2.6,3.13-3.95.27-.45.95-1.03,1.58-1.65.18-.11.34-.27.44-.46.08-.09.16-.18.23-.27.23.87.53,1.72.87,2.55.47,1.09,1.02,2.14,1.68,3.12,2.93,4.4,7.74,7.55,12.98,8.33Z"/>
          <path class="cls-5" d="m51.73,37.49c.25.38.63.66,1.04.86-.71,1.25-1.28,2.57-1.68,3.96-.61,2.1-.88,4.29-.77,6.48.02.38.05.75.1,1.12-.5.2-.91.65-1.21,1.09-.02.02-.05.05-.07.07-.81.66-1.46,1.76-2.18,2.37-.96,1.19-2.16,2.33-2.99,3.64-1.56-1.86-3.21-3.65-4.95-5.34-.7-.57-1.32-1.46-2.04-2.13,2.9-2.63,5.86-5.2,8.78-7.81,1.87-1.51,3.87-3,5.98-4.31Z"/>
          <path class="cls-5" d="m74.01,57.85c-.26.26-.54.6-.76.97-.41.6-.76,1.24-1.19,1.82-.25.35-.62.66-.78,1.07-.56.06-1.11.1-1.67.11-.64,0-1.27-.04-1.89-.12-.62-.09-1.23-.21-1.84-.36-.61-.17-1.21-.38-1.79-.61-.55-.24-1.1-.51-1.62-.81-.53-.31-1.04-.66-1.53-1.02-.46-.36-.91-.75-1.33-1.16-.43-.44-.84-.91-1.23-1.4-.34-.46-.67-.93-.96-1.42-.31-.54-.59-1.09-.84-1.66-.23-.57-.44-1.15-.61-1.74-.15-.59-.28-1.19-.37-1.79-.01-.08-.02-.17-.03-.25.61-.07,1.28-.5,1.84-.69.45-.22.91-.43,1.38-.65.28.04.58-.03.85-.25.48-.28.97-.53,1.45-.77,1.86,3.64,9.56,8.94,12.92,10.73Z"/>
          <path class="cls-5" d="m65.4,38.82c1.22.89,2.43,1.68,3.61,2.72-2.36.57-4.61,1.54-6.85,2.46-.29.15-.6.29-.92.43-.34-.04-.71.03-1.04.26-1.2.68-2.43,1.32-3.69,1.88-.3.12-.67.24-1.03.41.02-.32.04-.64.08-.95.09-.64.21-1.28.38-1.91.16-.56.35-1.11.56-1.66.17.54.59,1.02,1.05,1.31.42.27.91.41,1.4.41.19,0,.38-.02.57-.06.65-.15,1.23-.56,1.59-1.12.38-.59.45-1.23.36-1.91-.03-.27-.09-.74-.25-1.22-.13-.39-.3-.77-.51-1.13-.26-.43-.53-.83-.82-1.21.32-.3.66-.59,1-.86.08-.06.17-.12.25-.18.16.14.35.24.57.27,1.31.54,2.47,1.36,3.68,2.08Z"/>
          <path class="cls-2" d="m59.19,95.64c-1.61-.08-2.25-4.31-2.52-5.66-.26-.21-.43-.53-.46-.89-.71-.33-.73-1.17-.97-1.82-.13-.76-.24-1.79.62-2.14.03-.09.06-.18.11-.27.11-.2.27-.36.46-.47.11-1.32,1.98-1.53,2.37-.25.1,1.61.07,3.26.18,4.88.11,1.46.55,2.87,1.02,4.24.52.81.45,2.46-.82,2.38Z"/>
          <path class="cls-2" d="m53.93,87.29c-.07-.24-.06-.49.02-.72-.34-.51-.87-.94-.67-1.63-.24-.12-.44-.31-.56-.55-.05-.08-.1-.15-.13-.24-1.22-.09-1.49-1.84-.36-2.3,1.12-.35,2.3.34,3.34.7,1.49.19,1.75,1.96.41,2.61,0,.03-.02.05-.03.08.64.86.63,2.48-.53,2.88-.62.18-1.31-.18-1.49-.82Z"/>
          <path class="cls-3" d="m62.62,99.16c-1.26-.33-1.73-2.43-2.34-3.49-1.71-4.18-2.32-8.95-1.53-13.41.18-1.62,2.06-2.32,2.59-.55.07.58-.31,1.03-.35,1.59-.29,1.58-.16,3.26-.05,4.84.15,1.9.5,3.79,1.15,5.59.36.96.81,1.88,1.27,2.8.29.58.67,1.19.48,1.86-.11.56-.67.92-1.22.76Zm-2.06-16.14c.13-.03.25-.11.36-.19.02-.02.19-.17.23-.26-.14.2-.35.36-.59.45Z"/>
          <path class="cls-3" d="m50.22,82.7c-.43-.5-.33-1.29.17-1.7.47-.34,1.07-.33,1.59-.54,1.72-.45,3.51-.38,5.27-.55.93.08,1.69,1.06.94,1.85-1.06.95-2.73.63-4.05.75-1.28-.08-2.87,1.28-3.91.19Zm1.55-1.79c-.18-.12-.41-.17-.62-.17.22,0,.43.06.62.17Z"/>
          <path class="cls-3" d="m80.73,119.64c-1.1-.05-1.49-1.31-.86-2.05,1.31-1.2,2.02-2.95,1.45-4.69-.17-1.89,1.97-2.07,2.39-.31.55,1.98.04,4.08-1.23,5.69-.51.53-.91,1.39-1.76,1.36Z"/>
          <path class="cls-3" d="m79.2,120.56c-.79,0-1.41-.77-1.16-1.56.33-.82,1.21-1.26,1.79-1.89,1.99-1.34,1.18-4.05.53-5.93-.83-1.89,1.2-3.03,2.16-1.12,1.1,2.83,1.79,6.72-1.01,8.79-.43.4-.87.79-1.31,1.19-.26.37-.66.55-1.04.53.02,0,.03,0,.05,0Z"/>
          <path class="cls-2" d="m80.94,122.32c-1.06-.01-1.55-1.41-.77-2.1.86-.63,1.94-1,2.58-1.91-.19-.83.43-1.52.57-2.31.28-.75-.19-1.69.58-2.23.49-.38,1.16-.26,1.59.14.62.83.42,2.03.52,3.01-.16,2.31-2.92,4.86-5.06,5.39Z"/>
          <path class="cls-3" d="m75.04,120.52c-.27-1.5,1.29-1.47,2.28-1.84,2.25-.7,4.59-1.49,4.35-4.32-.23-1.16-.83-2.18-1.37-3.22-.29-.64-.08-1.75.76-1.79,1.39-.05,1.8,1.59,2.34,2.58,1.05,2.12.87,4.75-.65,6.6-1.41,1.45-3.44,2.05-5.32,2.64-.84.37-2.11.48-2.39-.64Z"/>
          <path class="cls-3" d="m87.6,115.09c-2.45-.51-4.71-1.6-6.47-3.4-.73-1.1-3.87-3.1-2.41-4.44.75-.49,1.68.02,2.18.64,1.72,1.93,3.54,3.99,6.18,4.56.85.25,2.13.36,2.09,1.53-.02.81-.88,1.36-1.62,1.09,0,0,.04,0,.04,0Z"/>
          <path class="cls-5" d="m76.87,59.47c.08.05.16.09.24.12-.16.1-.32.2-.48.3-.52.29-1.05.56-1.6.81-.06.02-.11.04-.17.07.03-.04.05-.08.08-.12.34-.36.61-.83.86-1.23.1-.11.17-.22.22-.34.28.14.56.28.85.39Z"/>
        </g>
      </g>
    </g>
  </g>
</svg>