<?xml version="1.0" encoding="UTF-8"?>
<svg id="Ebene_2" data-name="Ebene 2" xmlns="http://www.w3.org/2000/svg" viewBox="0 0 190.71 213.39">
  <defs>
    <style>
      .cls-1, .cls-2, .cls-3 {
        stroke-width: 0px;
      }

      .cls-2 {
        fill: #fff;
      }

      .cls-3 {
        fill: #ffe1bb;
      }
    </style>
  </defs>
  <g id="Ebene_1-2" data-name="Ebene 1">
    <g>
      <path class="cls-2" d="m190.36,199.55h0c-1.14-3.36-3.62-5.75-5.8-7.85-.43-.41-.84-.81-1.26-1.24l-.2-.2c-2.06-1.9-4.07-4.48-5.79-7.47-.76-1.31-1.33-2.69-1.9-4.63l-.05-.17c-1.18-3.5-2.53-6.65-3.83-9.7-2.12-4.97-4.12-9.66-5.13-15.31l-.04-.18c-2.37-10.85-2.95-21.68-1.7-32.21.42-3.88,1.06-7.92,1.69-11.84,1.04-6.51,2.11-13.25,2.32-20.19.17-8.74-1.03-17.25-2.22-24.43-1.12-6.58-2.82-15.15-5.99-23.16l-.08-.18c-4.09-9.19-8.79-18.76-17.19-25.97C128.33,2.44,106.85-2.53,84.22,1.22c-20.91,3.6-38.16,14.21-47.31,29.11-2.52,4.17-3.97,8.22-5.23,12.01l-.42,1.26c-.97,2.92-2.08,6.23-2.72,9.61-3.03,11.7-3.45,23.61-3.86,35.15-.06,1.56-.11,3.12-.17,4.73-.55,18.12-2.12,37.25-9.91,54.38-2.33,5.3-4.98,11.3-8.35,16.6-.27.44-.55.88-.84,1.34l-.3.47c-1.44,2.28-2.93,4.64-4.18,7.15l-.07.15c-1.4,3.07-.83,5.6-.09,7.18,1.95,4.21,6.58,5.5,9.65,6.36l1.1.3c.18.04.65.22.93.32.61.23,1.42.54,2.35.75l.77.87c.65.64,1.41,1.51,2.15,2.35,1.9,2.17,4.05,4.62,6.68,6.3,1.11.72,2.37,1.17,3.67,1.31,1.08,1.13,2.55,1.95,4.37,2.43,4.95,1.43,9.88,1.86,14.64,2.27h.16c1.31.13,2.62.24,4.05.39,5.21.43,10.21,3.17,15.04,5.81.62.34,1.23.67,1.87,1.02l.13.07c1.41.71,2.92,1.04,4.39.96,1.44,1.01,3.37,1.53,5.75,1.53,2.05,0,4.11-.38,5.69-.77l.04.1,1.9-.63c3.66-1.21,7.07-2.89,10.39-4.52,2.41-1.18,4.68-2.3,6.93-3.17,7.49-2.81,16.33-3.68,25.56-2.51,6.4.72,12.99,2.8,19.37,4.81,1.3.41,2.6.82,3.99,1.24l.9.27c2.65.79,5.96,1.77,8.85,1.38l.35-.05c.85.42,1.78.71,2.82.88l.14.02c.18.02,17.86,2.31,24.01-5.3l1.21-1.5.12-3.08-.34-1.02Z"/>
      <g>
        <path class="cls-1" d="m111.26,50.96s0,0,0,0c0,.01.01.02.02.03,0,0-.01-.02-.02-.03Z"/>
        <path class="cls-2" d="m45.7,54.76c.06-.04.13-.08.19-.13-.34.59-.67,1.18-1.01,1.77-.15.27-.31.53-.45.8-.14.28-.28.55-.43.83-.26.5-.52,1-.78,1.5-.05.09-.1.19-.15.28,0,0,0,0,0,0-.41.57-.79,1.16-1.15,1.77-.43.76-.81,1.55-1.15,2.36-.34.84-.63,1.7-.87,2.58-.05.18-.09.37-.14.55,0,0,0,0,0,0-.17.37-.33.74-.5,1.11-.08.18-.16.36-.25.54-.26.56-.53,1.11-.77,1.68-.06.12-.12.23-.18.35-.26.51-.5,1.03-.72,1.57,0-.24,0-.47,0-.71,0-.2.01-.4.02-.6.02-.31.04-.62.07-.93.03-.31.06-.62.11-.93,0-.08.02-.16.03-.24.03-.23.07-.45.11-.68.13-.79.31-1.57.52-2.35.72-2.66,1.94-5.22,3.54-7.32.07-.09.14-.18.21-.27.12-.15.24-.3.36-.45,0,0,.01-.01.02-.02.07-.08.14-.16.2-.24.07-.08.14-.16.21-.24.07-.08.14-.16.21-.23.07-.08.14-.15.22-.23.07-.08.15-.15.22-.23.04-.04.09-.09.13-.13.02-.02.04-.04.07-.06,0,0,0,0,0,0,.07-.06.13-.13.2-.19h0c.07-.06.14-.13.21-.19s.14-.12.21-.19c.05-.04.09-.08.14-.12.01-.01.02-.02.04-.03.04-.03.07-.06.11-.09.08-.07.17-.14.25-.21,0,0,0,0,.01-.01.11-.08.21-.16.32-.25.04-.03.07-.06.11-.08.02-.02.04-.03.07-.05.02-.01.03-.03.05-.04.02-.02.05-.03.07-.05.02-.01.03-.02.05-.04.02-.02.04-.03.06-.04.06-.04.13-.09.19-.13Z"/>
        <path class="cls-2" d="m60.11,129.69c0,.15,0,.31,0,.46,0,.45-.01.89-.02,1.33h0c0,.15,0,.3,0,.44h0c-.01.44-.02.88-.04,1.31-.01.29-.02.57-.03.86s-.02.57-.04.85c-.02.42-.04.84-.07,1.25,0,.14-.02.28-.03.41-.02.27-.04.55-.06.82-.01.14-.02.27-.03.41-.04.51-.08,1.01-.13,1.5-.02.17-.03.33-.05.49-.03.26-.05.52-.08.78-.01.13-.03.26-.04.39-.03.26-.06.51-.09.77-.02.13-.03.26-.05.38-.1.76-.21,1.52-.33,2.26-.04.25-.08.49-.13.74-.11.61-.22,1.22-.34,1.82-.02.12-.05.24-.07.36-.02.1-.04.21-.07.31-.11.49-.22.98-.33,1.47-.03.11-.05.23-.08.34,0,.01,0,.02,0,.03-.02.09-.04.18-.07.27,0,.02,0,.04-.01.06-.03.11-.06.22-.08.33,0,0,0,.01,0,.02-.03.12-.06.23-.09.35-.04.14-.07.27-.11.41-.03.13-.07.25-.1.38-.02.08-.05.17-.07.25-.03.12-.06.23-.1.34-.03.1-.06.2-.09.3,0,.03-.02.06-.03.09-.03.1-.06.2-.09.3-.03.11-.07.23-.1.34-.03.1-.06.2-.09.31-.01.03-.02.07-.03.1-.03.09-.06.18-.09.27,0,0,0,.01,0,.02-.03.11-.07.21-.1.32-.02.08-.05.15-.07.23-.04.12-.08.24-.12.36,0,0,0,0,0,0-.03.09-.06.17-.09.26-.17.51-.35,1.01-.54,1.52-.04.11-.08.22-.13.34-.04.11-.08.22-.13.34-.17.45-.35.89-.53,1.34-.05.11-.09.22-.14.33-.05.11-.09.22-.14.33-.09.22-.18.43-.28.65-.15.34-.3.68-.45,1.02-.05.11-.1.22-.15.33-.03.07-.06.14-.1.21-.02.05-.05.1-.07.16-.06.13-.12.26-.18.39-.25.53-.5,1.05-.77,1.58-.06.11-.11.22-.17.34-.28.56-.57,1.12-.88,1.68,0,0,0,.02-.01.02,0,0,0,0,0,.01-.03.05-.05.1-.08.14-.07.13-.14.26-.22.4-.04.07-.07.13-.11.2l-.13.24c-.13.24-.26.48-.4.72-.02.03-.03.06-.05.08-.01.02-.02.04-.04.07-.09.16-.18.31-.27.47,0,.01-.02.03-.02.04-.03.06-.07.12-.1.17-.03.05-.06.1-.09.15-.07.12-.13.23-.2.34-.2.34-.4.69-.61,1.04-.04.06-.08.13-.11.19-.06.1-.12.2-.18.31-.18.3-.36.6-.55.9-.03.05-.07.11-.1.16-.16.26-.33.53-.49.79-.02.04-.05.07-.07.11,0,.01-.01.02-.02.03-.04.07-.09.14-.13.21-.26.41-.52.82-.78,1.23-.12.19-.24.38-.37.57,0,.01-.01.02-.02.03l-.02.03c-.16.25-.33.5-.49.75l-.14.22c-.04.05-.07.11-.11.16-.06.09-.12.18-.18.27-.02.04-.05.07-.07.11-.07.11-.15.22-.22.33-.1.15-.19.29-.29.44-2.94,4.76-6.21,9.36-9.76,13.64-.02.02-.03.03-.05.05,0,0-.02.02-.03.03,0,0-.02.02-.03.03-.27.28-.61.77-.97,1.29-.02.03-.05.07-.07.1-.01.02-.02.03-.03.05-.02.03-.04.06-.06.09h0s0,0,0,0c-.01.02-.02.03-.03.04-.18.26-.37.51-.57.74-.02.02-.04.05-.06.07-.1.12-.2.23-.31.33t0,0s-.04.04-.06.05c-.02.02-.04.03-.05.05-.05.04-.1.08-.15.12-.02.01-.03.03-.05.04-.01,0-.02.01-.03.02-.02.01-.03.02-.05.03-.02.01-.03.02-.05.03-.05.03-.1.05-.14.07-.01,0-.03.01-.04.02-.03.01-.07.02-.1.03-.03,0-.06.01-.09.01-.14.01-.28-.03-.41-.13-.03-.02-.05-.04-.08-.07-.14-.14-.27-.35-.39-.66.2-.37.41-.73.63-1.09,0,0,.01-.02.02-.02,0-.01.01-.02.02-.03.07-.1.13-.21.2-.31.07-.11.15-.22.22-.33,0,0,0,0,0,0,0,0,0,0,0,0,.03-.05.07-.1.1-.15.04-.05.07-.11.11-.16.04-.05.07-.11.11-.16.04-.05.07-.1.11-.16.03-.04.06-.08.09-.13.08-.11.17-.22.25-.34,0,0,.01-.02.02-.03.02-.02.03-.05.05-.07.02-.02.03-.04.05-.06.04-.05.08-.1.12-.15.02-.03.04-.05.06-.08.02-.03.04-.05.06-.08.09-.12.19-.24.29-.36.02-.03.05-.06.07-.09.04-.05.09-.11.13-.16.12-.15.24-.3.36-.44.08-.1.17-.2.25-.3.12-.15.25-.3.38-.45.13-.15.25-.3.38-.45.13-.15.25-.3.38-.45.06-.08.13-.15.19-.23.06-.07.12-.15.18-.22.01-.02.03-.03.04-.05.23-.27.45-.55.67-.82.07-.09.15-.18.22-.28.07-.09.14-.18.21-.27.07-.09.13-.17.2-.26,0,0,.01-.02.02-.03.07-.09.14-.19.21-.28.07-.09.14-.19.2-.28,0-.01.02-.03.03-.04.13-.18.25-.36.37-.54.06-.1.13-.19.19-.29,0,0,0,0,0,0,.06-.1.13-.19.19-.29,2.77-3.83,5.23-7.9,7.72-11.91.13-.2.27-.4.4-.61.09-.13.17-.27.26-.4.08-.13.16-.25.24-.38.06-.09.12-.18.17-.28.02-.03.04-.07.06-.1.08-.12.15-.24.23-.36.09-.14.18-.29.27-.43.1-.16.2-.33.29-.49.1-.17.21-.34.31-.52.1-.17.2-.34.3-.51,0,0,0,0,0-.01.03,0,.05,0,.08,0,.25-.03.49-.22.54-.46.08-.34.16-.69.22-1.03h0c4.13-7.55,6.93-15.75,8.08-24.31.06-.32.11-.65.17-.97.06-.32.12-.65.18-.97.27-.04.53-.25.55-.53.03-.25.06-.49.07-.74h0s0-.01,0-.02h0s0-.04,0-.06c0,0,0,0,0,0h0s0,0,0,0c0-.08.01-.16.02-.24,0,0,0,.01,0,.02v-.07s0-.01,0-.02c0-.02,0-.04,0-.06h0s0-.02,0-.03h0s0-.03,0-.05c0-.03,0-.07,0-.1.05-.45.09-.9.14-1.36.08-.71.15-1.42.22-2.14.01-.09.02-.18.03-.27h0c.05-.28.11-.55.16-.83.07-.36.14-.71.22-1.06,0-.04.02-.09.03-.13.04-.19.08-.39.12-.59,0-.03.01-.07.02-.1.04-.19.08-.39.12-.59Z"/>
        <path class="cls-2" d="m57.71,137.27s0,0,0,0c0,0,0,0,0,0Z"/>
        <path class="cls-2" d="m73.32,97.76s0,0,0,0c0,0,0,0,0,0Z"/>
        <path class="cls-2" d="m59.03,91.88s0,0,0,0c0,0,0,0,0,0h0Z"/>
        <path class="cls-2" d="m57.71,137.27s0,0,0,0c0,0,0,0,0,0Z"/>
        <path class="cls-2" d="m50.99,102.28s.01.01.02.02c0,0-.01-.01-.02-.02Z"/>
        <path class="cls-2" d="m51.36,100.82s0,0,0,0c0,0,0,0,0,0Z"/>
        <path class="cls-2" d="m51.37,100.81s0,0,0,0c0,0,0,0,0,0Z"/>
        <path class="cls-2" d="m73.32,97.76s0,.02,0,.03c0-.01,0-.02,0-.03Z"/>
        <path class="cls-2" d="m46.54,91.9s0,0,0,0c0,0,0,0,0,0h0Z"/>
        <path class="cls-2" d="m55.56,90.48s0,0,0,0c0,0,0,0,0,0Z"/>
        <path class="cls-2" d="m55.59,90.42s0,0,0,0c0,0,0,0,0,0,0,0,0,0,0,0,0,0,0,0,0,0Z"/>
        <path class="cls-2" d="m55.8,89.18s-.01.03-.02.04c0-.01.01-.03.02-.04Z"/>
        <path class="cls-2" d="m63.12,88.12s0,0,0,0c0,0,0,0,0,0Z"/>
        <path class="cls-2" d="m57.61,86.16s0,0,0,0c0,0,0,0,0,0,0,0,0,0,0,0,0,0,0,0,0,0Z"/>
        <path class="cls-2" d="m57.62,86.13s0,0,0,0c0,0,0,0,0,0,0,0,0,0,0,0Z"/>
        <path class="cls-2" d="m57.63,86.12s0,0,0,0c0,0,0,0,0,0,0,0,0,0,0,0Z"/>
        <path class="cls-2" d="m57.63,86.12s0,0,0,0c0,0,0,0,0,0,0,0,0,0,0,.01,0,0,0,0,0,0Z"/>
        <path class="cls-2" d="m57.63,86.12s0,0,0,0t0,0s0,0,0,0Z"/>
        <path class="cls-2" d="m57.63,86.1s0,0,0,0c0,0,0,0,0,.01,0,0,0,0,0,0v-.02Z"/>
        <path class="cls-2" d="m57.63,86.11s0,0,0,0c0,0,0,0,0,0,0,0,0,0,0,.01,0,0,0,0,0,0Z"/>
        <path class="cls-2" d="m57.65,86.08h0s0,0,0,0c0,0,0,0,0,0Z"/>
        <path class="cls-2" d="m37.53,80.54h0s-.02.03-.02.04c.01-.01.02-.03.03-.04Z"/>
        <path class="cls-2" d="m39.43,80.22s0-.02.01-.03c.01,0,.02,0,.03.01-.04.06-.07.12-.11.18.02-.06.05-.11.07-.17Z"/>
        <path class="cls-2" d="m71.83,71.14s0,.03,0,.04c0-.01,0-.03,0-.04Z"/>
        <path class="cls-2" d="m42.94,60.5s0,0,0,0c0,0,0,0,0,0Z"/>
        <path class="cls-2" d="m73.15,57.4s-.03.03-.04.05c.01-.02.03-.03.04-.05Z"/>
        <path class="cls-2" d="m63.91,52.97s0,.01,0,.02c0,0,0,0,0,.01,0,0,.01-.02.02-.03Z"/>
        <path class="cls-2" d="m63.92,52.96s0,0,0,0c0,0,0,0,0,0Z"/>
        <path class="cls-2" d="m58.51,46.77s0,0,0-.01h0s-.02.02-.02.03c0,0,0-.01.01-.02Z"/>
        <path class="cls-2" d="m72.93,44.8s0,0,0,0c0,.01-.02.02-.02.03,0-.01.02-.02.02-.03Z"/>
        <path class="cls-2" d="m46.5,164s0,0,0,0c0,0-.01.02-.02.03,0,0,.01-.02.02-.02Z"/>
        <path class="cls-2" d="m46.27,160.48s0,.02,0,.04c0-.01,0-.02,0-.04Z"/>
        <path class="cls-2" d="m46.39,158.87s0,0,0,0h0s0,0,0,0Z"/>
        <path class="cls-2" d="m46.39,158.87s0,0,0,0c0,0,0,0,0,0h0Z"/>
        <path class="cls-2" d="m46.39,158.87s0,0,0,0c0,0,0,0,0,0,0,0,0,0,0,0Z"/>
        <path class="cls-2" d="m46.39,158.86s0,0,0,0c0,0,0,0,0,0h0Z"/>
        <path class="cls-2" d="m46.39,158.85h0s0,0,0,0c0,0,0,0,0,0,0,0,0,0,0,0Z"/>
        <path class="cls-2" d="m46.39,158.85s0,0,0,0h0s0,0,0,0h0Z"/>
        <path class="cls-2" d="m46.39,158.85s0,0,0-.01c0,0,0,0,0,0,0,0,0,0,0,0,0,0,0,0,0,0h0s0,0,0,0h0Z"/>
        <path class="cls-2" d="m46.39,158.82s0,0,0,0c0,0,0,0,0,0h0Z"/>
        <path class="cls-2" d="m46.39,158.8s0,0,0,.01c0,0,0,0,0-.01Z"/>
        <path class="cls-2" d="m59.04,136.88s0,0,0,0c0,0,0,0,0,0h0Z"/>
        <path class="cls-2" d="m59.05,136.85s0,0,0,0c0,0,0,.02,0,.03,0,0,0-.02,0-.03Z"/>
        <path class="cls-2" d="m57.77,136.64s0,.02,0,.04c0-.01,0-.02,0-.04Z"/>
        <path class="cls-2" d="m78.03,126.59s0,0,0,0h0Z"/>
        <path class="cls-2" d="m78.25,112.2s0,.03.01.04c0-.01,0-.03-.01-.04Z"/>
        <path class="cls-2" d="m59.26,101.29s0,0,0,0c0,0,0,0,0,0,0,0,0,0,0,0Z"/>
        <path class="cls-2" d="m73.31,97.72s0,0,0,0c0,0,0,0,0,.01,0,0,0-.01,0-.02Z"/>
        <path class="cls-2" d="m72.56,95.29s.01.04.02.06c0-.02-.01-.04-.02-.06Z"/>
        <path class="cls-2" d="m66.51,94.81s-.01.02-.02.03c0-.01.01-.02.02-.03Z"/>
        <path class="cls-2" d="m67.07,94.21s.02.05.04.08c-.01-.02-.02-.05-.04-.08Z"/>
        <path class="cls-2" d="m72.02,93.53s0,0,0,0c0,0,0,0,0,0Z"/>
        <path class="cls-1" d="m40.55,78.34c.1-.16.2-.33.31-.49-.04.07-.08.14-.12.21-.07.13-.14.25-.22.38.01-.03.02-.07.03-.1Z"/>
        <path class="cls-1" d="m92.05,65.16c.32,1.75.1,3.58-.4,5.27-.36,1.26-.9,2.48-1.65,3.55-.51.72-1.13,1.4-1.91,1.83-.44.25-.95.39-1.45.39-.08,0-.16,0-.25-.01-.58-.05-1.12-.35-1.52-.76-.58-.6-.9-1.43-1.06-2.24-.15-.77-.19-1.55-.15-2.33.1-1.7.52-3.4,1.24-4.94.41-.88.92-1.72,1.58-2.44.5-.53,1.07-1,1.76-1.26.61-.22,1.27-.23,1.87.02.02,0,.04.02.06.03,1.11.53,1.63,1.73,1.85,2.89Z"/>
        <path class="cls-1" d="m99.61,72.24c.12-.96.17-1.93.16-2.9-.02-.94-.09-1.87-.23-2.79-.12-.78-.29-1.56-.5-2.32-.2-.68-.44-1.35-.72-2.01-.25-.57-.53-1.12-.85-1.65-.28-.45-.58-.89-.9-1.31-.31-.38-.63-.75-.98-1.1-.32-.3-.65-.59-.99-.86-.31-.23-.64-.45-.98-.65-.33-.18-.67-.35-1.01-.5-.27-.11-.54-.2-.82-.29-.06-.02-.12-.03-.17-.05h-.05c-.19-.06-.37-.1-.56-.14-.19-.04-.38-.07-.58-.1-.02,0-.05,0-.07,0,0,0,0,0,0,0-.02,0-.03,0-.05,0-.01,0-.02,0-.04,0,0,0-.02,0-.02,0-.02,0-.03,0-.05,0-.01,0-.02,0-.03,0-.01,0-.02,0-.04,0-.29-.02-.57-.03-.86-.03-.37.01-.74.04-1.1.09-.41.06-.82.15-1.23.26-.43.12-.84.28-1.25.45-.43.19-.85.41-1.26.65-.47.28-.92.6-1.36.94-.48.38-.93.79-1.28,1.14-.51.52-.98,1.07-1.41,1.63-.48.63-.91,1.3-1.31,1.98-.43.76-.81,1.55-1.15,2.36-.34.84-.63,1.7-.87,2.58-.26.99-.45,2-.58,2.97-.11.96-.17,1.93-.17,2.9.01.91.08,1.82.21,2.72v.02c.12.81.3,1.62.52,2.41.2.69.44,1.36.72,2.02.25.57.53,1.12.84,1.65.28.47.59.92.92,1.35.3.37.61.72.95,1.06.32.3.64.59.92.81l.08.06c.33.25.67.47,1.03.68.32.18.65.34.99.48.34.13.68.25,1.03.35h.02c.37.1.74.17,1.11.22.36.04.72.06,1.09.06.39,0,.77-.04,1.15-.09.4-.06.79-.15,1.18-.25.44-.13.86-.28,1.28-.46.46-.2.9-.43,1.28-.66l.05-.03h0c.43-.27.85-.55,1.23-.85,0,0,.01-.01.02-.02h0c.51-.41,1-.85,1.38-1.24.48-.49.93-1.02,1.35-1.56.47-.63.9-1.28,1.3-1.96.42-.74.79-1.51,1.13-2.3.02-.04.04-.09.06-.13.33-.83.61-1.66.85-2.52.26-1,.46-2.01.58-2.91,0-.05.01-.1.02-.15Zm1.92-4.1c.09,1.47.04,2.94-.14,4.41-.27,2.11-.82,4.18-1.58,6.04-1.3,3.17-3.33,6.07-6.1,8.13-1.46,1.09-3.16,1.88-4.94,2.25-.69.14-1.4.21-2.1.21-.14,0-.29,0-.43,0-.45-.02-.91-.07-1.35-.15-.16-.03-.32-.06-.48-.1-.11-.03-.22-.05-.33-.08-.02,0-.03,0-.05-.01-.04-.01-.09-.02-.13-.03-.23-.06-.47-.14-.69-.23-1.03-.38-1.98-.91-2.85-1.57-.16-.12-.31-.25-.46-.38-.05-.04-.09-.08-.14-.12-.2-.17-.39-.35-.57-.53-.07-.07-.14-.14-.2-.21-.02-.02-.05-.05-.07-.07-.06-.07-.13-.13-.19-.2-.06-.07-.12-.13-.18-.2-.04-.04-.08-.09-.12-.14-.05-.06-.1-.12-.15-.17-.05-.06-.09-.11-.14-.17-.04-.06-.09-.11-.13-.17-.05-.07-.11-.14-.16-.21-.03-.04-.05-.07-.08-.11-.06-.08-.12-.17-.18-.25-.05-.07-.09-.14-.14-.21-.04-.06-.08-.13-.12-.19-.06-.09-.12-.18-.17-.28-.02-.02-.03-.05-.05-.07l-.08-.13-.13-.22c-.03-.05-.06-.11-.09-.16-.01-.02-.02-.04-.03-.05-.03-.05-.06-.11-.09-.17-.03-.06-.07-.13-.1-.2-.03-.06-.06-.12-.09-.18,0-.02-.02-.03-.02-.04-.05-.11-.11-.22-.16-.33-.01-.02-.02-.04-.03-.06-.03-.06-.06-.12-.08-.18-.03-.07-.06-.13-.09-.2-.01-.02-.02-.04-.03-.07v-.02c-.68-1.57-1.11-3.22-1.34-4.79-.47-3.19-.22-6.45.62-9.56.72-2.66,1.94-5.22,3.54-7.32.09-.12.19-.24.28-.36.05-.06.1-.12.14-.18.1-.12.19-.24.29-.35.05-.06.1-.12.15-.17.05-.06.1-.12.15-.17.05-.06.1-.11.15-.17.05-.06.1-.11.16-.17.19-.2.38-.4.58-.59.05-.05.09-.09.14-.14.04-.04.08-.07.11-.11.05-.05.1-.09.15-.14.07-.06.14-.13.22-.19.06-.06.13-.11.19-.16.16-.13.31-.26.47-.38l.12-.09s.07-.06.11-.08c.05-.03.09-.07.14-.1.06-.05.12-.09.19-.13.11-.08.22-.15.33-.22.05-.03.1-.07.15-.1.06-.04.11-.07.17-.11.04-.02.08-.05.12-.07.14-.08.28-.17.42-.25.05-.03.1-.06.16-.08.01,0,.03-.02.04-.02.06-.03.12-.07.18-.1.07-.04.14-.07.21-.1.81-.4,1.67-.71,2.55-.91.04-.02.08-.03.12-.04,1.42-.32,2.92-.34,4.35-.05,0,0,0,0,0,0,0,0,0,0,.01,0,.02,0,.03,0,.05.01.33.07.65.16.98.26.04.01.07.02.11.04.86.29,1.68.69,2.45,1.19,1.32.86,2.45,2.01,3.36,3.3,1.94,2.74,2.9,6.11,3.11,9.43Z"/>
        <path class="cls-1" d="m54.89,64.1c.32,1.75.1,3.58-.4,5.27-.36,1.26-.9,2.48-1.65,3.55-.51.72-1.13,1.4-1.91,1.83-.44.25-.95.39-1.45.39-.08,0-.16,0-.25-.01-.58-.05-1.12-.35-1.52-.76-.58-.6-.9-1.43-1.06-2.24-.15-.77-.19-1.55-.15-2.33.1-1.7.52-3.4,1.24-4.94.41-.88.92-1.72,1.58-2.44.5-.53,1.07-1,1.76-1.26.61-.22,1.27-.23,1.87.02.02,0,.04.02.06.03,1.11.53,1.63,1.73,1.85,2.89Z"/>
        <path class="cls-1" d="m62.45,71.18c.12-.96.17-1.93.16-2.9-.02-.94-.09-1.87-.23-2.79-.12-.78-.29-1.56-.5-2.32-.2-.68-.44-1.35-.72-2.01-.25-.57-.53-1.12-.85-1.65-.28-.45-.58-.89-.9-1.31-.31-.38-.63-.75-.98-1.1-.32-.3-.65-.59-.99-.86-.31-.23-.64-.45-.98-.65-.33-.18-.67-.35-1.01-.5-.27-.11-.54-.2-.82-.29-.06-.02-.12-.03-.17-.05h-.05c-.19-.06-.37-.1-.56-.14-.19-.04-.38-.07-.58-.1-.02,0-.05,0-.07,0,0,0,0,0,0,0-.02,0-.03,0-.05,0-.01,0-.02,0-.04,0,0,0-.02,0-.02,0-.02,0-.03,0-.05,0-.01,0-.02,0-.03,0-.01,0-.02,0-.04,0-.27-.02-.55-.03-.82-.03h-.04c-.37.01-.74.04-1.1.09-.41.06-.82.15-1.23.26-.43.12-.84.28-1.25.45-.43.19-.85.41-1.26.65-.47.28-.92.6-1.36.94-.48.38-.93.79-1.28,1.14-.51.52-.98,1.07-1.41,1.63-.05.07-.11.14-.16.22,0,0,0,0,0,0-.41.57-.79,1.16-1.15,1.77-.43.76-.81,1.55-1.15,2.36-.34.84-.63,1.7-.87,2.58-.05.18-.09.37-.14.55,0,0,0,0,0,0-.19.81-.34,1.63-.45,2.42-.11.96-.17,1.93-.17,2.9.01.91.08,1.82.21,2.72v.02c.12.81.3,1.62.52,2.41.2.69.44,1.36.72,2.02.25.57.53,1.12.84,1.65.28.47.59.92.92,1.35.3.37.61.72.95,1.06.32.3.64.59.92.81l.08.06c.33.25.67.47,1.03.68.32.18.65.34.99.48.34.13.68.25,1.03.35h.02c.37.1.74.17,1.11.22.36.04.72.06,1.09.06.39,0,.77-.04,1.15-.09.4-.06.79-.15,1.18-.25.44-.13.86-.28,1.28-.46.46-.2.9-.43,1.28-.66l.05-.03h0c.43-.27.85-.55,1.23-.85,0,0,.01-.01.02-.02h0c.51-.41,1-.85,1.38-1.24.48-.49.93-1.02,1.35-1.56.47-.63.9-1.28,1.3-1.96.42-.74.79-1.51,1.13-2.3.02-.04.04-.09.06-.13.33-.83.61-1.66.85-2.52.26-1,.46-2.01.58-2.91,0-.05.01-.1.02-.15Zm1.92-4.1c.09,1.47.04,2.94-.14,4.41-.27,2.11-.82,4.18-1.58,6.04h0c-.04.1-.08.2-.12.3-.04.09-.08.18-.12.27-.05.11-.1.22-.15.32-.02.04-.04.08-.05.12,0,.02-.02.04-.03.06-.02.04-.04.08-.06.12-.04.08-.08.17-.12.25-.01.02-.02.04-.03.06-.02.04-.04.09-.07.13-.02.04-.05.09-.07.13h0c-.05.09-.1.18-.14.27,0,0,0,.02-.01.03-.02.04-.04.08-.07.13-.02.04-.05.08-.07.13-.05.1-.11.2-.17.3-.05.09-.11.18-.16.28-.05.09-.11.18-.17.27-.06.09-.11.18-.17.27-.06.09-.12.18-.17.27,0,0,0,.01-.01.02-.02.03-.04.06-.06.09-.01.02-.03.04-.04.06-.02.03-.04.06-.06.09,0,0,0,0,0,.01-.03.04-.06.09-.09.13-.03.04-.06.09-.09.13h0c-.06.09-.13.17-.19.26-.06.08-.12.16-.18.25-.07.09-.14.18-.2.27-.07.08-.13.17-.2.25-.07.08-.14.17-.21.25-.02.03-.05.06-.07.09-.02.02-.04.05-.06.07-.02.03-.05.06-.07.08h0c-.07.08-.13.15-.2.23-.08.08-.15.17-.23.25-.04.04-.07.08-.11.12s-.08.08-.11.12h0c-.15.15-.3.3-.46.45-.08.07-.16.15-.24.22-.07.07-.15.13-.22.2-.09.08-.17.15-.26.23-.08.07-.16.14-.25.2-.02.02-.04.03-.06.04-.05.04-.09.07-.14.11-.02.01-.04.03-.06.04-.02.01-.03.03-.05.04-.07.05-.14.1-.2.16-1.1.81-2.32,1.47-3.62,1.9-.05.02-.11.04-.16.05-.08.02-.15.05-.23.07-.03.01-.07.02-.1.03-.02,0-.04.01-.05.02-.05.02-.1.03-.15.04-.04.01-.08.02-.13.03-.08.02-.17.04-.25.06-.06.01-.11.03-.17.04-.03,0-.06.01-.08.02-.69.14-1.4.21-2.1.21-.14,0-.29,0-.43,0-.45-.02-.91-.07-1.35-.15-.16-.03-.32-.06-.48-.1-.11-.03-.22-.05-.33-.08-.02,0-.03,0-.05-.01-.04-.01-.09-.02-.13-.03-.23-.06-.47-.14-.69-.23-1.03-.38-1.98-.91-2.85-1.57-.03-.02-.05-.04-.08-.06-.03-.02-.05-.04-.08-.06,0,0-.02-.01-.02-.02h0c-.06-.05-.12-.09-.17-.14-.05-.04-.1-.09-.15-.13-.01-.01-.03-.02-.04-.03-.05-.04-.1-.08-.15-.13h0c-.05-.05-.11-.09-.16-.14-.11-.1-.22-.21-.33-.31h0c-.07-.07-.14-.14-.2-.21-.02-.02-.05-.05-.07-.07-.06-.07-.13-.13-.19-.2-.06-.07-.12-.13-.18-.2-.04-.04-.08-.09-.12-.14-.05-.06-.1-.12-.15-.17-.05-.06-.09-.11-.14-.17-.05-.06-.09-.11-.14-.17l-.14-.18c-.04-.06-.08-.11-.12-.17-.05-.07-.1-.14-.15-.22-.05-.07-.1-.14-.14-.21-.04-.06-.08-.13-.12-.19-.06-.09-.12-.18-.17-.28-.02-.02-.03-.05-.05-.07-.03-.04-.05-.08-.08-.13-.09-.15-.18-.3-.26-.46-.03-.05-.05-.09-.07-.14-.08-.15-.15-.29-.23-.44-.06-.12-.12-.24-.17-.35-.03-.07-.06-.13-.09-.2-.03-.07-.06-.13-.09-.2-.01-.02-.02-.04-.03-.07v-.02c-.1-.21-.19-.43-.27-.64-.03-.08-.06-.16-.09-.24-.03-.09-.06-.17-.09-.26-.02-.05-.03-.09-.05-.13-.02-.07-.05-.14-.07-.2,0-.01,0-.02-.01-.03-.03-.08-.05-.16-.08-.24-.02-.08-.05-.15-.07-.23-.02-.08-.05-.16-.07-.23-.02-.06-.03-.11-.05-.17,0,0,0,0,0,0-.03-.13-.07-.26-.1-.38-.04-.15-.08-.3-.11-.46-.03-.14-.06-.29-.09-.43-.03-.16-.06-.32-.09-.48-.04-.22-.07-.43-.11-.65-.03-.18-.05-.35-.07-.53-.01-.09-.02-.18-.03-.27-.03-.25-.05-.51-.07-.76,0-.08-.01-.16-.02-.23,0-.07,0-.14-.01-.2,0-.12-.01-.24-.02-.36,0-.12,0-.25-.01-.37,0,0,0-.01,0-.02,0-.13,0-.26,0-.39,0-.24,0-.47,0-.71,0-.2.01-.4.02-.6,0-.15.02-.31.03-.46.01-.15.02-.31.04-.46.03-.31.06-.62.11-.93,0-.08.02-.16.03-.24.03-.23.07-.45.11-.68.13-.79.31-1.57.52-2.35.72-2.66,1.94-5.22,3.54-7.32.07-.09.14-.18.21-.27.12-.15.24-.3.36-.45,0,0,.01-.01.02-.02.07-.08.14-.16.2-.24.07-.08.14-.16.21-.24.07-.08.14-.16.21-.23.07-.08.14-.15.22-.23.07-.08.15-.15.22-.23.04-.04.09-.09.13-.13.02-.02.04-.04.07-.06,0,0,0,0,0,0,.07-.06.13-.13.2-.19h0c.07-.06.14-.13.2-.19h0c.07-.06.14-.12.21-.19h0s.09-.08.14-.12c.01-.01.02-.02.04-.03.04-.03.07-.06.11-.09.08-.07.17-.14.25-.21,0,0,0,0,.01-.01.11-.08.21-.16.32-.25.04-.03.07-.06.11-.08.02-.02.04-.03.07-.05.02-.01.03-.03.05-.04.02-.02.05-.03.07-.05.02-.01.03-.02.05-.04.02-.02.04-.03.06-.04h0s.06-.04.09-.06c.03-.02.07-.05.1-.07h0c.06-.04.13-.08.19-.13.07-.05.14-.09.21-.13.06-.04.12-.08.18-.11.07-.04.13-.08.2-.12h0c.07-.04.13-.08.2-.11h0c.07-.04.13-.07.2-.11.14-.07.27-.14.41-.21.81-.4,1.67-.71,2.55-.91.04-.02.08-.03.12-.04,1.42-.32,2.92-.34,4.35-.05,0,0,0,0,0,0,0,0,0,0,.01,0,.02,0,.03,0,.05.01.33.07.65.16.98.26.04.01.07.02.11.04.86.29,1.68.69,2.45,1.19.08.05.16.11.25.16.16.11.32.23.48.35.31.24.61.5.9.77t0,0h0c.07.07.14.14.21.21.04.04.07.07.11.11.04.04.07.07.1.11.14.14.27.29.4.44s.26.3.38.45.24.31.36.47c.06.08.12.16.17.24,1.94,2.74,2.9,6.11,3.11,9.43Z"/>
        <path class="cls-2" d="m66.12,82.19c.4-1.55,2.83-1.04,1.22,2.13-3.97,8.7-11.26,12.69-6.77,23.52-3.27-4.85-3.22-11.2.09-16.03.03-.05.06-.1.09-.15.05-.08.1-.16.15-.24l.04-.05c.06-.1.13-.19.19-.29.18-.27.37-.55.56-.82.07.06.15.1.24.12.27.07.59-.06.72-.31.32-.61.59-1.25.87-1.89.22-.52.44-1.04.66-1.56h0c.03-.05.06-.1.09-.15.03-.05.06-.1.09-.15.2-.33.39-.67.57-1.02.05-.09.09-.18.14-.27.04-.07.07-.14.1-.21,0,0,0-.02.01-.03.02-.04.04-.09.06-.13.06-.13.12-.26.18-.38.02-.04.03-.08.05-.11.15-.36.29-.72.41-1.1.03-.08.05-.16.08-.25.01-.04.02-.07.03-.11,0,0,0-.01,0-.02.02-.07.04-.14.06-.21.03-.1.05-.2.08-.3Z"/>
        <path class="cls-2" d="m149.23,31.93s.03.05.04.07h0s-.06-.04-.09-.07c-.01,0-.02-.02-.04-.03-.08-.07-.15-.16-.21-.27-.16-.31-.31-.64-.47-.95,0,0,0-.01,0-.01.14.22.27.44.41.66,0,0,0,0,0,0l.09.15c.09.15.18.29.27.44Z"/>
        <path class="cls-2" d="m161.23,203.51h0s0,0,0,0c0,0-.01-.02-.02-.02,0,0,0,0-.01-.01-.08-.08-.15-.17-.23-.25-.07-.07-.13-.15-.19-.22-.01-.02-.03-.03-.04-.05-.07-.08-.14-.17-.21-.25-.07-.09-.14-.18-.22-.27-.07-.09-.14-.18-.21-.27-.07-.09-.14-.19-.21-.28l-.11-.14s-.07-.1-.11-.14c-.06-.09-.13-.18-.19-.27-.05-.07-.1-.15-.15-.22-.09-.13-.18-.26-.26-.38-.05-.08-.11-.16-.16-.23-.07-.1-.13-.2-.2-.31-.06-.1-.13-.19-.19-.29-.1-.16-.2-.32-.3-.47l-.19-.3s-.04-.07-.06-.1c-.06-.1-.12-.2-.18-.29-.61-.98-1.21-1.96-1.85-2.9-6.43-9.54-10.88-20.13-13.91-31.2-.04-.11-.08-.22-.12-.33.04.11.08.22.12.33,3.02,11.07,7.47,21.66,13.91,31.2.63.93,1.24,1.92,1.85,2.9.06.1.12.2.18.29.02.03.04.07.06.1l.19.3c.1.16.2.32.3.47.06.1.13.19.19.29.07.1.13.2.2.31.05.08.11.16.16.23.09.13.17.26.26.38.05.07.1.15.15.22.06.09.13.18.19.27.07.1.14.19.21.29.07.09.14.19.21.28.07.09.14.18.21.27.07.09.14.18.22.27.07.08.14.17.21.25.01.02.03.03.04.05.06.07.13.15.19.22.07.08.15.17.23.25,0,0,0,.01.01.01,0,0,.01.02.02.02Z"/>
        <path class="cls-2" d="m162.57,90.48c0,.17-.01.33-.02.5-.78,10.95-3.35,21.7-4.25,32.64-.85,10.52.04,21.2,2.39,31.48.25,1.17.53,2.34.85,3.51.12.44.24.88.37,1.32-.06-.22-.13-.44-.19-.66-.06-.22-.12-.44-.18-.66-.16-.59-.31-1.17-.45-1.76-.14-.58-.27-1.17-.4-1.75-2.35-10.29-3.24-20.96-2.39-31.48.9-10.94,3.47-21.69,4.25-32.64,0-.17.02-.33.02-.5Z"/>
        <path class="cls-1" d="m186.51,201.04h0s0,0,0,0c0,0,0,0,0,0Z"/>
        <path class="cls-1" d="m136.3,199.19s0,0,0,0c0,0,0,0,0,0Z"/>
        <path class="cls-3" d="m91.66,70.43c.49-1.69.72-3.53.4-5.27-.23-1.15-.74-2.35-1.85-2.89-.02-.01-.04-.02-.06-.03-.6-.25-1.27-.24-1.87-.02-.69.25-1.27.72-1.76,1.26-.66.72-1.17,1.56-1.58,2.44-.72,1.54-1.14,3.24-1.24,4.94-.05.78,0,1.57.15,2.33.16.81.47,1.64,1.06,2.24.4.41.94.71,1.52.76.08,0,.16.01.25.01.51,0,1.01-.14,1.45-.39.78-.44,1.39-1.11,1.91-1.83.75-1.08,1.29-2.3,1.65-3.55Zm8.11-1.1c0,.97-.05,1.94-.16,2.9,0,.05-.01.1-.02.15-.12.9-.32,1.91-.58,2.91-.24.86-.52,1.7-.85,2.52-.02.04-.04.09-.06.13-.33.79-.71,1.55-1.13,2.3-.4.68-.83,1.34-1.3,1.96-.42.55-.87,1.07-1.35,1.56-.38.38-.87.83-1.38,1.23h0s-.01.01-.02.02c-.38.29-.8.58-1.23.85h0s-.04.02-.05.03c-.38.22-.83.45-1.28.66-.42.18-.84.33-1.28.46-.39.11-.78.19-1.18.25-.38.05-.77.08-1.15.09-.36,0-.73-.02-1.09-.06-.37-.05-.75-.12-1.11-.21h-.02c-.35-.1-.69-.22-1.03-.36-.34-.14-.67-.3-.99-.48-.35-.21-.7-.43-1.03-.68l-.08-.06c-.28-.22-.61-.5-.92-.81-.34-.34-.65-.69-.95-1.06-.34-.43-.64-.88-.92-1.35-.31-.53-.59-1.08-.84-1.65-.28-.66-.52-1.33-.72-2.02-.22-.79-.4-1.6-.52-2.41v-.02c-.13-.9-.2-1.81-.21-2.72,0-.97.05-1.94.17-2.9.13-.97.32-1.98.58-2.97.24-.88.53-1.74.87-2.58.34-.81.71-1.6,1.15-2.36.4-.69.83-1.35,1.31-1.98.43-.56.9-1.11,1.41-1.63.35-.35.8-.76,1.28-1.14.44-.34.89-.65,1.36-.94.41-.24.83-.46,1.26-.65.41-.17.83-.33,1.25-.45.4-.11.81-.2,1.23-.26.36-.05.73-.08,1.1-.09.29,0,.57,0,.86.03.01,0,.02,0,.04,0,.01,0,.02,0,.03,0,.02,0,.03,0,.05,0,0,0,.02,0,.02,0,.01,0,.03,0,.04,0,.02,0,.03,0,.05,0,0,0,0,0,0,0,.02,0,.05,0,.07,0,.19.03.39.06.58.1.19.04.37.08.56.13h.05c.06.03.11.05.17.06.28.08.55.18.82.29.35.15.68.32,1.01.5.34.2.66.41.98.65.35.27.68.55.99.86.35.35.67.71.98,1.1.32.42.62.86.9,1.31.31.54.6,1.09.85,1.65.28.65.52,1.32.72,2.01.21.76.38,1.54.5,2.32.13.92.21,1.86.23,2.79Z"/>
        <path class="cls-1" d="m66.12,82.19c.4-1.55,2.83-1.04,1.22,2.13-3.97,8.7-11.26,12.69-6.77,23.52-3.27-4.85-3.22-11.2.09-16.03.03-.05.06-.1.09-.15.05-.08.1-.16.15-.24l.04-.05c.06-.1.13-.19.19-.29.18-.27.37-.55.56-.82.84-1.2,1.71-2.4,2.48-3.64h0c.03-.05.06-.1.09-.15.03-.05.06-.1.09-.15.2-.33.39-.67.57-1.02.05-.09.09-.18.14-.27.04-.07.07-.14.1-.21,0,0,0-.02.01-.03.02-.04.04-.09.06-.13.06-.13.12-.26.18-.38.02-.04.03-.08.05-.11.15-.36.29-.72.41-1.1.03-.08.05-.16.08-.25.01-.04.02-.07.03-.11,0,0,0-.01,0-.02.02-.07.04-.14.06-.21.03-.1.05-.2.08-.3Z"/>
        <path class="cls-3" d="m54.5,69.37c.49-1.69.72-3.53.4-5.27-.23-1.15-.74-2.35-1.85-2.89-.02-.01-.04-.02-.06-.03-.6-.25-1.27-.24-1.87-.02-.69.25-1.27.72-1.76,1.26-.66.72-1.17,1.56-1.58,2.44-.72,1.54-1.14,3.24-1.24,4.94-.05.78,0,1.57.15,2.33.16.81.47,1.64,1.06,2.24.4.41.94.71,1.52.76.08,0,.16.01.25.01.51,0,1.01-.14,1.45-.39.78-.44,1.39-1.11,1.91-1.83.75-1.08,1.29-2.3,1.65-3.55Zm8.11-1.1c0,.97-.05,1.94-.16,2.9,0,.05-.01.1-.02.15-.12.9-.32,1.91-.58,2.91-.24.86-.52,1.7-.85,2.52-.02.04-.04.09-.06.13-.33.79-.71,1.55-1.13,2.3-.4.68-.83,1.34-1.3,1.96-.42.55-.87,1.07-1.35,1.56-.38.38-.87.83-1.38,1.23h0s-.01.01-.02.02c-.38.29-.8.58-1.23.85h0s-.04.02-.05.03c-.38.22-.83.45-1.28.66-.42.18-.84.33-1.28.46-.39.11-.78.19-1.18.25-.38.05-.77.08-1.15.09-.36,0-.73-.02-1.09-.06-.37-.05-.75-.12-1.11-.21h-.02c-.35-.1-.69-.22-1.03-.36-.34-.14-.67-.3-.99-.48-.35-.21-.7-.43-1.03-.68l-.08-.06c-.28-.22-.61-.5-.92-.81-.34-.34-.65-.69-.95-1.06-.34-.43-.64-.88-.92-1.35-.31-.53-.59-1.08-.84-1.65-.28-.66-.52-1.33-.72-2.02-.22-.79-.4-1.6-.52-2.41v-.02c-.13-.9-.2-1.81-.21-2.72,0-.97.05-1.94.17-2.9.11-.79.25-1.61.45-2.42,0,0,0,0,0,0,.04-.18.09-.37.14-.55.24-.88.53-1.74.87-2.58.34-.81.71-1.6,1.15-2.36.35-.61.73-1.2,1.15-1.77,0,0,0,0,0,0,.05-.07.11-.15.16-.22.43-.56.9-1.11,1.41-1.63.35-.35.8-.76,1.28-1.14.44-.34.89-.65,1.36-.94.41-.24.83-.46,1.26-.65.41-.17.83-.33,1.25-.45.4-.11.81-.2,1.23-.26.36-.05.73-.08,1.1-.09h.04c.27,0,.55.01.82.03.01,0,.02,0,.04,0,.01,0,.02,0,.03,0,.02,0,.03,0,.05,0,0,0,.02,0,.02,0,.01,0,.03,0,.04,0,.02,0,.03,0,.05,0,0,0,0,0,0,0,.02,0,.05,0,.07,0,.19.03.39.06.58.1.19.04.37.08.56.13h.05c.06.03.11.05.17.06.28.08.55.18.82.29.35.15.68.32,1.01.5.34.2.66.41.98.65.35.27.68.55.99.86.35.35.67.71.98,1.1.32.42.62.86.9,1.31.31.54.6,1.09.85,1.65.28.65.52,1.32.72,2.01.21.76.38,1.54.5,2.32.13.92.21,1.86.23,2.79Z"/>
        <path class="cls-1" d="m186.83,200.67c.55,1,.11,1.92-.67,2.57-.28.23-.59.43-.92.58-.69.41-1.41.76-2.15,1.06,0,0,0,0,0,0-.09.06-.19.1-.3.12-.48.19-.97.36-1.47.52-.04-.01-.08-.02-.12-.03-3.7,1.17-7.72,1.35-11.59,1.32-2.24-.03-4.47-.28-6.66-.74-4.73-.33-9.26-1.75-13.72-3.29-2.98-.95-6.46-1.9-9.61-2.84-3.55-.96-7.14-1.89-10.82-1.94-1.3,0-2.59-.18-3.87-.38-1.3-.19-2.59-.39-3.9-.38-4.64.04-9.29.72-13.8,1.73-1.88.31-3.62,1.14-5.42,1.68-4.17,1.71-8.13,3.89-12.25,5.72-3.45,1.74-7.25,3-11.1,3-1.18,0-2.36-.12-3.54-.38-5.84-1.09-10.21-5.65-15.84-7.39-9.85-3-21.89-1.47-30.96-6.32-.07-.09-.15-.18-.23-.27-1.12-.68-2.19-1.46-3.13-2.29-.95-.85-1.82-1.78-2.65-2.74-.8-.92-1.44-1.99-2.38-2.79-1.68-1.42-3.59-2.54-5.66-3.27-1.04-.39-2.12-.65-3.16-1.02-.94-.4-1.84-.9-2.78-1.29-1.14-.43-2.15-1.09-3.06-1.86-.13-.07-.26-.15-.4-.22,0-.04,0-.07,0-.11-.02-.03-.04-.06-.06-.09-.05-.07-.09-.14-.12-.21-.86-1.68-.43-3.8,1.11-5.93,1.75-3.11,3.76-6.07,5.58-9.15,3.47-5.97,6.23-12.36,8.85-18.74,5.88-14.4,7.72-29.93,8.37-45.35.9-14.42.22-29.13,3.62-43.26.01-.53.24-1.18.42-1.76.07-.32.14-.64.21-.96,0-.02,0-.03,0-.05.78-4.1,2.13-7.95,3.62-11.79.17-.44.34-.87.51-1.31h0c.59-.03,1.19-.06,1.79-.1h0s-.04.1-.06.15c-.13.34-.25.68-.38,1.01-.13.34-.26.68-.38,1.03-.04.14-.09.28-.13.41-.03.09-.07.18-.1.27s-.07.18-.1.27c-.02.05-.03.09-.05.14-.03.09-.06.18-.09.27-.01.05-.03.09-.04.14-.02.08-.05.17-.07.25,0,.02,0,.03-.01.05,0,0,0,0,0,.01,0,.03-.01.05-.02.08-.01.04-.02.09-.03.13h0c-.04.09-.07.17-.11.26,0,.01,0,.03-.01.04-.18.51-.36,1.03-.53,1.54,0,.02-.01.04-.02.06-.08.23-.15.45-.22.68-.07.21-.13.41-.2.62-.04.13-.08.26-.12.38-.07.22-.13.43-.2.65,0,0,0,.01,0,.02-.07.23-.14.46-.21.7-.02.07-.04.14-.06.22-.06.23-.13.45-.19.68,0,0,0,0,0,0-.07.27-.15.53-.22.8-.26,1.03-.47,2.08-.69,3.09-.06.27-.12.55-.18.81,0,0,0,0,0,0-.03.14-.07.28-.1.41.01.06.03.11.05.16h0c-.03.09-.05.17-.08.26-.03.1-.06.21-.09.31-.13.46-.25.91-.36,1.37-.03.11-.05.21-.08.32-.02.09-.04.18-.06.27,0,.03-.02.07-.02.1-.02.09-.04.18-.06.27-.02.11-.05.21-.07.32-.02.11-.05.21-.07.32-.05.23-.09.45-.14.68-.02.17-.05.33-.07.5-.05.35-.1.7-.15,1.06-.01.07-.02.15-.03.22-.02.1-.03.2-.05.3-.05.24-.09.54-.14.83,0,.04-.01.07-.02.11,0,.04-.02.07-.02.11,0,0,0,0,0,0,0,.04-.02.07-.03.11,0,.03-.02.06-.03.09-.01.04-.03.08-.04.12-.01.03-.03.06-.04.09-.01.03-.03.06-.04.09-.02.03-.03.06-.05.09-.01.1-.03.19-.04.29-.02.1-.03.19-.04.29-.03.19-.05.38-.08.58-1.33,11.02-1.36,22.16-1.92,33.24-.58,16.96-2.7,34.06-9.43,49.78-2.79,6.31-5.49,12.71-9.17,18.56-1.83,2.91-3.75,5.86-5.36,8.88-.02.04-.04.08-.06.12-.02.04-.04.08-.05.12-.05.11-.1.22-.14.33-.03.09-.06.18-.09.27,0,.03-.02.06-.02.09,0,0,0,.01,0,.02,0,.03-.02.06-.02.09-.02.09-.04.19-.05.27,0,.03,0,.06-.01.09,0,.02,0,.05,0,.07-.03.43.04.8.2,1.14h0c.83.72,1.72,1.34,2.75,1.71.51.21,1,.45,1.5.69t0,0s.05.01.08.02c1.59.41,3.23.69,4.24,1.08,1.04.35,2,.86,2.91,1.45.27-.74,1.37-1.43,1.66-2.14,1.41-1.96,2.87-3.9,4.17-5.93,3.47-5.95,6.5-12.12,9.87-18.1-2.74,7.76-5.64,15.76-10.64,22.41-.84.81-2.33,3.91-3.69,4.73.01.01.03.02.04.03.38.28.75.56,1.12.84.03.02.05.04.08.07.07.07.12.14.17.23,0,.02.02.03.02.05,0,0,0,0,0,.01,0,0,0,0,0,0,.18.14.35.29.53.44.98.82,1.72,1.93,2.5,2.9,1.19,1.34,2.4,2.68,3.86,3.72.75.52,1.49,1.03,2.27,1.48.78-.92,1.69-1.72,2.5-2.61.01-.02.03-.04.04-.06,0,0,.01-.02.02-.02,0-.01.01-.02.02-.03.07-.1.13-.21.2-.31.07-.11.15-.22.22-.33,0,0,0,0,0,0,0,0,0,0,0,0,.03-.05.07-.1.1-.15.04-.05.07-.11.11-.16.04-.05.07-.11.11-.16.04-.05.07-.1.11-.16.03-.04.06-.08.09-.13.08-.11.17-.22.25-.34,0,0,.01-.02.02-.03.02-.02.03-.05.05-.07.01-.02.03-.04.05-.06.04-.05.08-.1.12-.15.02-.03.04-.05.06-.08s.04-.05.06-.08c.09-.12.19-.24.29-.36.02-.03.05-.06.07-.09.04-.05.09-.11.13-.16.06-.07.12-.15.18-.22.06-.07.12-.15.18-.22.08-.1.17-.2.25-.3.12-.15.25-.3.38-.45.13-.15.25-.3.38-.45.13-.15.25-.3.38-.45.06-.08.13-.15.19-.23.06-.07.12-.15.18-.22.01-.02.03-.03.04-.05.23-.27.45-.55.67-.82.07-.09.15-.18.22-.28.07-.09.14-.18.21-.27.07-.09.13-.17.2-.26,0,0,.01-.02.02-.03.07-.09.14-.19.21-.28.07-.09.14-.19.2-.28,0-.01.02-.03.03-.04.13-.18.25-.36.37-.54.06-.1.13-.19.19-.29h0s0,0,0,0c.06-.1.13-.19.19-.29,2.77-3.83,5.23-7.9,7.72-11.91.13-.2.27-.4.4-.61.09-.13.17-.27.26-.4.08-.13.16-.25.24-.38.06-.09.12-.18.17-.28.02-.03.04-.07.06-.1.08-.12.15-.24.23-.36.09-.14.18-.29.27-.43.1-.16.2-.33.29-.49.1-.17.21-.34.31-.52.1-.17.2-.34.3-.51,0,0,0,0,0-.01.29-.5.57-1,.85-1.5h0c4.13-7.55,6.93-15.75,8.08-24.31.06-.32.11-.65.17-.97.06-.32.12-.65.17-.97.34-1.89.7-3.79,1.07-5.67h0c.05-.28.11-.55.16-.83.07-.36.14-.71.22-1.06,0-.04.02-.09.03-.13.04-.2.08-.39.12-.59,0-.03.01-.07.02-.1.04-.2.08-.39.12-.59h0c0,.16,0,.31,0,.47,0,.45-.01.89-.02,1.33h0c0,.15,0,.3,0,.44h0c-.01.44-.02.88-.04,1.31-.01.29-.02.57-.03.86s-.02.57-.04.85c-.02.42-.04.84-.07,1.25,0,.14-.02.28-.03.41-.02.27-.04.55-.06.82-.01.14-.02.27-.03.41-.04.51-.08,1.01-.13,1.5-.02.17-.03.33-.05.49-.03.26-.05.52-.08.78-.01.13-.03.26-.04.39-.03.26-.06.51-.09.77-.02.13-.03.26-.05.38-.1.76-.21,1.52-.33,2.26-.04.25-.08.49-.13.74-.11.61-.22,1.22-.34,1.82-.02.12-.05.24-.07.36-.02.1-.04.21-.07.31-.11.49-.22.98-.33,1.47-.03.11-.05.23-.08.34,0,.01,0,.02,0,.03-.02.09-.04.18-.07.27,0,.02,0,.04-.01.06-.03.11-.06.22-.08.33,0,0,0,.01,0,.02-.03.12-.06.23-.09.35-.04.14-.07.27-.11.41-.02.07-.04.13-.05.2-.02.06-.03.12-.05.18-.02.08-.05.17-.07.25-.03.12-.06.23-.1.34-.03.1-.06.2-.09.3,0,.03-.02.06-.03.09-.03.1-.06.2-.09.3-.03.11-.07.23-.1.34-.03.1-.06.2-.09.31-.01.03-.02.07-.03.1-.03.09-.06.18-.09.27,0,0,0,.01,0,.02-.03.11-.07.21-.1.32-.02.08-.05.15-.07.23-.04.12-.08.24-.12.36,0,0,0,0,0,0-.03.09-.06.17-.09.26-.17.51-.35,1.01-.54,1.52-.04.11-.08.22-.13.34-.04.11-.08.22-.13.34-.17.45-.35.89-.53,1.34-.05.11-.09.22-.14.33-.05.11-.09.22-.14.33-.09.22-.18.43-.28.65-.15.34-.3.68-.45,1.02-.05.11-.1.22-.15.33-.03.07-.06.14-.1.21-.02.05-.05.1-.07.16-.06.13-.12.26-.18.39-.25.53-.5,1.05-.77,1.58-.06.11-.11.22-.17.34-.28.56-.57,1.12-.88,1.68,0,0,0,.02-.01.02-.03.05-.06.11-.08.16-.07.13-.14.26-.22.4-.04.07-.07.13-.11.2l-.13.24c-.13.24-.26.48-.4.72-.02.03-.03.06-.05.08-.01.02-.02.04-.04.07-.09.16-.18.31-.27.47,0,.01-.02.03-.02.04-.03.06-.07.12-.1.17-.03.05-.06.1-.09.15-.07.12-.13.23-.2.34-.2.34-.4.69-.61,1.04-.04.06-.08.13-.11.19-.06.1-.12.2-.18.31-.18.3-.36.6-.55.9-.03.05-.07.11-.1.16-.16.26-.33.53-.49.79-.02.04-.05.07-.07.11,0,.01-.01.02-.02.03-.04.07-.09.14-.13.21-.26.41-.52.82-.78,1.23-.12.19-.24.38-.37.57-.01.02-.03.04-.04.07-.16.25-.33.5-.49.75l-.14.22c-.04.05-.07.11-.11.16-.06.09-.12.18-.18.27-.02.04-.05.07-.07.11-.07.11-.15.22-.22.33-.1.15-.19.29-.29.44-2.94,4.76-6.21,9.36-9.76,13.64-.02.02-.03.03-.05.05,0,0-.02.02-.03.03,0,0-.02.02-.03.03-.27.28-.61.77-.97,1.29-.02.03-.05.07-.07.1-.01.02-.02.03-.03.05-.02.03-.04.06-.06.09h0s0,0,0,0c-.02.07-.05.14-.1.21-.78,1.11-1.86,1.98-2.76,2.98,5.02,2.06,10.71,2.55,16.07,3.07,6.54.21,11.04,1.48,14.59,3.04.12.06.25.11.37.17,4.22,1.91,7.1,4.21,10.57,5.5.01-.01.02-.02.03-.03.02-.02.04-.03.05-.05.02-.02.05-.04.07-.05.02-.02.05-.03.07-.05.47-.45.93-.9,1.39-1.36.14-.14.28-.28.42-.43.09-.09.18-.18.27-.28.05-.05.1-.11.15-.16.09-.1.18-.19.28-.29.09-.1.18-.19.27-.29.06-.07.13-.14.19-.2.06-.07.12-.14.18-.21,0,0,.01-.01.02-.02.04-.04.07-.08.11-.12.1-.12.2-.23.31-.35.12-.14.23-.27.35-.41.11-.14.23-.27.34-.41,6.41-8.82,11.2-18.86,13.53-29.52.14-.68.28-1.35.4-2.03.04-.23.08-.45.12-.68.03-.16.05-.31.08-.47.02-.13.04-.26.07-.38.01-.07.02-.15.04-.22.03-.16.05-.31.08-.47.04-.23.07-.46.11-.69.02-.13.04-.26.06-.39.01-.09.03-.18.04-.27.03-.17.05-.34.07-.51.36-2.5.65-5.02.95-7.53.05-.46.11-.91.16-1.37.03-.29.07-.57.1-.86l.11-.86c.07-.57.15-1.14.22-1.71.04-.28.08-.57.12-.85.02-.18.05-.35.08-.53.03-.19.05-.38.08-.57.07-.49.15-.98.22-1.46.05-.39.11-.78.16-1.17h0c.08-.59.16-1.17.24-1.76h0c.03-.26.07-.52.1-.77.01-.1.02-.2.04-.3.03-.23.05-.46.08-.7h0c.12,1.91.11,3.88.09,5.81-.05,12.59-1.78,25.39-7.35,36.81-.21.42-.41.84-.62,1.27-.05.11-.11.21-.16.32-.9,1.81-1.83,3.61-2.82,5.38-.06.11-.12.22-.18.33-.25.43-.49.86-.75,1.29-.06.11-.13.21-.19.32-.1.17-.2.34-.31.51l-.16.26c-.74,1.2-1.53,2.38-2.36,3.52-.07.1-.14.19-.21.28-.06.09-.13.18-.2.26-.18.24-.35.47-.54.7-.08.1-.15.19-.23.29-.08.1-.16.21-.25.31-.07.09-.15.18-.22.27-.08.1-.16.19-.24.29-.08.09-.16.19-.24.28-.48.57-.98,1.12-1.5,1.66-.08.08-.16.17-.24.25-.08.08-.16.17-.25.25-.25.25-.5.5-.76.74,1.12.26,2.33.41,3.67.41,1.13,0,2.35-.11,3.71-.34,6.44-1.77,12.17-5.42,18.3-7.99.99-.4,2-.76,3.02-1.09,0,0,0,0,0,0,.02,0,.03-.01.05-.02.08-.02.16-.05.23-.07,0,0,.02,0,.02,0,.01,0,.02,0,.03-.01,2.22-.69,4.5-1.21,6.82-1.59,0,0,.01,0,.02,0,.02,0,.03,0,.05,0,2.75-.47,5.53-.76,8.31-.91,1.58-.14,3.15-.02,4.71.16,1.85.06,3.68.2,5.48.38.88.11,1.76.24,2.64.39h0s0,0,0,0h0c.14.02.28.04.42.05.14.02.28.04.41.06.18.03.35.05.53.08.09.01.18.03.27.04.09.02.19.03.28.05.11.02.21.04.31.06.36.07.73.14,1.09.21.08.02.17.04.25.05.6.13,1.2.27,1.8.42.27.07.54.14.82.21.14.04.27.07.41.11,3.75,1.01,7.47,2.12,11.17,3.25,3.2,1.09,6.42,2.11,9.72,2.81.76.13,1.53.2,2.3.26-.09-.1-.17-.19-.26-.28,0,0,0,0,0,0,0,0,0,0,0,0-.01-.01-.03-.02-.04-.04-.02-.02-.04-.04-.06-.06,0,0,0-.01-.01-.02-.01-.01-.02-.02-.03-.04-.04-.05-.07-.11-.09-.16h0s0,0,0,0c0,0-.01-.02-.02-.02,0,0,0,0-.01-.01-.08-.08-.15-.17-.23-.25-.07-.07-.13-.15-.19-.22-.01-.02-.03-.03-.04-.05-.07-.08-.14-.17-.21-.25-.07-.09-.14-.18-.22-.27-.07-.09-.14-.18-.21-.27-.07-.09-.14-.19-.21-.28l-.11-.14s-.07-.1-.11-.14c-.06-.09-.13-.18-.19-.27-.05-.07-.1-.15-.15-.22-.09-.13-.18-.26-.26-.38-.05-.08-.11-.16-.16-.23-.07-.1-.13-.2-.2-.31-.06-.1-.13-.19-.19-.29-.1-.16-.2-.32-.3-.47l-.19-.3s-.04-.07-.06-.1c-.06-.1-.12-.2-.18-.29-.61-.98-1.21-1.96-1.85-2.9-6.43-9.54-10.88-20.13-13.91-31.2-.04-.11-.08-.22-.12-.33-.34-.92-.66-1.85-.96-2.79-.11-.35-.23-.69-.34-1.04-.09-.28-.17-.56-.26-.84-.04-.14-.08-.28-.13-.42-.08-.28-.17-.56-.25-.84-.04-.14-.08-.28-.12-.42-.1-.35-.2-.7-.3-1.05-.1-.35-.19-.7-.28-1.05-.07-.28-.15-.56-.22-.85s-.14-.56-.21-.85c-.03-.14-.07-.28-.1-.42-.14-.57-.27-1.13-.4-1.7-.03-.14-.06-.28-.1-.43-.07-.32-.14-.64-.21-.96-.07-.32-.14-.64-.2-.96-.07-.32-.13-.64-.19-.96-.06-.32-.13-.64-.19-.96-.05-.29-.11-.57-.16-.86-.05-.29-.1-.57-.15-.86-.05-.29-.1-.57-.15-.86-.1-.57-.19-1.15-.28-1.72-.06-.36-.11-.72-.16-1.08s-.11-.72-.16-1.08l-.08-.54c-.1-.72-.19-1.44-.28-2.16-.04-.36-.09-.72-.13-1.08-.11-.9-.2-1.81-.3-2.71-.03-.25-.05-.51-.08-.76-.07-.76-.14-1.52-.21-2.28-.02-.25-.04-.51-.06-.76-.04-.51-.08-1.02-.12-1.53-.02-.25-.04-.51-.06-.76-.01-.18-.03-.36-.04-.54-.01-.18-.03-.36-.04-.54-.05-.73-.09-1.46-.14-2.19-.02-.36-.04-.73-.06-1.09-.02-.29-.03-.58-.05-.87-.24-4.66-.36-9.33-.45-13.98,0-.26,0-.52,0-.77,0-.22,0-.44,0-.66,0-1.04,0-1.98.02-2.85,0-.1,0-.19,0-.28,0-.08,0-.16,0-.24,0-.04,0-.07,0-.11,0-.08,0-.16,0-.23,0-.08,0-.15,0-.23,0,0,0,0,0,0,0-.17,0-.35,0-.51,0-.12,0-.25,0-.36,0-.15,0-.3,0-.45,0-.12,0-.24,0-.36,0,0,0,0,0,0,0-.14,0-.28,0-.42,0,0,0,0,0,0,0-.39.01-.75.02-1.08,0-.07,0-.14,0-.21,0-.18.01-.35.02-.51,0-.05,0-.11,0-.16,0-.09,0-.18.01-.27,0,0,0,0,0,0,0-.13.01-.26.02-.37,0,0,0,0,0,0,0-.03,0-.07,0-.1,0-.04,0-.08,0-.13,0-.14.02-.27.02-.39,0-.03,0-.06,0-.08,0,0,0,0,0,0,0-.05,0-.1.01-.15,0-.03,0-.06,0-.09,0-.04,0-.07.01-.11,0-.02,0-.04,0-.06,0,0,0,0,0,0,0-.02,0-.03,0-.05,0-.01,0-.03,0-.04,0-.03,0-.05.02-.08t0,0s.01-.04.02-.05c0,0,0-.02,0-.02,0-.01.01-.02.02-.03,0-.01.02-.01.03,0h0s0,0,.01.01c.25.32.67,5.61,1.32,12.99.77,10.95.75,21.98,2.55,32.83,1.07,7.49,3.47,14.69,5.73,21.88,2.11,7.14,4.51,14.24,8.18,20.76,2.73,4.72,5.52,9.42,8.64,13.89.2.47.89,1.16,1.52,1.86.39.44.77.88,1,1.28h0s0,0,0,0c0,0,0,0,0,0,.14.18.29.35.44.52.05.06.1.11.15.17.03.03.06.07.1.1.03.03.05.05.08.08.01.01.02.02.03.03.03.03.06.05.09.08.03.03.07.06.11.09.47.09.94.16,1.42.2,2.97.37,5.89.28,8.86.08,3.26-.2,6.48-1,9.32-2.63.07-.03.14-.07.2-.11.03-.02.06-.04.09-.06.03-.02.06-.04.09-.06s.06-.04.09-.06h0s.06-.04.09-.06h0s.06-.04.09-.06c.03-.02.06-.04.1-.05-.03-.06-.06-.12-.09-.18-.03-.06-.07-.13-.1-.19-.02-.03-.04-.07-.05-.1-.02-.03-.04-.07-.06-.1-.04-.07-.08-.14-.12-.21-.02-.03-.04-.06-.06-.1-.01-.02-.02-.04-.04-.06,0-.01-.01-.02-.02-.04-.09-.15-.18-.3-.27-.44-.03-.05-.06-.1-.09-.14-.01-.02-.02-.03-.03-.05-.01-.02-.02-.03-.03-.05-.02-.03-.04-.06-.06-.09-.04-.06-.09-.13-.13-.19,0,0,0,0-.01-.01-.03-.04-.05-.07-.08-.11,0,0,0,0,0-.01s0-.01-.01-.02c0-.01-.02-.02-.03-.04-.09-.13-.18-.25-.28-.37-.04-.05-.08-.11-.12-.16-.09-.11-.18-.22-.27-.33-.06-.07-.12-.15-.18-.22-.08-.09-.15-.18-.23-.27-.05-.05-.09-.11-.14-.16-.03-.03-.05-.06-.08-.09-.04-.04-.08-.09-.12-.13-.1-.11-.2-.22-.3-.33-.04-.05-.09-.1-.13-.14-.04-.05-.09-.09-.13-.14-.07-.08-.14-.15-.22-.23-.07-.08-.15-.15-.22-.23-.08-.08-.16-.16-.24-.24-.16-.16-.32-.32-.48-.48h0c-.16-.16-.32-.32-.49-.47h0c-.22-.21-.44-.42-.66-.63-.55-.52-1.1-1.05-1.63-1.58-.21-.21-.43-.43-.64-.65-.04-.05-.09-.09-.13-.14-.25-.26-.49-.53-.73-.8-.04-.05-.08-.09-.12-.14-.04-.05-.08-.1-.12-.14s-.08-.1-.12-.14c-.04-.05-.08-.1-.12-.15-.05-.06-.1-.12-.15-.18-.1-.12-.19-.24-.29-.37-.16-.24-.33-.47-.5-.71-.03-.05-.07-.09-.1-.14-.41-.59-.83-1.18-1.23-1.79-.03-.04-.05-.08-.08-.12-.02-.03-.04-.05-.05-.08-.03-.04-.05-.08-.08-.12-.08-.12-.16-.25-.25-.37-.07-.11-.14-.22-.22-.33-.17-.26-.33-.52-.49-.78-.07-.11-.14-.23-.2-.34-.08-.14-.16-.27-.24-.41-.05-.09-.1-.18-.15-.27-.05-.08-.09-.17-.14-.25-.15-.27-.29-.55-.42-.82,0-.01-.01-.02-.02-.03-.18-.38-.35-.76-.51-1.15-.03-.09-.07-.17-.1-.26-.08-.2-.15-.4-.21-.6-.04-.04-.08-.08-.11-.13-.01-.01-.02-.03-.03-.04t0,0s-.02-.04-.03-.06c-.02-.05-.04-.1-.06-.15-1.03-4.5-3.07-8.6-4.94-12.79-.27-.62-.53-1.25-.79-1.88-.04-.11-.09-.21-.13-.32-.05-.12-.09-.24-.14-.36-.06-.15-.12-.3-.18-.46-.21-.54-.41-1.08-.61-1.63-.05-.14-.1-.27-.15-.41,0-.01,0-.02-.01-.03-.08-.22-.15-.43-.23-.65-.07-.22-.15-.44-.22-.65-.15-.45-.29-.9-.43-1.35-.02-.08-.05-.15-.07-.23-.04-.13-.08-.26-.12-.39-.07-.22-.13-.44-.19-.66-.06-.22-.13-.44-.19-.66-.06-.22-.12-.44-.18-.66-.16-.59-.31-1.17-.45-1.76-.14-.58-.27-1.17-.4-1.75-2.35-10.29-3.24-20.96-2.39-31.48.9-10.94,3.47-21.69,4.25-32.64,0-.17.02-.33.02-.5,0-.02,0-.04,0-.06.08-1.84.09-3.68.05-5.52,0-.38-.02-.77-.04-1.15-.04-1.18-.11-2.37-.19-3.55-.06-.79-.12-1.58-.19-2.37-.03-.33-.06-.65-.09-.98-.14-1.42-.31-2.85-.5-4.26-.16-1.19-.32-2.37-.5-3.56-.06-.37-.11-.74-.17-1.11-.01-.06-.02-.13-.03-.19-.06-.41-.13-.81-.19-1.22l-.11-.65c-1.22-7.38-2.74-14.5-5.27-21.49-.1-.26-.21-.53-.32-.79-.27-.66-.54-1.32-.83-1.97-.05-.12-.1-.24-.16-.36-.03-.07-.06-.15-.1-.22-.06-.14-.12-.28-.19-.42-.2-.45-.41-.9-.62-1.35-.06-.13-.12-.26-.18-.39-.47-.98-.96-1.96-1.47-2.93-.07-.14-.14-.27-.22-.4-.08-.15-.16-.3-.24-.45-.01-.02-.02-.04-.03-.06-.15-.28-.31-.56-.47-.85-.08-.15-.17-.3-.25-.45-.08-.15-.17-.3-.26-.45-.08-.15-.17-.3-.26-.45-.16-.27-.32-.55-.48-.82,0,0,0,0,0,0h0s-.03-.05-.04-.07c-.09-.15-.18-.3-.27-.44l-.09-.15s0,0,0,0c-.14-.22-.27-.44-.41-.66,0,0,0,0,0,0s0,0,0,0c-.19-.31-.39-.62-.59-.93.03,0,.06,0,.09,0,.46,0,.92-.02,1.38-.02.22,0,.44,0,.65,0,0,0,0,.02.01.02,2.38,3.78,4.44,7.75,6.16,11.8,5.19,13.33,7.31,27.75,8.23,41.96.71,14.87-3.99,29.34-4.52,44.15-.4,11.96,1.17,24.21,4.96,35.54,1.66,4.84,4.19,9.33,5.9,14.14.13.84.68,2.06.95,3.1.2.43.21.93.4,1.36,1.59,3.4,3.54,6.68,6.09,9.45,2.23,2.43,4.85,4.52,6.86,7.14.1.14.2.28.29.41h0c.21.21.39.36.63.59.35.36.7.82.87,1.29Z"/>
        <path class="cls-1" d="m150.55,30.83c.23.44.03,1-.41,1.21-.29.14-.61.11-.87-.04,0,0,0,0,0,0h0s-.06-.04-.09-.07c-.01,0-.02-.02-.04-.03-.08-.07-.15-.16-.21-.27-.16-.31-.31-.64-.47-.95,0,0,0-.01,0-.01,0,0,0,0,0,0s0,0,0,0c-.16-.32-.33-.64-.5-.94,0,0,0,0,0,0-.04-.07-.07-.13-.11-.19-.04-.07-.07-.13-.11-.19-.02-.03-.04-.06-.06-.1,0,0,0,0,0,0-.77-1.32-1.62-2.6-2.55-3.82-1.08-1.4-2.25-2.72-3.49-3.97-1.35-1.34-2.79-2.58-4.27-3.72-.02-.01-.04-.03-.05-.04,0,0,0,0,0,0-.05-.04-.09-.07-.14-.11-1.78-1.34-3.64-2.55-5.58-3.65-2.19-1.23-4.46-2.31-6.79-3.25-.12-.05-.24-.09-.35-.14-.24-.09-.48-.19-.72-.28-.4-.15-.8-.3-1.2-.44-1.87-.66-3.76-1.23-5.57-1.7-.06-.01-.11-.03-.13-.03-.07-.02-.14-.04-.2-.05-3.01-.76-6.08-1.31-9.05-1.67-3.3-.38-6.61-.56-9.81-.53-3.39.04-6.77.3-10.09.75h-.08s-.02.01-.02.01c-3.29.47-6.56,1.14-9.77,2.01-3.05.84-6.04,1.86-8.94,3.05-.02,0-.03.01-.05.02-.02,0-.04.02-.04.02-2.7,1.13-5.34,2.42-7.88,3.88-2.31,1.33-4.53,2.8-6.55,4.35-1.92,1.48-3.76,3.06-5.48,4.77-1.51,1.52-2.93,3.13-4.23,4.83-1.14,1.51-2.18,3.08-3.12,4.72-.83,1.49-1.58,3.02-2.21,4.6-.23.58-.44,1.16-.64,1.75-.02.05-.04.11-.06.16-.02.05-.04.1-.05.15-.13.34-.25.68-.38,1.01-.13.34-.26.68-.38,1.03-.04.14-.09.28-.13.41h0c-.03.09-.07.18-.1.27s-.07.18-.1.27c-.02.05-.03.09-.05.14-.03.09-.06.18-.09.27-.01.05-.03.09-.04.14-.02.08-.05.17-.07.25,0,.02,0,.03-.01.05,0,0,0,0,0,.01,0,.03-.01.05-.02.08-.01.04-.02.09-.03.13h0c-.02.06-.03.13-.04.19,0,.02-.01.05-.02.07h0s-.05.02-.07.03c-.11.05-.23.07-.35.07-.05,0-.11,0-.16-.02-.48-.09-.82-.57-.73-1.06.15-.71.31-1.41.5-2.1.39-1.45.87-2.87,1.44-4.27.63-1.54,1.36-3.03,2.16-4.47,0-.01.02-.03.02-.04.01-.02.03-.05.03-.05,1.79-3.15,3.97-6.05,6.44-8.69,2.71-2.9,5.75-5.47,9-7.73,3.61-2.51,7.48-4.63,11.5-6.39,4.04-1.76,8.22-3.16,12.5-4.2,4.08-1,8.24-1.67,12.43-2.02,4.21-.35,8.45-.38,12.66-.06,4.24.33,8.45.99,12.55,2.02.07.02.15.04.19.05,2.79.71,5.53,1.6,8.19,2.66,4.01,1.6,7.88,3.62,11.41,6.11.5.36,1,.72,1.46,1.07.03.02.06.05.09.07h0c3.34,2.55,6.35,5.53,8.81,8.94.86,1.18,1.64,2.42,2.35,3.7.15.28.3.56.45.83.05.09.09.18.14.27.14.28.27.57.41.85Z"/>
        <path class="cls-2" d="m64.23,71.48c.18-1.46.23-2.94.14-4.41-.21-3.32-1.17-6.69-3.11-9.43-.06-.08-.11-.16-.17-.24-.12-.16-.24-.31-.36-.47s-.25-.31-.38-.45-.26-.29-.4-.44c-.03-.04-.07-.07-.1-.11-.03-.04-.07-.07-.11-.11-.07-.07-.14-.14-.21-.21h0s0,0,0,0c-.29-.27-.58-.53-.9-.77-.16-.12-.32-.24-.48-.35-.08-.06-.16-.11-.25-.16-.77-.5-1.59-.9-2.45-1.19-.03-.02-.07-.03-.11-.04-.32-.1-.65-.19-.98-.26-.02,0-.03,0-.05-.01,0,0,0,0-.01,0,0,0,0,0,0,0-1.43-.3-2.92-.27-4.35.05-.04,0-.08.02-.12.04-.88.2-1.74.51-2.55.91-.14.07-.28.14-.41.21-.07.04-.14.07-.2.11h0c-.07.04-.13.07-.2.11h0c-.07.04-.13.08-.2.12-.06.04-.12.08-.18.11-.07.04-.14.09-.21.13-.06.04-.13.08-.19.13h0s-.07.05-.1.07c-.03.02-.06.04-.09.06h0s0,0,0,0c-.02.01-.04.03-.06.04-.02.01-.03.02-.05.04-.02.02-.05.03-.07.05-.02.01-.03.03-.05.04-.02.02-.04.03-.07.05-.04.03-.08.06-.11.08-.11.08-.21.16-.32.25,0,0,0,0-.01.01-.08.07-.17.14-.25.21-.04.03-.07.06-.11.09-.01.01-.02.02-.04.03-.05.04-.09.08-.14.12h0c-.07.06-.14.12-.21.19h0c-.07.06-.14.13-.2.19h0c-.07.06-.13.13-.2.19h0s0,0,0,0c-.02.02-.04.04-.07.06-.04.04-.09.09-.13.13h0c-.07.07-.15.15-.22.23-.07.08-.15.15-.22.23-.07.08-.14.16-.21.23-.07.08-.14.16-.21.24-.07.08-.14.16-.2.24,0,0-.01.01-.02.02-.12.15-.24.29-.36.45-.07.09-.14.18-.21.27-1.6,2.1-2.82,4.66-3.54,7.32-.21.77-.38,1.56-.52,2.35-.04.23-.07.45-.11.68-.01.08-.02.16-.03.24-.04.31-.08.62-.11.93-.01.15-.03.31-.04.46-.01.15-.02.31-.03.46-.01.2-.02.4-.02.6,0,.24-.01.47,0,.71,0,.13,0,.26,0,.39,0,0,0,.01,0,.02,0,.12,0,.25.01.37,0,.12,0,.24.02.36,0,.07,0,.13.01.2,0,.08,0,.16.02.23.02.25.04.51.07.76,0,.09.02.18.03.27.02.18.04.35.07.53.03.21.07.43.11.65.03.16.06.32.09.48.03.14.06.29.09.43.03.15.07.3.11.46.03.13.07.26.1.38,0,0,0,0,0,0t0,0c.02.06.03.11.05.17.02.08.05.16.07.23.02.08.05.15.07.23.03.08.05.16.08.24,0,.01,0,.02.01.03.02.07.04.14.07.2.02.04.03.09.05.13.03.09.06.17.09.26.03.08.06.16.09.24.08.22.17.43.26.64v.02s.03.04.04.07c.03.07.06.13.09.2.03.07.06.13.09.2.06.12.11.24.17.35.07.15.15.3.23.44.03.05.05.09.07.14.08.15.17.31.26.46.03.04.05.08.08.13.02.03.03.05.05.07.06.09.11.18.17.28.04.06.08.13.12.19.05.07.09.14.14.21.05.07.1.14.15.22.04.06.08.11.12.17l.14.18c.05.06.09.12.14.17.04.06.09.11.14.17.05.06.1.12.15.17.04.05.08.09.12.14.06.07.12.13.18.2.06.07.12.13.19.2.02.03.05.05.07.07.07.07.14.14.2.21h0c.11.11.22.21.33.31.05.05.1.1.16.14h0s.1.09.15.13c.01.01.03.02.04.03.05.04.1.09.15.13.06.05.11.09.17.14h0s.01.01.02.02c.03.02.05.04.08.06.03.02.05.04.08.06.87.66,1.82,1.19,2.85,1.57.23.08.46.16.69.23.04.01.09.02.13.03.02,0,.03.01.05.01.11.03.22.06.33.08.16.04.32.07.48.1.45.08.9.13,1.35.15.14,0,.29,0,.43,0,.7,0,1.41-.07,2.1-.21.03,0,.06-.01.08-.02.06-.01.11-.02.17-.04.08-.02.17-.04.25-.06.04-.01.08-.02.13-.03.05-.01.1-.03.15-.04.02,0,.04,0,.05-.02.03,0,.07-.02.1-.03.08-.02.15-.05.23-.07.05-.02.11-.03.16-.05,1.3-.43,2.53-1.08,3.62-1.9.07-.05.14-.1.2-.16.02-.01.04-.03.05-.04.02-.02.04-.03.06-.04.05-.04.09-.07.14-.11.02-.01.04-.03.06-.04.08-.07.17-.14.25-.2.09-.07.18-.15.26-.23.07-.07.15-.13.22-.2.08-.07.16-.14.24-.22.16-.15.31-.3.46-.45h0s.08-.08.11-.12.07-.08.11-.12c.08-.08.15-.16.23-.25.07-.07.13-.15.2-.22h0s.05-.06.07-.09c.02-.02.04-.05.06-.07.02-.03.05-.06.07-.09.07-.08.14-.16.21-.25.07-.08.13-.16.2-.25.07-.09.14-.18.2-.27.06-.08.12-.16.18-.25.06-.09.13-.17.19-.26h0s.06-.09.09-.13c.03-.04.06-.09.09-.13,0,0,0,0,0-.01.02-.03.04-.06.06-.09.01-.02.03-.04.04-.06.02-.03.04-.06.06-.09,0,0,0-.01.01-.02.06-.09.12-.18.17-.27.06-.09.11-.18.17-.27.06-.09.11-.18.17-.27.06-.09.11-.18.16-.28.06-.1.11-.2.17-.3.02-.04.05-.08.07-.13.02-.04.05-.08.07-.13,0,0,0-.02.01-.03.05-.09.1-.18.14-.27h0s.05-.09.07-.13c.02-.04.04-.09.07-.13,0-.02.02-.04.03-.06.04-.08.08-.17.12-.25.02-.04.04-.08.06-.12,0-.02.02-.04.03-.06.02-.04.04-.08.05-.12.05-.11.1-.21.15-.32.04-.09.08-.18.12-.27.04-.1.08-.2.12-.29h0c.77-1.86,1.32-3.92,1.58-6.04Zm3.11,12.83c1.61-3.17-.82-3.67-1.22-2.13-.02.1-.05.2-.08.3-.02.07-.04.14-.06.21,0,0,0,.01,0,.02-.01.04-.02.07-.03.11-.03.08-.05.17-.08.25-.12.37-.26.74-.41,1.1-.02.04-.03.08-.05.11-.06.13-.12.26-.18.38-.02.04-.04.09-.06.13,0,0,0,.02-.01.03-.03.07-.07.14-.1.21-.04.09-.09.18-.14.27-.18.34-.37.68-.57,1.02-.03.05-.06.1-.09.15-.03.05-1.82,2.88-2.57,3.79h0c-.19.27-.37.54-.56.82-.06.1-.13.19-.19.29l-.04.05c-.05.08-.1.16-.15.24-.03.05-.06.1-.09.15-3.3,4.83-3.36,11.17-.09,16.03-4.49-10.83,2.81-14.81,6.77-23.52Zm34.05-11.77c.18-1.46.23-2.94.14-4.41-.21-3.32-1.17-6.69-3.11-9.43-.9-1.28-2.03-2.44-3.36-3.3-.77-.5-1.59-.9-2.45-1.19-.03-.02-.07-.03-.11-.04-.32-.1-.65-.19-.98-.26-.02,0-.03,0-.05-.01,0,0,0,0-.01,0,0,0,0,0,0,0-1.43-.3-2.92-.27-4.35.05-.04,0-.08.02-.12.04-.88.2-1.74.51-2.55.91-.07.03-.14.07-.21.1-.06.03-.12.06-.18.1-.01,0-.03.01-.04.02-.05.03-.1.06-.16.08-.14.08-.28.16-.42.25-.04.02-.08.05-.12.07-.06.03-.11.07-.17.11-.05.03-.1.07-.15.1-.11.07-.22.15-.33.22-.06.04-.13.09-.19.13-.05.03-.09.07-.14.1-.04.03-.08.06-.11.08l-.12.09c-.16.12-.32.25-.47.38-.06.05-.13.11-.19.16-.07.06-.14.13-.22.19-.05.04-.1.09-.15.14-.04.03-.08.07-.11.11-.05.05-.1.09-.14.14-.2.19-.39.39-.58.59-.05.06-.11.11-.16.17-.05.06-.1.11-.15.17-.05.06-.1.11-.15.17-.05.06-.1.12-.15.17-.1.12-.2.23-.29.35-.05.06-.1.12-.14.18-.1.12-.19.24-.28.36-1.6,2.1-2.82,4.66-3.54,7.32-.84,3.11-1.09,6.37-.62,9.56.23,1.57.66,3.22,1.33,4.79v.02s.03.04.04.07c.03.07.06.13.09.2.03.06.05.12.08.18,0,.02.02.04.03.06.05.11.1.22.16.33,0,.02.02.03.02.04.03.06.06.12.09.18.03.07.07.13.1.2.03.06.06.11.09.17,0,.02.02.04.03.05.03.05.06.11.09.16l.13.22.08.13s.03.05.05.07c.06.09.11.18.17.28.04.06.08.13.12.19.05.07.09.14.14.21.06.08.12.17.18.25.03.04.05.07.08.11.05.07.11.14.16.21.04.06.09.11.13.17.04.06.09.11.14.17.05.06.1.12.15.17.04.05.08.09.12.14.06.07.12.13.18.2.06.07.12.13.19.2.02.03.05.05.07.07.07.07.14.14.2.21.18.18.37.36.57.53.05.04.09.08.14.12.15.13.31.25.46.38.87.66,1.82,1.19,2.85,1.57.23.08.46.16.69.23.04.01.09.02.13.03.02,0,.03.01.05.01.11.03.22.06.33.08.16.04.32.07.48.1.45.08.9.13,1.35.15.14,0,.29,0,.43,0,.7,0,1.41-.07,2.1-.21,1.79-.37,3.48-1.17,4.94-2.25,2.77-2.05,4.8-4.96,6.1-8.13.77-1.86,1.32-3.92,1.58-6.04Zm83.49,129.02c.03.06.06.12.09.18-.03.02-.07.03-.1.05-.03.02-.06.04-.09.06h0s-.06.04-.09.06h0s-.06.04-.09.06-.06.04-.09.06c-.03.02-.06.04-.09.06-.06.04-.13.08-.2.11-2.85,1.63-6.07,2.44-9.32,2.63-2.96.19-5.89.28-8.86-.08-.48-.04-.95-.12-1.42-.2-.04-.03-.07-.06-.11-.09-.03-.03-.06-.05-.09-.08-.01,0-.02-.02-.03-.03-.03-.03-.06-.05-.08-.08-.03-.03-.06-.06-.1-.1-.05-.05-.1-.11-.15-.17-.08-.08-.15-.17-.22-.26-.07-.09-.15-.18-.22-.26,0,0,0,0,0,0h0c-.23-.4-.6-.84-1-1.28-.63-.7-1.31-1.39-1.52-1.86-3.12-4.47-5.91-9.17-8.64-13.89-3.66-6.52-6.06-13.61-8.18-20.76-2.27-7.19-4.66-14.39-5.73-21.88-1.8-10.85-1.79-21.88-2.55-32.83-.65-7.39-1.07-12.68-1.32-12.99,0,0,0-.01-.01-.01h0s-.02,0-.03,0c0,0-.01.02-.02.03,0,0,0,.01,0,.02,0,.02-.01.03-.02.05t0,0s-.01.05-.02.08c0,.01,0,.03,0,.04,0,.02,0,.03,0,.05,0,0,0,0,0,0,0,.02,0,.04,0,.06,0,.03,0,.07-.01.11,0,.03,0,.06,0,.09,0,.05,0,.1-.01.15,0,0,0,0,0,0,0,.03,0,.05,0,.08,0,.12-.02.24-.02.39,0,.04,0,.08,0,.13,0,.03,0,.07,0,.1,0,0,0,0,0,0,0,.12-.01.24-.02.37,0,0,0,0,0,0,0,.09,0,.18-.01.27,0,.05,0,.11,0,.16,0,.16-.01.33-.02.51,0,.07,0,.14,0,.21,0,.33-.02.69-.02,1.08,0,0,0,0,0,0,0,.14,0,.28,0,.42,0,0,0,0,0,0,0,.12,0,.24,0,.36,0,.14,0,.29,0,.45,0,.12,0,.24,0,.36,0,.17,0,.34,0,.51,0,0,0,0,0,0,0,.08,0,.15,0,.23,0,.08,0,.15,0,.23,0,.04,0,.07,0,.11,0,.08,0,.16,0,.24,0,.09,0,.19,0,.28,0,.86-.01,1.81-.02,2.85,0,.22,0,.44,0,.66,0,.25,0,.51,0,.77.09,4.65.21,9.32.45,13.98.02.29.03.58.05.87.02.36.04.73.06,1.09.04.73.09,1.46.14,2.19.01.18.02.36.04.54.01.18.02.36.04.54.02.25.04.51.06.76.04.51.08,1.02.12,1.53.02.25.04.51.06.76.06.76.13,1.52.21,2.28.03.25.05.51.08.76.09.91.19,1.81.3,2.71.04.36.09.72.13,1.08.09.72.18,1.44.28,2.16l.08.54c.05.36.1.72.16,1.08s.11.72.16,1.08c.09.57.18,1.15.28,1.72.05.29.1.57.15.86.05.29.1.57.15.86.05.29.11.57.16.86.06.32.12.64.19.96.06.32.13.64.19.96.07.32.13.64.2.96.07.32.14.64.21.96.03.14.06.28.1.43.13.57.26,1.13.4,1.7.03.14.07.28.1.42.07.28.14.56.21.85s.15.56.22.85c.09.35.19.7.28,1.05.1.35.2.7.3,1.05.04.14.08.28.12.42.08.28.16.56.25.84.04.14.08.28.13.42.08.28.17.56.26.84.11.35.22.7.34,1.04.3.93.62,1.86.96,2.79.04.11.08.22.12.33,3.02,11.07,7.47,21.66,13.91,31.2.63.93,1.24,1.92,1.85,2.9.06.1.12.2.18.29.02.03.04.07.06.1l.19.3c.1.16.2.32.3.47.06.1.13.19.19.29.07.1.13.2.2.31.05.08.11.16.16.23.09.13.17.26.26.38.05.07.1.15.15.22.06.09.13.18.19.27.04.05.07.1.11.14l.11.14c.07.09.14.19.21.28.07.09.14.18.21.27.07.09.14.18.22.27.07.08.14.17.21.25.01.02.03.03.04.05.06.07.13.15.19.22.07.08.15.17.23.25,0,0,0,.01.01.01,0,0,.01.02.02.02,0,0,0,0,0,0h0c.02.06.05.11.09.16,0,.01.02.02.03.04,0,0,0,.01.01.02.02.02.04.04.06.06.01.01.02.03.04.04,0,0,0,0,0,0,0,0,0,0,0,0,.09.09.18.19.26.28-.77-.07-1.54-.13-2.3-.26-3.3-.7-6.53-1.71-9.72-2.81-3.7-1.13-7.42-2.24-11.17-3.25-.14-.04-.27-.07-.41-.11-.27-.07-.54-.14-.82-.21-.6-.15-1.2-.29-1.8-.42-.08-.02-.17-.04-.25-.05-.36-.08-.72-.15-1.09-.21-.1-.02-.21-.04-.31-.06-.09-.02-.19-.03-.28-.05-.09-.02-.18-.03-.27-.04-.18-.03-.35-.06-.53-.08-.14-.02-.28-.04-.41-.06-.14-.02-.28-.04-.42-.05h0s0,0,0,0h0c-.87-.15-1.75-.28-2.64-.39-1.8-.19-3.63-.32-5.48-.38-1.56-.19-3.13-.3-4.71-.16-2.78.15-5.56.44-8.31.91-.02,0-.03,0-.05,0,0,0-.02,0-.02,0-2.32.38-4.61.9-6.82,1.59-.01,0-.02,0-.03.01,0,0-.02,0-.02,0-.08.02-.16.05-.23.07-.02,0-.03.01-.05.02,0,0,0,0,0,0-1.02.33-2.03.69-3.02,1.09-6.13,2.57-11.86,6.22-18.3,7.99-1.35.23-2.58.34-3.71.34-1.34,0-2.55-.15-3.67-.41.26-.24.51-.49.76-.74h0c.08-.08.17-.17.25-.25.08-.08.16-.17.24-.25.52-.54,1.02-1.09,1.5-1.66.08-.09.16-.19.24-.28.08-.09.16-.19.24-.29.07-.09.15-.18.22-.27.08-.1.17-.21.25-.31.08-.1.15-.19.23-.29.18-.23.36-.46.54-.7.07-.09.13-.18.2-.26.07-.09.14-.19.21-.28.83-1.14,1.61-2.32,2.36-3.52l.16-.26c.1-.17.21-.34.31-.51.06-.11.13-.21.19-.32.25-.43.5-.86.75-1.29.06-.11.12-.22.18-.33.99-1.77,1.92-3.57,2.82-5.38.05-.11.11-.21.16-.32.21-.42.42-.84.62-1.27,5.57-11.42,7.3-24.22,7.35-36.81.02-1.93.03-3.9-.09-5.81,0,0,0,0,0,0h0s0,0,0,0h0c-.03.23-.05.46-.08.69-.01.1-.02.2-.04.3-.03.26-.06.51-.1.77h0c-.08.59-.16,1.18-.24,1.76h0c-.05.39-.11.78-.16,1.17-.08.49-.15.97-.22,1.46-.03.19-.06.38-.08.57-.03.18-.05.35-.08.53-.04.28-.08.57-.12.85-.08.57-.15,1.14-.22,1.71l-.11.86c-.04.28-.07.57-.1.86-.06.46-.11.91-.16,1.37-.3,2.52-.59,5.03-.95,7.53-.02.17-.05.34-.07.51-.01.09-.03.18-.04.27-.02.13-.04.26-.06.39-.04.23-.07.46-.11.69-.02.16-.05.31-.08.47-.01.07-.02.15-.04.22-.02.13-.04.26-.07.38-.03.16-.05.31-.08.47-.04.23-.08.45-.12.68-.12.68-.26,1.36-.4,2.03-2.33,10.66-7.12,20.7-13.53,29.52-.11.14-.23.28-.34.41-.12.14-.23.27-.35.41-.1.12-.2.23-.31.35-.03.04-.07.08-.11.12,0,0-.01.01-.02.02-.06.07-.12.14-.18.21-.06.07-.12.14-.19.2-.18.2-.36.39-.55.58-.05.05-.1.11-.15.16-.09.09-.18.19-.27.28-.14.14-.28.28-.42.43-.46.46-.92.91-1.39,1.36-.02.02-.05.03-.07.05-.02.02-.05.04-.07.05-.02.02-.04.03-.05.05-.01,0-.02.02-.03.03-3.47-1.3-6.35-3.59-10.57-5.5-.12-.06-.25-.11-.37-.17-3.55-1.56-8.05-2.83-14.59-3.04-5.37-.52-11.05-1.01-16.07-3.07.9-1.01,1.98-1.87,2.76-2.98.05-.07.08-.14.1-.21t0,0h0s.04-.06.06-.09c.01-.02.02-.03.03-.05.02-.03.05-.07.07-.1.36-.52.7-1.01.97-1.29,0,0,.02-.02.03-.03,0,0,.02-.02.03-.03.02-.02.04-.03.05-.05,3.56-4.27,6.83-8.88,9.76-13.64.1-.15.2-.29.29-.44.07-.11.15-.22.22-.33.02-.04.05-.07.07-.11.06-.09.12-.18.18-.27.04-.05.07-.11.11-.16l.14-.22c.17-.25.33-.5.49-.75l.02-.03s.02-.02.02-.03c.12-.19.25-.38.37-.57.27-.41.53-.82.78-1.23.04-.07.09-.14.13-.21,0-.01.01-.02.02-.03.02-.04.04-.07.07-.11.17-.27.33-.53.49-.79.03-.05.07-.11.1-.16.19-.3.37-.6.55-.9.06-.1.12-.2.18-.31.04-.06.08-.13.11-.19.21-.35.41-.69.61-1.04.07-.12.13-.23.2-.34.03-.05.06-.1.09-.15.03-.06.07-.12.1-.17,0-.01.02-.03.02-.04.09-.16.18-.32.27-.47.01-.02.03-.04.04-.07.02-.03.03-.06.05-.08.14-.24.27-.48.4-.72l.13-.24c.04-.07.07-.13.11-.2.07-.13.14-.27.22-.4.03-.05.05-.09.08-.14,0,0,0,0,0-.01,0,0,0-.02.01-.02.3-.56.59-1.12.88-1.68.06-.11.11-.22.17-.34.26-.53.52-1.05.77-1.58.06-.13.12-.26.18-.39.02-.05.05-.1.07-.16.03-.07.07-.14.1-.21.05-.11.1-.22.15-.33.15-.34.3-.68.45-1.02.09-.22.19-.43.28-.65.05-.11.09-.22.14-.33.05-.11.09-.22.14-.33.18-.45.36-.89.53-1.34.04-.11.08-.22.13-.34.04-.11.08-.22.13-.34.19-.5.37-1.01.54-1.52.03-.09.06-.17.09-.26,0,0,0,0,0,0,.04-.12.08-.24.12-.36.03-.07.05-.15.07-.23.03-.11.07-.21.1-.32,0,0,0-.01,0-.02.03-.09.06-.18.09-.27.01-.03.02-.07.03-.1.03-.1.06-.2.09-.31.04-.11.07-.23.1-.34.03-.1.06-.2.09-.3,0-.03.02-.06.03-.09.03-.1.06-.2.09-.3.03-.11.07-.23.1-.34.02-.08.05-.17.07-.25.04-.13.07-.25.1-.38.04-.14.07-.27.11-.41.03-.12.06-.23.09-.35,0,0,0-.01,0-.02.03-.11.06-.22.08-.33,0,.02,0,.03-.01.04,0-.03.02-.07.02-.1.02-.09.05-.18.07-.27,0-.01,0-.02,0-.03.03-.11.06-.23.08-.34.12-.49.23-.97.33-1.47.02-.1.04-.21.07-.31.03-.12.05-.24.07-.36.12-.6.24-1.21.34-1.82.04-.24.08-.49.13-.74.12-.74.23-1.49.33-2.26.02-.13.03-.25.05-.38.03-.26.06-.51.09-.77.02-.13.03-.26.04-.39.03-.26.06-.52.08-.78.02-.16.03-.33.05-.49.05-.49.09-1,.13-1.5.01-.14.02-.27.03-.41.02-.27.04-.54.06-.82,0-.14.02-.27.03-.41.03-.41.05-.83.07-1.25.01-.28.03-.56.04-.85s.02-.57.03-.86c.02-.43.03-.87.04-1.31h0c0-.15,0-.29,0-.44h0c0-.44.01-.88.02-1.33,0-.15,0-.31,0-.46h0c-.04.19-.08.39-.12.59,0,.03-.01.07-.02.1-.04.19-.08.39-.12.59,0,.04-.02.09-.03.13-.07.35-.14.71-.22,1.06-.05.27-.11.55-.16.83h0c-.37,1.89-.73,3.78-1.07,5.67-.06.33-.12.65-.17.97-.06.33-.12.65-.17.97-1.14,8.56-3.94,16.77-8.08,24.31h0c-.28.5-.56,1-.85,1.5,0,0,0,0,0,.01-.1.17-.2.34-.3.51-.1.17-.2.35-.31.52-.1.16-.2.33-.29.49-.09.14-.18.29-.27.43-.07.12-.15.24-.23.36-.02.03-.04.07-.06.1-.06.09-.12.18-.17.28-.08.13-.16.25-.24.38-.09.13-.17.27-.26.4-.13.2-.27.41-.4.61-2.49,4.01-4.95,8.08-7.72,11.91-.06.1-.12.2-.19.29h0c-.06.1-.13.19-.19.29-.12.18-.25.36-.37.54,0,.01-.02.03-.03.04-.07.09-.13.19-.2.28-.07.09-.14.19-.21.28,0,0-.01.02-.02.03-.06.09-.13.17-.2.26-.07.09-.14.18-.21.27-.07.09-.14.18-.22.28-.22.28-.44.55-.67.82-.01.02-.03.03-.04.05-.06.07-.12.15-.18.22-.06.08-.13.15-.19.23-.13.15-.25.3-.38.45-.13.15-.25.3-.38.45-.13.15-.25.3-.38.45-.08.1-.17.2-.25.3-.06.07-.12.15-.18.22-.06.07-.12.15-.18.22-.04.05-.09.11-.13.16-.03.03-.05.06-.07.09-.1.12-.19.24-.29.36-.02.03-.04.05-.06.08-.02.03-.04.05-.06.08-.04.05-.08.1-.12.15-.02.02-.03.04-.05.06-.02.02-.03.04-.05.07,0,0-.01.02-.02.03-.08.11-.17.22-.25.34-.03.04-.06.09-.09.13-.04.05-.08.1-.11.16-.04.05-.07.1-.11.16-.04.05-.07.11-.11.16-.03.05-.07.1-.1.15,0,0,0,0,0,0,0,0,0,0,0,0-.08.11-.15.22-.22.33-.07.1-.14.21-.2.31,0,.01-.01.02-.02.03,0,0-.01.02-.02.02-.01.02-.03.04-.04.06-.81.89-1.71,1.7-2.5,2.61-.78-.45-1.53-.96-2.27-1.48-1.46-1.03-2.68-2.37-3.86-3.72-.79-.97-1.53-2.08-2.5-2.9-.17-.15-.35-.29-.53-.44,0,0,0,0,0,0,0,0,0,0,0-.01,0-.02-.01-.03-.02-.05-.04-.08-.1-.16-.17-.23h0s-.05-.05-.08-.07c-.37-.28-.74-.56-1.12-.84-.01-.01-.03-.02-.04-.03,1.37-.82,2.85-3.92,3.69-4.73,5-6.65,7.9-14.64,10.64-22.41-3.36,5.98-6.4,12.15-9.87,18.1-1.31,2.03-2.76,3.97-4.17,5.93-.29.71-1.39,1.4-1.66,2.14-.92-.59-1.87-1.11-2.91-1.45-1.01-.4-2.65-.68-4.24-1.08-.03,0-.05-.01-.08-.02t0,0c-.5-.24-.99-.48-1.5-.69-1.03-.37-1.92-.99-2.75-1.71h0c-.16-.34-.23-.71-.2-1.14,0-.02,0-.05,0-.07,0-.03,0-.06.01-.09.01-.09.03-.18.05-.27,0-.03.01-.06.02-.09,0,0,0-.01,0-.02,0-.03.02-.06.02-.09.02-.09.05-.18.09-.27,0-.03.02-.05.03-.08.02-.05.04-.11.07-.17.01-.03.02-.06.04-.08.02-.04.03-.08.05-.12s.04-.08.06-.12c1.62-3.02,3.53-5.97,5.36-8.88,3.69-5.85,6.38-12.25,9.17-18.56,6.73-15.71,8.85-32.82,9.43-49.78.56-11.08.59-22.22,1.92-33.24.03-.19.05-.39.08-.58.01-.1.03-.19.04-.29s.03-.19.04-.29c.02-.03.04-.06.05-.09.02-.03.03-.06.05-.09.01-.03.03-.06.04-.09.01-.04.03-.08.04-.12,0-.03.02-.06.03-.09,0-.04.02-.07.03-.11,0,0,0,0,0,0,0-.04.02-.07.02-.11,0-.04.02-.07.02-.11.06-.3.09-.6.14-.83.02-.1.03-.2.05-.3.01-.07.02-.15.03-.22.05-.35.1-.7.15-1.06.02-.17.05-.33.07-.5.04-.23.09-.45.14-.68.02-.11.04-.21.07-.32.02-.11.05-.21.07-.32.02-.09.04-.18.06-.27,0-.04.02-.07.02-.1.02-.09.04-.18.06-.27.03-.11.05-.21.08-.32.11-.46.23-.92.36-1.37.03-.11.06-.21.09-.31.03-.09.05-.17.08-.26h0c-.02-.05-.04-.11-.05-.16.03-.14.07-.27.1-.41,0,0,0,0,0,0,.06-.27.12-.54.18-.81.22-1.01.43-2.06.69-3.09.07-.27.14-.53.22-.8,0,0,0,0,0,0,.06-.23.13-.45.19-.68.02-.07.04-.15.06-.22.07-.23.14-.47.21-.7,0,0,0-.01,0-.02.07-.22.13-.43.2-.65.04-.13.08-.26.12-.38.06-.21.13-.41.2-.62.07-.23.15-.45.22-.68,0-.02.01-.04.02-.06.17-.52.35-1.03.53-1.54.02-.01.05-.02.07-.03h0s-.02.1-.03.15c.01-.05.02-.1.03-.15,0-.03.01-.05.02-.07.01-.06.03-.13.04-.19h0s.02-.09.03-.13c0-.03.01-.05.02-.08,0,0,0,0,0-.01,0-.02,0-.03.01-.05.02-.08.04-.17.07-.25.01-.05.03-.09.04-.14.03-.09.06-.18.09-.27.02-.05.03-.09.05-.14.03-.09.06-.18.1-.27s.07-.18.1-.27h0c.04-.14.08-.28.13-.41.11-.35.25-.69.38-1.03.13-.34.25-.68.38-1.01.02-.05.04-.1.06-.15h0c.02-.05.04-.11.06-.16.2-.59.41-1.17.64-1.75.64-1.58,1.38-3.11,2.21-4.6.93-1.64,1.98-3.21,3.12-4.72,1.3-1.7,2.72-3.31,4.23-4.83,1.72-1.71,3.55-3.29,5.48-4.77,2.03-1.54,4.25-3.01,6.55-4.35,2.54-1.46,5.18-2.75,7.88-3.88,0,0,.02,0,.04-.02.02,0,.03-.01.05-.02,2.9-1.19,5.89-2.22,8.94-3.05,3.21-.87,6.47-1.54,9.77-2.01h.02s.06-.01.08-.01c3.33-.45,6.71-.71,10.09-.75,3.2-.03,6.52.14,9.81.53,2.97.36,6.04.9,9.05,1.67.05.01.12.03.2.05.01,0,.07.02.13.03,1.8.47,3.7,1.04,5.57,1.7.4.14.8.29,1.2.44.24.09.48.18.72.28.12.05.24.09.35.14,2.33.94,4.6,2.02,6.79,3.25,1.94,1.1,3.8,2.32,5.58,3.65.05.04.09.07.14.11,0,0,0,0,0,0,.01.01.03.02.05.04,1.49,1.14,2.92,2.38,4.27,3.72,1.24,1.25,2.41,2.57,3.49,3.97.93,1.22,1.78,2.49,2.55,3.82,0,0,0,0,0,0,.02.03.04.06.06.1.04.06.07.13.11.19.04.06.07.13.11.19,0,0,0,0,0,0-.03,0-.06,0-.09,0,.2.31.4.62.59.93,0,0,0,0,0,0s0,0,0,0c0,0,0,.01,0,.01.16.31.3.64.47.95.05.1.13.19.21.27.01.01.02.02.04.03.03.03.06.05.09.07h0s0,0,0,0c.16.27.33.55.48.82.09.15.17.3.26.45.09.15.17.3.26.45.09.15.17.3.25.45.16.28.31.56.47.85.01.02.02.04.03.06.08.15.16.3.24.45.07.13.14.27.22.4.51.97,1,1.95,1.47,2.93.06.13.12.26.18.39.21.45.42.9.62,1.35.06.14.12.28.19.42.03.07.07.15.1.22.05.12.11.24.16.36.28.66.56,1.31.83,1.97.11.26.21.53.32.79,2.53,6.99,4.05,14.11,5.27,21.49l.11.65c.07.41.13.81.19,1.22.01.06.02.13.03.19.06.37.11.74.17,1.11.18,1.18.35,2.37.5,3.56.19,1.42.35,2.84.5,4.26.03.33.06.65.09.98.07.79.14,1.58.19,2.37.08,1.18.15,2.37.19,3.55.01.38.03.77.04,1.15.04,1.84.03,3.68-.05,5.52,0,.02,0,.04,0,.06,0,.17-.02.33-.02.5-.78,10.95-3.35,21.7-4.25,32.64-.85,10.52.04,21.2,2.39,31.48.12.58.26,1.17.4,1.75.14.59.29,1.17.45,1.76.06.22.12.44.18.66.06.22.12.44.19.66.06.22.13.44.19.66.04.13.08.26.12.39.02.08.05.15.07.23.14.45.28.9.43,1.35.07.22.15.44.22.65.07.22.15.43.23.65,0,.01,0,.02.01.03.05.14.1.28.15.41.2.55.4,1.09.61,1.63.06.15.12.3.18.46.05.12.09.24.14.36.04.11.08.21.13.32.26.63.52,1.26.79,1.88,1.87,4.18,3.91,8.29,4.94,12.79.01.05.03.1.06.15,0,.02.02.04.03.06t0,0s.02.03.03.04c.03.05.07.09.11.13.07.2.14.4.21.6.03.09.07.17.1.26.15.39.32.77.51,1.15,0,.01.01.02.02.03.13.28.27.55.42.82.04.08.09.17.14.25.05.09.1.18.15.27.08.14.16.27.24.41.07.12.14.23.2.34.16.26.32.52.49.78.07.11.14.22.22.33.08.12.16.25.25.37.03.04.05.08.08.12.02.03.04.05.05.08.03.04.05.08.08.12.41.6.82,1.2,1.23,1.79.03.05.07.1.1.14.17.24.33.47.5.71.09.12.19.24.29.37.05.06.1.12.15.18.04.05.08.1.12.15.04.05.08.1.12.14s.08.1.12.14c.04.05.08.09.12.14.24.27.48.54.73.8.04.05.09.09.13.14.21.22.42.43.64.65.54.54,1.08,1.06,1.63,1.58.22.21.44.42.66.63h0c.16.16.33.31.49.47h0c.16.16.32.32.48.48.08.08.16.16.24.24.08.08.15.15.22.23.07.07.15.15.22.23.04.05.09.09.13.14.05.05.09.09.13.14.1.11.2.22.3.33.04.04.08.09.12.13.03.03.06.06.08.09.05.05.09.1.14.16.08.09.15.18.23.27.06.07.12.15.18.22.09.11.18.22.27.33.04.05.08.11.12.16.09.12.19.25.28.37,0,.01.02.02.03.04,0,0,0,.01.01.02s0,0,0,.01c.02.04.05.07.08.11,0,0,0,0,.01.01.04.06.09.13.13.19.02.03.04.06.06.09.01.02.02.03.03.05.01.02.02.03.03.05.03.05.06.1.09.14.09.15.19.29.27.44,0,.01.02.02.02.04.01.02.02.04.04.06.02.03.04.06.06.1.04.07.08.14.12.21.02.03.04.07.06.1.02.03.04.07.05.1.03.06.07.13.1.19Z"/>
      </g>
    </g>
  </g>
</svg>