<?xml version="1.0" encoding="UTF-8"?>
<svg id="Ebene_2" data-name="Ebene 2" xmlns="http://www.w3.org/2000/svg" viewBox="0 0 150.99 231.07">
  <defs>
    <style>
      .cls-1 {
        fill: #3d5200;
      }

      .cls-1, .cls-2, .cls-3, .cls-4, .cls-5, .cls-6, .cls-7 {
        stroke-width: 0px;
      }

      .cls-3 {
        fill: #fff0d2;
      }

      .cls-4 {
        fill: #fff;
      }

      .cls-5 {
        fill: #ffe100;
      }

      .cls-6 {
        fill: #ffe1bb;
      }

      .cls-7 {
        fill: #d9e021;
      }
    </style>
  </defs>
  <g id="Ebene_1-2" data-name="Ebene 1">
    <g>
      <path class="cls-4" d="m150.89,179.72c-1.15-5.44-3.53-10.52-5.83-15.44-.31-.67-.62-1.33-.93-1.99-5.51-12.95-12.54-21.25-21.42-25.26.42-.45.84-.9,1.24-1.35,12.34-12.97,19.48-31.23,20.13-51.38.42-9.51-1.65-18.68-3.65-27.55-.47-2.08-.94-4.16-1.39-6.3-.96-4.2-2.07-8.66-4.11-12.94-2.54-5.09-6.07-9.46-9.48-13.68l-.38-.47C110.91,5.24,90.86-3.1,71.44,1.05c-3.86.6-8.91,1.48-13.93,3.01l-.11.04c-4.32,1.48-8.42,3.46-12.38,5.38-.96.47-1.93.93-2.86,1.38-2.38,1.1-4.67,2.45-6.88,4.02-.21-1.26-.89-2.34-1.93-3.07-2.32-1.62-5.15-.71-5.99-.39-5.19,2.08-9.93,6.16-13.04,11.22-5.3,7.84-6.02,15.03-2.29,22.62.05.11.09.2.11.26-1.52,3.03-2.73,6.19-3.61,9.41-.11.33-.19.68-.28,1.03,0,.03-.01.06-.02.09-1.16.25-3.72.97-4.41,3.93l-.07.38c-.34,2.85-.61,5.79-.88,8.63-.29,3.06-.59,6.23-.97,9.39-.12,1.32-.2,2.54-.27,3.79-.05.8-.09,1.61-.16,2.46v.1c-.04.86-.12,2.44.84,3.91.72,1.14,1.75,1.67,2.58,1.96.27,15.01,6.22,29.08,11.8,41.14.45.94.95,1.94,1.52,3.04-6.57,4.2-14.1,13.77-17.11,29.25l-.03.16c-.11.73-.25,1.46-.4,2.19-.58,2.96-1.25,6.32.14,9.91,3.49,8.69,12.29,13.12,19.57,16.01,1.51.6,3.04,1.15,4.52,1.67.6.21,1.21.43,1.8.64.04,3.7.46,7.36.86,10.9.44,3.85.85,7.48.81,11.15,0,.21-.01.45-.03.7-.09,1.64-.35,6.62,4.26,7.5l.66.13.66-.13c3.84-.75,4.22-4.59,4.36-6.04.03-.33.08-.83.16-1.08.09-.32.19-.64.29-.95.64-2.11,1.37-4.49,1.05-7.31-.06-1-.12-2-.18-3-.17-2.61-.33-5.13-.35-7.6,9.09,3.07,18.54,4.02,26.85,4.45-.05.22-.11.45-.16.68-.15.61-.29,1.22-.43,1.85-.16.73-.32,1.45-.47,2.17-.75,3.37-1.45,6.55-1.69,10.13v.11c-.05,1.38.22,2.51.44,3.43.05.2.1.39.16.67.15.6.19,1.73.22,2.55.01.29.02.57.03.73.08,2.92,1.79,5.1,4.26,5.42l.26.03h.26c2.22-.05,4.91-1.27,5.16-6.83l.02-.41c.25-3.49,1.36-6.98,2.54-10.68.97-3.05,1.97-6.2,2.51-9.48,15.48.2,28.91-.51,41.1-2.18,6.37-.92,12.13-3.57,17.25-5.92,8.49-4.04,12.99-9,13.38-14.72l.02-.27-.1-.86Z"/>
      <g>
        <path class="cls-2" d="m67.22,97.2c-.07.07-.13.15-.2.22-.02.02-.03.04-.05.06-.24.27-.49.53-.75.78-.14.14-.28.28-.43.42-1.36,1.31-2.87,2.48-4.47,3.49-5.47,3.45-12.13,5.13-18.52,4.71-4.51-.22-9.1-1.07-13.2-2.99-1.38-.63-2.48-1.37-3.82-1.89-.07.01-.14.02-.2.01-.87-.02-1.44-1.13-.64-1.75.42-.21.88-.21,1.34-.1,1.15.28,2.35,1.27,3.3,1.63,1.72.84,3.43,1.53,5.25,2,10.86,2.83,17.85.79,26.24-3.37,1.37-.68,2.78-1.42,4.25-2.2.16-.09.33-.17.49-.26.38-.2.77-.41,1.16-.62,0,0,0,0,0,0,.08-.04.16-.09.24-.13Z"/>
        <path class="cls-2" d="m46.83,115.85c-5.26-.31-10.22-2.49-14.62-5.3-2.31-1.37-4.28-3.37-6.84-4.21-.57-.42-.45-1.39.21-1.66,2.08-.2,4.68,2.48,6.46,3.51,8.28,5.89,18.76,8.32,27.59,2.1,2.5-1.79,4.66-3.99,7.08-5.89.99-.81,1.98-1.67,2.95-2.47-1.53,2.71-3.47,5.21-5.77,7.32-4.54,4.29-10.77,7-17.06,6.59Z"/>
        <path class="cls-2" d="m71.62,109.65c.34-4.77-2.21-9.29-6.12-11.91-.51-.42-1.42-.53-1.41-1.35.58-2.54,3.75.86,4.7,1.65,3.34,2.77,4.66,7.64,2.83,11.61Z"/>
        <path class="cls-2" d="m26.12,109.66c-2.78-3.36-3.51-8.69-.37-12.05.75-.71,1.98.31,1.42,1.18,0,0,0,0,0,0-2.5,3.04-2.16,7.34-1.05,10.87Z"/>
        <path class="cls-2" d="m44.06,120.33c-1.23-.23-4.67-.76-4.8-2.18,0-.51.43-.94.94-.94,3.59,1.47,7.56,2.2,11.44,2.06.18,0,.38-.05.55-.06-2.47,1.3-5.4,1.41-8.13,1.13Z"/>
        <path class="cls-2" d="m41.65,93.25c-2.84-.97-4.44-4.41-3.51-7.24.53-1.74,1.92-2.97,3.22-4.14,3.4-3.2,6.75-6.99,7.68-11.69.16-.8.27-1.62.33-2.43-.02-.71.02-1.71.97-1.72,1.82.14.57,3.69.48,4.85-1.14,5.28-5,9.48-8.87,13.02-2.11,1.56-2.9,4.44-1.67,6.81.55.95,1.33,2.29,2.57,2.26.22,0,.45-.07.65-.13-.49.45-1.22.64-1.85.42Z"/>
        <path class="cls-2" d="m76.61,78.06c-.05-4.61-5.62-4.74-9.1-5.13-2.24-.21-4.49.09-6.7.27,1.57-.69,3.12-1.46,4.84-1.73,3.9-.62,10.04-.14,12.18,3.68.45.96,1.19,3.18-.4,3.38-.33,0-.65-.18-.82-.47Z"/>
        <path class="cls-2" d="m21,73.55c.27-1.61,1.7-2.91,2.9-3.94,3.1-1.77,7.56-1.21,10.61.43-.89-.2-1.82-.21-2.74-.16-2.39.2-5.06.12-7.08,1.51-.71.64-1.31,1.4-1.81,2.21-.04,1.19-1.9,1.15-1.88-.05Z"/>
        <path class="cls-2" d="m80.66,59.1c-.56-.53-.63-1.39-1.02-2.04-1.01-1.95-2.78-3.45-4.89-4.09-1.72-.61-3.55-.94-5.37-.84-2.27.23-5.63.42-6.55-2.21-.77-3.73,4.44-4.33,6.98-3.3,3.6,1.04,7.14,2.57,9.52,5.62,1.01.93,5.05,8.03,1.33,6.85Zm-10.64-10.37s0,0,0,0c-.05-.01-.1-.02-.15-.03-.02,0-.03,0-.05,0,0,0,0,.01.01.02.06,0,.12.01.19.02Z"/>
        <path class="cls-2" d="m25.4,58.55c-2.01-.89.3-2.8,1.44-3.3,1.23-.84,2.46-1.69,3.74-2.44,3.12-1.68,6.72-3.22,10.32-2.68.87.12,1.71.48,2.42,1.01.03.09.06.17.11.26.08.15.16.3.24.45.1.18.2.35.33.51.05.06.1.11.15.17.03.05.05.1.07.16.05.12.08.25.14.37.03.07.06.13.09.2,0,.08,0,.16,0,.24,0,.14-.02.29-.04.43,0,.03-.01.06-.02.09-.02.06-.03.11-.05.17-.02.06-.04.11-.07.17.02-.05.04-.09.06-.14-.08.18-.14.37-.21.56-.12.15-.26.3-.38.46.03-.04.06-.08.09-.12-.06.07-.12.14-.18.21-.01.01-.03.03-.04.04-.21.08-.42.16-.63.25.01,0,.03-.01.04-.02-.02,0-.04.02-.07.02-.07.01-.14.02-.21.03-.15.03-.29.08-.43.12-.11.03-.22.05-.32.08-.08.03-.16.05-.24.08-.01,0-.02,0-.04,0-.18.02-.36.03-.54.05.02,0,.03,0,.05,0-.12.01-.25.03-.37.04-.21-.05-.41-.1-.62-.15-.26-.07-.52-.15-.77-.24-.34-.12-.66-.25-1.02-.31-.26-.04-.53-.04-.79-.05-.11-.01-.22-.02-.32-.04-.3-.06-.59-.16-.9-.22-.3-.06-.6-.03-.91-.03-.2,0-.41.01-.61.03-.22.02-.43.06-.64.08-.12,0-.23,0-.35.02-.23.02-.45.08-.65.18h-.15c-.06,0-.13,0-.19,0-.36,0-.67.09-.97.25,0,0,0,0-.01,0,.01,0,.02-.01.03-.02-.01,0-.03.01-.04.02-.1.04-.21.08-.31.13-.08.05-.17.09-.25.14-1.02.15-1.93.62-3.01,1.38-.83.52-1.66,1.38-2.68,1.38-.1,0-.2,0-.3-.03Zm11.22-6.24c.1,0,.2,0,.3.02.08-.06.16-.1.25-.15-.18.04-.37.09-.55.13Z"/>
        <path class="cls-2" d="m40.16,55.84s.05.01.07.02c-.02,0-.05-.01-.07-.02Z"/>
        <path class="cls-2" d="m31.96,55.53s0,0,.01,0c-.02.01-.04.02-.07.03.02-.01.04-.02.06-.03Z"/>
        <path class="cls-2" d="m44.4,54.02s0,.02,0,.03c0-.01,0-.02,0-.03Z"/>
        <path class="cls-2" d="m44.46,53.51s0,.07,0,.1c0-.03,0-.07,0-.1Z"/>
        <path class="cls-2" d="m36.51,52.46c-.41-1.48,2.8-1.77,3.78-1.7,1.21.17.97,2.01-.26,1.87-1.15-.27-2.89,1.39-3.52-.16Z"/>
        <path class="cls-2" d="m65.22,97.82c0-.51.43-.94.94-.94s.94.43.94.94-.43.94-.94.94-.94-.43-.94-.94Z"/>
        <path class="cls-2" d="m60.68,101.72c-.56-1.04.74-1.49,1.42-1.96,1.17-.79,2.35-1.63,3.1-2.85.68-1.14,2.36-.04,1.57,1.03-.83,1.32-2.04,2.31-3.32,3.16-.8.45-2,1.74-2.77.61Zm4.41-4.35s0,0,0,0c0-.1.01-.19.04-.29-.03.09-.04.18-.04.28Z"/>
        <path class="cls-2" d="m69.02,101.09c.52-1.29,2.43-.32,1.66.93-.17.29-.35.57-.53.85-1.2,1.78-2.78,3.27-4.31,4.77-.15.16-.36.25-.57.27-.27.02-.56-.07-.76-.27-.49-.59-.24-1.1.2-1.57.41-.44.99-.84,1.29-1.22,1.1-1.09,2.19-2.34,2.98-3.64.01-.04.03-.09.05-.13Z"/>
        <path class="cls-2" d="m24.37,105.74c-.79-1.76,2.31-2.03,2.01-.23-.23.85-1.59.99-2.01.22,0,0,0,0,0,0Z"/>
        <path class="cls-2" d="m99.12,88.68c-.49-1.01-1.06-2.04-1.99-2.71-.47-.29-1.14-.44-1.11-1.14.24-1.75,2.22-.61,2.92.2.84.82,1.43,1.85,1.92,2.9.49,1.11-1.25,1.86-1.74.73Z"/>
        <path class="cls-2" d="m101.23,85.57c-.92-1.9-2.25-3.47-3.79-4.86-.55-.38-1.07-1.1-.58-1.73.39-.53,1.27-.47,1.57.11,1.8,1.56,3.37,3.4,4.43,5.54.62,1.05-1.02,2.01-1.63.95Z"/>
        <path class="cls-2" d="m105.82,82.3c.36.74-.5,1.58-1.23,1.23-.34-.13-.51-.5-.65-.8-1.29-2.41-2.46-5.02-4.53-6.87-.44-.38-.89-.78-1.46-.97-.31-.07-.59-.35-.66-.66-.08-2.37,2.69-.54,3.49.33,1.36,1.22,2.36,2.78,3.25,4.36.64,1.13,1.23,2.24,1.79,3.38Z"/>
        <path class="cls-2" d="m108.57,80.11c.48,1.11-1.26,1.87-1.73.73-1.73-4.33-3.59-9.34-7.7-11.93-.39-.21-.81-.36-1.25-.46-.88-.32-.72-1.69.22-1.81,4.82.8,7.72,6.99,9.52,11.05.32.8.61,1.61.94,2.41Z"/>
        <path class="cls-2" d="m137.59,161.26c-2.56-5.42-5.71-10.8-10.24-14.8-3.46-3.38-8.01-4.85-12.32-6.73-2.58,2.53-5.25,4.98-7.93,7.39-5.47,4.79-11.08,9.56-15.72,15.15,1.77-5.46,6.21-9.57,10.53-13.05,4.07-3.55,8.08-7.18,11.93-10.97.1-.29.34-.54.63-.62,2.21-2.19,4.37-4.44,6.46-6.76,11.99-13.14,17.45-31.11,17.66-48.65.04-10.77-3.05-21.17-5.24-31.62-.9-3.83-1.93-7.65-3.68-11.19-1.78-3.37-4.14-6.39-6.44-9.41-3.68-4.61-7.6-9.06-12.02-12.98-10.02-8.61-23.77-13.24-36.89-10.64-5.24.65-10.46,1.68-15.53,3.15-5.04,1.94-9.89,4.35-14.76,6.67-5.45,2.61-10.14,6.55-14,11.17-.08.23-.23.38-.4.48.24.32.49.66.76,1,1.23-1.46,3.01-2.5,4.46-3.75,3.31-2.59,6.71-5.32,10.84-6.43,6.93-1.74,14.08-2.78,21.19-3.47,5.69-.13,11.26,1.44,16.56,3.37,10.9,4.94,20.77,12.53,27.82,22.25,2.51,3.99,3.58,8.62,4.52,13.17.67,3.53,1.37,7.06,1.45,10.66.41,7.58-.09,15.21-1.5,22.68-1.25,6.05-2.99,11.99-4.34,18.01-3.95,19.62-5.92,22.09-17.44,38.22-4.56,6.37-10.48,11.53-16.91,15.94-6.96,5.24-13.97,10.75-19.2,17.74,3.05-11.44,20.85-19.48,28.88-28.03,3.95-4.07,7.17-8.64,10.3-13.31,2.29-3.42,4.78-6.72,6.6-10.43,2.89-5.57,3.91-11.84,5.36-17.89,2.8-12.59,6.88-25.02,6.52-38.05-.11-8.88-1.31-18.04-4.95-26.2-4.38-7.2-11.05-12.78-17.89-17.57-7.7-5.07-16.7-8.86-26.05-8.65-7.23.83-14.56,1.7-21.55,3.75-4.82,1.82-8.7,5.54-12.65,8.64-.29.23-.54.53-.84.73.08.08.16.16.24.24.14-.04.29-.05.45,0,4.37-2.3,8.25-5.52,12.92-7.26,7.86-2.91,16.53-3.5,24.82-2.51,6.11,1.06,12.11,3.02,17.73,5.64,6.34,2.9,11.31,7.93,15.61,13.31,3.94,4.8,7.79,10.13,8.69,16.43,1.56,8.93-.52,17.92-1.53,26.8-.59,4.99-.92,10.01-1.72,14.98-.65,4.33-1.85,8.55-2.73,12.84-.98,6.32-4.08,11.96-7.23,17.43-2.77,4.74-6.65,8.6-10.38,12.55-3.68,3.77-7.25,7.68-11.2,11.18-.31.23-.62.47-.94.73-.14.14-.31.28-.51.41-5.68,4.64-12.42,11.85-19.64,11.59-5.87-.08-8.77-5.65-12.06-9.64-3.19-3.42-6.35-6.88-9.13-10.64-2.55-3.7-4.77-7.62-6.97-11.54-1.75-3.19-2.95-6.67-4-10.14-2.26-3.53-4-7.42-5.11-11.5-1.46-4.34-3.26-8.51-4.08-13.02-.9-5.63-1.28-11.31-.53-16.95,1.06-9.77,4.83-18.95,9.78-27.36.6-1.13,1.18-2.27,1.73-3.42.16.04.32.05.49.06.15.01.29.02.44.02.07,0,.13,0,.2,0,.13-.01.26-.05.4-.05-.05,0-.1,0-.15,0,.11,0,.23-.01.34-.02h-.01s0,0,.01,0c0,0,0,0,0,0,.1,0,.2-.02.3-.04.03,0,.05-.01.08-.02-.94,2.02-1.9,3.88-2.97,5.79-2.28,4.01-4.29,8.18-5.86,12.52-4.47,12.76-4.47,27.01.79,39.52,1.69,5.08,3.46,10.34,6.5,14.7,4.43,6.24,10.58,11.39,17.81,13.97,6.58,2.27,13.78,2.59,20.5.74-3.09,2.17-6.92,3.45-10.73,3.07-4.3-.17-8.4-1.14-12.2-2.76-1.59.88.44,4.27,1.51,4.99-.16-.08-.33-.17-.49-.27.38.34.75.69,1.13,1.04,0,0,0,0,0,0t0,0c-1.07-.66-2.13-1.32-3.19-2-1.15-.74-2.29-1.49-3.42-2.26-.16-.11-.32-.22-.48-.33-.03-.02-.07-.04-.11-.06-.23-.12-.46-.23-.7-.33-.96-.26-1.93-.52-2.88-.81.83,1.39,1.68,2.77,2.54,4.14,2.36,3.48,5.18,6.54,7.96,9.63.16.04.31.12.46.25,2.89,1.92,6.28,2.81,9.68,3.3,5.69.95,11.59-.34,17.04-1.99,1.02-.36,2.02-.77,2.88-1.19.47-.16,1.01-.62,1.53-.87,5.34-4.74,10.31-9.9,15.12-15.17-.02-.04-.03-.08-.05-.12-.15-.56-.3-1.11-.46-1.67-.07-.27-.15-.53-.22-.8-.07-.25-.13-.51-.21-.76-.2-.27-.42-.53-.62-.8-.25-.32-.49-.64-.74-.96-.32-.42-.79-.87-.71-1.45.03-.25.18-.49.28-.72.09-.18.17-.37.26-.55.14-.3.28-.6.42-.9.01-.06.03-.13.05-.19.12-.3.25-.59.38-.88.01-.03.02-.05.03-.08-2.99,1.81-6.33,3.1-9.96,3.7,9.93-6.01,14.95-7.62,20.75-18.21-1.64-1.01-3.18-2.62-2.15-3.72,1.25-.84,1.52,1.05,2.37,1.54,1.09,1.14,3.11,1.79,4.46,1.08,1.63-6.93,3.04-13.9,3.76-20.99-.13.06-.26.11-.38.16-1.16.41-1.97,1.69-3.17,1.84-.51-.07-.88-.55-.8-1.06.22-.85,1.21-1.18,1.83-1.7.71-.38,1.87-1.36,2.7-1.12.05-.56.09-1.11.13-1.67.29-3.34.8-6.69,1.27-10.04-1.76-3.74-1.93-6.99-5.97-9.7-1.62-1.22-3.67-1.6-5.35-2.69-2.83-2.16-1.1-6.41,1.44-8.04,2.23-1.26,4.02-3.48,3.32-6.18-1.45-5.89-6.82-5.52-11.92-5.16-2.01.14-3.98.29-5.66.05-7.86-.83-7.85-8.4-13.87-11.19-5.32-1.77-9.52,3.5-14.66,3.82-2.27.12-4.01-.51-5.54-1.15-3.35-1.39-5.65-2.79-10.09,3.86-1.83,3.04-4.45,6.02-7.57,8.03.06-.05.12-.11.18-.16-.02.02-.05.04-.07.07.19-.17.39-.33.59-.49.25-.2.46-.45.68-.68.3-.32.55-.7.81-1.07.3-.43.55-.9.82-1.35.05-.07.09-.14.14-.22-.02.03-.04.06-.06.09,0,0,0,0,0,0,0,0,0,0,0,0,0,0-.01.02-.02.03,0,0,.01-.02.02-.03,0,0,0,0,0-.01,0,0,0-.01.01-.02,0,0,0,0,0,0,0,0,0,0,0-.01.16-.23.32-.46.48-.69,0,.01-.01.02-.02.03.01-.02.03-.04.04-.06.02-.02.03-.05.05-.07-.01.02-.03.04-.04.06.17-.25.33-.51.47-.78.1-.19.18-.38.26-.58.07-.17.15-.35.2-.53.02-.06.05-.12.07-.18.03-.06.05-.12.08-.19.22-.33.44-.66.63-1.01,0,0,0-.02.01-.02,0,0,0,.01-.01.02,0,0,0,0,0,0,0,0,0,0,0,0,0,0,0,0,0,0,0,0,0,0,0,0,0,0,0,0,0,0,0,0,0,0,0,0,0,0,0,0,0,0,0,0,0,0,0,0,0,0,0,0,0,0,0,0,0,0,0,0,0,0,0,0,0,0-.01.02-.03.05-.04.07,0,0,0,0,0,0,0,0,0,0,0,0,0,0,0,.02-.01.02h0s0,.01-.01.02c0,0,0-.01.01-.02.19-.34.41-.66.64-.97.14-.18.28-.36.42-.54.15-.21.28-.43.41-.66-.03.05-.05.09-.08.14.21-.36.42-.73.63-1.09.04-.06.07-.12.11-.18.26-.33.54-.66.83-.98,4.03-4.2,6.85-2.98,9.87-1.77,2.2.89,4.5,1.78,7.44.56,4.44-1.8,9.33-5.41,14.14-2.58,5.42,3.12,5.96,10.46,13.21,10.64,1.42.06,2.96-.05,4.54-.16,1.27-.09,2.56-.18,3.82-.18,3.63,0,7.02.74,8.96,4.35.77,1.26,1.16,2.76,1.11,4.24,1.09-.25,2.29-.26,3.4-.01-3.02-6.6-8.97-12.98-13.78-17.55-4.3-3.85-9.64-6.14-15.04-7.95-7.83-2.89-16.35-3.69-24.59-2.4-3.92.55-7.82,1.47-11.37,3.25-1.81.91-3.56,1.95-5.27,3.05-.89.43-2.8,1.95-4.43,2.78-.16.28-.57.54-1.24.54-.05,0-.1,0-.14-.01-.39.08-.72.05-.96-.11-.12-.08-.21-.18-.28-.29-1.2-.67-2.16-2-3.11-2.9-4.26-4.79-2.39-8.57,1.71-12.55-5.84,2.16-10.26,7.18-12.81,12.68-1.16,2.38-2.49,5.35-1.92,8-.02.45-.02.89.03,1.34.04.41.12.81.23,1.21,0-.01,0-.03-.01-.04,0,.03.02.07.03.1,0-.02-.01-.04-.02-.06.02.07.04.15.06.22,0,.02,0,.03.01.05,0,0,0-.02,0-.02,0,0,0,.02,0,.02,0,0,0,0,0,0,0,0,0,0,0,0,0,.02,0,.03.01.05.09.32.2.64.3.95-.02-.05-.03-.1-.05-.15.07.22.14.44.21.65.09.29.18.58.29.86-.95-1.07-1.73-2.06-2.19-2.8-3.07-5.47,2.32-13.64,5.58-18,2.15-2.51,8.56-7.96,12-6.97,3.01,3.05-7.04,6.01-3.14,11.79,1.3-1.91,3.15-3.41,4.77-5.05,2.86-2.81,6.34-4.97,9.9-6.77,5.5-2.56,10.92-5.48,16.72-7.31,4.68-1.11,9.38-2.18,14.16-2.71,13.51-2.67,27.66,2.01,38.06,10.78,6.76,5.99,12.6,13.01,17.64,20.5,3.28,4.96,4.66,10.85,5.96,16.58,2.04,9.81,4.84,19.57,4.78,29.68-.2,16.14-4.58,32.46-14.34,45.48-2.98,3.81-6.25,7.39-9.68,10.81,2.18.94,4.43,1.71,6.55,2.79,7.98,4.23,13.06,12.16,16.67,20.18,2.91,6.47,6.7,12.81,7.02,20.06-3.08-6.67-5.92-13.46-9.1-20.08Zm-38.76-101.94c-1.16,3.52,3.43,3.31,5.41,5,2.38,1.52,4.27,3.77,5.33,6.38.16.43.32.86.49,1.29.38-3.08.66-6.17.64-9.25-2.51-2.66-4.82-5.44-8.8-6.02-.18-.07-.32-.18-.41-.31-1.1.78-2.2,1.6-2.66,2.91Zm4.33-4.24c2.14.51,4.13,1.63,5.73,3.1.28.28.99.91,1.69,1.62-.11-1.53-.31-3.06-.62-4.59-.16-.75-.38-1.51-.63-2.27-.05-.02-.1-.05-.15-.08-.92-.61-2.08-.58-3.14-.54-.46.02-.89.13-1.34.2h-.04c-.29.95-.79,1.83-1.49,2.55Z"/>
        <path class="cls-2" d="m36.83,43.54s-.05.07-.07.11c0,0,0,0,0,0,.02-.04.05-.07.07-.11Z"/>
        <path class="cls-2" d="m39.84,159.91c-4.31-7.1-9.75-13.42-14.53-20.2-.38-.57-.76-1.16-1.12-1.74-4.15.96-7.25,4.5-9.65,7.83-2.29,3.44-4.43,7.09-5.77,10.96-1.43,4.46-2.71,9.01-4.4,13.37-.04-8.53,3.07-16.88,7.69-23.97,2.66-4.02,6.27-8.65,11.14-9.83-2.93-5.02-5.24-10.38-7.41-15.78-3.83-8.52-6.31-17.67-7.17-26.98-.45-6.44.46-12.87,1.96-19.13.21-.95.42-1.89.64-2.84-.25-.29-.42-.65-.55-1-.13-.34-.22-.69-.28-1.05-.14-.79-.19-1.59-.19-2.39,0-2.01.26-4.02.63-5.99.15-.83.33-1.66.52-2.48.02-.12.06-.23.08-.35.03-.13.06-.27.1-.4.09-.37.19-.74.29-1.12.3-1.12.63-2.24.99-3.34.35-1.08.74-2.15,1.16-3.2.52-1.3,1.16-2.56,1.91-3.75.21-.33.43-.65.64-.95,0-.01.01-.02.02-.03,0,0,0,0,0,0,.32-.44.65-.87,1.01-1.27.04.05.08.1.12.15.05.06.09.12.13.19-.01-.02-.03-.05-.04-.07.1.16.2.31.3.47.01.02.03.04.04.06-.83,1.77-1.49,3.63-2.2,5.45-.17.42-.34.85-.48,1.23,0,.02-.01.04-.02.06h0c-.8,2.13-1.47,4.31-2.02,6.51-.06.24-.12.47-.17.71,0,.01,0,.03-.01.04,0,0,0,0,0,.01,0,0,0,0,0,0,0,.02-.01.04-.01.06h0s0,0,0,0c0,0,0,0,0,.01,0,0,0,.01,0,.02,0,0,0,0,0,0-.42,1.85-.76,3.72-.95,5.55,0,.04,0,.07-.01.11h0c-.09.95-.14,1.91-.11,2.86,0,.13.01.26.02.38.9-3.34,1.98-6.62,3.44-9.77,1.15-2.76,2.53-5.42,4.06-7.98.32-.48.78-1.4,1.32-2.18.28.26.63.47.95.65.22.13.45.25.68.37-.78,1.11-1.44,2.3-2.12,3.47-2.11,3.68-3.78,7.6-5.22,11.58-2.82,9.39-5.29,19.2-4.73,29.04.83,9.1,3.2,17.97,6.93,26.28,2.58,6.44,5.36,12.82,9.14,18.66,6.98,10.56,21.67,24.71,19.77,38.05-1.3-5.72-3.57-11.28-6.49-16.36Z"/>
        <path class="cls-2" d="m25.74,52.2c-7.83-1.39-12.95-9.66-12.23-17.32.08-1.34,1.06-7.09,3.09-4.75-.02.05-.04.1-.05.15,0-.02.01-.04.02-.07-.04.17-.09.33-.13.5-.07.15-.14.31-.19.46.02-.05.04-.1.06-.15-.1.25-.19.49-.26.75-.06.19-.12.39-.13.58-.14.43-.24.87-.33,1.31-.13.7-.21,1.41-.24,2.12-.1.34-.17.69-.19,1.04-.03.55-.04,1.09.02,1.64.05.43.12.85.24,1.27,0-.03-.02-.07-.03-.1.02.09.05.18.08.26,0,.02,0,.03.01.05h0s0,0,0,.01c0,.01,0,.02.01.04,0,0,0,0,0,0,0,0,0,0,0,0,.09.3.19.6.28.9,0,0,0-.01,0-.02.06.19.13.38.19.57.09.3.19.6.31.89.11.26.22.51.39.74.11.16.23.31.35.46.12.17.24.33.36.49t0,0s0,0,0,0c.1.13.19.26.3.38.03.05.07.1.1.15,0,0-.01-.02-.02-.03.1.16.2.31.3.47.23.37.49.75.79,1.07.21.22.42.42.65.61.34.35.69.69,1.07,1,.27.52.82.84,1.32,1.13.33.19.66.37,1.01.53.12.06.24.11.36.16.24.14.5.27.77.32.84.35,1.68.54,2.5.57.07,0,.14,0,.21,0,.02,0,.04,0,.05,0,1.06,0,2.08-.22,3.06-.62.13-.02.26-.05.39-.08.23-.06.47-.13.69-.22.3-.13.55-.33.82-.5.25-.16.51-.31.75-.5.15-.12.28-.25.44-.36-.04.03-.08.06-.13.09.17-.12.34-.24.49-.38.09-.09.18-.17.27-.26.11-.1.21-.19.32-.29-.04.03-.08.07-.11.1.19-.17.39-.33.59-.49.25-.2.46-.45.68-.68.3-.32.55-.7.81-1.07.22-.32.41-.66.6-.99.19-.29.38-.58.56-.88.07-.11.15-.21.22-.32,0,.01-.01.02-.02.03.01-.02.03-.04.04-.06.01-.02.02-.03.04-.05,0,0,0,0,0,0,0,0,0-.01.01-.02,0,0,0,.01-.01.02,0,0,0,0,0,0,0,.01-.02.03-.03.04.16-.24.32-.49.46-.75,0,0,0,0,0,0-.02.03-.03.07-.05.1.02-.03.03-.07.05-.1,0,0,0,.02-.01.03.01-.02.02-.04.03-.07,0,0,0,0,0,0,0,0,0,0,0,0,0-.01.01-.02.02-.03,0,0,0,.02-.01.03.09-.18.18-.37.25-.56.05-.13.11-.26.16-.4.12-.25.24-.49.35-.74.15-.23.3-.46.44-.7,0,.01-.01.02-.02.04,0,0,0-.02.01-.03,0,0,0,.02-.01.03,0,0,0,.01,0,.02,0,0,0,0,0,0h0s0,0,0,0c0,0,0,.01,0,.02,0,0,0-.01,0-.02,0,0,0,0,0,0h0s0-.01.01-.02c.19-.33.4-.65.63-.95.14-.18.28-.36.42-.54.15-.21.28-.43.41-.66-.03.05-.05.09-.08.14.21-.36.42-.73.63-1.09.05-.08.09-.16.14-.23.06.01.12.03.17.05.47.2.7.76.5,1.23-.71,1.71-1.44,3.42-2.32,5.06-2.31,4.57-7.05,9.53-12.49,9.53-.4,0-.8-.03-1.2-.08Z"/>
        <path class="cls-2" d="m15.77,40.91s0,.03.01.04c0-.01,0-.03-.01-.04Z"/>
        <path class="cls-2" d="m38.96,39.71s.02-.03.03-.05c0,0,0,0,0,0,0,0,0,0,0,0-.01.02-.03.05-.04.07,0,0,0-.01,0-.02Z"/>
        <path class="cls-2" d="m38.97,39.67s-.01.02-.02.03c0,0,0,0,0,0,0-.01.01-.03.02-.04Z"/>
        <path class="cls-2" d="m15.74,40.8s.02.05.02.08c0-.03-.02-.05-.02-.08Z"/>
        <path class="cls-2" d="m15.48,39.97h0s0-.02,0-.02c0,0,0,.02,0,.03,0,0,0,0,0,0Z"/>
        <path class="cls-2" d="m15.47,39.95s0,0,0,0c0,0,0,0,0,0h0s0-.02,0-.02c0,0,0,.02,0,.03,0,0,0,0,0,0Z"/>
        <path class="cls-2" d="m3.78,170.93c.1-2.93.84-5.79,1.37-8.65.17-.79,1.35-.93,1.72-.23.13.23.15.47.11.65-.15.82-.35,1.86-.54,2.6-.33,1.87-.72,3.74-.79,5.63-.01,1.23-1.87,1.23-1.88,0Z"/>
        <path class="cls-2" d="m145.58,180.98c-.61-2.91-1.74-5.6-2.79-8.33-.24-.41-.19-.98.22-1.28.9-.6,1.5.22,1.69,1.05.39,1.08.86,2.13,1.26,3.2.55,1.39.94,2.84,1.28,4.29.24.65.31,1.5-.51,1.73-.48.14-1.03-.16-1.16-.66Z"/>
        <path class="cls-2" d="m82.25,200.04c-11.65-.21-23.42-.19-34.85-2.74-4.16-.86-8.15-2.35-12.15-3.74-5.56-1.87-11.18-3.64-16.57-5.97-5.84-2.71-12.02-6.52-14.53-12.74-2.34-6.48,2.41-5.65,1.26-3.53-.03,3.55,2.38,6.59,4.9,8.86,6.15,5.38,14.13,7.72,21.71,10.33,4.56,1.44,8.81,3.17,13.4,4.39,3.48.89,7.03,1.51,10.59,1.98,15.53,1.68,31.36,1.49,46.93.77,9.57-.86,19.44-.97,28.23-5.31,4.9-2.14,10.18-4.32,13.3-8.9.44-.64.77-1.34,1.03-2.07.14-.7.47-1.59,1.35-1.35,2.21.85-1.74,5.88-2.74,6.78-3.43,3.67-8.23,5.49-12.72,7.5-3.81,1.66-7.75,3.05-11.87,3.62-12.35,1.65-24.82,2.19-37.28,2.13Z"/>
        <path class="cls-2" d="m80.36,153.73c-2.87-1.09-2.35-5.14.08-6.44.85-.57,2.79-.84,2.92.55,0,.93-.92.96-1.6.9-1.75.49-2.17,3.51.1,3.37,1.25-.16,1.15-1.69,1.22-2.6,3.12-2.88,2.34,6.33-2.72,4.22Z"/>
        <path class="cls-2" d="m83.32,152.85c-1.45-1.19,2.62-3.13-1.89-5.05-.23-.22-.35-.61-.24-.92.68-1.56,2.74-.03,3.47.79,1.28,1.2,1.11,6.14-1.33,5.17Z"/>
        <path class="cls-2" d="m67.51,220.43c-1.93.13.43-8.5.5-9.83,1.52-7.29,3.79-14.63,4.2-22.05.43-15.27.5-26.93,9.24-40.3.84-1.59,2.93-.14,1.51,1.13-11.22,17.37-6.9,29.21-9.93,47.52-1.23,6.21-3.04,12.31-3.98,18.57-.48,1.23.19,5.14-1.55,4.96Z"/>
        <path class="cls-2" d="m67.73,221.09c-.14-.5.17-1.01.66-1.16,1.36.08,1-.57,1.24-1.62.25-1.6.61-3.1,1.1-4.63,5.4-13.17,4.49-27.67,5.9-41.55.51-5.56,1.24-11.18,3.28-16.42,1.04-2.26,2.45-5.57,4.52-6.9,1.08-.16,1.49,1.45.45,1.81.1-.03.19-.09.27-.16-6.08,7.58-6.26,17.96-7.1,27.17-.85,12.48-.8,25.1-5.61,36.82-1.07,2.09-.38,5.96-2.43,7.15-.73.27-2,.42-2.29-.52Z"/>
        <path class="cls-2" d="m68.26,227.21c-1.27-.39.13-4.48-1.16-7.31-.06-.7.66-1.28,1.32-.99.78.45.73,1.61,1.02,2.4,1.74.24.61,2.66.57,3.81-.17.9-.49,2.54-1.76,2.09Z"/>
        <path class="cls-2" d="m33.72,149.95c-2.96-1.43-2.85-8.08,1.22-7.1,1.65.54.6,2.92-.77,1.73-2.33,1.85,2.06,6.71,1.28,1.21-.62-1.05,1.02-2.01,1.63-.95,1.31,2.11-.46,6.76-3.36,5.1Z"/>
        <path class="cls-2" d="m31.99,213.9c-.5-9.06-2.78-18.06-.99-27.12,1.8-12.75,6.97-25.86,2.47-38.58-1.16-1.61,1.49-3.28,2.3.84,4.2,14.45-2.5,28.87-3.47,43.26-.49,5.55.63,11.03,1.21,16.53-.11,1.37,1.3,5.96-.56,6.02-.52,0-.93-.43-.94-.94Z"/>
        <path class="cls-2" d="m32.85,215.6c-.31-.41-.24-1,.17-1.32.27-.21.64-.25.94-.12,1.24-2.23.37-5.11.37-7.5-.39-6.55-.61-13.14-.07-19.69.43-7.95,2.82-15.7,3.79-23.5.44-5.57-1.24-11-2.95-16.22-1.05-2.19,2.34-2.7,1.82-.48,1.78,5.35,3.45,10.97,3.02,16.66-.28,4.12-1.43,8.21-2.25,12.17-.8,4.27-1.27,8.7-1.67,13.01-.34,5.79-.18,11.61.16,17.4.06,2.79.81,5.75-.22,8.44-.4,1.25-2.09,2.58-3.11,1.17Z"/>
        <path class="cls-2" d="m33.6,221.42c-1.17-.21-.8-1.68-.92-2.54.04-.83-.52-2.1.47-2.54.23-.93-.08-2.33.87-2.88.72-.34,1.57.47,1.25,1.2-.61,1.5.23,7.08-1.67,6.77Z"/>
        <path class="cls-2" d="m32.6,221.36c-1.51-.99-.38-3.73-.6-5.33.01-.6-.09-1.21,0-1.82.08-.77,1.06-1.14,1.61-.58.26.24.34.65.24.98.08,1.66.01,3.32-.16,4.98,1.57.61.2,2.59-1.08,1.77Z"/>
        <path class="cls-2" d="m68.99,227.82c-1.19-.09-1.56-1.67-.3-1.97.07-1.31.1-2.61.19-3.92.09-.83-.22-2.23.99-2.27.51,0,.94.43.94.94-.02,1.5-.16,2.99-.2,4.48.02,1.1-.13,2.88-1.62,2.74Z"/>
        <path class="cls-2" d="m35.85,151.64c-.57-.38-.56-1.17-.82-1.75-.33-.93-.7-1.86-.96-2.81-.51-.23-.81-.95-.96-1.46.01-.51-.15-1.1.25-1.51.51-.53,1.47-.33,1.64.4.8.11,1.13,1.08.8,1.75.36,1.48,1.01,2.86,1.43,4.31.26.78-.7,1.5-1.38,1.06Z"/>
        <path class="cls-2" d="m78.47,157.3c-.84-.67.02-1.52.35-2.21.72-1.51,1.33-3.08,2.38-4.4-.41-1.04,1.52-2.43,2.44-2.32,1.09.12,1.26,1.68.2,1.99-.8,1-1.64,2-2.22,3.15-.64.97-1.57,4.9-3.15,3.79Z"/>
        <path class="cls-2" d="m67.87,220.41c.42-5.48,2.08-10.83,3.54-16.11.41-3.19.93-6.35,1.52-9.5.47-4.03.93-8.04.82-12.12.2-1.64-.6-7.07.86-7.71.13-2.66.53-5.29.88-7.92.35-1.63.28-3.63,1.39-4.95.83-3.1,2.02-6.11,3.22-9.07.56-1.01,2.16-.17,1.68.84-1.95,4.84-3.83,9.82-4.24,15.06-.22,1.57.34,5.78-.88,6.67-.25,4.06-.41,8.14-.84,12.18,1.03.5-.04,4.86-.04,6.03-.61,6.33-2.74,12.34-4.22,18.49-.55,2.3-1.12,4.59-1.6,6.9-.17.7-.12,1.78-1.04,1.9-.46.05-.9-.22-1.04-.68Z"/>
        <path class="cls-2" d="m32.63,214.36c-.35-10.74-1.41-21.7.22-32.39,1.08-5.86,3.48-11.56,3.78-17.55.27-3.41-.49-6.78-.3-10.18.09-.89-.13-2.37,1.09-2.45.51,0,.94.43.94.94-.46,3.27.13,6.4.22,9.57.04,4.92-1.14,9.63-2.53,14.3.81.71-.56,3.64-.62,4.75-.67,3.47-.77,7.01-.69,10.53-.25,2.02,2.61,27.01-2.1,22.47Z"/>
        <path class="cls-3" d="m31.4,55.8s-.08.04-.12.06c-.33.08-.65.15-.97.25-.12.03-.24.08-.36.13.48-.22.95-.37,1.45-.45Z"/>
        <path class="cls-3" d="m43.29,50.98c0,.05.02.1.04.15-.32-.24-.68-.45-1.05-.61.14.04.28.09.41.16.21.08.41.18.6.31h0Z"/>
        <path class="cls-3" d="m38.25,58.07s-.03-.02-.05-.02c.02,0,.04.02.06.03,0,0,0,0,0,0Z"/>
        <path class="cls-3" d="m33.19,57.54s-.06.03-.09.05c0,0,0,0-.01,0,.03-.02.07-.04.1-.06Z"/>
        <path class="cls-3" d="m46.64,54.73s0,.02,0,.03c0-.01,0-.02,0-.03Z"/>
        <path class="cls-3" d="m46.89,50.58s-.03-.05-.05-.08c.02.04.04.08.07.12,0-.01-.01-.02-.02-.04Z"/>
        <path class="cls-4" d="m69.02,101.09s-.03.08-.05.13c-.8,1.3-1.89,2.55-2.98,3.64-.3.38-.87.78-1.29,1.22,0,0,0,0,0,0-1.66,1.44-3.28,2.93-5.07,4.22-8.82,6.22-19.31,3.79-27.59-2.1-1.6-.93-3.85-3.18-5.8-3.49-.21-.3-.58-.43-.95-.42.02-.77.11-1.54.3-2.27.07,0,.13,0,.2-.01,1.34.52,2.44,1.26,3.82,1.89,4.1,1.92,8.68,2.77,13.2,2.99,6.39.42,13.06-1.26,18.52-4.71.7.1,1.53-.71,2.13-1.05,1.01-.67,1.96-1.43,2.73-2.36.17,0,.34-.06.48-.15.88.73,1.68,1.57,2.35,2.48Z"/>
        <path class="cls-5" d="m108.37,50.57c-1.11-.25-2.31-.24-3.4.01.04-1.48-.34-2.98-1.11-4.24-1.94-3.61-5.33-4.35-8.96-4.35-1.26,0-2.55.09-3.82.18-1.58.11-3.12.22-4.54.16-7.25-.18-7.79-7.53-13.21-10.64-4.82-2.83-9.7.78-14.14,2.58-2.94,1.22-5.24.33-7.44-.56-3.01-1.22-5.84-2.44-9.87,1.77-.28.3-.54.61-.79.93,0,0,0,0,0,0-.01.02-.02.03-.03.05t0,0c-.04.06-.07.12-.11.18-.14.25-.29.5-.43.75-.05.08-.09.16-.14.24-.01.02-.02.04-.03.06-.01.02-.02.03-.03.05h0c-.1.18-.21.35-.33.52-.03.05-.07.09-.1.14-.1.14-.21.27-.32.41-.06.08-.11.15-.17.23-.03.04-.06.08-.08.12-.01.01-.02.03-.03.04-.05.07-.09.14-.14.2-.05.08-.11.17-.16.26,0,.02-.02.03-.03.05,0,0,0,.01-.01.02-.14.24-.29.47-.44.7-.06.08-.11.17-.16.25-.03.06-.05.12-.08.19-.02.06-.05.12-.07.18-.01.04-.03.08-.04.13-.02.05-.04.1-.06.16-.03.08-.07.16-.1.24-.06.14-.12.28-.18.42-.02.05-.05.09-.07.14,0,0,0,0,0,.01,0,0,0,0,0,0h0s0,0,0,0c0,0,0,0,0,.01,0,0,0,0,0,0,0,0,0,0,0,0h0s-.05.09-.07.14c-.11.2-.23.39-.36.58-.01.02-.02.04-.04.06,0,0-.01.02-.02.03,0,0,0,0,0,0h0s-.01.02-.02.03c-.01.01-.02.03-.03.05-.06.08-.11.16-.17.24,0,0,0,0,0,.01-.08.12-.16.23-.24.35,0,0,0,0,0,0,0,0,0,0,0,0,0,0-.01.02-.02.02,0,0,0,0,0,0,0,0-.01.02-.02.03-.02.03-.03.05-.05.08-.07.12-.14.24-.21.35,0,0,0,0,0,0-.04.07-.08.14-.12.22-.08.14-.16.28-.24.41-.02.03-.03.05-.05.08-.02.03-.04.06-.06.1,0,.01-.02.02-.02.04-.03.05-.07.1-.1.15-.13.18-.25.37-.38.55-.13.18-.27.36-.42.52-.14.15-.27.3-.41.44-.09.09-.17.17-.27.24-.17.14-.35.28-.52.43-.01.01-.03.02-.04.03,0,0,.01-.01.02-.02-.04.04-.08.07-.13.11-.01.01-.02.02-.04.03-.03.03-.07.06-.1.09-.09.09-.18.18-.27.26-.14.13-.28.23-.43.34.02-.01.04-.03.06-.04-.15.11-.29.24-.44.36-.24.19-.49.34-.75.5-.27.17-.52.37-.82.5-.22.1-.46.17-.69.22-.13.03-.26.06-.39.08-.64.26-1.3.45-1.98.55,0-.02.02-.03.02-.05-.02,0-.05.01-.08.02-.1.02-.2.03-.3.03,0,0,0,0,0,0,0,0,0,0,0,0,0,0,0,0-.01,0,0,0,0,0-.01,0-.1,0-.21.01-.32.02.05,0,.1,0,.15,0-.14,0-.27.04-.4.05-.05,0-.1,0-.14,0-.02,0-.04,0-.05,0-.04,0-.09,0-.13,0-.1,0-.2-.01-.31-.02-.17-.01-.33-.02-.49-.06,0,0,0,0,0,.01-.58-.09-1.18-.25-1.77-.5-.27-.06-.53-.18-.77-.32-.12-.05-.24-.11-.36-.16-.16-.08-.33-.16-.49-.24-.02,0-.03-.02-.05-.03-.07-.04-.14-.08-.21-.11-.09-.05-.18-.1-.26-.15-.06-.04-.13-.07-.19-.11-.06-.04-.13-.07-.19-.11-.06-.04-.13-.08-.19-.12l-.09-.06c-.06-.04-.12-.09-.18-.14-.03-.02-.06-.05-.08-.07-.16-.15-.3-.31-.41-.51-.37-.32-.73-.65-1.07-1-.23-.19-.45-.39-.65-.61-.3-.32-.56-.69-.79-1.07-.05-.08-.1-.16-.15-.23-.05-.08-.1-.16-.15-.24,0,0,.01.02.02.03-.01-.02-.02-.04-.04-.05-.02-.03-.04-.06-.06-.09-.04-.05-.08-.1-.12-.15-.06-.08-.12-.16-.18-.23-.12-.16-.24-.32-.36-.49-.11-.15-.23-.3-.35-.46-.17-.23-.28-.48-.39-.74-.09-.22-.16-.44-.23-.66,0,0,0-.02,0-.03-.02-.07-.04-.14-.07-.21-.03-.09-.06-.19-.09-.28-.03-.09-.06-.19-.09-.28,0-.02-.01-.03-.02-.05,0-.01,0-.02-.01-.04-.01-.03-.02-.06-.03-.09-.08-.23-.15-.46-.22-.7,0,0,0,0,0,0,0,0,0,0,0,0,0,0,0,0,0,0h0s0,0,0,0c0,0,0,0,0,0,0,0,0-.01,0-.02,0,0,0,0,0,0,0,0,0,0,0-.01,0,0,0,0,0,0,0,0,0,0,0,0,0,0,0,0,0,0h0s0-.02,0-.03c0,0,0-.01,0-.02-.02-.06-.03-.11-.05-.17-.12-.42-.2-.84-.24-1.27-.05-.42-.05-.83-.04-1.25,0-.13.01-.26.02-.39.02-.35.1-.7.19-1.04.03-.71.1-1.42.24-2.12.09-.44.2-.88.33-1.31,0-.2.07-.4.13-.58.07-.25.16-.5.26-.75.04-.1.09-.21.14-.31.04-.17.09-.33.13-.5,0,.02-.01.04-.02.07.01-.05.03-.1.05-.15,0,0-.01-.01-.02-.02.16-.34.32-.67.47-.99,2.55-5.5,6.97-10.52,12.81-12.68-4.1,3.98-5.97,7.76-1.71,12.55.95.9,1.91,2.23,3.11,2.9.06.11.16.21.28.29.24.17.58.19.96.11.05,0,.09,0,.14.01.67,0,1.07-.26,1.24-.54,1.63-.84,3.54-2.35,4.43-2.78,1.7-1.1,3.45-2.14,5.27-3.05,3.55-1.78,7.46-2.7,11.37-3.25,8.24-1.29,16.76-.49,24.59,2.4,5.4,1.8,10.74,4.09,15.04,7.95,4.82,4.57,10.76,10.95,13.78,17.55Z"/>
        <path class="cls-5" d="m109.95,55.21c.31,1.53.51,3.06.62,4.59-.7-.71-1.41-1.34-1.69-1.62-1.59-1.47-3.59-2.59-5.73-3.1.71-.72,1.2-1.6,1.49-2.55h.04c.45-.06.88-.18,1.34-.2,1.06-.04,2.22-.07,3.14.54.05.03.1.06.15.08.26.76.47,1.51.63,2.27Z"/>
        <path class="cls-5" d="m110.69,62.74c.02,3.08-.26,6.17-.64,9.25-.16-.44-.33-.87-.49-1.29-1.06-2.61-2.95-4.86-5.33-6.38-1.97-1.69-6.56-1.48-5.41-5,.46-1.31,1.56-2.13,2.66-2.91.09.14.23.25.41.31,3.98.58,6.28,3.35,8.8,6.02Z"/>
        <path class="cls-1" d="m119.6,62.95c-.01.11-.03.21-.04.32-.15,1.34-.27,2.67-.35,4.01-.16,2.55-.24,5.1-.33,7.66-.06,1.74-.11,3.49-.16,5.23-.12,2-.23,4-.34,5.99-.07,1.38-.11,2.75-.13,4.13,0,.09,0,.18,0,.27-1.07-.02-2.15-.04-3.22-.06.25-1.06.48-2.13.7-3.19,1.41-7.46,1.91-15.09,1.5-22.68-.01-.65-.05-1.3-.1-1.95.82.07,1.65.16,2.47.26Z"/>
        <path class="cls-1" d="m115.5,69.51c.2,7.12-.93,14.07-2.46,20.96-1.11-.02-2.22-.05-3.34-.07.26-2.52.49-5.04.79-7.55.76-6.78,2.16-13.62,2.08-20.45.38.02.76.04,1.14.06.48.03.97.05,1.45.09.2,2.33.3,4.66.33,6.97Z"/>
        <path class="cls-1" d="m13.04,59.68l1.88.06c-1.15,2.72-2.05,5.52-2.82,8.36,0-.13-.02-.26-.02-.38-.03-.95.02-1.9.11-2.85h0s0-.08.01-.11c.17-1.67.47-3.38.84-5.07Z"/>
        <path class="cls-1" d="m20.44,59.89c.1,0,.2,0,.3,0-3.27,6.68-5.65,13.77-6.46,21.21-.29,2.22-.41,4.44-.39,6.66-1.14-.04-2.27-.07-3.41-.11.4-7.95,2.46-15.82,4.74-23.42.54-1.49,1.12-2.98,1.73-4.44.44.01.88.03,1.32.04.72.02,1.45.04,2.17.06Z"/>
        <path class="cls-2" d="m27.86,57.04c-.77-.18-.95-1.35-.23-1.72.41-.21.83-.41,1.24-.62,1.65-.78,3.52-1.05,5.34-1.06,1.68-.03,3.37.17,4.99.62.92.19,1.95.42,2.87.17.56-.35,1.01-1.08.44-1.63-.7-.01-1.32-.54-2.06-.49-.82-.08-2.02.37-2.22-.78-.09-1.03.92-1.13,1.7-1.12.46,0,.92.03,1.37.1.46-.16.98-.05,1.41.16,1.56.58,2.51,2.5,1.65,3.99-1.31,2.56-4.37,1.72-6.62,1.18-1.89-.36-3.87-.47-5.77-.13-.55.12-1.1.24-1.64.4-.86.22-1.56,1.03-2.46.92Z"/>
        <path class="cls-6" d="m31.78,69.87c.92-.05,1.85-.04,2.74.16-1.74-.94-3.94-1.52-6.08-1.52-1.61,0-3.2.33-4.53,1.09-1.2,1.03-2.63,2.33-2.9,3.94-.01,1.19,1.84,1.23,1.88.05.5-.81,1.1-1.58,1.81-2.21,2.02-1.39,4.69-1.31,7.08-1.51Zm2.25-12.79c.08-.01.17-.02.25-.03-.11,0-.22-.01-.33-.02,0,0,0,.01,0,.02.02.01.05.02.07.03Zm10.33-3c0-.31.08-.66.14-.97-.08-.82-.42-1.59-1.1-2.17-.04-.05-.08-.1-.12-.16,0,.07.01.13.02.2-.19-.12-.39-.23-.6-.31-.13-.06-.27-.12-.41-.16-.44-.2-.9-.33-1.37-.4-3.6-.54-7.21,1-10.32,2.68-1.29.75-2.51,1.6-3.74,2.44-1.14.5-3.45,2.41-1.44,3.3,1.16.2,2.07-.79,2.98-1.36.31-.22.6-.41.88-.58.02-.01.04-.02.05-.03,0,0,0,0,.01,0,.14-.1.3-.18.45-.25,1.44-.91,3.19-1.29,4.88-1.14,2.4.28,4.78.78,7.21.68,1.27.04,2.04-.77,2.49-1.79Zm6.46,16.8c.09-1.17,1.34-4.71-.48-4.85-.95,0-.98,1-.97,1.72-.06.82-.17,1.63-.33,2.43-.93,4.7-4.27,8.5-7.67,11.69-1.3,1.17-2.7,2.4-3.22,4.14-.93,2.82.66,6.27,3.51,7.24.63.23,1.36.03,1.85-.42-.19.07-.43.12-.65.13-1.24.03-2.02-1.3-2.57-2.26-1.23-2.36-.44-5.24,1.67-6.81,3.87-3.55,7.73-7.75,8.87-13.02Zm1.37,48.33c-.17.01-.37.05-.55.06-3.87.14-7.84-.59-11.44-2.06-.51,0-.94.43-.94.94.13,1.42,3.58,1.95,4.8,2.18,2.73.28,5.65.17,8.13-1.13Zm19.43-9.56c1.82-3.98.5-8.84-2.84-11.61-.95-.79-4.12-4.19-4.7-1.65,0,.54.39.77.8.99-.75.98-1.77,1.7-2.79,2.39-.29.2-.71.4-1.03.65-8.39,4.16-15.38,6.21-26.24,3.37-1.82-.47-3.53-1.16-5.25-2-.94-.36-2.15-1.35-3.3-1.63.25-.48.54-.93.9-1.36,0,0,0,0,0,0,.56-.87-.67-1.89-1.42-1.18-3.14,3.36-2.41,8.69.37,12.05-.33-1.05-.59-2.18-.73-3.32,2.55.84,4.52,2.83,6.82,4.2,4.4,2.8,9.36,4.99,14.62,5.3,6.29.41,12.52-2.3,17.06-6.59.47-.43.93-.88,1.37-1.34h0c.21-.02.42-.11.57-.27,1.53-1.5,3.11-2.99,4.31-4.77,1.09,2.06,1.64,4.38,1.47,6.77Zm5.81-31.12c1.59-.2.85-2.42.4-3.38-2.14-3.82-8.28-4.3-12.18-3.68-1.71.27-3.26,1.04-4.84,1.73,1.68-.14,3.39-.34,5.09-.34.54,0,1.07.02,1.61.07,3.47.4,9.05.52,9.1,5.13.16.29.49.47.82.47Zm3.23-19.43c3.72,1.17-.32-5.93-1.33-6.85-2.38-3.06-5.91-4.59-9.52-5.62-2.54-1.03-7.76-.43-6.98,3.3.92,2.63,4.28,2.44,6.55,2.21.21-.01.42-.02.63-.02,1.61,0,3.22.32,4.75.86,2.1.64,3.88,2.14,4.89,4.09.39.65.45,1.51,1.02,2.04Zm18.47,29.59c.48,1.13,2.22.38,1.74-.73-.49-1.06-1.08-2.08-1.92-2.9-.43-.5-1.35-1.13-2.04-1.13-.44,0-.79.25-.88.92-.02.69.64.85,1.11,1.14.93.67,1.51,1.69,1.99,2.71Zm2.1-3.12c.6,1.06,2.24.1,1.63-.95-1.06-2.14-2.63-3.98-4.43-5.54-.16-.31-.49-.47-.83-.47-.28,0-.57.12-.75.36-.49.63.03,1.36.58,1.73,1.54,1.39,2.87,2.97,3.79,4.86Zm3.36-2.03c.73.35,1.59-.5,1.23-1.23-.56-1.13-1.15-2.24-1.79-3.38-.89-1.58-1.89-3.14-3.25-4.36-.51-.56-1.82-1.5-2.68-1.5-.49,0-.84.31-.81,1.17.07.31.35.58.66.66.56.19,1.01.59,1.46.97,2.07,1.86,3.23,4.46,4.53,6.87.14.3.31.67.65.8Zm2.25-2.69c.47,1.13,2.21.38,1.73-.73-.33-.8-.63-1.61-.94-2.41-1.8-4.06-4.7-10.25-9.52-11.05-.94.12-1.1,1.48-.22,1.81.43.1.85.25,1.25.46,4.12,2.59,5.97,7.6,7.7,11.93Zm2.69-5.01c-.47,3.35-.98,6.7-1.27,10.04-.04.56-.08,1.11-.13,1.67-.83-.24-1.99.74-2.7,1.12-.62.53-1.61.86-1.83,1.7-.07.51.3.99.8,1.06,1.2-.15,2.01-1.43,3.17-1.84.12-.04.25-.1.38-.16-.72,7.08-2.12,14.05-3.76,20.99-1.35.71-3.37.06-4.46-1.08-.85-.49-1.12-2.38-2.37-1.54-1.04,1.1.51,2.71,2.15,3.72-5.8,10.59-10.82,12.2-20.75,18.21,3.63-.61,6.96-1.89,9.96-3.7-.01.03-.02.05-.03.08-.12.3-.26.59-.38.88-.02.06-.04.13-.05.19-.14.3-.28.6-.42.9-.09.18-.17.37-.26.55-.11.23-.25.47-.28.72-.08.58.39,1.03.71,1.45.25.32.49.64.74.96.21.27.43.53.62.8.08.25.14.51.21.76.07.27.15.53.22.8.15.56.3,1.11.46,1.67.01.04.03.08.05.12-4.82,5.27-9.79,10.43-15.12,15.17-.52.25-1.06.71-1.53.87-.86.43-1.86.83-2.88,1.19-4.16,1.26-8.59,2.31-12.98,2.31-1.36,0-2.71-.1-4.05-.32-3.4-.49-6.79-1.37-9.68-3.3-.15-.12-.3-.2-.46-.25-2.78-3.09-5.61-6.15-7.96-9.63-.86-1.37-1.71-2.75-2.54-4.14.96.28,1.92.55,2.88.81.24.1.47.21.7.33.04.02.07.04.11.06.16.11.32.23.48.33,1.13.77,2.27,1.52,3.42,2.26,1.06.67,2.12,1.34,3.19,2t0,0s0,0,0,0c-.38-.35-.75-.69-1.13-1.04.16.1.32.19.49.27-1.07-.72-3.1-4.11-1.51-4.99,3.8,1.62,7.9,2.59,12.2,2.76,3.81.38,7.64-.9,10.73-3.07-6.71,1.86-13.92,1.53-20.5-.74-7.23-2.58-13.38-7.73-17.81-13.97-3.04-4.36-4.81-9.62-6.5-14.7-5.26-12.51-5.26-26.76-.79-39.52,1.57-4.34,3.57-8.51,5.86-12.52.71-1.27,1.37-2.51,2.01-3.8h.02c5.44,0,10.18-4.96,12.49-9.53.38-.71.73-1.43,1.07-2.16h0c.25-.38.49-.75.72-1.13,4.44-6.65,6.74-5.25,10.09-3.86,1.53.64,3.27,1.27,5.54,1.15,5.14-.32,9.34-5.59,14.66-3.82,6.02,2.79,6.02,10.36,13.87,11.19,1.68.24,3.65.09,5.66-.05,5.11-.37,10.47-.73,11.92,5.16.7,2.7-1.09,4.92-3.32,6.18-2.54,1.64-4.28,5.88-1.44,8.04,1.67,1.09,3.72,1.47,5.35,2.69,4.04,2.71,4.21,5.96,5.97,9.7Z"/>
        <path class="cls-2" d="m36.29,88.45c-10.42-.33-20.85-.58-31.27-.99,0-.07,0-.14,0-.21,0-1.09.05-2.18.14-3.27.02-.28.05-.56.08-.83.02-.25.07-.5.08-.75.02-.5.02-1,.02-1.5,0-.07,0-.14,0-.22.04-.36.07-.71.1-1.07.12-1.46.35-2.9.46-4.36.04-.57.12-1.14.18-1.7.07-.59.12-1.17.18-1.76.06-.58.17-1.15.24-1.73.02-.17.05-.36.06-.54.01-.12.02-.24.03-.36.01-.13.02-.25.03-.38.02-.3.04-.6.07-.89.05-.55.11-1.09.16-1.63.05-.58.08-1.16.14-1.74.05-.5.08-1,.1-1.51,0-.09,0-.18.01-.27l.04-.41c.08-.7.15-1.4.21-2.1.02-.24.04-.48.05-.73,11.59.38,23.18.68,34.77.9,23.85.62,47.72.84,71.55,2.05,1.97.1,3.93.27,5.88.5-.01.11-.03.21-.04.32-.15,1.34-.27,2.67-.35,4.01-.16,2.55-.24,5.1-.33,7.66-.06,1.74-.11,3.48-.16,5.23-.12,2-.23,4-.34,5.99-.07,1.38-.11,2.75-.13,4.13,0,.09,0,.18,0,.27-27.31-.51-54.65-1.46-81.95-2.12Z"/>
        <path class="cls-7" d="m145.58,180.98s0,.01,0,.02c-.04.12-.07.25-.09.37-.26.73-.59,1.43-1.03,2.07-3.13,4.58-8.4,6.76-13.3,8.9-8.79,4.34-18.66,4.45-28.23,5.31-8.76.41-17.59.64-26.42.48.87-6.75,1.07-13.64,1.53-20.48.65-7.16.91-15.03,3.84-21.73,4.53-3.58,8.66-7.64,12.04-12.36,11.52-16.13,13.49-18.59,17.44-38.22,1.11-4.97,2.49-9.87,3.63-14.82,1.07.02,2.15.04,3.22.06,0-.09,0-.18,0-.27.02-1.38.06-2.76.13-4.13.11-2,.22-4,.34-5.99.04-1.74.1-3.49.16-5.23.09-2.55.17-5.11.33-7.66.08-1.34.21-2.68.35-4.01.01-.11.03-.22.04-.32-.82-.1-1.64-.18-2.47-.26-.23-2.93-.8-5.83-1.35-8.72-.94-4.55-2-9.18-4.52-13.17-7.05-9.71-16.92-17.31-27.82-22.25-5.3-1.94-10.87-3.5-16.56-3.37-7.11.69-14.26,1.73-21.19,3.47-4.13,1.11-7.54,3.84-10.84,6.43-1.45,1.25-3.23,2.29-4.46,3.75-.26-.34-.52-.68-.76-1,.17-.09.32-.25.4-.48,3.85-4.62,8.55-8.55,14-11.17,4.87-2.32,9.72-4.73,14.76-6.67,5.07-1.47,10.29-2.5,15.53-3.15,13.12-2.6,26.87,2.04,36.89,10.64,4.42,3.92,8.34,8.38,12.02,12.98,2.3,3.03,4.66,6.05,6.44,9.41,1.75,3.53,2.79,7.36,3.68,11.19,2.19,10.45,5.28,20.86,5.24,31.62-.22,17.53-5.68,35.51-17.66,48.65-2.09,2.32-4.25,4.57-6.46,6.76-.3.09-.53.33-.63.62-3.85,3.79-7.86,7.42-11.93,10.97-4.32,3.48-8.76,7.59-10.53,13.05,4.65-5.59,10.25-10.36,15.72-15.15,2.68-2.41,5.34-4.86,7.93-7.39,4.31,1.88,8.86,3.35,12.32,6.73,4.53,4.01,7.68,9.38,10.24,14.8,1.84,3.83,3.56,7.7,5.28,11.58,1.03,2.67,2.12,5.3,2.71,8.14Z"/>
        <path class="cls-7" d="m115.17,62.53c-.48-.03-.97-.06-1.45-.09-.38-.02-.76-.04-1.14-.06-.02-2.12-.19-4.24-.56-6.35-.9-6.29-4.76-11.63-8.69-16.43-4.3-5.37-9.27-10.41-15.61-13.31-5.62-2.62-11.61-4.57-17.73-5.64-8.29-.99-16.96-.4-24.82,2.51-4.67,1.75-8.54,4.96-12.92,7.26-.17-.04-.32-.04-.45,0-.08-.07-.16-.15-.24-.24.3-.21.55-.5.84-.74,3.95-3.1,7.83-6.83,12.65-8.64,6.99-2.05,14.33-2.92,21.55-3.75,9.35-.2,18.35,3.59,26.05,8.66,6.84,4.79,13.51,10.37,17.89,17.57,2.69,6.04,4.05,12.62,4.62,19.23Z"/>
        <path class="cls-7" d="m20,49.68c-.15.26-.28.49-.4.66-1.53,2.57-2.91,5.22-4.06,7.98-.22.47-.42.94-.62,1.41l-1.88-.06c.04-.16.07-.32.11-.48,0,0,0,0,0,0,0,0,0-.01,0-.02,0,0,0,0,0-.01h0s0-.04.01-.06c0,0,0,0,0,0h0s0-.04.01-.06c.06-.24.11-.47.17-.71.55-2.21,1.22-4.38,2.02-6.51h0s.01-.04.02-.06c.15-.38.32-.81.48-1.23.46-1.17.89-2.36,1.36-3.52.81,1,1.73,1.91,2.76,2.67Z"/>
        <path class="cls-7" d="m24.95,52.04c-.29.57-.58,1.14-.89,1.71-1.18,2.01-2.3,4.06-3.32,6.15-1.26-.03-2.53-.07-3.79-.11,1.03-2.44,2.17-4.84,3.49-7.13.38-.65.75-1.31,1.14-1.96,1.05.59,2.18,1.04,3.38,1.33Z"/>
        <path class="cls-7" d="m33.96,142.76c-1.32.1-2.05,1.19-2.24,2.51-1.91-2.48-3.7-4.84-5.16-7.05-3.78-5.84-6.57-12.22-9.14-18.66-3.73-8.31-6.1-17.18-6.93-26.28-.11-1.88-.1-3.75-.01-5.62,1.14.04,2.27.08,3.41.11.03,3.44.38,6.87.93,10.29.82,4.51,2.62,8.68,4.08,13.02,1.11,4.08,2.85,7.96,5.11,11.5,1.05,3.47,2.25,6.95,4,10.14,1.9,3.39,3.82,6.78,5.95,10.03Z"/>
        <path class="cls-7" d="m109.71,90.39c1.11.02,2.22.05,3.34.07-1.26,5.71-2.79,11.39-4.07,17.09-1.45,6.05-2.47,12.32-5.36,17.89-1.82,3.71-4.31,7.01-6.6,10.43-3.13,4.68-6.36,9.24-10.3,13.31-.4.43-.83.85-1.27,1.28,0-.14,0-.27,0-.4.08-.25.05-.53-.08-.77-.12-.69-.36-1.29-.71-1.62-.37-.41-1.08-1.01-1.77-1.29,1.87-1.91,3.7-3.85,5.56-5.75,3.73-3.94,7.61-7.81,10.38-12.54,3.15-5.47,6.25-11.11,7.23-17.43.88-4.29,2.08-8.51,2.73-12.84.39-2.47.67-4.94.93-7.43Z"/>
        <path class="cls-7" d="m78.41,150.76c0,.64.15,1.27.48,1.8-.89,1.67-1.66,3.33-2.31,4.98-7.94,5.82-16.69,11.98-18.74,19.68,4.83-6.46,11.19-11.66,17.61-16.54-2.82,8.73-2.94,17.46-3.24,27.87-.17,3.15-.68,6.28-1.33,9.4-4.98-.2-9.94-.54-14.87-1.08-3.56-.46-7.11-1.08-10.59-1.98-3.28-.87-6.38-2-9.55-3.1.03-1.07.08-2.13.14-3.2.4-4.31.87-8.74,1.67-13.01.82-3.96,1.97-8.06,2.25-12.17.08-1.1.09-2.19.03-3.29,2.86,5.02,5.08,10.51,6.37,16.14.98-6.87-2.44-13.95-6.94-20.65-.5-2.59-1.26-5.15-2.07-7.65.05-.18.1-.36.13-.55,2.12,2.58,4.38,5.04,6.66,7.48,3.28,3.99,6.18,9.56,12.06,9.64,7.22.26,13.96-6.95,19.64-11.59.2-.13.37-.27.51-.41.32-.25.63-.49.94-.73.39-.34.78-.69,1.16-1.05Z"/>
        <path class="cls-7" d="m34.55,152.11c2.39,11.48-1.94,23.22-3.56,34.66-.21,1.08-.37,2.15-.47,3.22-7.12-2.42-14.46-4.79-20.22-9.82-2.46-2.22-4.82-5.16-4.9-8.61.15-.15.25-.37.25-.64.06-1.9.46-3.77.79-5.63.18-.74.39-1.78.54-2.6.01-.07.02-.16.01-.26.59-1.89,1.17-3.79,1.77-5.67,1.34-3.87,3.48-7.53,5.77-10.96,2.4-3.33,5.5-6.87,9.65-7.83.36.59.74,1.17,1.12,1.74,2.97,4.21,6.19,8.24,9.24,12.4Z"/>
      </g>
    </g>
  </g>
</svg>