<?xml version="1.0" encoding="UTF-8"?>
<svg id="Ebene_2" data-name="Ebene 2" xmlns="http://www.w3.org/2000/svg" viewBox="0 0 74 99.21">
  <defs>
    <style>
      .cls-1 {
        fill: #fff;
        stroke-width: 0px;
      }
    </style>
  </defs>
  <g id="Ebene_1-2" data-name="Ebene 1">
    <g id="Hybrid">
      <path class="cls-1" d="m70.39,36.89c.11-1.36.82-2.24,1.41-3.28.72-1.29,1.47-2.56,2.2-3.84-.11-.08-.21-.16-.32-.24-.29.16-.61.27-.86.48-1.32,1.08-2.61,2.18-3.93,3.26-.4.33-.8.69-1.27.91-1.96.9-4.01,1.64-5.4,3.44-.24.31-.84.73-1.05.62-.73-.37-.99.16-1.29.54-.57.74-1.07,1.53-1.62,2.33-1.09-.91-1.54-.06-2.05.68-.33.47-.8,1.39-.97,1.34-1.7-.51-1.5,1.05-2.05,1.76-.28.36-.5,1.13-.71,1.11-1.62-.11-1.6,1.24-2.08,2.16-.15.29-.39.83-.51.81-1.29-.22-1.38.79-1.72,1.56-.14.31-.36.81-.56.81-1.3.02-1.31,1.14-1.75,1.9-.79,1.38-1.6,2.75-2.42,4.13-.06.09-.16.2-.26.22-1.18.2-1.12,1.2-1.32,2.02-.1.4-.12.83-.28,1.19-.77,1.75-1.58,3.5-2.39,5.23-.15.32-.36.6-.54.91.18-1.16.48-2.23.95-3.22,1.47-3.09,1.79-6.61,3.69-9.54.24-.37.34-1.16.12-1.44-.49-.61-.23-1.08-.04-1.62.29-.83.98-1.8.76-2.47-.5-1.5.37-2.55.69-3.78.13-.49.31-1.36.13-1.46-1.21-.7-.49-1.48-.2-2.23.43-1.11.94-2.2-.67-2.76,1.74-3.58,1.76-3.95.28-4.73.48-1.69.93-3.24,1.39-4.83-.7-.08-1.11-.12-1.58-.17.25-.93.51-1.71.66-2.51.11-.56.26-1.24.04-1.7-.15-.31-.92-.31-1.35-.43.19-1.29.35-2.5.55-3.71.16-1-.21-1.53-1.23-1.4-.04-.26-.1-.39-.07-.48,1.07-2.82-1.09-5.21-1.07-7.89,0-.19-.28-.36-.38-.56-.27-.54-.65-1.07-.73-1.64-.31-2.32-.52-4.66-.79-6.98-.06-.47-.24-.93-.36-1.4-.14,0-.27,0-.41,0-.18.59-.32,1.2-.55,1.77-1.1,2.7-.41,5.96-2.58,8.32-.31,2.35-1.94,4.36-1.73,6.85.03.29-.21.85-.35.86-1.35.09-1,1.11-1,1.83,0,.99.16,1.97.26,3.13-1.38-.23-1.51.57-1.42,1.53.08.93.18,1.85.28,2.89-.77-.08-1.2.18-1.04,1.05.15.8.25,1.62.3,2.44.03.44.11,1.06-.13,1.32-.93.97-.5,1.97-.24,2.97.18.72.49,1.41.8,2.25-1.13.07-1.24.69-1.06,1.49.15.63.29,1.26.41,1.89.05.27.15.72.03.82-1.32,1.01-.35,2.14-.19,3.21.09.57.6,1.28.4,1.65-.65,1.25.09,2.27.29,3.38.07.4.4.93.25,1.15-.88,1.26.05,2.21.42,3.27.17.49.57,1.15.4,1.45-.63,1.05-.11,1.94.16,2.86.71,2.42,1.47,4.82,2.22,7.23.27.87.57,1.74.85,2.61-.6-.66-.98-1.4-1.21-2.17-.77-2.56-2.46-4.75-2.95-7.42-.06-.35-.43-.65-.68-.95-.34-.42-.75-.79-1.04-1.24-.31-.49-.38-1.26-.8-1.52-.91-.57-1.09-1.47-1.51-2.29-.22-.44-.7-1.15-.93-1.1-.98.19-.81-.57-1.08-1-.35-.55-.75-1.4-1.23-1.48-.79-.13-.87-.54-1.12-1.09-.3-.67-.78-1.8-1.17-1.8-1.3,0-1.26-.98-1.68-1.66-.33-.53-.92-1.49-1.09-1.43-1.15.43-1.24-.5-1.63-1.07-.36-.52-.75-1.02-1.11-1.51-.46.24-.79.41-1.06.55-.64-.87-1.18-1.63-1.76-2.37-.17-.22-.56-.57-.65-.51-1.17.69-1.32-.52-1.91-.95-1.38-1-2.7-2.22-4.25-2.82-1.16-.44-2.02-1.1-2.9-1.83-1.03-.87-2.05-1.76-3.1-2.6-.26-.21-.64-.27-.97-.4.74,1.86,1.7,3.46,2.66,5.07.24.4.54.8.63,1.24.4,2.05,1.07,3.97,2.5,5.56.24.27.58.84.47.99-.63.89.11,1.31.55,1.77.51.54,1.12.99,1.81,1.58-1.09.35-.81.85-.31,1.34.51.49,1.5.98,1.48,1.42-.12,1.85,1.41,2.17,2.4,3.01.17.14.46.4.42.48-.63,1.33.67,1.37,1.24,1.88.38.34,1.17.66,1.14.92-.1,1.03.71,1.26,1.22,1.76.36.36.69.75,1.03,1.13.46.5.86,1.07,1.38,1.5,1.28,1.03,2.98,1.76,3.85,3.05,1.17,1.74,3.23,2.07,4.53,3.63,1.02,1.22,2.88,1.74,4.36,2.57.81.46,1.61.93,2.41,1.39-1.76-.31-3.31-1.11-4.95-1.39-2.72-.48-5.5-.66-8.27-.91-.96-.09-1.96-.12-2.91.02-1.78.26-3.53.66-5.3,1-2.57.49-5.14.98-7.7,1.49-.08.02-.13.17-.32.45.54.17,1,.33,1.48.46.74.19,1.49.32,2.22.55,2.48.8,4.91,1.85,7.44,2.38,2.18.45,4.49.34,6.74.43.86.03,1.73-.04,2.6-.12,2.07-.21,4.13-.47,6.19-.71-2.11,1.66-4.18,3.27-5.91,5.61,4.59-1.19,8.36-3.27,11.58-6.94,1.13,5.13,2.43,9.79,4.57,14.17,2.14,4.37,4.09,8.84,6.86,12.89-.29-1.87-1.25-3.46-2.05-5.11-.82-1.69-1.72-3.34-2.54-5.02-.83-1.68-1.67-3.37-2.38-5.1-.72-1.73-1.35-3.5-1.9-5.29-.52-1.72-.89-3.49-1.32-5.24.11-.05.22-.09.33-.14,2.7,3.24,6.09,5.37,10.3,6.66-2.09-3.22-4.9-5.26-8.14-7.06,2.56.44,4.89.91,7.24,1.22,3.58.47,7.18.38,10.74-.17,1.47-.23,2.88-.82,4.31-1.25,2.23-.66,4.46-1.33,6.68-2,.08-.02.12-.18.32-.52-.61-.11-1.14-.21-1.66-.31-.97-.18-1.94-.35-2.9-.55-2.46-.52-4.9-1.22-7.39-1.53-1.83-.23-3.73.18-5.58.07-3.37-.21-6.57.38-9.72,1.51-.72.26-1.44.5-2.16.76.12-.45.34-.62.59-.76,1.64-.92,3.23-1.93,4.92-2.73,1.68-.8,2.57-2.64,4.45-3.13.29-.08.5-.46.74-.71.36-.36.69-.76,1.09-1.08,1.35-1.08,2.93-1.95,4.01-3.24.8-.96,1.48-1.98,2.51-2.71.12-.08.24-.34.2-.46-.33-.87.41-.92.87-1.23.62-.42,1.7-.94,1.69-1.38-.04-1.16.81-1.38,1.39-1.92.42-.4,1.23-.83,1.21-1.19-.1-1.25.85-1.67,1.5-2.34q.69-.72.09-1.73c.52-.45,1.07-.88,1.56-1.38.32-.33.85-.89.75-1.11-.57-1.24.49-1.75.94-2.56.64-1.16,1.53-2.35,1.63-3.58Z"/>
    </g>
  </g>
</svg>