<?xml version="1.0" encoding="UTF-8"?>
<svg id="Ebene_2" data-name="Ebene 2" xmlns="http://www.w3.org/2000/svg" viewBox="0 0 84.84 99.21">
  <defs>
    <style>
      .cls-1 {
        fill: #fff;
        stroke-width: 0px;
      }
    </style>
  </defs>
  <g id="Ebene_1-2" data-name="Ebene 1">
    <g id="Indica">
      <path class="cls-1" d="m0,33.1c2.15,1.04,4.31,2.05,6.45,3.12.61.3,1.07.82,1.88.36.3-.17.91.11,1.33.29.73.31,1.25,1.12,2.28.69.28-.12.86.35,1.23.63.63.49,1.2,1.05,1.82,1.6.34-.29.71-.84,1-.8.46.06.93.46,1.28.82.51.53.92,1.16,1.46,1.86.34-.36.64-.68,1.13-1.21.81.92,1.59,1.81,2.5,2.86.13-.24.3-.55.49-.88,1.55.75,1.83,2.32,2.77,3.35,1.01-.6,1.28-.56,1.79.42.38.75.64,1.56,1.01,2.47,1.15-.97,1.6-.1,2.1.7.41.67.52,1.62,1.77,1.43.29-.04.75.9,1.11,1.4.3.41.56.85.83,1.27.17-.09.34-.18.51-.26-.38-.93-.75-1.86-1.13-2.79-.31-.76-.7-1.53.4-1.93-.55-1.09-1.09-2.01-1.49-2.99-.28-.67-.5-1.4.32-2.01.23-.17.27-.73.23-1.09-.05-.41-.3-.79-.43-1.2-.55-1.65-.49-1.78,1.15-2.44-.54-1.58-2.14-2.84-1.6-4.88.5.1.95.18,1.57.3-.67-1.84-1.4-3.59-1.23-5.64.53.07.98.12,1.39.18-.19-1.54-.39-3.08-.61-4.83.87.19,1.4.31,2.05.46.05-1.83-.99-3.57-.2-5.46.55.14,1.03.26,1.56.39.11-1.37.19-2.68.32-3.98.04-.36.14-.98.32-1.02,1.36-.31.92-1.44,1.13-2.27.28-1.08.46-2.23,1.74-2.2.79-2.94,1.53-5.76,2.31-8.58.09-.33.35-.62.72-1.26.3.86.58,1.41.69,1.99.48,2.4.9,4.81,1.35,7.21.12.64,0,1.44,1.08,1.44.21,0,.53.49.62.81.17.61.21,1.26.32,1.88.07.36.09.92.3,1.02,1.82.81,1.23,2.37,1.22,3.73,0,.62-.14,1.23-.23,2,.65-.13,1.09-.23,1.67-.34.73,1.91-.17,3.64-.57,5.56.45-.07.79-.09,1.12-.17,1.09-.24,1.36-.03,1.19,1.1-.11.73-.34,1.44-.54,2.16-.14.49-.31.97-.51,1.59.77-.06,1.32-.11,2-.16.08,2-1.13,3.48-1.71,5.3h1.62c.37,1.96-.96,3.24-1.64,4.67.11.16.16.3.23.33,1.62.45,1.68.57.93,2.12-.32.67-.67,1.32-1.01,1.99.51.33,1.23.54,1.34.92.13.48-.19,1.11-.41,1.64-.22.54-.52,1.05-.83,1.54-.4.65-.78,1.19-.15,2.01.25.32-.03,1.09-.16,1.63-.12.51-.37.99-.56,1.48.14.06.28.11.42.17.22-.5.46-1,.66-1.51.37-.91.75-1.68,1.93-1.87.45-.07.84-.86,1.16-1.38.47-.77.9-1.42,1.91-.49.4-.94.71-1.78,1.1-2.57.38-.78.92-1.2,1.71-.39.86-1.14,1.67-2.22,2.55-3.39.41.44.64.69.82.89.8-.93,1.55-1.8,2.39-2.77.44.48.74.8,1.13,1.22.53-.66.99-1.3,1.51-1.88.97-1.08,1.18-1.09,2.31-.14.6-.5,1.18-1.04,1.83-1.5.54-.38,1.04-.94,1.87-.57.2.09.57-.16.84-.31.86-.49,1.62-1.26,2.77-.57.2.12.75-.25,1.09-.46,1.9-1.16,3.82-2.26,6.2-2.73-.18.4-.3.83-.54,1.18-.99,1.38-2.03,2.74-3.05,4.1-.51.69-1.33,1.2-.81,2.34.14.3-.49.98-.83,1.44-.36.5-.87.85-.66,1.66.09.37-.36.96-.7,1.32-.58.61-1.28,1.11-1.93,1.65.23.43.65.86.58,1.18-.09.4-.54.77-.92,1.03-.69.48-1.44.88-2.25,1.37.37.43.7.8,1.23,1.39-1.12.67-2.12,1.28-3.21,1.93.26.4.51.77.9,1.35-1.38.56-2.63,1.07-3.97,1.61.23.39.44.72.64,1.07-.94,1.13-2.29,1.14-3.6,1.42.15.58.26,1.01.42,1.64-1.01.32-1.96.62-2.95.93.06.41.34,1.01.14,1.29-.26.38-.87.56-1.36.73-.73.25-1.48.42-2.38.66.87.96,1.54.98,2.62.71,1.3-.33,2.82-.19,4.15.14.51.13,1.05.19,1.56.33,1.29.35,2.48,1.1,3.9.82,1.01,1.53,2.96.85,4.21,1.8,1.88,1.44,4.25,1.49,6.36,2.29.18.07.34.21.81.51-1.09.28-1.89.5-2.7.68-1.33.3-2.59.62-3.86,1.25-1.21.59-2.52,1.71-4.15,1.21-.17-.05-.54.02-.57.12-.4,1.2-1.37.55-2.1.76-1.2.34-2.26,1.2-3.63.69-.59,1.14-1.39.58-2.18.29-.27-.1-.77-.21-.86-.08-.69.92-1.41.49-2.12.11-.41-.22-.72-.36-1.1.09-.16.18-.62.28-.85.19-.67-.25-1.24-.47-1.93.03-.23.16-.79-.11-1.18-.24-.48-.16-.93-.39-1.39-.59-.1.08-.21.15-.31.23.1.41.09.91.33,1.21.4.51.93.93,1.45,1.33,1.14.86,1.81,2.01,2.52,3.24.72,1.24,1.35,2.53,2.07,3.78.68,1.18,1.25,2.43,1.85,3.65.15.31.24.65.36.97-.15.06-.21.11-.24.1-2.14-1-4.2-2.22-6.43-2.94-1.12-.36-1.8-1.36-3.1-1.47-.78-.07-1.47-1.17-2.2-1.83-.98-.89-2-1.74-2.92-2.7-.9-.94-1.69-1.98-2.51-2.99-.16-.2-.23-.47-.34-.71-.18.1-.35.2-.53.3.11.51.2,1.03.35,1.53,1.34,4.46,3.49,8.57,5.58,12.7.94,1.85,1.88,3.71,2.79,5.57.24.49.38,1.04.35,1.64-2.63-3.99-4.63-8.28-6.68-12.55-2.09-4.34-3.48-8.9-4.84-13.64-.31.79-.6,1.6-.95,2.38-.38.85-.74,1.72-1.22,2.52-1.29,2.14-2.91,3.99-4.88,5.56-.82.65-1.45,1.57-2.31,2.15-.89.6-1.98.87-2.93,1.39-1.98,1.07-3.93,2.2-5.9,3.3-.18.1-.39.13-.75.24.06-.4.03-.73.16-.96,1.26-2.08,1.77-4.5,2.91-6.59.81-1.49,1.38-3.24,2.93-4.3.61-.42,1.11-1.03,1.57-1.63.18-.24.18-.68.12-1.01-.02-.1-.57-.21-.81-.12-.88.35-1.61.81-2.7.3-.66-.31-1.67.65-2.52-.15-.11-.1-.49.07-.74.16-.7.24-1.41.99-2.02-.18-.05-.09-.67.08-1.01.18-.7.21-1.38.68-1.96-.27-.09-.15-.67-.11-.98,0-.96.31-1.7.29-1.79-.81-.88,0-1.9.31-2.4-.06-1.49-1.1-3.47-.73-4.87-1.77-1.85-1.38-4.11-1.26-6.14-1.94-.14-.05-.24-.19-.6-.48.65-.25,1.14-.56,1.65-.62,2.2-.25,4.02-1.5,6.04-2.23.64-.23,1.33-.32,1.96-.57,1.24-.49,2.34-1.43,3.81-1.06.49-1.06,1.72-.37,2.14-.72,1.38-1.16,2.96.38,4.33-.59.38-.26,1.36.33,2.12.54.24-.22.55-.5.89-.81-.11-.09-.2-.23-.33-.27-.61-.18-1.24-.31-1.85-.49-1.31-.39-1.36-.49-1.03-1.94-.55-.16-1.11-.33-1.66-.5q-1.36-.43-1-1.89c-1.16-.42-2.32-.85-3.62-1.32.33-.59.52-.94.78-1.42-.87-.31-1.67-.57-2.45-.87-1.43-.55-1.47-.73-.52-2-1.07-.62-2.13-1.24-3.36-1.95.57-.54.94-.89,1.41-1.34-.9-.55-1.83-1.03-2.65-1.65-.95-.71-.92-.85.13-1.93-.46-.35-.92-.67-1.35-1.03-.8-.67-1.8-1.23-1.45-2.57.04-.16-.12-.4-.24-.56-.7-.85-1.65-1.58-1.1-2.92.07-.18-.26-.54-.45-.79C3,37.41,1.5,35.41,0,33.42c0-.11,0-.21,0-.32Z"/>
    </g>
  </g>
</svg>