<?xml version="1.0" encoding="UTF-8"?>
<svg id="Ebene_2" data-name="Ebene 2" xmlns="http://www.w3.org/2000/svg" viewBox="0 0 98.44 99.21">
  <defs>
    <style>
      .cls-1 {
        fill: #fff;
        stroke-width: 0px;
      }
    </style>
  </defs>
  <g id="Ebene_1-2" data-name="Ebene 1">
    <g id="Sativa">
      <path class="cls-1" d="m7.25,50.99c1.09,1.16,2.23,2.39,3.89,2.82.09.02.21.14.22.23.14,1.27,1.31,1.3,2.12,1.76.37.21,1.03.39,1.06.63.11,1.14,1.08,1.1,1.76,1.45.38.2,1.1.27,1.15.5.29,1.39,1.58,1.06,2.38,1.55,1.4.84,2.68,1.89,4.38,2.11.04,0,.07.08.1.12,1.11,1.27,2.97,1.32,4.14,2.5.03.03.11.02.16.04.85.32,1.7.65,2.55.98,1.35.53,2.66,1.18,4.04,1.56,2.08.58,4.22.98,6.33,1.46,1.43.32,2.86.65,4.36,1-.13.09-.18.15-.21.14-6.34-1.02-12.67-.68-18.99.1-1.23.15-2.48.3-3.67.63-2.11.59-4.19,1.3-6.27,2-2.77.95-5.52,1.94-8.28,2.92-.06.02-.07.18-.11.28,2.22.15,4.43.32,6.65.44,1.24.07,2.48.06,3.72.09,1.74.04,3.49.03,5.23.12,1.14.06,2.21-.09,3.33-.34,1.32-.3,2.74-.13,4.1-.31,1.58-.21,3.14-.56,4.71-.89,1.1-.23,2.24-.41,3.28-.8,2.39-.91,4.73-1.94,7.1-2.91.36-.15.73-.24,1.1-.36-5.72,4.63-9.82,10.28-12.19,17.32,5.7-4.5,10.35-9.65,12.89-16.58,1.97,10.12,6.88,18.88,11.78,27.66.03-.71-.12-1.37-.41-1.96-1.46-2.93-3.08-5.78-4.4-8.77-1.69-3.83-3.18-7.75-4.68-11.67-.37-.97-.46-2.05-.67-3.08.12-.05.23-.1.35-.15,3.07,5.73,7.37,10.29,13.01,13.61-1.74-2.97-3.52-5.92-5.48-8.75-2-2.91-4.69-5.17-7.55-7.29.66.01,1.22.17,1.76.38,2.93,1.11,5.84,2.28,8.92,2.92,1.16.24,2.32.54,3.49.69,1.15.15,2.32.08,3.47.21,1.47.17,2.93.44,4.39.66.15.02.32-.03.48-.04,1.25-.11,2.5-.26,3.75-.31,1.56-.07,3.15.12,4.67-.13,2.37-.4,4.73-.68,7.14-.62.33,0,.66-.12,1.32-.26-.56-.28-.78-.43-1.02-.51-1.76-.56-3.52-1.11-5.28-1.65-1.04-.32-2.08-.62-3.12-.92-1.53-.45-3.05-.96-4.6-1.34-1.14-.28-2.32-.44-3.5-.59-1.06-.13-2.13-.14-3.2-.25-1.33-.14-2.66-.44-3.99-.45-2.22,0-4.44.17-6.66.26-.13,0-.26-.13-.72-.38,1.53-.34,2.76-.6,3.99-.88.58-.13,1.17-.23,1.73-.43.8-.29,1.56-.67,2.34-.99.4-.16.87-.18,1.23-.4,1.41-.88,3.32-.68,4.47-2.09.06-.07.2-.07.31-.09,1.7-.28,2.86-1.87,4.65-1.94.13,0,.34-.16.37-.29.25-.88,1.04-.82,1.7-1.04.66-.22,1.7-.35,1.86-.79.32-.89.97-.87,1.59-1.14.53-.23,1.39-.57,1.41-.9.05-.89.65-.87,1.17-1.09.69-.3,1.79-.49,1.97-.99.37-1.02,1.19-1.16,1.9-1.57.42-.25.9-.44,1.25-.77,1.86-1.71,3.67-3.49,5.93-4.7.72-.39,1.39-.87,2.06-1.34.27-.19.47-.47.96-.97-.64.12-.91.14-1.15.23-3.14,1.09-6.33,1.92-9.62,2.42-1.28.19-2.38.91-3.8.94-1.23.03-2.34,1.33-3.83,1.06-.2-.04-.47.25-.7.39-.33.19-.69.57-.99.53-2.06-.26-3.18,1.78-5.16,2-1.18.13-2.14,1.68-3.62,1.82-.19.02-.35.26-.54.36-.53.26-1.07.48-1.59.74-.48.24-.96.49-1.42.77-.73.44-1.47.87-2.17,1.36-1.5,1.04-2.96,2.12-4.45,3.17-.34.24-.73.41-1.24.69-.05-1.15.44-1.56,1.08-1.97.78-.49,1.92-.98,2.11-1.69.36-1.31,1.32-1.91,2.14-2.73.26-.26.69-.57.69-.85.01-.88.71-1.15,1.19-1.65.56-.58,1.48-1.21,1.48-1.83,0-.98.58-1.31,1.09-1.84.37-.38,1.03-.93.94-1.21-.36-1.12.47-1.39,1.04-1.94.57-.56,1.57-1.38,1.44-1.82-.32-1.08.38-1.32.88-1.82.5-.5.99-1.01,1.44-1.56.15-.18.27-.64.19-.7-.82-.61-.06-.88.24-1.24.42-.51.82-1.02,1.27-1.49.62-.64.42-1.19-.17-1.6.76-.96,1.45-1.8,2.09-2.69.2-.28.45-.81.33-1-.46-.73,0-1.16.39-1.57,1.5-1.61,1.35-3.96,2.57-5.69.03-.04.04-.11.03-.16-.27-1.08.41-1.87.83-2.74.78-1.56,1.58-3.11,2.35-4.68.18-.36.28-.75.41-1.13-.11-.07-.22-.15-.33-.22-1.46,1.66-2.91,3.33-4.38,4.99-.32.36-.66.72-1.02,1.03-1.36,1.2-2.73,2.38-4.1,3.57-.82.71-.91,2.24-2.46,2.17-.16,0-.36.38-.5.61-.39.65-.75,1.33-1.14,1.98-.13.22-.38.63-.46.6-1.33-.43-1.3.84-1.77,1.42-.34.41-.43,1.26-.8,1.38-1.58.49-1.69,1.95-2.32,3.08-.11.19-.16.51-.3.56-1.62.56-1.68,2.08-2.18,3.35-.13.33-.52.56-.8.82-.19.18-.48.29-.58.51-.59,1.27-1.3,2.42-2.19,3.54-1.04,1.31-1.68,2.99-2.28,4.58-.72,1.91-2.34,3.43-2.4,5.61,0,.1-.06.25-.14.29-1.08.48-1.06,1.58-1.38,2.46-.53,1.43-.97,2.89-1.45,4.34-.52,1.54-1.05,3.08-1.57,4.63.4-2.83,1-5.59,1.79-8.29.67-2.28.71-4.72,1.86-6.86.14-.27.27-.73.14-.93-.6-.93-.12-1.78.07-2.66.14-.64.48-1.34.33-1.91-.31-1.1.1-2.03.29-3.03.13-.68.41-1.51.15-2.04-.39-.8-.24-1.44-.06-2.18.15-.62.45-1.52.17-1.86-.71-.83-.26-1.5-.12-2.28.16-.89.46-1.96.12-2.68-.36-.76-.28-1.3-.12-1.98.18-.8.36-1.6.47-2.41.04-.28-.05-.8-.19-.85-.9-.28-.56-.91-.47-1.46.1-.65.24-1.28.34-1.93.12-.78.04-1.44-1-1.33.14-1.27.29-2.4.38-3.53.03-.42.04-1.15-.15-1.22-1.05-.42-.58-1.24-.65-1.92-.25-2.19-.51-4.37-.77-6.56-.01-.11-.04-.23-.1-.31-.84-1.02-.71-2.24-.78-3.43-.11-1.79-.24-3.59-.39-5.38-.04-.43-.21-.84-.41-1.6-.21.55-.28.7-.32.85-.78,3.31-.77,6.74-2,10.01-.74,1.96-1.27,4.14-.97,6.36.03.22-.15.68-.22.68-1.08-.04-.72.78-.74,1.27-.03.92.07,1.85.09,2.78,0,.24-.1.69-.16.7-.98.02-.74.73-.8,1.29-.12,1.21.64,2.52-.48,3.61-.1.1,0,.42.03.64.08.92.18,1.84.26,2.76.03.32.16.79,0,.94-1.12,1.08-.33,2.23-.21,3.36.06.52.32,1.22.09,1.54-.62.84-.35,1.66-.28,2.51.04.49.31,1.04.16,1.44-.93,2.43.29,4.78.23,7.19-.05,2.19-.26,4.57.87,6.68.05.09.08.23.04.32-.62,1.5.12,2.87.37,4.29.16.89.31,1.77.47,2.66-.48-.97-.66-1.99-.95-2.98-.25-.87-.61-1.72-.95-2.56-.19-.47-.5-.9-.64-1.38-.25-.88-.16-2-.68-2.64-.7-.87-.91-1.81-1.21-2.78-.13-.41-.33-.8-.5-1.2-.29-.68-.61-1.35-.88-2.03-.3-.75-.36-1.79-.9-2.21-.84-.65-1-1.48-1.36-2.31-.3-.69-.25-1.69-1.4-1.77-.14-.01-.27-.53-.36-.82-.23-.78-.4-1.59-.66-2.36-.12-.33-.46-.88-.63-.85-.86.13-.81-.51-.99-.98-.28-.77-.51-1.56-.86-2.3-.16-.35-.52-.85-.81-.87-.71-.03-.73-.52-.91-.96-.23-.55-.47-1.11-.74-1.64-.46-.91-.48-.91-1.61-.75-.4-.93-.77-1.9-1.22-2.82-.18-.38-.58-.99-.78-.96-1.09.2-1.31-.65-1.59-1.27-.88-1.92-2.81-2.95-3.9-4.69-.03-.04-.07-.09-.12-.11-1.37-.44-1.88-1.72-2.67-2.73-.91-1.16-1.78-2.34-2.7-3.5-.24-.31-.58-.54-.88-.81-.1.06-.21.12-.31.18.3.85.62,1.69.89,2.55.72,2.35,2.5,4.36,2.23,7.02-.02.24.17.51.28.76.34.73.7,1.41.54,2.32-.09.5.34,1.12.61,1.65.33.63.76,1.2,1.1,1.82.1.17.09.61,0,.64-.85.34-.3.85-.1,1.18.67,1.11,1.42,2.17,2.19,3.33-.29.16-.59.33-1.09.6.85,1.15,1.64,2.23,2.47,3.36-.59.36-.91.76-.31,1.39.68.71,1.33,1.45,1.94,2.21.19.24.4.81.32.88-.63.51-.18.9.11,1.25.52.62,1.12,1.18,1.66,1.79.24.27.66.74.59.86-.76,1.19.35,1.62.86,2.29.35.45,1.03,1.08.91,1.38-.35.94.3,1.32.71,1.83.51.63,1.42,1.11,1.62,1.8.37,1.32,1.32,2.08,2.13,3,.27.31.64.75.6,1.07-.12.85.45,1.17.94,1.57.72.59,1.8.99,2.12,1.73.55,1.29,1.61,2.03,2.47,2.97,1.45,1.59,2.99,3.1,4.49,4.64-1.7-1.2-3.2-2.61-4.77-3.92-.76-.63-1.94-.9-2.46-1.65-1.15-1.67-3.05-2.21-4.52-3.37-1.82-1.43-3.88-2.66-6.02-3.55-1.26-.53-2.33-1.18-3.38-1.97-.16-.12-.41-.11-.61-.19-.58-.23-1.16-.44-1.72-.7-1.58-.72-3.14-1.47-4.72-2.19-.13-.06-.36-.05-.46.03-.62.53-.98-.06-1.44-.28-.68-.33-1.45-1.05-2.01-.91-.97.24-1.55-.27-2.29-.52-.61-.2-1.23-.36-1.85-.52-1.67-.41-3.35-.75-5-1.23-1.55-.45-3.05-1.03-4.79-1.63.16.42.17.6.27.68,2.28,1.81,4.95,3.09,6.98,5.26Z"/>
    </g>
  </g>
</svg>