{
	"asset":{
		"generator":"Khronos glTF Blender I/O v4.2.57",
		"version":"2.0"
	},
	"extensionsUsed":[
		"KHR_materials_transmission",
		"KHR_materials_ior"
	],
	"scene":0,
	"scenes":[
		{
			"name":"Scene",
			"nodes":[
				0
			]
		}
	],
	"nodes":[
		{
			"mesh":0,
			"name":"Vape_V2",
			"scale":[
				0.4798952341079712,
				0.4798952341079712,
				0.4798952341079712
			],
			"translation":[
				0,
				0.5178947448730469,
				0
			]
		}
	],
	"materials":[
		{
			"doubleSided":true,
			"name":"Plastik_schwarz",
			"pbrMetallicRoughness":{
				"baseColorFactor":[
					0.011341828852891922,
					0.011341828852891922,
					0.011341828852891922,
					1
				],
				"metallicFactor":0,
				"roughnessFactor":0.2295454740524292
			}
		},
		{
			"alphaMode":"BLEND",
			"doubleSided":true,
			"extensions":{
				"KHR_materials_transmission":{
					"transmissionFactor":1
				},
				"KHR_materials_ior":{
					"ior":1.4600000381469727
				}
			},
			"name":"Plastik_transparent",
			"pbrMetallicRoughness":{
				"baseColorFactor":[
					1,
					1,
					1,
					0.936781644821167
				],
				"metallicFactor":0,
				"roughnessFactor":0.04597701132297516
			}
		},
		{
			"doubleSided":true,
			"name":"Plastik_schwarz_glatt",
			"pbrMetallicRoughness":{
				"baseColorFactor":[
					0,
					0,
					0,
					1
				],
				"metallicFactor":0,
				"roughnessFactor":0.0827067643404007
			}
		},
		{
			"doubleSided":true,
			"name":"Plastik_schwarz_rau",
			"pbrMetallicRoughness":{
				"baseColorFactor":[
					0.003772951662540436,
					0.003772951662540436,
					0.003772951662540436,
					1
				],
				"metallicFactor":0
			}
		},
		{
			"doubleSided":true,
			"name":"Metall",
			"pbrMetallicRoughness":{
				"baseColorFactor":[
					0.800000011920929,
					0.800000011920929,
					0.800000011920929,
					1
				],
				"roughnessFactor":0.12272727489471436
			}
		},
		{
			"doubleSided":true,
			"extensions":{
				"KHR_materials_transmission":{
					"transmissionFactor":0.9285714030265808
				},
				"KHR_materials_ior":{
					"ior":1.4500000476837158
				}
			},
			"name":"Liquid",
			"pbrMetallicRoughness":{
				"baseColorFactor":[
					0.8000315427780151,
					0.4534929394721985,
					0.1565074920654297,
					1
				],
				"metallicFactor":0,
				"roughnessFactor":0
			}
		}
	],
	"meshes":[
		{
			"name":"Cube.002",
			"primitives":[
				{
					"attributes":{
						"POSITION":0,
						"NORMAL":1,
						"TEXCOORD_0":2
					},
					"indices":3,
					"material":0
				},
				{
					"attributes":{
						"POSITION":4,
						"NORMAL":5,
						"TEXCOORD_0":6
					},
					"indices":7,
					"material":1
				},
				{
					"attributes":{
						"POSITION":8,
						"NORMAL":9,
						"TEXCOORD_0":10
					},
					"indices":11,
					"material":2
				},
				{
					"attributes":{
						"POSITION":12,
						"NORMAL":13,
						"TEXCOORD_0":14
					},
					"indices":15,
					"material":3
				},
				{
					"attributes":{
						"POSITION":16,
						"NORMAL":17,
						"TEXCOORD_0":18
					},
					"indices":19,
					"material":4
				},
				{
					"attributes":{
						"POSITION":20,
						"NORMAL":21,
						"TEXCOORD_0":22
					},
					"indices":23,
					"material":5
				}
			]
		}
	],
	"accessors":[
		{
			"bufferView":0,
			"componentType":5126,
			"count":25194,
			"max":[
				4.899405002593994,
				20.00320053100586,
				1.944662094116211
			],
			"min":[
				-4.899405002593994,
				-28.171518325805664,
				-1.944662094116211
			],
			"type":"VEC3"
		},
		{
			"bufferView":1,
			"componentType":5126,
			"count":25194,
			"type":"VEC3"
		},
		{
			"bufferView":2,
			"componentType":5126,
			"count":25194,
			"type":"VEC2"
		},
		{
			"bufferView":3,
			"componentType":5123,
			"count":133332,
			"type":"SCALAR"
		},
		{
			"bufferView":4,
			"componentType":5126,
			"count":13128,
			"max":[
				4.8993940353393555,
				19.977075576782227,
				1.9445984363555908
			],
			"min":[
				-4.8993940353393555,
				7.463636875152588,
				-1.9445984363555908
			],
			"type":"VEC3"
		},
		{
			"bufferView":5,
			"componentType":5126,
			"count":13128,
			"type":"VEC3"
		},
		{
			"bufferView":6,
			"componentType":5126,
			"count":13128,
			"type":"VEC2"
		},
		{
			"bufferView":7,
			"componentType":5123,
			"count":70176,
			"type":"SCALAR"
		},
		{
			"bufferView":8,
			"componentType":5126,
			"count":13387,
			"max":[
				4.8993940353393555,
				28.262226104736328,
				1.935636281967163
			],
			"min":[
				-4.8993940353393555,
				20.0031795501709,
				-1.935636281967163
			],
			"type":"VEC3"
		},
		{
			"bufferView":9,
			"componentType":5126,
			"count":13387,
			"type":"VEC3"
		},
		{
			"bufferView":10,
			"componentType":5126,
			"count":13387,
			"type":"VEC2"
		},
		{
			"bufferView":11,
			"componentType":5123,
			"count":77952,
			"type":"SCALAR"
		},
		{
			"bufferView":12,
			"componentType":5126,
			"count":9755,
			"max":[
				1.8256666660308838,
				-1.8973078727722168,
				-1.1321158409118652
			],
			"min":[
				-1.8256666660308838,
				-5.548641681671143,
				-2.0101158618927
			],
			"type":"VEC3"
		},
		{
			"bufferView":13,
			"componentType":5126,
			"count":9755,
			"type":"VEC3"
		},
		{
			"bufferView":14,
			"componentType":5126,
			"count":9755,
			"type":"VEC2"
		},
		{
			"bufferView":15,
			"componentType":5123,
			"count":55296,
			"type":"SCALAR"
		},
		{
			"bufferView":16,
			"componentType":5126,
			"count":16518,
			"max":[
				0.48993930220603943,
				16.172386169433594,
				0.532722532749176
			],
			"min":[
				-4.931650638580322,
				-5.722370624542236,
				-0.5321412086486816
			],
			"type":"VEC3"
		},
		{
			"bufferView":17,
			"componentType":5126,
			"count":16518,
			"type":"VEC3"
		},
		{
			"bufferView":18,
			"componentType":5126,
			"count":16518,
			"type":"VEC2"
		},
		{
			"bufferView":19,
			"componentType":5123,
			"count":90804,
			"type":"SCALAR"
		},
		{
			"bufferView":20,
			"componentType":5126,
			"count":3210,
			"max":[
				3.919515371322632,
				12.185075759887695,
				1.555728793144226
			],
			"min":[
				-3.919515371322632,
				-4.531310081481934,
				-1.555728793144226
			],
			"type":"VEC3"
		},
		{
			"bufferView":21,
			"componentType":5126,
			"count":3210,
			"type":"VEC3"
		},
		{
			"bufferView":22,
			"componentType":5126,
			"count":3210,
			"type":"VEC2"
		},
		{
			"bufferView":23,
			"componentType":5123,
			"count":16128,
			"type":"SCALAR"
		}
	],
	"bufferViews":[
		{
			"buffer":0,
			"byteLength":302328,
			"byteOffset":0,
			"target":34962
		},
		{
			"buffer":0,
			"byteLength":302328,
			"byteOffset":302328,
			"target":34962
		},
		{
			"buffer":0,
			"byteLength":201552,
			"byteOffset":604656,
			"target":34962
		},
		{
			"buffer":0,
			"byteLength":266664,
			"byteOffset":806208,
			"target":34963
		},
		{
			"buffer":0,
			"byteLength":157536,
			"byteOffset":1072872,
			"target":34962
		},
		{
			"buffer":0,
			"byteLength":157536,
			"byteOffset":1230408,
			"target":34962
		},
		{
			"buffer":0,
			"byteLength":105024,
			"byteOffset":1387944,
			"target":34962
		},
		{
			"buffer":0,
			"byteLength":140352,
			"byteOffset":1492968,
			"target":34963
		},
		{
			"buffer":0,
			"byteLength":160644,
			"byteOffset":1633320,
			"target":34962
		},
		{
			"buffer":0,
			"byteLength":160644,
			"byteOffset":1793964,
			"target":34962
		},
		{
			"buffer":0,
			"byteLength":107096,
			"byteOffset":1954608,
			"target":34962
		},
		{
			"buffer":0,
			"byteLength":155904,
			"byteOffset":2061704,
			"target":34963
		},
		{
			"buffer":0,
			"byteLength":117060,
			"byteOffset":2217608,
			"target":34962
		},
		{
			"buffer":0,
			"byteLength":117060,
			"byteOffset":2334668,
			"target":34962
		},
		{
			"buffer":0,
			"byteLength":78040,
			"byteOffset":2451728,
			"target":34962
		},
		{
			"buffer":0,
			"byteLength":110592,
			"byteOffset":2529768,
			"target":34963
		},
		{
			"buffer":0,
			"byteLength":198216,
			"byteOffset":2640360,
			"target":34962
		},
		{
			"buffer":0,
			"byteLength":198216,
			"byteOffset":2838576,
			"target":34962
		},
		{
			"buffer":0,
			"byteLength":132144,
			"byteOffset":3036792,
			"target":34962
		},
		{
			"buffer":0,
			"byteLength":181608,
			"byteOffset":3168936,
			"target":34963
		},
		{
			"buffer":0,
			"byteLength":38520,
			"byteOffset":3350544,
			"target":34962
		},
		{
			"buffer":0,
			"byteLength":38520,
			"byteOffset":3389064,
			"target":34962
		},
		{
			"buffer":0,
			"byteLength":25680,
			"byteOffset":3427584,
			"target":34962
		},
		{
			"buffer":0,
			"byteLength":32256,
			"byteOffset":3453264,
			"target":34963
		}
	],
	"buffers":[
		{
			"byteLength":3485520,
			"uri":"scene.bin"
		}
	]
}
